<?xml version="1.0" encoding="UTF-8"?>
<svg id="Layer_2" data-name="Layer 2" xmlns="http://www.w3.org/2000/svg" viewBox="0 0 1000 1000">
  <defs>
    <style>
      .cls-1 {
        fill: #ffc334;
      }

      .cls-1, .cls-2, .cls-3, .cls-4, .cls-5, .cls-6, .cls-7, .cls-8, .cls-9, .cls-10 {
        stroke-width: 0px;
      }

      .cls-2 {
        fill: #016d55;
      }

      .cls-3 {
        fill: #daf404;
      }

      .cls-4 {
        fill: #060617;
      }

      .cls-5 {
        fill: #82dc01;
      }

      .cls-6 {
        fill: #fef5ab;
      }

      .cls-7 {
        fill: #30b547;
      }

      .cls-8 {
        fill: #fff;
      }

      .cls-9 {
        fill: #602e27;
      }

      .cls-10 {
        fill: #e5841c;
      }
    </style>
  </defs>
  <g id="Layer_1-2" data-name="Layer 1">
    <g id="COIN">
      <g>
        <polygon class="cls-2" points="620 340 620 380 580 380 580 400 560 400 560 420 500 420 500 460 520 460 520 440 580 440 580 420 600 420 600 400 640 400 640 340 620 340"/>
        <polygon class="cls-2" points="460 420 440 420 440 440 480 440 480 400 460 400 460 420"/>
      </g>
      <g>
        <rect class="cls-5" x="580" y="340" width="20" height="20"/>
        <rect class="cls-5" x="560" y="360" width="20" height="20"/>
        <rect class="cls-5" x="540" y="380" width="20" height="20"/>
        <rect class="cls-5" x="500" y="400" width="20" height="20"/>
        <rect class="cls-5" x="480" y="440" width="20" height="120"/>
        <rect class="cls-5" x="420" y="360" width="60" height="40"/>
        <rect class="cls-5" x="400" y="340" width="20" height="20"/>
      </g>
      <g>
        <polygon class="cls-7" points="600 320 600 360 580 360 580 380 620 380 620 340 640 340 640 320 600 320"/>
        <rect class="cls-7" x="560" y="380" width="20" height="20"/>
        <rect class="cls-7" x="560" y="320" width="20" height="20"/>
        <rect class="cls-7" x="520" y="340" width="40" height="20"/>
        <rect class="cls-7" x="520" y="400" width="40" height="20"/>
        <rect class="cls-7" x="480" y="560" width="20" height="60"/>
        <rect class="cls-7" x="460" y="340" width="20" height="20"/>
        <rect class="cls-7" x="420" y="320" width="40" height="20"/>
        <polygon class="cls-7" points="420 400 420 360 400 360 400 320 380 320 380 400 400 400 400 420 460 420 460 400 420 400"/>
      </g>
      <g>
        <rect class="cls-3" x="600" y="300" width="40" height="20"/>
        <rect class="cls-3" x="580" y="320" width="20" height="20"/>
        <rect class="cls-3" x="560" y="340" width="20" height="20"/>
        <polygon class="cls-3" points="520 360 520 400 540 400 540 380 560 380 560 360 520 360"/>
        <rect class="cls-3" x="480" y="420" width="20" height="20"/>
        <rect class="cls-3" x="420" y="340" width="40" height="20"/>
        <rect class="cls-3" x="400" y="320" width="20" height="20"/>
        <rect class="cls-3" x="380" y="300" width="20" height="20"/>
      </g>
      <g>
        <rect class="cls-8" x="720" y="220" width="20" height="20"/>
        <polygon class="cls-8" points="720 180 660 180 660 200 700 200 700 220 720 220 720 180"/>
        <rect class="cls-8" x="640" y="160" width="20" height="20"/>
        <rect class="cls-8" x="400" y="60" width="220" height="20"/>
        <rect class="cls-8" x="260" y="80" width="20" height="20"/>
        <rect class="cls-8" x="240" y="100" width="20" height="20"/>
        <rect class="cls-8" x="220" y="120" width="20" height="20"/>
        <rect class="cls-8" x="200" y="140" width="20" height="20"/>
        <rect class="cls-8" x="180" y="160" width="20" height="20"/>
        <rect class="cls-8" x="160" y="180" width="20" height="20"/>
        <rect class="cls-8" x="140" y="200" width="20" height="20"/>
        <rect class="cls-8" x="120" y="220" width="20" height="20"/>
      </g>
      <g>
        <polygon class="cls-6" points="880 600 860 600 860 620 840 620 840 680 860 680 860 660 880 660 880 640 900 640 900 580 880 580 880 600"/>
        <polygon class="cls-6" points="880 320 880 300 860 300 860 240 820 240 820 280 840 280 840 320 860 320 860 340 880 340 880 420 900 420 900 320 880 320"/>
        <rect class="cls-6" x="820" y="680" width="20" height="40"/>
        <rect class="cls-6" x="800" y="720" width="20" height="20"/>
        <polygon class="cls-6" points="820 200 800 200 800 160 760 160 760 140 720 140 720 120 680 120 680 80 340 80 340 120 260 120 260 140 240 140 240 160 220 160 220 200 200 200 200 220 180 220 180 240 140 240 140 300 120 300 120 340 100 340 100 620 120 620 120 660 140 660 140 700 180 700 180 680 160 680 160 640 140 640 140 600 120 600 120 380 140 380 140 320 160 320 160 260 200 260 200 240 220 240 220 220 240 220 240 200 260 200 260 180 280 180 280 160 320 160 320 140 360 140 360 120 380 120 380 100 620 100 620 120 660 120 660 140 700 140 700 160 740 160 740 200 780 200 780 240 820 240 820 200"/>
        <rect class="cls-6" x="780" y="740" width="20" height="20"/>
        <polygon class="cls-6" points="760 780 740 780 740 800 780 800 780 760 760 760 760 780"/>
        <polygon class="cls-6" points="700 800 700 820 660 820 660 840 620 840 620 860 580 860 580 880 560 880 560 900 440 900 440 880 380 880 380 860 360 860 360 840 320 840 320 860 340 860 340 880 360 880 360 900 420 900 420 920 580 920 580 900 600 900 600 880 640 880 640 860 680 860 680 840 720 840 720 820 740 820 740 800 700 800"/>
        <rect class="cls-6" x="700" y="680" width="20" height="60"/>
        <polygon class="cls-6" points="640 660 640 740 660 740 660 680 700 680 700 660 640 660"/>
        <rect class="cls-6" x="620" y="420" width="20" height="20"/>
        <polygon class="cls-6" points="580 680 620 680 620 660 560 660 560 740 620 740 620 720 580 720 580 680"/>
        <polygon class="cls-6" points="500 680 540 680 540 660 480 660 480 740 540 740 540 720 500 720 500 680"/>
        <rect class="cls-6" x="420" y="720" width="20" height="20"/>
        <rect class="cls-6" x="400" y="700" width="20" height="20"/>
        <polygon class="cls-6" points="460 680 460 660 380 660 380 700 400 700 400 680 460 680"/>
        <rect class="cls-6" x="280" y="820" width="40" height="20"/>
        <polygon class="cls-6" points="360 680 360 660 340 660 340 620 320 620 320 660 280 660 280 720 360 720 360 700 300 700 300 680 360 680"/>
        <rect class="cls-6" x="260" y="800" width="20" height="20"/>
        <path class="cls-6" d="M260,360v20h-20v20h-20v20h-20v60h-40v60h40v-20h40v-40h40v-20h80v-20h20v-20h-20v-160h60v40h40v20h20v20h40v-20h20v-40h60v-20h40v20h20v120h-20v20h40v-20h20v-20h20v-40h20v-20h20v-80h-40v-20h-20v-20h-40v-20h-20v-20h-20v-20h-200v20h-20v20h-40v40h-40v60h-20v-20h-20v-20h-20v100h20v20h-20ZM560,220h-40v-40h40v40ZM680,220v20h-40v-20h40Z"/>
        <rect class="cls-6" x="240" y="780" width="20" height="20"/>
        <polygon class="cls-6" points="240 740 220 740 220 720 180 720 180 740 200 740 200 760 220 760 220 780 240 780 240 740"/>
        <rect class="cls-6" x="100" y="240" width="20" height="40"/>
      </g>
      <g>
        <polygon class="cls-1" points="900 640 880 640 880 660 860 660 860 680 840 680 840 720 860 720 860 700 880 700 880 680 900 680 900 660 920 660 920 340 900 340 900 640"/>
        <polygon class="cls-1" points="900 260 900 240 880 240 880 220 860 220 860 200 840 200 840 180 820 180 820 160 800 160 800 200 820 200 820 240 860 240 860 300 880 300 880 320 900 320 900 280 920 280 920 260 900 260"/>
        <rect class="cls-1" x="820" y="720" width="20" height="20"/>
        <rect class="cls-1" x="800" y="740" width="20" height="20"/>
        <rect class="cls-1" x="800" y="240" width="20" height="20"/>
        <rect class="cls-1" x="780" y="760" width="20" height="20"/>
        <polygon class="cls-1" points="800 340 800 320 740 320 740 340 720 340 720 380 700 380 700 400 680 400 680 420 640 420 640 440 580 440 580 460 520 460 520 540 580 540 580 520 620 520 620 500 640 500 640 480 660 480 660 460 680 460 680 440 700 440 700 420 740 420 740 400 760 400 760 340 800 340"/>
        <polygon class="cls-1" points="780 140 780 120 760 120 760 100 740 100 740 80 700 80 700 60 660 60 660 40 360 40 360 60 320 60 320 80 400 80 400 60 620 60 620 80 680 80 680 120 720 120 720 140 760 140 760 160 800 160 800 140 780 140"/>
        <rect class="cls-1" x="740" y="800" width="20" height="20"/>
        <rect class="cls-1" x="740" y="200" width="40" height="20"/>
        <rect class="cls-1" x="720" y="820" width="20" height="20"/>
        <rect class="cls-1" x="720" y="160" width="20" height="20"/>
        <rect class="cls-1" x="700" y="740" width="20" height="20"/>
        <rect class="cls-1" x="680" y="840" width="40" height="20"/>
        <rect class="cls-1" x="680" y="140" width="20" height="20"/>
        <polygon class="cls-1" points="640 860 640 880 600 880 600 900 580 900 580 920 660 920 660 880 680 880 680 860 640 860"/>
        <polygon class="cls-1" points="640 740 640 780 700 780 700 760 660 760 660 740 640 740"/>
        <rect class="cls-1" x="640" y="220" width="40" height="20"/>
        <rect class="cls-1" x="640" y="120" width="20" height="20"/>
        <polygon class="cls-1" points="560 740 560 780 620 780 620 760 580 760 580 740 560 740"/>
        <rect class="cls-1" x="520" y="180" width="40" height="40"/>
        <polygon class="cls-1" points="500 760 500 740 480 740 480 780 540 780 540 760 500 760"/>
        <polygon class="cls-1" points="440 760 380 760 380 780 460 780 460 740 440 740 440 760"/>
        <path class="cls-1" d="M440,440h-80v20h-80v20h-40v40h-40v20h-40v40h20v20h20v-20h20v-20h20v40h80v-20h20v-20h40v20h20v20h20v-20h20v-20h20v-100h-20v-20ZM260,580v-40h40v40h-40Z"/>
        <polygon class="cls-1" points="360 900 360 880 340 880 340 860 320 860 320 840 280 840 280 860 300 860 300 880 320 880 320 920 420 920 420 900 360 900"/>
        <polygon class="cls-1" points="320 800 340 800 340 760 360 760 360 720 340 720 340 740 280 740 280 760 320 760 320 800"/>
        <g>
          <polygon class="cls-8" points="380 140 380 160 340 160 340 180 320 180 320 200 280 200 280 220 260 220 260 240 280 240 280 260 300 260 300 280 320 280 320 220 360 220 360 180 400 180 400 160 420 160 420 140 380 140"/>
          <polygon class="cls-8" points="240 320 220 320 220 340 200 340 200 380 220 380 220 360 240 360 240 340 260 340 260 240 240 240 240 320"/>
        </g>
        <rect class="cls-1" x="260" y="820" width="20" height="20"/>
        <rect class="cls-1" x="240" y="800" width="20" height="20"/>
        <rect class="cls-1" x="220" y="780" width="20" height="20"/>
        <polygon class="cls-1" points="220 380 200 380 200 420 220 420 220 400 240 400 240 380 260 380 260 360 280 360 280 340 240 340 240 360 220 360 220 380"/>
        <rect class="cls-1" x="200" y="760" width="20" height="20"/>
        <rect class="cls-1" x="200" y="180" width="20" height="20"/>
        <rect class="cls-1" x="180" y="740" width="20" height="20"/>
        <rect class="cls-1" x="180" y="200" width="20" height="20"/>
        <polygon class="cls-1" points="180 700 140 700 140 720 160 720 160 740 180 740 180 700"/>
        <rect class="cls-1" x="160" y="220" width="20" height="20"/>
        <rect class="cls-1" x="140" y="600" width="20" height="40"/>
        <polygon class="cls-1" points="140 660 120 660 120 620 100 620 100 340 120 340 120 320 80 320 80 680 100 680 100 700 140 700 140 660"/>
      </g>
      <g>
        <polygon class="cls-10" points="900 280 900 340 920 340 920 600 940 600 940 280 900 280"/>
        <rect class="cls-10" x="880" y="740" width="20" height="20"/>
        <rect class="cls-10" x="880" y="680" width="20" height="20"/>
        <rect class="cls-10" x="860" y="760" width="20" height="20"/>
        <rect class="cls-10" x="860" y="700" width="20" height="20"/>
        <rect class="cls-10" x="860" y="340" width="20" height="40"/>
        <rect class="cls-10" x="840" y="780" width="20" height="20"/>
        <rect class="cls-10" x="840" y="720" width="20" height="20"/>
        <rect class="cls-10" x="820" y="800" width="20" height="20"/>
        <rect class="cls-10" x="820" y="740" width="20" height="20"/>
        <rect class="cls-10" x="800" y="820" width="20" height="20"/>
        <rect class="cls-10" x="800" y="760" width="20" height="20"/>
        <rect class="cls-10" x="780" y="840" width="20" height="20"/>
        <rect class="cls-10" x="780" y="780" width="20" height="20"/>
        <rect class="cls-10" x="760" y="860" width="20" height="20"/>
        <rect class="cls-10" x="760" y="800" width="20" height="20"/>
        <rect class="cls-10" x="740" y="880" width="20" height="20"/>
        <rect class="cls-10" x="740" y="820" width="20" height="20"/>
        <rect class="cls-10" x="720" y="900" width="20" height="20"/>
        <rect class="cls-10" x="720" y="840" width="20" height="20"/>
        <polygon class="cls-10" points="680 860 680 880 660 880 660 920 680 920 680 900 700 900 700 880 720 880 720 860 680 860"/>
        <polygon class="cls-10" points="340 920 340 940 360 940 360 960 640 960 640 940 660 940 660 920 340 920"/>
        <polygon class="cls-10" points="580 560 580 580 680 580 680 600 720 600 720 620 760 620 760 640 800 640 800 660 820 660 820 600 840 600 840 580 860 580 860 560 880 560 880 500 860 500 860 520 840 520 840 540 820 540 820 560 800 560 800 580 780 580 780 600 760 600 760 580 780 580 780 560 800 560 800 540 820 540 820 520 840 520 840 500 860 500 860 480 880 480 880 440 860 440 860 420 840 420 840 360 820 360 820 300 780 300 780 260 760 260 760 320 800 320 800 340 760 340 760 400 740 400 740 420 700 420 700 440 680 440 680 460 660 460 660 480 640 480 640 500 620 500 620 520 580 520 580 540 520 540 520 560 580 560"/>
        <polygon class="cls-10" points="440 880 440 900 560 900 560 880 580 880 580 860 380 860 380 880 440 880"/>
        <rect class="cls-10" x="300" y="880" width="20" height="20"/>
        <polygon class="cls-10" points="340 120 340 80 280 80 280 100 260 100 260 120 340 120"/>
        <rect class="cls-10" x="280" y="860" width="20" height="20"/>
        <rect class="cls-10" x="260" y="900" width="20" height="20"/>
        <rect class="cls-10" x="260" y="840" width="20" height="20"/>
        <rect class="cls-10" x="260" y="540" width="40" height="40"/>
        <rect class="cls-10" x="240" y="880" width="20" height="20"/>
        <rect class="cls-10" x="240" y="820" width="20" height="20"/>
        <rect class="cls-10" x="240" y="120" width="20" height="20"/>
        <rect class="cls-10" x="220" y="860" width="20" height="20"/>
        <rect class="cls-10" x="220" y="800" width="20" height="20"/>
        <rect class="cls-10" x="220" y="140" width="20" height="20"/>
        <rect class="cls-10" x="200" y="840" width="20" height="20"/>
        <rect class="cls-10" x="200" y="780" width="20" height="20"/>
        <polygon class="cls-10" points="220 660 220 640 240 640 240 620 260 620 260 600 240 600 240 560 220 560 220 580 200 580 200 600 180 600 180 660 220 660"/>
        <rect class="cls-10" x="200" y="160" width="20" height="20"/>
        <rect class="cls-10" x="180" y="820" width="20" height="20"/>
        <rect class="cls-10" x="180" y="760" width="20" height="20"/>
        <polygon class="cls-10" points="200 480 200 340 220 340 220 320 240 320 240 260 220 260 220 300 180 300 180 360 160 360 160 480 200 480"/>
        <rect class="cls-10" x="160" y="260" width="40" height="20"/>
        <rect class="cls-10" x="180" y="180" width="20" height="20"/>
        <rect class="cls-10" x="160" y="800" width="20" height="20"/>
        <rect class="cls-10" x="160" y="740" width="20" height="20"/>
        <rect class="cls-10" x="160" y="200" width="20" height="20"/>
        <rect class="cls-10" x="140" y="780" width="20" height="20"/>
        <rect class="cls-10" x="140" y="720" width="20" height="20"/>
        <rect class="cls-10" x="140" y="320" width="20" height="20"/>
        <rect class="cls-10" x="140" y="220" width="20" height="20"/>
        <rect class="cls-10" x="120" y="760" width="20" height="20"/>
        <rect class="cls-10" x="120" y="380" width="20" height="220"/>
        <polygon class="cls-10" points="120 280 100 280 100 300 140 300 140 240 120 240 120 280"/>
        <rect class="cls-10" x="100" y="740" width="20" height="20"/>
        <rect class="cls-10" x="80" y="240" width="20" height="40"/>
        <polygon class="cls-10" points="80 280 60 280 60 420 40 420 40 540 60 540 60 700 80 700 80 720 140 720 140 700 100 700 100 680 80 680 80 320 100 320 100 300 80 300 80 280"/>
      </g>
      <g>
        <polygon class="cls-9" points="960 400 960 360 940 360 940 600 960 600 960 560 980 560 980 400 960 400"/>
        <polygon class="cls-9" points="920 660 900 660 900 700 880 700 880 720 860 720 860 740 840 740 840 760 820 760 820 780 800 780 800 800 780 800 780 820 760 820 760 840 740 840 740 860 720 860 720 880 700 880 700 900 680 900 680 920 660 920 660 940 640 940 640 960 360 960 360 940 340 940 340 920 320 920 320 900 300 900 300 880 280 880 280 860 260 860 260 840 240 840 240 820 220 820 220 800 200 800 200 780 180 780 180 760 160 760 160 740 140 740 140 720 100 720 100 740 120 740 120 760 140 760 140 780 160 780 160 800 180 800 180 820 200 820 200 840 220 840 220 860 240 860 240 880 260 880 260 900 280 900 280 920 300 920 300 940 320 940 320 960 340 960 340 980 660 980 660 960 680 960 680 940 700 940 700 920 720 920 720 900 740 900 740 880 760 880 760 860 780 860 780 840 800 840 800 820 820 820 820 800 840 800 840 780 860 780 860 760 880 760 880 740 900 740 900 720 920 720 920 680 940 680 940 600 920 600 920 660"/>
        <rect class="cls-9" x="840" y="500" width="20" height="20"/>
        <rect class="cls-9" x="820" y="520" width="20" height="20"/>
        <rect class="cls-9" x="800" y="540" width="20" height="20"/>
        <rect class="cls-9" x="780" y="560" width="20" height="20"/>
        <rect class="cls-9" x="760" y="580" width="20" height="20"/>
        <polygon class="cls-9" points="760 240 760 260 780 260 780 300 820 300 820 360 840 360 840 420 860 420 860 440 880 440 880 480 860 480 860 500 880 500 880 560 860 560 860 580 840 580 840 600 820 600 820 680 840 680 840 620 860 620 860 600 880 600 880 580 900 580 900 420 880 420 880 380 860 380 860 320 840 320 840 280 820 280 820 260 800 260 800 240 780 240 780 220 740 220 740 240 760 240"/>
        <polygon class="cls-9" points="740 780 760 780 760 760 780 760 780 740 800 740 800 720 820 720 820 700 800 700 800 660 760 660 760 640 740 640 740 700 780 700 780 720 760 720 760 740 740 740 740 760 720 760 720 800 740 800 740 780"/>
        <rect class="cls-9" x="720" y="180" width="20" height="40"/>
        <rect class="cls-9" x="660" y="620" width="60" height="20"/>
        <rect class="cls-9" x="620" y="820" width="40" height="20"/>
        <polygon class="cls-9" points="600 600 600 640 640 640 640 620 660 620 660 600 600 600"/>
        <rect class="cls-9" x="560" y="840" width="60" height="20"/>
        <rect class="cls-9" x="540" y="600" width="40" height="20"/>
        <polygon class="cls-9" points="540 640 540 620 460 620 460 600 440 600 440 620 380 620 380 640 540 640"/>
        <rect class="cls-9" x="360" y="840" width="80" height="20"/>
        <rect class="cls-9" x="340" y="600" width="40" height="20"/>
        <rect class="cls-9" x="320" y="820" width="40" height="20"/>
        <rect class="cls-9" x="280" y="800" width="40" height="20"/>
        <rect class="cls-9" x="260" y="620" width="60" height="20"/>
        <rect class="cls-9" x="260" y="780" width="20" height="20"/>
        <rect class="cls-9" x="240" y="740" width="20" height="40"/>
        <polygon class="cls-9" points="260 700 260 640 240 640 240 660 220 660 220 700 260 700"/>
        <rect class="cls-9" x="220" y="720" width="20" height="20"/>
        <polygon class="cls-9" points="160 680 180 680 180 720 200 720 200 660 180 660 180 580 160 580 160 360 180 360 180 300 220 300 220 260 240 260 240 240 260 240 260 220 280 220 280 200 320 200 320 180 340 180 340 160 380 160 380 140 620 140 620 160 660 160 660 180 720 180 720 160 680 160 680 140 640 140 640 120 620 120 620 100 380 100 380 120 360 120 360 140 320 140 320 160 280 160 280 180 260 180 260 200 240 200 240 220 220 220 220 240 200 240 200 280 160 280 160 340 140 340 140 600 160 600 160 680"/>
        <rect class="cls-9" x="100" y="300" width="20" height="20"/>
        <rect class="cls-9" x="80" y="280" width="20" height="20"/>
        <rect class="cls-9" x="40" y="540" width="20" height="120"/>
        <rect class="cls-9" x="40" y="340" width="20" height="80"/>
        <rect class="cls-9" x="20" y="420" width="20" height="120"/>
      </g>
      <g>
        <polygon class="cls-4" points="980 380 980 320 960 320 960 260 940 260 940 240 920 240 920 220 900 220 900 200 880 200 880 180 860 180 860 160 840 160 840 140 820 140 820 120 800 120 800 100 780 100 780 80 760 80 760 60 720 60 720 40 680 40 680 20 660 20 660 0 340 0 340 20 320 20 320 40 280 40 280 60 240 60 240 80 220 80 220 100 200 100 200 120 180 120 180 140 160 140 160 160 140 160 140 180 120 180 120 200 100 200 100 220 80 220 80 240 120 240 120 220 140 220 140 200 160 200 160 180 180 180 180 160 200 160 200 140 220 140 220 120 240 120 240 100 260 100 260 80 320 80 320 60 360 60 360 40 660 40 660 60 700 60 700 80 740 80 740 100 760 100 760 120 780 120 780 140 800 140 800 160 820 160 820 180 840 180 840 200 860 200 860 220 880 220 880 240 900 240 900 260 920 260 920 280 940 280 940 360 960 360 960 400 980 400 980 560 960 560 960 600 940 600 940 680 920 680 920 720 900 720 900 760 880 760 880 780 860 780 860 800 840 800 840 820 820 820 820 840 800 840 800 860 780 860 780 880 760 880 760 900 740 900 740 920 700 920 700 940 680 940 680 960 660 960 660 980 700 980 700 960 740 960 740 940 760 940 760 920 780 920 780 900 800 900 800 880 820 880 820 860 840 860 840 840 860 840 860 820 880 820 880 800 900 800 900 780 920 780 920 740 940 740 940 700 960 700 960 680 980 680 980 580 1000 580 1000 380 980 380"/>
        <rect class="cls-4" x="800" y="660" width="20" height="40"/>
        <rect class="cls-4" x="760" y="640" width="40" height="20"/>
        <rect class="cls-4" x="660" y="680" width="40" height="80"/>
        <path class="cls-4" d="M700,820v-20h20v-40h-20v20h-60v-120h60v20h20v80h20v-20h20v-20h20v-20h-40v-60h20v-20h-40v20h-60v-20h-20v20h-40v-40h60v20h60v-20h-40v-20h-100v-20h-60v-100h-20v160h40v-20h40v20h-40v20h-160v-20h-40v40h20v20h-60v20h60v60h-20v40h-20v20h40v20h80v20h120v-20h60v-20h80ZM620,660v20h-40v40h40v20h-40v20h40v20h-60v-120h60ZM540,660v20h-40v40h40v20h-40v20h40v20h-60v-120h60ZM440,760v-20h-20v-20h-20v-20h-20v-40h80v20h-60v20h20v20h20v20h20v40h-80v-20h60Z"/>
        <rect class="cls-4" x="340" y="980" width="320" height="20"/>
        <polygon class="cls-4" points="600 400 600 420 580 420 580 440 620 440 620 420 640 420 640 400 600 400"/>
        <rect class="cls-4" x="520" y="440" width="60" height="20"/>
        <polygon class="cls-4" points="560 340 560 320 600 320 600 300 640 300 640 400 660 400 660 280 640 280 640 260 600 260 600 280 540 280 540 320 520 320 520 340 560 340"/>
        <polygon class="cls-4" points="480 420 500 420 500 400 520 400 520 340 480 340 480 420"/>
        <rect class="cls-4" x="460" y="320" width="20" height="20"/>
        <polygon class="cls-4" points="400 420 400 400 380 400 380 300 400 300 400 320 460 320 460 300 420 300 420 260 360 260 360 420 380 420 380 440 440 440 440 420 400 420"/>
        <polygon class="cls-4" points="320 960 320 940 300 940 300 920 260 920 260 900 240 900 240 880 220 880 220 860 200 860 200 840 180 840 180 820 160 820 160 800 140 800 140 780 120 780 120 760 100 760 100 720 80 720 80 700 60 700 60 660 40 660 40 540 20 540 20 420 40 420 40 340 60 340 60 280 80 280 80 240 60 240 60 260 40 260 40 320 20 320 20 400 0 400 0 560 20 560 20 680 40 680 40 720 60 720 60 760 80 760 80 780 100 780 100 800 120 800 120 820 140 820 140 840 160 840 160 860 180 860 180 880 200 880 200 900 220 900 220 920 240 920 240 940 260 940 260 960 300 960 300 980 340 980 340 960 320 960"/>
        <polygon class="cls-4" points="320 760 280 760 280 740 340 740 340 720 280 720 280 660 320 660 320 640 260 640 260 700 220 700 220 660 200 660 200 720 240 720 240 740 260 740 260 780 280 780 280 800 320 800 320 760"/>
        <polygon class="cls-4" points="340 620 340 600 380 600 380 620 440 620 440 600 460 600 460 620 480 620 480 440 440 440 440 460 460 460 460 560 440 560 440 580 420 580 420 600 400 600 400 580 380 580 380 560 340 560 340 580 320 580 320 600 260 600 260 620 340 620"/>
        <rect class="cls-4" x="240" y="620" width="20" height="20"/>
        <rect class="cls-4" x="220" y="640" width="20" height="20"/>
      </g>
    </g>
  </g>
</svg>