<svg xmlns="http://www.w3.org/2000/svg" xmlns:xlink="http://www.w3.org/1999/xlink" width="2000" zoomAndPan="magnify" viewBox="0 0 1500 1499.999933" height="2000" preserveAspectRatio="xMidYMid meet" version="1.0"><defs><clipPath id="d7ab3555d5"><path d="M 734 906 L 768 906 L 768 1017 L 734 1017 Z M 734 906 " clip-rule="nonzero"/></clipPath><clipPath id="499d750d57"><path d="M 772 1017.316406 L 817 1017.316406 L 817 1018 L 772 1018 Z M 772 1017.316406 " clip-rule="nonzero"/></clipPath><clipPath id="332694f3c5"><path d="M 728 1017.316406 L 773 1017.316406 L 773 1018 L 728 1018 Z M 728 1017.316406 " clip-rule="nonzero"/></clipPath><clipPath id="5ab46e80ff"><path d="M 639 1017.316406 L 728 1017.316406 L 728 1018 L 639 1018 Z M 639 1017.316406 " clip-rule="nonzero"/></clipPath><clipPath id="6013985501"><path d="M 551 1017.316406 L 640 1017.316406 L 640 1018 L 551 1018 Z M 551 1017.316406 " clip-rule="nonzero"/></clipPath><clipPath id="86f1a922e2"><path d="M 860 1017.316406 L 950 1017.316406 L 950 1018 L 860 1018 Z M 860 1017.316406 " clip-rule="nonzero"/></clipPath><clipPath id="4a3c3e382f"><path d="M 816 1017.316406 L 861 1017.316406 L 861 1018 L 816 1018 Z M 816 1017.316406 " clip-rule="nonzero"/></clipPath><clipPath id="9b532feaff"><path d="M 431 1017.316406 L 532 1017.316406 L 532 1151 L 431 1151 Z M 431 1017.316406 " clip-rule="nonzero"/></clipPath><clipPath id="62cfc1bc60"><path d="M 562 1017.316406 L 872 1017.316406 L 872 1151 L 562 1151 Z M 562 1017.316406 " clip-rule="nonzero"/></clipPath><clipPath id="8a01ba37ad"><path d="M 1035 1017.316406 L 1069 1017.316406 L 1069 1151 L 1035 1151 Z M 1035 1017.316406 " clip-rule="nonzero"/></clipPath><clipPath id="6b020f88a0"><path d="M 1002 1017.316406 L 1036 1017.316406 L 1036 1151 L 1002 1151 Z M 1002 1017.316406 " clip-rule="nonzero"/></clipPath><clipPath id="32c1c6284c"><path d="M 935 1017.316406 L 1003 1017.316406 L 1003 1151 L 935 1151 Z M 935 1017.316406 " clip-rule="nonzero"/></clipPath><clipPath id="208765633d"><path d="M 869 1017.316406 L 936 1017.316406 L 936 1151 L 869 1151 Z M 869 1017.316406 " clip-rule="nonzero"/></clipPath><clipPath id="d88dcfff56"><path d="M 531 1017.316406 L 598 1017.316406 L 598 1151 L 531 1151 Z M 531 1017.316406 " clip-rule="nonzero"/></clipPath></defs><path fill="#4cbf57" d="M 701.351562 939.625 L 602.070312 939.625 L 602.070312 906.53125 L 568.976562 906.53125 L 568.976562 873.4375 L 668.257812 873.4375 L 668.257812 906.53125 L 701.351562 906.53125 Z M 701.351562 939.625 " fill-opacity="1" fill-rule="nonzero"/><path stroke-linecap="butt" transform="matrix(2.20625, 0, 0, 2.20625, 88.013032, 88.012979)" fill-opacity="1" fill="#4cbf57" fill-rule="nonzero" stroke-linejoin="miter" d="M 293.000503 102.00015 L 293.000503 117.000151 L 248.000497 117.000151 L 248.000497 102.00015 L 218.000494 102.00015 L 218.000494 87.000148 L 233.000496 87.000148 L 233.000496 72.000146 L 263.000499 72.000146 L 263.000499 87.000148 L 278.000501 87.000148 L 278.000501 102.00015 Z M 293.000503 102.00015 " stroke="#4cbf57" stroke-width="1" stroke-opacity="1" stroke-miterlimit="4"/><path fill="#4cbf57" d="M 635.164062 685.90625 L 535.882812 685.90625 L 535.882812 752.09375 L 568.976562 752.09375 L 568.976562 785.1875 L 701.351562 785.1875 L 701.351562 752.09375 L 668.257812 752.09375 L 668.257812 719 L 635.164062 719 Z M 635.164062 685.90625 " fill-opacity="1" fill-rule="nonzero"/><path fill="#4cbf57" d="M 866.820312 818.28125 L 833.726562 818.28125 L 833.726562 851.375 L 933.007812 851.375 L 933.007812 818.28125 L 999.195312 818.28125 L 999.195312 785.1875 L 1032.289062 785.1875 L 1032.289062 719 L 933.007812 719 L 933.007812 752.09375 L 899.914062 752.09375 L 899.914062 785.1875 L 866.820312 785.1875 Z M 866.820312 818.28125 " fill-opacity="1" fill-rule="nonzero"/><path fill="#4cbf57" d="M 602.070312 421.15625 L 502.789062 421.15625 L 502.789062 454.25 L 469.695312 454.25 L 469.695312 487.34375 L 502.789062 487.34375 L 502.789062 520.4375 L 535.882812 520.4375 L 535.882812 553.53125 L 602.070312 553.53125 L 602.070312 586.625 L 701.351562 586.625 L 701.351562 553.53125 L 668.257812 553.53125 L 668.257812 487.34375 L 635.164062 487.34375 L 635.164062 454.25 L 602.070312 454.25 Z M 602.070312 421.15625 " fill-opacity="1" fill-rule="nonzero"/><path fill="#4cbf57" d="M 999.195312 454.25 L 933.007812 454.25 L 933.007812 487.34375 L 899.914062 487.34375 L 899.914062 553.53125 L 866.820312 553.53125 L 866.820312 586.625 L 833.726562 586.625 L 833.726562 619.71875 L 800.632812 619.71875 L 800.632812 652.8125 L 899.914062 652.8125 L 899.914062 619.71875 L 966.101562 619.71875 L 966.101562 586.625 L 999.195312 586.625 L 999.195312 553.53125 L 1032.289062 553.53125 L 1032.289062 487.34375 L 999.195312 487.34375 Z M 999.195312 454.25 " fill-opacity="1" fill-rule="nonzero"/><path fill="#4cbf57" d="M 568.976562 652.8125 L 469.695312 652.8125 L 469.695312 719 L 502.789062 719 L 502.789062 752.09375 L 568.976562 752.09375 L 568.976562 785.1875 L 701.351562 785.1875 L 701.351562 752.09375 L 668.257812 752.09375 L 668.257812 719 L 635.164062 719 L 635.164062 685.90625 L 568.976562 685.90625 Z M 568.976562 652.8125 " fill-opacity="1" fill-rule="nonzero"/><path fill="#4cbf57" d="M 833.726562 354.96875 L 800.632812 354.96875 L 800.632812 421.15625 L 866.820312 421.15625 L 866.820312 388.0625 L 899.914062 388.0625 L 899.914062 354.96875 L 933.007812 354.96875 L 933.007812 321.875 L 833.726562 321.875 Z M 833.726562 354.96875 " fill-opacity="1" fill-rule="nonzero"/><path fill="#4cbf57" d="M 833.726562 354.96875 L 800.632812 354.96875 L 800.632812 421.15625 L 866.820312 421.15625 L 866.820312 388.0625 L 899.914062 388.0625 L 899.914062 354.96875 L 933.007812 354.96875 L 933.007812 288.78125 L 866.820312 288.78125 L 866.820312 321.875 L 833.726562 321.875 Z M 833.726562 354.96875 " fill-opacity="1" fill-rule="nonzero"/><g clip-path="url(#d7ab3555d5)"><path fill="#288d32" d="M 734.445312 906.53125 L 767.539062 906.53125 L 767.539062 1019.050781 L 734.445312 1019.050781 Z M 734.445312 906.53125 " fill-opacity="1" fill-rule="nonzero"/></g><path fill="#288d32" d="M 602.070312 939.625 L 734.445312 939.625 L 734.445312 972.71875 L 602.070312 972.71875 Z M 602.070312 939.625 " fill-opacity="1" fill-rule="nonzero"/><path fill="#288d32" d="M 535.882812 873.4375 L 568.976562 873.4375 L 568.976562 906.53125 L 535.882812 906.53125 Z M 535.882812 873.4375 " fill-opacity="1" fill-rule="nonzero"/><path fill="#288d32" d="M 568.976562 906.53125 L 602.070312 906.53125 L 602.070312 939.625 L 568.976562 939.625 Z M 568.976562 906.53125 " fill-opacity="1" fill-rule="nonzero"/><path fill="#288d32" d="M 568.976562 840.34375 L 668.257812 840.34375 L 668.257812 873.4375 L 568.976562 873.4375 Z M 568.976562 840.34375 " fill-opacity="1" fill-rule="nonzero"/><path fill="#288d32" d="M 701.351562 906.53125 L 734.445312 906.53125 L 734.445312 939.625 L 701.351562 939.625 Z M 701.351562 906.53125 " fill-opacity="1" fill-rule="nonzero"/><path fill="#288d32" d="M 668.257812 873.4375 L 701.351562 873.4375 L 701.351562 906.53125 L 668.257812 906.53125 Z M 668.257812 873.4375 " fill-opacity="1" fill-rule="nonzero"/><path fill="#288d32" d="M 734.445312 818.28125 L 767.539062 818.28125 L 767.539062 906.53125 L 734.445312 906.53125 Z M 734.445312 818.28125 " fill-opacity="1" fill-rule="nonzero"/><path fill="#288d32" d="M 767.539062 851.375 L 933.007812 851.375 L 933.007812 884.46875 L 767.539062 884.46875 Z M 767.539062 851.375 " fill-opacity="1" fill-rule="nonzero"/><path fill="#288d32" d="M 933.007812 818.28125 L 999.195312 818.28125 L 999.195312 851.375 L 933.007812 851.375 Z M 933.007812 818.28125 " fill-opacity="1" fill-rule="nonzero"/><path fill="#288d32" d="M 999.195312 785.1875 L 1032.289062 785.1875 L 1032.289062 818.28125 L 999.195312 818.28125 Z M 999.195312 785.1875 " fill-opacity="1" fill-rule="nonzero"/><path fill="#288d32" d="M 866.820312 752.09375 L 899.914062 752.09375 L 899.914062 785.1875 L 866.820312 785.1875 Z M 866.820312 752.09375 " fill-opacity="1" fill-rule="nonzero"/><path fill="#288d32" d="M 899.914062 719 L 933.007812 719 L 933.007812 752.09375 L 899.914062 752.09375 Z M 899.914062 719 " fill-opacity="1" fill-rule="nonzero"/><path fill="#288d32" d="M 767.539062 818.28125 L 833.726562 818.28125 L 833.726562 851.375 L 767.539062 851.375 Z M 767.539062 818.28125 " fill-opacity="1" fill-rule="nonzero"/><path fill="#288d32" d="M 800.632812 785.1875 L 866.820312 785.1875 L 866.820312 818.28125 L 800.632812 818.28125 Z M 800.632812 785.1875 " fill-opacity="1" fill-rule="nonzero"/><path fill="#288d32" d="M 1032.289062 719 L 1065.382812 719 L 1065.382812 785.1875 L 1032.289062 785.1875 Z M 1032.289062 719 " fill-opacity="1" fill-rule="nonzero"/><path fill="#288d32" d="M 933.007812 685.90625 L 1032.289062 685.90625 L 1032.289062 719 L 933.007812 719 Z M 933.007812 685.90625 " fill-opacity="1" fill-rule="nonzero"/><path fill="#288d32" d="M 734.445312 553.53125 L 767.539062 553.53125 L 767.539062 619.71875 L 734.445312 619.71875 Z M 734.445312 553.53125 " fill-opacity="1" fill-rule="nonzero"/><path fill="#288d32" d="M 701.351562 553.53125 L 734.445312 553.53125 L 734.445312 619.71875 L 701.351562 619.71875 Z M 701.351562 553.53125 " fill-opacity="1" fill-rule="nonzero"/><path fill="#288d32" d="M 602.070312 586.625 L 701.351562 586.625 L 701.351562 619.71875 L 602.070312 619.71875 Z M 602.070312 586.625 " fill-opacity="1" fill-rule="nonzero"/><path fill="#288d32" d="M 602.070312 421.15625 L 635.164062 421.15625 L 635.164062 454.25 L 602.070312 454.25 Z M 602.070312 421.15625 " fill-opacity="1" fill-rule="nonzero"/><path fill="#288d32" d="M 635.164062 454.25 L 668.257812 454.25 L 668.257812 487.34375 L 635.164062 487.34375 Z M 635.164062 454.25 " fill-opacity="1" fill-rule="nonzero"/><path fill="#288d32" d="M 668.257812 487.34375 L 701.351562 487.34375 L 701.351562 553.53125 L 668.257812 553.53125 Z M 668.257812 487.34375 " fill-opacity="1" fill-rule="nonzero"/><path fill="#288d32" d="M 535.882812 553.53125 L 602.070312 553.53125 L 602.070312 586.625 L 535.882812 586.625 Z M 535.882812 553.53125 " fill-opacity="1" fill-rule="nonzero"/><path fill="#288d32" d="M 469.695312 487.34375 L 502.789062 487.34375 L 502.789062 520.4375 L 469.695312 520.4375 Z M 469.695312 487.34375 " fill-opacity="1" fill-rule="nonzero"/><path fill="#288d32" d="M 502.789062 520.4375 L 535.882812 520.4375 L 535.882812 553.53125 L 502.789062 553.53125 Z M 502.789062 520.4375 " fill-opacity="1" fill-rule="nonzero"/><path fill="#288d32" d="M 436.601562 454.25 L 469.695312 454.25 L 469.695312 487.34375 L 436.601562 487.34375 Z M 436.601562 454.25 " fill-opacity="1" fill-rule="nonzero"/><path fill="#288d32" d="M 469.695312 421.15625 L 502.789062 421.15625 L 502.789062 454.25 L 469.695312 454.25 Z M 469.695312 421.15625 " fill-opacity="1" fill-rule="nonzero"/><path fill="#288d32" d="M 502.789062 388.0625 L 602.070312 388.0625 L 602.070312 421.15625 L 502.789062 421.15625 Z M 502.789062 388.0625 " fill-opacity="1" fill-rule="nonzero"/><path fill="#288d32" d="M 734.445312 619.71875 L 767.539062 619.71875 L 767.539062 752.09375 L 734.445312 752.09375 Z M 734.445312 619.71875 " fill-opacity="1" fill-rule="nonzero"/><path fill="#288d32" d="M 767.539062 619.71875 L 800.632812 619.71875 L 800.632812 685.90625 L 767.539062 685.90625 Z M 767.539062 619.71875 " fill-opacity="1" fill-rule="nonzero"/><path fill="#288d32" d="M 800.632812 652.8125 L 899.914062 652.8125 L 899.914062 685.90625 L 800.632812 685.90625 Z M 800.632812 652.8125 " fill-opacity="1" fill-rule="nonzero"/><path fill="#288d32" d="M 899.914062 619.71875 L 966.101562 619.71875 L 966.101562 652.8125 L 899.914062 652.8125 Z M 899.914062 619.71875 " fill-opacity="1" fill-rule="nonzero"/><path fill="#288d32" d="M 1032.289062 487.34375 L 1065.382812 487.34375 L 1065.382812 553.53125 L 1032.289062 553.53125 Z M 1032.289062 487.34375 " fill-opacity="1" fill-rule="nonzero"/><path fill="#288d32" d="M 866.820312 487.34375 L 899.914062 487.34375 L 899.914062 553.53125 L 866.820312 553.53125 Z M 866.820312 487.34375 " fill-opacity="1" fill-rule="nonzero"/><path fill="#288d32" d="M 800.632812 586.625 L 833.726562 586.625 L 833.726562 619.71875 L 800.632812 619.71875 Z M 800.632812 586.625 " fill-opacity="1" fill-rule="nonzero"/><path fill="#288d32" d="M 833.726562 553.53125 L 866.820312 553.53125 L 866.820312 586.625 L 833.726562 586.625 Z M 833.726562 553.53125 " fill-opacity="1" fill-rule="nonzero"/><path fill="#288d32" d="M 899.914062 454.25 L 933.007812 454.25 L 933.007812 487.34375 L 899.914062 487.34375 Z M 899.914062 454.25 " fill-opacity="1" fill-rule="nonzero"/><path fill="#288d32" d="M 966.101562 586.625 L 999.195312 586.625 L 999.195312 619.71875 L 966.101562 619.71875 Z M 966.101562 586.625 " fill-opacity="1" fill-rule="nonzero"/><path fill="#288d32" d="M 999.195312 553.53125 L 1032.289062 553.53125 L 1032.289062 586.625 L 999.195312 586.625 Z M 999.195312 553.53125 " fill-opacity="1" fill-rule="nonzero"/><path fill="#288d32" d="M 933.007812 421.15625 L 999.195312 421.15625 L 999.195312 454.25 L 933.007812 454.25 Z M 933.007812 421.15625 " fill-opacity="1" fill-rule="nonzero"/><path fill="#288d32" d="M 999.195312 454.25 L 1032.289062 454.25 L 1032.289062 487.34375 L 999.195312 487.34375 Z M 999.195312 454.25 " fill-opacity="1" fill-rule="nonzero"/><path fill="#288d32" d="M 734.445312 752.09375 L 767.539062 752.09375 L 767.539062 818.28125 L 734.445312 818.28125 Z M 734.445312 752.09375 " fill-opacity="1" fill-rule="nonzero"/><path fill="#288d32" d="M 701.351562 752.09375 L 734.445312 752.09375 L 734.445312 818.28125 L 701.351562 818.28125 Z M 701.351562 752.09375 " fill-opacity="1" fill-rule="nonzero"/><path fill="#288d32" d="M 568.976562 785.1875 L 701.351562 785.1875 L 701.351562 818.28125 L 568.976562 818.28125 Z M 568.976562 785.1875 " fill-opacity="1" fill-rule="nonzero"/><path fill="#288d32" d="M 469.695312 619.71875 L 568.976562 619.71875 L 568.976562 652.8125 L 469.695312 652.8125 Z M 469.695312 619.71875 " fill-opacity="1" fill-rule="nonzero"/><path fill="#288d32" d="M 668.257812 719 L 701.351562 719 L 701.351562 752.09375 L 668.257812 752.09375 Z M 668.257812 719 " fill-opacity="1" fill-rule="nonzero"/><path fill="#288d32" d="M 635.164062 685.90625 L 668.257812 685.90625 L 668.257812 719 L 635.164062 719 Z M 635.164062 685.90625 " fill-opacity="1" fill-rule="nonzero"/><path fill="#288d32" d="M 568.976562 652.8125 L 635.164062 652.8125 L 635.164062 685.90625 L 568.976562 685.90625 Z M 568.976562 652.8125 " fill-opacity="1" fill-rule="nonzero"/><path fill="#288d32" d="M 469.695312 719 L 502.789062 719 L 502.789062 752.09375 L 469.695312 752.09375 Z M 469.695312 719 " fill-opacity="1" fill-rule="nonzero"/><path fill="#288d32" d="M 502.789062 752.09375 L 568.976562 752.09375 L 568.976562 785.1875 L 502.789062 785.1875 Z M 502.789062 752.09375 " fill-opacity="1" fill-rule="nonzero"/><path fill="#288d32" d="M 436.601562 652.8125 L 469.695312 652.8125 L 469.695312 719 L 436.601562 719 Z M 436.601562 652.8125 " fill-opacity="1" fill-rule="nonzero"/><path fill="#288d32" d="M 734.445312 313.050781 L 767.539062 313.050781 L 767.539062 388.0625 L 734.445312 388.0625 Z M 734.445312 313.050781 " fill-opacity="1" fill-rule="nonzero"/><path fill="#288d32" d="M 635.164062 346.144531 L 734.445312 346.144531 L 734.445312 379.238281 L 635.164062 379.238281 Z M 635.164062 346.144531 " fill-opacity="1" fill-rule="nonzero"/><path fill="#288d32" d="M 535.882812 279.957031 L 568.976562 279.957031 L 568.976562 313.050781 L 535.882812 313.050781 Z M 535.882812 279.957031 " fill-opacity="1" fill-rule="nonzero"/><path fill="#288d32" d="M 568.976562 313.050781 L 635.164062 313.050781 L 635.164062 346.144531 L 568.976562 346.144531 Z M 568.976562 313.050781 " fill-opacity="1" fill-rule="nonzero"/><path fill="#288d32" d="M 568.976562 246.863281 L 602.070312 246.863281 L 602.070312 279.957031 L 568.976562 279.957031 Z M 568.976562 246.863281 " fill-opacity="1" fill-rule="nonzero"/><path fill="#288d32" d="M 602.070312 213.769531 L 668.257812 213.769531 L 668.257812 246.863281 L 602.070312 246.863281 Z M 602.070312 213.769531 " fill-opacity="1" fill-rule="nonzero"/><path fill="#288d32" d="M 701.351562 279.957031 L 734.445312 279.957031 L 734.445312 313.050781 L 701.351562 313.050781 Z M 701.351562 279.957031 " fill-opacity="1" fill-rule="nonzero"/><path fill="#288d32" d="M 668.257812 246.863281 L 701.351562 246.863281 L 701.351562 279.957031 L 668.257812 279.957031 Z M 668.257812 246.863281 " fill-opacity="1" fill-rule="nonzero"/><path fill="#288d32" d="M 734.445312 388.0625 L 767.539062 388.0625 L 767.539062 553.53125 L 734.445312 553.53125 Z M 734.445312 388.0625 " fill-opacity="1" fill-rule="nonzero"/><path fill="#288d32" d="M 767.539062 421.15625 L 866.820312 421.15625 L 866.820312 454.25 L 767.539062 454.25 Z M 767.539062 421.15625 " fill-opacity="1" fill-rule="nonzero"/><path fill="#288d32" d="M 800.632812 321.875 L 833.726562 321.875 L 833.726562 354.96875 L 800.632812 354.96875 Z M 800.632812 321.875 " fill-opacity="1" fill-rule="nonzero"/><path fill="#288d32" d="M 800.632812 321.875 L 833.726562 321.875 L 833.726562 354.96875 L 800.632812 354.96875 Z M 800.632812 321.875 " fill-opacity="1" fill-rule="nonzero"/><path fill="#288d32" d="M 833.726562 288.78125 L 866.820312 288.78125 L 866.820312 321.875 L 833.726562 321.875 Z M 833.726562 288.78125 " fill-opacity="1" fill-rule="nonzero"/><path fill="#288d32" d="M 767.539062 354.96875 L 800.632812 354.96875 L 800.632812 421.15625 L 767.539062 421.15625 Z M 767.539062 354.96875 " fill-opacity="1" fill-rule="nonzero"/><path fill="#288d32" d="M 866.820312 255.6875 L 933.007812 255.6875 L 933.007812 288.78125 L 866.820312 288.78125 Z M 866.820312 255.6875 " fill-opacity="1" fill-rule="nonzero"/><path fill="#288d32" d="M 866.820312 388.0625 L 899.914062 388.0625 L 899.914062 421.15625 L 866.820312 421.15625 Z M 866.820312 388.0625 " fill-opacity="1" fill-rule="nonzero"/><path fill="#288d32" d="M 899.914062 354.96875 L 933.007812 354.96875 L 933.007812 388.0625 L 899.914062 388.0625 Z M 899.914062 354.96875 " fill-opacity="1" fill-rule="nonzero"/><path fill="#288d32" d="M 933.007812 288.78125 L 966.101562 288.78125 L 966.101562 354.96875 L 933.007812 354.96875 Z M 933.007812 288.78125 " fill-opacity="1" fill-rule="nonzero"/><g clip-path="url(#499d750d57)"><path fill="#3e5e13" d="M 772.25 973.648438 L 816.5 973.648438 L 816.5 1017.898438 L 772.25 1017.898438 Z M 772.25 973.648438 " fill-opacity="1" fill-rule="nonzero"/></g><g clip-path="url(#332694f3c5)"><path fill="#a0b92a" d="M 728 973.648438 L 772.25 973.648438 L 772.25 1017.898438 L 728 1017.898438 Z M 728 973.648438 " fill-opacity="1" fill-rule="nonzero"/></g><g clip-path="url(#5ab46e80ff)"><path fill="#334c0a" d="M 639.5 973.648438 L 728 973.648438 L 728 1017.898438 L 639.5 1017.898438 Z M 639.5 973.648438 " fill-opacity="1" fill-rule="nonzero"/></g><g clip-path="url(#6013985501)"><path fill="#5f710d" d="M 551 973.648438 L 639.5 973.648438 L 639.5 1017.898438 L 551 1017.898438 Z M 551 973.648438 " fill-opacity="1" fill-rule="nonzero"/></g><g clip-path="url(#86f1a922e2)"><path fill="#5f710d" d="M 860.75 973.648438 L 949.25 973.648438 L 949.25 1017.898438 L 860.75 1017.898438 Z M 860.75 973.648438 " fill-opacity="1" fill-rule="nonzero"/></g><g clip-path="url(#4a3c3e382f)"><path fill="#334c0a" d="M 816.5 973.648438 L 860.75 973.648438 L 860.75 1017.898438 L 816.5 1017.898438 Z M 816.5 973.648438 " fill-opacity="1" fill-rule="nonzero"/></g><path fill="#ce9f69" d="M 564.273438 1283.398438 L 564.273438 1250.210938 L 935.972656 1250.210938 L 935.972656 1283.398438 Z M 564.273438 1283.398438 " fill-opacity="1" fill-rule="nonzero"/><g clip-path="url(#9b532feaff)"><path fill="#dfb384" d="M 431.523438 1017.898438 L 531.085938 1017.898438 L 531.085938 1150.648438 L 431.523438 1150.648438 Z M 431.523438 1017.898438 " fill-opacity="1" fill-rule="nonzero"/></g><g clip-path="url(#62cfc1bc60)"><path fill="#fddfbd" d="M 562.0625 1017.898438 L 871.8125 1017.898438 L 871.8125 1150.648438 L 562.0625 1150.648438 Z M 562.0625 1017.898438 " fill-opacity="1" fill-rule="nonzero"/></g><g clip-path="url(#8a01ba37ad)"><path fill="#ce9f69" d="M 1035.535156 1017.898438 L 1068.722656 1017.898438 L 1068.722656 1150.648438 L 1035.535156 1150.648438 Z M 1035.535156 1017.898438 " fill-opacity="1" fill-rule="nonzero"/></g><path fill="#965e13" d="M 464.710938 1150.648438 L 531.085938 1150.648438 L 531.085938 1183.835938 L 464.710938 1183.835938 Z M 464.710938 1150.648438 " fill-opacity="1" fill-rule="nonzero"/><path fill="#b26f16" d="M 531.085938 1150.648438 L 597.460938 1150.648438 L 597.460938 1217.023438 L 531.085938 1217.023438 Z M 531.085938 1150.648438 " fill-opacity="1" fill-rule="nonzero"/><g clip-path="url(#6b020f88a0)"><path fill="#ce9f69" d="M 1002.347656 1017.898438 L 1035.535156 1017.898438 L 1035.535156 1150.648438 L 1002.347656 1150.648438 Z M 1002.347656 1017.898438 " fill-opacity="1" fill-rule="nonzero"/></g><path fill="#965e13" d="M 1002.347656 1150.648438 L 1035.535156 1150.648438 L 1035.535156 1183.835938 L 1002.347656 1183.835938 Z M 1002.347656 1150.648438 " fill-opacity="1" fill-rule="nonzero"/><g clip-path="url(#32c1c6284c)"><path fill="#dfb384" d="M 935.972656 1017.898438 L 1002.347656 1017.898438 L 1002.347656 1150.648438 L 935.972656 1150.648438 Z M 935.972656 1017.898438 " fill-opacity="1" fill-rule="nonzero"/></g><g clip-path="url(#208765633d)"><path fill="#f1c699" d="M 869.597656 1017.898438 L 935.972656 1017.898438 L 935.972656 1150.648438 L 869.597656 1150.648438 Z M 869.597656 1017.898438 " fill-opacity="1" fill-rule="nonzero"/></g><path fill="#f1c699" d="M 803.222656 1084.273438 L 869.597656 1084.273438 L 869.597656 1150.648438 L 803.222656 1150.648438 Z M 803.222656 1084.273438 " fill-opacity="1" fill-rule="nonzero"/><path fill="#965e13" d="M 497.898438 1183.835938 L 531.085938 1183.835938 L 531.085938 1217.023438 L 497.898438 1217.023438 Z M 497.898438 1183.835938 " fill-opacity="1" fill-rule="nonzero"/><path fill="#b26f16" d="M 728 1150.648438 L 938.1875 1150.648438 L 938.1875 1217.023438 L 728 1217.023438 Z M 728 1150.648438 " fill-opacity="1" fill-rule="nonzero"/><g clip-path="url(#d88dcfff56)"><path fill="#f1c699" d="M 531.085938 1017.898438 L 597.460938 1017.898438 L 597.460938 1150.648438 L 531.085938 1150.648438 Z M 531.085938 1017.898438 " fill-opacity="1" fill-rule="nonzero"/></g><path fill="#dfb384" d="M 531.085938 1217.023438 L 938.1875 1217.023438 L 938.1875 1250.210938 L 531.085938 1250.210938 Z M 531.085938 1217.023438 " fill-opacity="1" fill-rule="nonzero"/><path fill="#ce9f69" d="M 935.972656 1217.023438 L 969.160156 1217.023438 L 969.160156 1250.210938 L 935.972656 1250.210938 Z M 935.972656 1217.023438 " fill-opacity="1" fill-rule="nonzero"/><path fill="#d18219" d="M 597.460938 1150.648438 L 730.210938 1150.648438 L 730.210938 1217.023438 L 597.460938 1217.023438 Z M 597.460938 1150.648438 " fill-opacity="1" fill-rule="nonzero"/><path fill="#965e13" d="M 935.972656 1150.648438 L 1002.347656 1150.648438 L 1002.347656 1217.023438 L 935.972656 1217.023438 Z M 935.972656 1150.648438 " fill-opacity="1" fill-rule="nonzero"/></svg>