<svg xmlns="http://www.w3.org/2000/svg" xmlns:xlink="http://www.w3.org/1999/xlink" width="2600" zoomAndPan="magnify" viewBox="0 0 1950 615.000004" height="820" preserveAspectRatio="xMidYMid meet" version="1.0"><defs><g/></defs><g fill="#2d3c53" fill-opacity="1"><g transform="translate(625.41739, 425.682743)"><g><path d="M 117.75 -117.75 L 117.75 -176.609375 L 147.171875 -176.609375 L 147.171875 -117.75 Z M 0 0 L 0 -206.046875 L 117.75 -206.046875 L 117.75 -176.609375 L 29.4375 -176.609375 L 29.4375 -117.75 L 117.75 -117.75 L 117.75 -88.3125 L 29.4375 -88.3125 L 29.4375 0 Z M 0 0 "/></g></g></g><g fill="#2d3c53" fill-opacity="1"><g transform="translate(802.017134, 425.682743)"><g><path d="M 0 0 L 0 -29.4375 L 29.4375 -29.4375 L 29.4375 -176.609375 L 0 -176.609375 L 0 -206.046875 L 88.3125 -206.046875 L 88.3125 -176.609375 L 58.875 -176.609375 L 58.875 -29.4375 L 88.3125 -29.4375 L 88.3125 0 Z M 0 0 "/></g></g></g><g fill="#2d3c53" fill-opacity="1"><g transform="translate(919.750294, 425.682743)"><g><path d="M 0 0 L 0 -58.875 L 29.4375 -58.875 L 29.4375 0 Z M 117.75 0 L 117.75 -58.875 L 147.171875 -58.875 L 147.171875 0 Z M 29.4375 -58.875 L 29.4375 -88.3125 L 58.875 -88.3125 L 58.875 -58.875 Z M 88.3125 -58.875 L 88.3125 -88.3125 L 117.75 -88.3125 L 117.75 -58.875 Z M 58.875 -88.3125 L 58.875 -117.75 L 88.3125 -117.75 L 88.3125 -88.3125 Z M 29.4375 -117.75 L 29.4375 -147.171875 L 58.875 -147.171875 L 58.875 -117.75 Z M 88.3125 -117.75 L 88.3125 -147.171875 L 117.75 -147.171875 L 117.75 -117.75 Z M 0 -147.171875 L 0 -206.046875 L 29.4375 -206.046875 L 29.4375 -147.171875 Z M 117.75 -147.171875 L 117.75 -206.046875 L 147.171875 -206.046875 L 147.171875 -147.171875 Z M 117.75 -147.171875 "/></g></g></g><g fill="#2d3c53" fill-opacity="1"><g transform="translate(1096.350037, 425.682743)"><g><path d="M 29.4375 0 L 29.4375 -29.4375 L 117.75 -29.4375 L 117.75 0 Z M 0 -29.4375 L 0 -176.609375 L 29.4375 -176.609375 L 29.4375 -29.4375 Z M 117.75 -29.4375 L 117.75 -176.609375 L 147.171875 -176.609375 L 147.171875 -29.4375 Z M 29.4375 -176.609375 L 29.4375 -206.046875 L 117.75 -206.046875 L 117.75 -176.609375 Z M 29.4375 -176.609375 "/></g></g></g><g fill="#2d3c53" fill-opacity="1"><g transform="translate(1272.949781, 425.682743)"><g><path d="M 58.875 0 L 58.875 -176.609375 L 0 -176.609375 L 0 -206.046875 L 147.171875 -206.046875 L 147.171875 -176.609375 L 88.3125 -176.609375 L 88.3125 0 Z M 58.875 0 "/></g></g></g><g fill="#2d3c53" fill-opacity="1"><g transform="translate(1449.549524, 425.682743)"><g><path d="M 29.4375 0 L 29.4375 -29.4375 L 117.75 -29.4375 L 117.75 0 Z M 117.75 -29.4375 L 117.75 -58.875 L 147.171875 -58.875 L 147.171875 -29.4375 Z M 0 -29.4375 L 0 -176.609375 L 29.4375 -176.609375 L 29.4375 -29.4375 Z M 117.75 -147.171875 L 117.75 -176.609375 L 147.171875 -176.609375 L 147.171875 -147.171875 Z M 29.4375 -176.609375 L 29.4375 -206.046875 L 117.75 -206.046875 L 117.75 -176.609375 Z M 29.4375 -176.609375 "/></g></g></g><g fill="#2d3c53" fill-opacity="1"><g transform="translate(1626.149267, 425.682743)"><g><path d="M 0 0 L 0 -206.046875 L 29.4375 -206.046875 L 29.4375 -117.75 L 117.75 -117.75 L 117.75 -206.046875 L 147.171875 -206.046875 L 147.171875 0 L 117.75 0 L 117.75 -88.3125 L 29.4375 -88.3125 L 29.4375 0 Z M 0 0 "/></g></g></g><g fill="#2d3c53" fill-opacity="1"><g transform="translate(1802.749011, 425.682743)"><g><path d="M 0 0 L 0 -29.4375 L 29.4375 -29.4375 L 29.4375 -176.609375 L 0 -176.609375 L 0 -206.046875 L 88.3125 -206.046875 L 88.3125 -176.609375 L 58.875 -176.609375 L 58.875 -29.4375 L 88.3125 -29.4375 L 88.3125 0 Z M 0 0 "/></g></g></g><path fill="#3e5e13" d="M 318.9375 380.597656 L 343.449219 380.597656 L 343.449219 405.109375 L 318.9375 405.109375 Z M 318.9375 380.597656 " fill-opacity="1" fill-rule="nonzero"/><path fill="#a0b92a" d="M 294.425781 380.597656 L 318.9375 380.597656 L 318.9375 405.109375 L 294.425781 405.109375 Z M 294.425781 380.597656 " fill-opacity="1" fill-rule="nonzero"/><path fill="#334c0a" d="M 245.40625 380.597656 L 294.425781 380.597656 L 294.425781 405.109375 L 245.40625 405.109375 Z M 245.40625 380.597656 " fill-opacity="1" fill-rule="nonzero"/><path fill="#5f710d" d="M 196.386719 380.597656 L 245.40625 380.597656 L 245.40625 405.109375 L 196.386719 405.109375 Z M 196.386719 380.597656 " fill-opacity="1" fill-rule="nonzero"/><path fill="#5f710d" d="M 367.957031 380.597656 L 416.976562 380.597656 L 416.976562 405.109375 L 367.957031 405.109375 Z M 367.957031 380.597656 " fill-opacity="1" fill-rule="nonzero"/><path fill="#334c0a" d="M 343.449219 380.597656 L 367.957031 380.597656 L 367.957031 405.109375 L 343.449219 405.109375 Z M 343.449219 380.597656 " fill-opacity="1" fill-rule="nonzero"/><path fill="#334c0a" d="M 220.898438 356.085938 L 245.40625 356.085938 L 245.40625 380.597656 L 220.898438 380.597656 Z M 220.898438 356.085938 " fill-opacity="1" fill-rule="nonzero"/><path fill="#415c15" d="M 245.40625 356.085938 L 269.917969 356.085938 L 269.917969 380.597656 L 245.40625 380.597656 Z M 245.40625 356.085938 " fill-opacity="1" fill-rule="nonzero"/><path fill="#a0b92a" d="M 269.917969 356.085938 L 294.425781 356.085938 L 294.425781 380.597656 L 269.917969 380.597656 Z M 269.917969 356.085938 " fill-opacity="1" fill-rule="nonzero"/><path fill="#3e5e13" d="M 343.449219 356.085938 L 367.957031 356.085938 L 367.957031 380.597656 L 343.449219 380.597656 Z M 343.449219 356.085938 " fill-opacity="1" fill-rule="nonzero"/><path fill="#334c0a" d="M 367.957031 356.085938 L 392.46875 356.085938 L 392.46875 380.597656 L 367.957031 380.597656 Z M 367.957031 356.085938 " fill-opacity="1" fill-rule="nonzero"/><path fill="#b2ca34" d="M 294.425781 356.085938 L 343.449219 356.085938 L 343.449219 380.597656 L 294.425781 380.597656 Z M 294.425781 356.085938 " fill-opacity="1" fill-rule="nonzero"/><path fill="#5f710d" d="M 416.976562 356.085938 L 466 356.085938 L 466 380.597656 L 416.976562 380.597656 Z M 416.976562 356.085938 " fill-opacity="1" fill-rule="nonzero"/><path fill="#415c15" d="M 171.875 356.085938 L 196.386719 356.085938 L 196.386719 380.597656 L 171.875 380.597656 Z M 171.875 356.085938 " fill-opacity="1" fill-rule="nonzero"/><path fill="#334c0a" d="M 196.386719 331.578125 L 220.898438 331.578125 L 220.898438 356.085938 L 196.386719 356.085938 Z M 196.386719 331.578125 " fill-opacity="1" fill-rule="nonzero"/><path fill="#415c15" d="M 220.898438 331.578125 L 245.40625 331.578125 L 245.40625 356.085938 L 220.898438 356.085938 Z M 220.898438 331.578125 " fill-opacity="1" fill-rule="nonzero"/><path fill="#a0b92a" d="M 245.40625 331.578125 L 269.917969 331.578125 L 269.917969 356.085938 L 245.40625 356.085938 Z M 245.40625 331.578125 " fill-opacity="1" fill-rule="nonzero"/><path fill="#b2ca34" d="M 269.917969 331.578125 L 294.425781 331.578125 L 294.425781 356.085938 L 269.917969 356.085938 Z M 269.917969 331.578125 " fill-opacity="1" fill-rule="nonzero"/><path fill="#5f710d" d="M 294.425781 331.578125 L 343.449219 331.578125 L 343.449219 356.085938 L 294.425781 356.085938 Z M 294.425781 331.578125 " fill-opacity="1" fill-rule="nonzero"/><path fill="#3e5e13" d="M 367.957031 331.578125 L 392.46875 331.578125 L 392.46875 356.085938 L 367.957031 356.085938 Z M 367.957031 331.578125 " fill-opacity="1" fill-rule="nonzero"/><path fill="#334c0a" d="M 392.46875 331.578125 L 416.976562 331.578125 L 416.976562 356.085938 L 392.46875 356.085938 Z M 392.46875 331.578125 " fill-opacity="1" fill-rule="nonzero"/><path fill="#5f710d" d="M 122.855469 331.578125 L 171.875 331.578125 L 171.875 356.085938 L 122.855469 356.085938 Z M 122.855469 331.578125 " fill-opacity="1" fill-rule="nonzero"/><path fill="#334c0a" d="M 441.488281 331.578125 L 466 331.578125 L 466 356.085938 L 441.488281 356.085938 Z M 441.488281 331.578125 " fill-opacity="1" fill-rule="nonzero"/><path fill="#334c0a" d="M 171.875 307.066406 L 196.386719 307.066406 L 196.386719 331.578125 L 171.875 331.578125 Z M 171.875 307.066406 " fill-opacity="1" fill-rule="nonzero"/><path fill="#415c15" d="M 196.386719 307.066406 L 220.898438 307.066406 L 220.898438 331.578125 L 196.386719 331.578125 Z M 196.386719 307.066406 " fill-opacity="1" fill-rule="nonzero"/><path fill="#3e5e13" d="M 392.46875 307.066406 L 416.976562 307.066406 L 416.976562 331.578125 L 392.46875 331.578125 Z M 392.46875 307.066406 " fill-opacity="1" fill-rule="nonzero"/><path fill="#b2ca34" d="M 245.40625 282.558594 L 269.917969 282.558594 L 269.917969 331.578125 L 245.40625 331.578125 Z M 245.40625 282.558594 " fill-opacity="1" fill-rule="nonzero"/><path fill="#334c0a" d="M 269.917969 307.066406 L 318.9375 307.066406 L 318.9375 331.578125 L 269.917969 331.578125 Z M 269.917969 307.066406 " fill-opacity="1" fill-rule="nonzero"/><path fill="#334c0a" d="M 416.976562 282.558594 L 441.488281 282.558594 L 441.488281 331.578125 L 416.976562 331.578125 Z M 416.976562 282.558594 " fill-opacity="1" fill-rule="nonzero"/><path fill="#5f710d" d="M 343.449219 282.558594 L 367.957031 282.558594 L 367.957031 331.578125 L 343.449219 331.578125 Z M 343.449219 282.558594 " fill-opacity="1" fill-rule="nonzero"/><path fill="#334c0a" d="M 147.367188 307.066406 L 171.875 307.066406 L 171.875 331.578125 L 147.367188 331.578125 Z M 147.367188 307.066406 " fill-opacity="1" fill-rule="nonzero"/><path fill="#3e5e13" d="M 466 307.066406 L 490.507812 307.066406 L 490.507812 331.578125 L 466 331.578125 Z M 466 307.066406 " fill-opacity="1" fill-rule="nonzero"/><path fill="#a0b92a" d="M 220.898438 282.558594 L 245.40625 282.558594 L 245.40625 307.066406 L 220.898438 307.066406 Z M 220.898438 282.558594 " fill-opacity="1" fill-rule="nonzero"/><path fill="#3e5e13" d="M 294.425781 282.558594 L 318.9375 282.558594 L 318.9375 307.066406 L 294.425781 307.066406 Z M 294.425781 282.558594 " fill-opacity="1" fill-rule="nonzero"/><path fill="#5f710d" d="M 466 282.558594 L 515.019531 282.558594 L 515.019531 307.066406 L 466 307.066406 Z M 466 282.558594 " fill-opacity="1" fill-rule="nonzero"/><path fill="#415c15" d="M 171.875 282.558594 L 196.386719 282.558594 L 196.386719 307.066406 L 171.875 307.066406 Z M 171.875 282.558594 " fill-opacity="1" fill-rule="nonzero"/><path fill="#334c0a" d="M 269.917969 282.558594 L 294.425781 282.558594 L 294.425781 307.066406 L 269.917969 307.066406 Z M 269.917969 282.558594 " fill-opacity="1" fill-rule="nonzero"/><path fill="#a0b92a" d="M 318.9375 258.046875 L 343.449219 258.046875 L 343.449219 307.066406 L 318.9375 307.066406 Z M 318.9375 258.046875 " fill-opacity="1" fill-rule="nonzero"/><path fill="#415c15" d="M 122.855469 282.558594 L 147.367188 282.558594 L 147.367188 307.066406 L 122.855469 307.066406 Z M 122.855469 282.558594 " fill-opacity="1" fill-rule="nonzero"/><path fill="#a0b92a" d="M 367.957031 282.558594 L 392.46875 282.558594 L 392.46875 307.066406 L 367.957031 307.066406 Z M 367.957031 282.558594 " fill-opacity="1" fill-rule="nonzero"/><path fill="#5f710d" d="M 367.957031 258.046875 L 392.46875 258.046875 L 392.46875 282.558594 L 367.957031 282.558594 Z M 367.957031 258.046875 " fill-opacity="1" fill-rule="nonzero"/><path fill="#3e5e13" d="M 269.917969 233.535156 L 294.425781 233.535156 L 294.425781 282.558594 L 269.917969 282.558594 Z M 269.917969 233.535156 " fill-opacity="1" fill-rule="nonzero"/><path fill="#334c0a" d="M 441.488281 258.046875 L 466 258.046875 L 466 282.558594 L 441.488281 282.558594 Z M 441.488281 258.046875 " fill-opacity="1" fill-rule="nonzero"/><path fill="#334c0a" d="M 147.367188 258.046875 L 171.875 258.046875 L 171.875 282.558594 L 147.367188 282.558594 Z M 147.367188 258.046875 " fill-opacity="1" fill-rule="nonzero"/><path fill="#5f710d" d="M 196.386719 258.046875 L 220.898438 258.046875 L 220.898438 282.558594 L 196.386719 282.558594 Z M 196.386719 258.046875 " fill-opacity="1" fill-rule="nonzero"/><path fill="#415c15" d="M 171.875 258.046875 L 196.386719 258.046875 L 196.386719 282.558594 L 171.875 282.558594 Z M 171.875 258.046875 " fill-opacity="1" fill-rule="nonzero"/><path fill="#3e5e13" d="M 416.976562 258.046875 L 441.488281 258.046875 L 441.488281 282.558594 L 416.976562 282.558594 Z M 416.976562 258.046875 " fill-opacity="1" fill-rule="nonzero"/><path fill="#3e5e13" d="M 490.507812 258.046875 L 515.019531 258.046875 L 515.019531 282.558594 L 490.507812 282.558594 Z M 490.507812 258.046875 " fill-opacity="1" fill-rule="nonzero"/><path fill="#b2ca34" d="M 294.425781 258.046875 L 318.9375 258.046875 L 318.9375 282.558594 L 294.425781 282.558594 Z M 294.425781 258.046875 " fill-opacity="1" fill-rule="nonzero"/><path fill="#b2ca34" d="M 220.898438 233.535156 L 245.40625 233.535156 L 245.40625 282.558594 L 220.898438 282.558594 Z M 220.898438 233.535156 " fill-opacity="1" fill-rule="nonzero"/><path fill="#334c0a" d="M 245.40625 233.535156 L 269.917969 233.535156 L 269.917969 258.046875 L 245.40625 258.046875 Z M 245.40625 233.535156 " fill-opacity="1" fill-rule="nonzero"/><path fill="#5f710d" d="M 392.46875 209.027344 L 416.976562 209.027344 L 416.976562 258.046875 L 392.46875 258.046875 Z M 392.46875 209.027344 " fill-opacity="1" fill-rule="nonzero"/><path fill="#5f710d" d="M 343.449219 233.535156 L 367.957031 233.535156 L 367.957031 258.046875 L 343.449219 258.046875 Z M 343.449219 233.535156 " fill-opacity="1" fill-rule="nonzero"/><path fill="#334c0a" d="M 122.855469 233.535156 L 147.367188 233.535156 L 147.367188 258.046875 L 122.855469 258.046875 Z M 122.855469 233.535156 " fill-opacity="1" fill-rule="nonzero"/><path fill="#415c15" d="M 147.367188 233.535156 L 171.875 233.535156 L 171.875 258.046875 L 147.367188 258.046875 Z M 147.367188 233.535156 " fill-opacity="1" fill-rule="nonzero"/><path fill="#a0b92a" d="M 196.386719 233.535156 L 220.898438 233.535156 L 220.898438 258.046875 L 196.386719 258.046875 Z M 196.386719 233.535156 " fill-opacity="1" fill-rule="nonzero"/><path fill="#5f710d" d="M 294.425781 233.535156 L 318.9375 233.535156 L 318.9375 258.046875 L 294.425781 258.046875 Z M 294.425781 233.535156 " fill-opacity="1" fill-rule="nonzero"/><path fill="#3e5e13" d="M 441.488281 233.535156 L 490.507812 233.535156 L 490.507812 258.046875 L 441.488281 258.046875 Z M 441.488281 233.535156 " fill-opacity="1" fill-rule="nonzero"/><path fill="#b2ca34" d="M 318.9375 209.027344 L 343.449219 209.027344 L 343.449219 258.046875 L 318.9375 258.046875 Z M 318.9375 209.027344 " fill-opacity="1" fill-rule="nonzero"/><path fill="#a0b92a" d="M 343.449219 184.515625 L 367.957031 184.515625 L 367.957031 233.535156 L 343.449219 233.535156 Z M 343.449219 184.515625 " fill-opacity="1" fill-rule="nonzero"/><path fill="#334c0a" d="M 269.917969 209.027344 L 294.425781 209.027344 L 294.425781 233.535156 L 269.917969 233.535156 Z M 269.917969 209.027344 " fill-opacity="1" fill-rule="nonzero"/><path fill="#3e5e13" d="M 416.976562 209.027344 L 441.488281 209.027344 L 441.488281 233.535156 L 416.976562 233.535156 Z M 416.976562 209.027344 " fill-opacity="1" fill-rule="nonzero"/><path fill="#a0b92a" d="M 171.875 209.027344 L 196.386719 209.027344 L 196.386719 233.535156 L 171.875 233.535156 Z M 171.875 209.027344 " fill-opacity="1" fill-rule="nonzero"/><path fill="#3e5e13" d="M 245.40625 184.515625 L 269.917969 184.515625 L 269.917969 233.535156 L 245.40625 233.535156 Z M 245.40625 184.515625 " fill-opacity="1" fill-rule="nonzero"/><path fill="#b2ca34" d="M 196.386719 209.027344 L 220.898438 209.027344 L 220.898438 233.535156 L 196.386719 233.535156 Z M 196.386719 209.027344 " fill-opacity="1" fill-rule="nonzero"/><path fill="#5f710d" d="M 490.507812 209.027344 L 515.019531 209.027344 L 515.019531 233.535156 L 490.507812 233.535156 Z M 490.507812 209.027344 " fill-opacity="1" fill-rule="nonzero"/><path fill="#334c0a" d="M 294.425781 184.515625 L 318.9375 184.515625 L 318.9375 209.027344 L 294.425781 209.027344 Z M 294.425781 184.515625 " fill-opacity="1" fill-rule="nonzero"/><path fill="#5f710d" d="M 416.976562 184.515625 L 466 184.515625 L 466 209.027344 L 416.976562 209.027344 Z M 416.976562 184.515625 " fill-opacity="1" fill-rule="nonzero"/><path fill="#a0b92a" d="M 171.875 184.515625 L 196.386719 184.515625 L 196.386719 209.027344 L 171.875 209.027344 Z M 171.875 184.515625 " fill-opacity="1" fill-rule="nonzero"/><path fill="#b2ca34" d="M 367.957031 184.515625 L 392.46875 184.515625 L 392.46875 209.027344 L 367.957031 209.027344 Z M 367.957031 184.515625 " fill-opacity="1" fill-rule="nonzero"/><path fill="#b2ca34" d="M 122.855469 184.515625 L 171.875 184.515625 L 171.875 209.027344 L 122.855469 209.027344 Z M 122.855469 184.515625 " fill-opacity="1" fill-rule="nonzero"/><path fill="#5f710d" d="M 220.898438 184.515625 L 245.40625 184.515625 L 245.40625 209.027344 L 220.898438 209.027344 Z M 220.898438 184.515625 " fill-opacity="1" fill-rule="nonzero"/><path fill="#b2ca34" d="M 343.449219 160.007812 L 367.957031 160.007812 L 367.957031 184.515625 L 343.449219 184.515625 Z M 343.449219 160.007812 " fill-opacity="1" fill-rule="nonzero"/><path fill="#a0b92a" d="M 122.855469 160.007812 L 147.367188 160.007812 L 147.367188 184.515625 L 122.855469 184.515625 Z M 122.855469 160.007812 " fill-opacity="1" fill-rule="nonzero"/><path fill="#a0b92a" d="M 245.40625 160.007812 L 269.917969 160.007812 L 269.917969 184.515625 L 245.40625 184.515625 Z M 245.40625 160.007812 " fill-opacity="1" fill-rule="nonzero"/><path fill="#a0b92a" d="M 392.46875 160.007812 L 416.976562 160.007812 L 416.976562 184.515625 L 392.46875 184.515625 Z M 392.46875 160.007812 " fill-opacity="1" fill-rule="nonzero"/><path fill="#3e5e13" d="M 416.976562 160.007812 L 441.488281 160.007812 L 441.488281 184.515625 L 416.976562 184.515625 Z M 416.976562 160.007812 " fill-opacity="1" fill-rule="nonzero"/><path fill="#5f710d" d="M 171.875 160.007812 L 196.386719 160.007812 L 196.386719 184.515625 L 171.875 184.515625 Z M 171.875 160.007812 " fill-opacity="1" fill-rule="nonzero"/><path fill="#334c0a" d="M 294.425781 135.496094 L 318.9375 135.496094 L 318.9375 184.515625 L 294.425781 184.515625 Z M 294.425781 135.496094 " fill-opacity="1" fill-rule="nonzero"/><path fill="#a0b92a" d="M 98.347656 160.007812 L 122.855469 160.007812 L 122.855469 184.515625 L 98.347656 184.515625 Z M 98.347656 160.007812 " fill-opacity="1" fill-rule="nonzero"/><path fill="#3e5e13" d="M 466 160.007812 L 490.507812 160.007812 L 490.507812 184.515625 L 466 184.515625 Z M 466 160.007812 " fill-opacity="1" fill-rule="nonzero"/><path fill="#5f710d" d="M 196.386719 135.496094 L 220.898438 135.496094 L 220.898438 184.515625 L 196.386719 184.515625 Z M 196.386719 135.496094 " fill-opacity="1" fill-rule="nonzero"/><path fill="#3e5e13" d="M 318.9375 135.496094 L 343.449219 135.496094 L 343.449219 160.007812 L 318.9375 160.007812 Z M 318.9375 135.496094 " fill-opacity="1" fill-rule="nonzero"/><path fill="#b2ca34" d="M 367.957031 135.496094 L 392.46875 135.496094 L 392.46875 160.007812 L 367.957031 160.007812 Z M 367.957031 135.496094 " fill-opacity="1" fill-rule="nonzero"/><path fill="#a0b92a" d="M 220.898438 135.496094 L 245.40625 135.496094 L 245.40625 160.007812 L 220.898438 160.007812 Z M 220.898438 135.496094 " fill-opacity="1" fill-rule="nonzero"/><path fill="#5f710d" d="M 269.917969 110.984375 L 294.425781 110.984375 L 294.425781 160.007812 L 269.917969 160.007812 Z M 269.917969 110.984375 " fill-opacity="1" fill-rule="nonzero"/><path fill="#3e5e13" d="M 441.488281 135.496094 L 466 135.496094 L 466 160.007812 L 441.488281 160.007812 Z M 441.488281 135.496094 " fill-opacity="1" fill-rule="nonzero"/><path fill="#5f710d" d="M 318.9375 110.984375 L 343.449219 110.984375 L 343.449219 135.496094 L 318.9375 135.496094 Z M 318.9375 110.984375 " fill-opacity="1" fill-rule="nonzero"/><path fill="#a0b92a" d="M 367.957031 110.984375 L 416.976562 110.984375 L 416.976562 135.496094 L 367.957031 135.496094 Z M 367.957031 110.984375 " fill-opacity="1" fill-rule="nonzero"/><path fill="#a0b92a" d="M 171.875 110.984375 L 220.898438 110.984375 L 220.898438 135.496094 L 171.875 135.496094 Z M 171.875 110.984375 " fill-opacity="1" fill-rule="nonzero"/><path fill="#a0b92a" d="M 245.40625 110.984375 L 269.917969 110.984375 L 269.917969 135.496094 L 245.40625 135.496094 Z M 245.40625 110.984375 " fill-opacity="1" fill-rule="nonzero"/><path fill="#3e5e13" d="M 147.367188 135.496094 L 171.875 135.496094 L 171.875 160.007812 L 147.367188 160.007812 Z M 147.367188 135.496094 " fill-opacity="1" fill-rule="nonzero"/><path fill="#5f710d" d="M 122.855469 110.984375 L 147.367188 110.984375 L 147.367188 135.496094 L 122.855469 135.496094 Z M 122.855469 110.984375 " fill-opacity="1" fill-rule="nonzero"/><path fill="#b2ca34" d="M 343.449219 86.476562 L 367.957031 86.476562 L 367.957031 110.984375 L 343.449219 110.984375 Z M 343.449219 86.476562 " fill-opacity="1" fill-rule="nonzero"/><path fill="#b2ca34" d="M 490.507812 135.496094 L 515.019531 135.496094 L 515.019531 160.007812 L 490.507812 160.007812 Z M 490.507812 135.496094 " fill-opacity="1" fill-rule="nonzero"/><path fill="#5f710d" d="M 441.488281 110.984375 L 490.507812 110.984375 L 490.507812 135.496094 L 441.488281 135.496094 Z M 441.488281 110.984375 " fill-opacity="1" fill-rule="nonzero"/><path fill="#5f710d" d="M 367.957031 86.476562 L 392.46875 86.476562 L 392.46875 110.984375 L 367.957031 110.984375 Z M 367.957031 86.476562 " fill-opacity="1" fill-rule="nonzero"/><path fill="#5f710d" d="M 245.40625 86.476562 L 269.917969 86.476562 L 269.917969 110.984375 L 245.40625 110.984375 Z M 245.40625 86.476562 " fill-opacity="1" fill-rule="nonzero"/><path fill="#3e5e13" d="M 294.425781 86.476562 L 318.9375 86.476562 L 318.9375 110.984375 L 294.425781 110.984375 Z M 294.425781 86.476562 " fill-opacity="1" fill-rule="nonzero"/><path fill="#b2ca34" d="M 416.976562 86.476562 L 441.488281 86.476562 L 441.488281 110.984375 L 416.976562 110.984375 Z M 416.976562 86.476562 " fill-opacity="1" fill-rule="nonzero"/><path fill="#a0b92a" d="M 98.347656 86.476562 L 122.855469 86.476562 L 122.855469 110.984375 L 98.347656 110.984375 Z M 98.347656 86.476562 " fill-opacity="1" fill-rule="nonzero"/><path fill="#b2ca34" d="M 147.367188 86.476562 L 196.386719 86.476562 L 196.386719 110.984375 L 147.367188 110.984375 Z M 147.367188 86.476562 " fill-opacity="1" fill-rule="nonzero"/><path fill="#b2ca34" d="M 343.449219 61.964844 L 367.957031 61.964844 L 367.957031 86.476562 L 343.449219 86.476562 Z M 343.449219 61.964844 " fill-opacity="1" fill-rule="nonzero"/><path fill="#b2ca34" d="M 441.488281 61.964844 L 466 61.964844 L 466 86.476562 L 441.488281 86.476562 Z M 441.488281 61.964844 " fill-opacity="1" fill-rule="nonzero"/><path fill="#3e5e13" d="M 392.46875 61.964844 L 416.976562 61.964844 L 416.976562 86.476562 L 392.46875 86.476562 Z M 392.46875 61.964844 " fill-opacity="1" fill-rule="nonzero"/><path fill="#5f710d" d="M 220.898438 61.964844 L 245.40625 61.964844 L 245.40625 86.476562 L 220.898438 86.476562 Z M 220.898438 61.964844 " fill-opacity="1" fill-rule="nonzero"/><path fill="#3e5e13" d="M 269.917969 61.964844 L 294.425781 61.964844 L 294.425781 86.476562 L 269.917969 86.476562 Z M 269.917969 61.964844 " fill-opacity="1" fill-rule="nonzero"/><path fill="#5f710d" d="M 147.367188 61.964844 L 171.875 61.964844 L 171.875 86.476562 L 147.367188 86.476562 Z M 147.367188 61.964844 " fill-opacity="1" fill-rule="nonzero"/><path fill="#ce9f69" d="M 203.738281 552.167969 L 203.738281 533.785156 L 409.625 533.785156 L 409.625 552.167969 Z M 203.738281 552.167969 " fill-opacity="1" fill-rule="nonzero"/><path fill="#dfb384" d="M 130.210938 405.109375 L 185.355469 405.109375 L 185.355469 478.636719 L 130.210938 478.636719 Z M 130.210938 405.109375 " fill-opacity="1" fill-rule="nonzero"/><path fill="#fddfbd" d="M 202.515625 405.109375 L 374.085938 405.109375 L 374.085938 478.636719 L 202.515625 478.636719 Z M 202.515625 405.109375 " fill-opacity="1" fill-rule="nonzero"/><path fill="#ce9f69" d="M 464.773438 405.109375 L 483.15625 405.109375 L 483.15625 478.636719 L 464.773438 478.636719 Z M 464.773438 405.109375 " fill-opacity="1" fill-rule="nonzero"/><path fill="#965e13" d="M 148.59375 478.636719 L 185.355469 478.636719 L 185.355469 497.019531 L 148.59375 497.019531 Z M 148.59375 478.636719 " fill-opacity="1" fill-rule="nonzero"/><path fill="#b26f16" d="M 185.355469 478.636719 L 222.121094 478.636719 L 222.121094 515.402344 L 185.355469 515.402344 Z M 185.355469 478.636719 " fill-opacity="1" fill-rule="nonzero"/><path fill="#ce9f69" d="M 446.390625 405.109375 L 464.773438 405.109375 L 464.773438 478.636719 L 446.390625 478.636719 Z M 446.390625 405.109375 " fill-opacity="1" fill-rule="nonzero"/><path fill="#965e13" d="M 446.390625 478.636719 L 464.773438 478.636719 L 464.773438 497.019531 L 446.390625 497.019531 Z M 446.390625 478.636719 " fill-opacity="1" fill-rule="nonzero"/><path fill="#dfb384" d="M 409.625 405.109375 L 446.390625 405.109375 L 446.390625 478.636719 L 409.625 478.636719 Z M 409.625 405.109375 " fill-opacity="1" fill-rule="nonzero"/><path fill="#f1c699" d="M 372.859375 405.109375 L 409.625 405.109375 L 409.625 478.636719 L 372.859375 478.636719 Z M 372.859375 405.109375 " fill-opacity="1" fill-rule="nonzero"/><path fill="#f1c699" d="M 336.09375 441.871094 L 372.859375 441.871094 L 372.859375 478.636719 L 336.09375 478.636719 Z M 336.09375 441.871094 " fill-opacity="1" fill-rule="nonzero"/><path fill="#965e13" d="M 166.972656 497.019531 L 185.355469 497.019531 L 185.355469 515.402344 L 166.972656 515.402344 Z M 166.972656 497.019531 " fill-opacity="1" fill-rule="nonzero"/><path fill="#b26f16" d="M 294.425781 478.636719 L 410.851562 478.636719 L 410.851562 515.402344 L 294.425781 515.402344 Z M 294.425781 478.636719 " fill-opacity="1" fill-rule="nonzero"/><path fill="#f1c699" d="M 185.355469 405.109375 L 222.121094 405.109375 L 222.121094 478.636719 L 185.355469 478.636719 Z M 185.355469 405.109375 " fill-opacity="1" fill-rule="nonzero"/><path fill="#dfb384" d="M 185.355469 515.402344 L 410.851562 515.402344 L 410.851562 533.785156 L 185.355469 533.785156 Z M 185.355469 515.402344 " fill-opacity="1" fill-rule="nonzero"/><path fill="#ce9f69" d="M 409.625 515.402344 L 428.007812 515.402344 L 428.007812 533.785156 L 409.625 533.785156 Z M 409.625 515.402344 " fill-opacity="1" fill-rule="nonzero"/><path fill="#d18219" d="M 222.121094 478.636719 L 295.652344 478.636719 L 295.652344 515.402344 L 222.121094 515.402344 Z M 222.121094 478.636719 " fill-opacity="1" fill-rule="nonzero"/><path fill="#965e13" d="M 409.625 478.636719 L 446.390625 478.636719 L 446.390625 515.402344 L 409.625 515.402344 Z M 409.625 478.636719 " fill-opacity="1" fill-rule="nonzero"/></svg>