<?xml version="1.0" encoding="UTF-8"?>
<svg id="Layer_1" xmlns="http://www.w3.org/2000/svg" viewBox="0 0 600 600">
  <defs>
    <style>
      .cls-1 {
        fill: #39b54a;
      }

      .cls-2 {
        fill: #8cc63f;
      }

      .cls-3 {
        fill: #fff;
      }

      .cls-4 {
        fill: #c69c6d;
      }

      .cls-5 {
        fill: #009245;
      }

      .cls-6 {
        fill: #2d3c53;
      }

      .cls-7 {
        fill: #8c6239;
      }
    </style>
  </defs>
  <g id="Frame">
    <polygon class="cls-3" points="585.01 59.94 585.01 540.06 570.03 540.06 570.03 555.04 555.04 555.04 555.04 570.03 540.06 570.03 540.06 585.01 59.94 585.01 59.94 570.03 44.96 570.03 44.96 555.04 29.97 555.04 29.97 540.06 14.99 540.06 14.99 59.94 29.97 59.94 29.97 44.96 44.96 44.96 44.96 29.97 59.94 29.97 59.94 14.99 540.06 14.99 540.06 29.97 555.04 29.97 555.04 44.96 570.03 44.96 570.03 59.94 585.01 59.94"/>
    <g>
      <polygon class="cls-6" points="59.94 14.99 59.94 29.97 44.96 29.97 44.96 44.96 29.97 44.96 29.97 59.94 14.99 59.94 14.99 29.97 29.97 29.97 29.97 14.99 59.94 14.99"/>
      <rect class="cls-6" x="59.94" width="480.12" height="14.99"/>
      <polygon class="cls-6" points="59.94 570.03 59.94 585.01 29.97 585.01 29.97 570.03 14.99 570.03 14.99 540.06 29.97 540.06 29.97 555.04 44.96 555.04 44.96 570.03 59.94 570.03"/>
      <rect class="cls-6" y="59.94" width="14.99" height="480.12"/>
      <polygon class="cls-6" points="585.01 540.06 585.01 570.03 570.03 570.03 570.03 585.01 540.06 585.01 540.06 570.03 555.04 570.03 555.04 555.04 570.03 555.04 570.03 540.06 585.01 540.06"/>
      <rect class="cls-6" x="59.94" y="585.01" width="480.12" height="14.99"/>
      <polygon class="cls-6" points="585.01 29.97 585.01 59.94 570.03 59.94 570.03 44.96 555.04 44.96 555.04 29.97 540.06 29.97 540.06 14.99 570.03 14.99 570.03 29.97 585.01 29.97"/>
      <rect class="cls-6" x="585.01" y="59.94" width="14.99" height="480.12"/>
    </g>
  </g>
  <g>
    <rect class="cls-1" x="291.32" y="409.15" width="17.36" height="17.36"/>
    <rect class="cls-1" x="291.32" y="391.8" width="17.36" height="17.36"/>
    <rect class="cls-1" x="273.97" y="391.8" width="17.36" height="17.36"/>
    <rect class="cls-1" x="256.61" y="391.8" width="17.36" height="17.36"/>
    <rect class="cls-2" x="256.61" y="374.44" width="17.36" height="17.36"/>
    <rect class="cls-5" x="239.25" y="391.8" width="17.36" height="17.36"/>
    <rect class="cls-1" x="239.25" y="374.44" width="17.36" height="17.36"/>
    <rect class="cls-2" x="239.25" y="357.09" width="17.36" height="17.36"/>
    <rect class="cls-5" x="221.9" y="374.44" width="17.36" height="17.36"/>
    <rect class="cls-1" x="221.9" y="357.09" width="17.36" height="17.36"/>
    <rect class="cls-2" x="221.9" y="339.73" width="17.36" height="17.36"/>
    <rect class="cls-5" x="204.54" y="357.09" width="17.36" height="17.36"/>
    <g>
      <rect class="cls-7" x="152.48" y="443.87" width="295.05" height="17.36"/>
      <rect class="cls-7" x="412.81" y="478.58" width="17.36" height="17.36"/>
      <rect class="cls-7" x="395.46" y="495.93" width="17.36" height="17.36"/>
      <rect class="cls-7" x="378.1" y="513.29" width="17.36" height="17.36"/>
      <rect class="cls-7" x="378.1" y="478.58" width="17.36" height="17.36"/>
      <rect class="cls-7" x="360.75" y="495.93" width="17.36" height="17.36"/>
      <rect class="cls-7" x="343.39" y="513.29" width="17.36" height="17.36"/>
      <rect class="cls-7" x="343.39" y="478.58" width="17.36" height="17.36"/>
      <rect class="cls-7" x="326.03" y="495.93" width="17.36" height="17.36"/>
      <rect class="cls-7" x="308.68" y="513.29" width="17.36" height="17.36"/>
      <rect class="cls-7" x="308.68" y="478.58" width="17.36" height="17.36"/>
      <rect class="cls-7" x="291.32" y="495.93" width="17.36" height="17.36"/>
      <rect class="cls-7" x="273.97" y="513.29" width="17.36" height="17.36"/>
      <rect class="cls-7" x="273.97" y="478.58" width="17.36" height="17.36"/>
      <rect class="cls-7" x="256.61" y="495.93" width="17.36" height="17.36"/>
      <rect class="cls-7" x="239.25" y="513.29" width="17.36" height="17.36"/>
      <rect class="cls-7" x="239.25" y="478.58" width="17.36" height="17.36"/>
      <rect class="cls-7" x="221.9" y="495.93" width="17.36" height="17.36"/>
      <rect class="cls-7" x="204.54" y="513.29" width="17.36" height="17.36"/>
      <rect class="cls-7" x="204.54" y="478.58" width="17.36" height="17.36"/>
      <rect class="cls-7" x="187.19" y="495.93" width="17.36" height="17.36"/>
      <rect class="cls-7" x="169.83" y="478.58" width="17.36" height="17.36"/>
    </g>
    <g>
      <rect class="cls-4" x="152.48" y="426.51" width="295.05" height="17.36"/>
      <rect class="cls-4" x="412.81" y="495.93" width="17.36" height="17.36"/>
      <polygon class="cls-4" points="152.48 461.22 152.48 495.93 169.83 495.93 169.83 478.58 187.19 478.58 187.19 495.93 204.54 495.93 204.54 478.58 221.9 478.58 221.9 495.93 239.25 495.93 239.25 478.58 256.61 478.58 256.61 495.93 273.97 495.93 273.97 478.58 291.32 478.58 291.32 495.93 308.68 495.93 308.68 478.58 326.03 478.58 326.03 495.93 343.39 495.93 343.39 478.58 360.75 478.58 360.75 495.93 378.1 495.93 378.1 478.58 395.46 478.58 395.46 495.93 412.81 495.93 412.81 478.58 430.17 478.58 430.17 495.93 447.52 495.93 447.52 461.22 152.48 461.22"/>
      <rect class="cls-4" x="395.46" y="513.29" width="17.36" height="17.36"/>
      <rect class="cls-4" x="378.1" y="495.93" width="17.36" height="17.36"/>
      <polygon class="cls-4" points="378.1 513.29 360.75 513.29 360.75 530.64 343.39 530.64 343.39 513.29 326.03 513.29 326.03 530.64 308.68 530.64 308.68 513.29 291.32 513.29 291.32 530.64 273.97 530.64 273.97 513.29 256.61 513.29 256.61 530.64 239.25 530.64 239.25 513.29 221.9 513.29 221.9 530.64 204.54 530.64 204.54 548 395.46 548 395.46 530.64 378.1 530.64 378.1 513.29"/>
      <rect class="cls-4" x="343.39" y="495.93" width="17.36" height="17.36"/>
      <rect class="cls-4" x="308.68" y="495.93" width="17.36" height="17.36"/>
      <rect class="cls-4" x="273.97" y="495.93" width="17.36" height="17.36"/>
      <rect class="cls-4" x="239.25" y="495.93" width="17.36" height="17.36"/>
      <rect class="cls-4" x="204.54" y="495.93" width="17.36" height="17.36"/>
      <rect class="cls-4" x="187.19" y="513.29" width="17.36" height="17.36"/>
      <rect class="cls-4" x="169.83" y="495.93" width="17.36" height="17.36"/>
    </g>
  </g>
</svg>