<svg xmlns="http://www.w3.org/2000/svg" xmlns:xlink="http://www.w3.org/1999/xlink" width="1920" zoomAndPan="magnify" viewBox="0 0 1440 1439.999935" height="1920" preserveAspectRatio="xMidYMid meet" version="1.2"><g id="748d2912dc"><path style=" stroke:none;fill-rule:nonzero;fill:#f7feff;fill-opacity:1;" d="M 90 1260 L 1350 1260 L 1350 1350 L 90 1350 Z M 90 1260 "/><path style=" stroke:none;fill-rule:nonzero;fill:#231e2b;fill-opacity:1;" d="M 1350 270 L 1170 270 L 1170 360 L 1260 360 L 1260 1170 L 180 1170 L 180 360 L 270 360 L 270 270 L 90 270 L 90 1260 L 1350 1260 Z M 1350 270 "/><path style=" stroke:none;fill-rule:nonzero;fill:#cc5c17;fill-opacity:1;" d="M 180 1080 L 1260 1080 L 1260 1170 L 180 1170 Z M 180 1080 "/><path style=" stroke:none;fill-rule:nonzero;fill:#f7feff;fill-opacity:1;" d="M 0 270 L 90 270 L 90 1260 L 0 1260 Z M 0 270 "/><path style=" stroke:none;fill-rule:nonzero;fill:#ff8439;fill-opacity:1;" d="M 180 990 L 1260 990 L 1260 1080 L 180 1080 Z M 180 990 "/><path style=" stroke:none;fill-rule:nonzero;fill:#af4c0f;fill-opacity:1;" d="M 180 900 L 1260 900 L 1260 990 L 180 990 Z M 180 900 "/><path style=" stroke:none;fill-rule:nonzero;fill:#ff8439;fill-opacity:1;" d="M 900 630 L 990 630 L 990 720 L 900 720 Z M 900 630 "/><path style=" stroke:none;fill-rule:nonzero;fill:#af4c0f;fill-opacity:1;" d="M 810 630 L 900 630 L 900 720 L 810 720 Z M 810 630 "/><path style=" stroke:none;fill-rule:nonzero;fill:#af4c0f;fill-opacity:1;" d="M 540 630 L 630 630 L 630 720 L 540 720 Z M 540 630 "/><path style=" stroke:none;fill-rule:nonzero;fill:#ff8439;fill-opacity:1;" d="M 450 630 L 540 630 L 540 720 L 450 720 Z M 450 630 "/><path style=" stroke:none;fill-rule:nonzero;fill:#ff8439;fill-opacity:1;" d="M 990 540 L 1080 540 L 1080 630 L 990 630 Z M 990 540 "/><path style=" stroke:none;fill-rule:nonzero;fill:#231e2b;fill-opacity:1;" d="M 900 630 L 990 630 L 990 540 L 1080 540 L 1080 450 L 900 450 Z M 900 630 "/><path style=" stroke:none;fill-rule:nonzero;fill:#ff8439;fill-opacity:1;" d="M 810 450 L 900 450 L 900 630 L 810 630 Z M 810 450 "/><path style=" stroke:none;fill-rule:nonzero;fill:#ff8439;fill-opacity:1;" d="M 540 450 L 630 450 L 630 630 L 540 630 Z M 540 450 "/><path style=" stroke:none;fill-rule:nonzero;fill:#ff8439;fill-opacity:1;" d="M 360 540 L 450 540 L 450 630 L 360 630 Z M 360 540 "/><path style=" stroke:none;fill-rule:nonzero;fill:#cc5c17;fill-opacity:1;" d="M 1170 540 L 1080 540 L 1080 630 L 990 630 L 990 720 L 810 720 L 810 360 L 720 360 L 720 450 L 630 450 L 630 720 L 450 720 L 450 630 L 360 630 L 360 540 L 270 540 L 270 450 L 180 450 L 180 900 L 1260 900 L 1260 450 L 1170 450 Z M 1170 540 "/><path style=" stroke:none;fill-rule:nonzero;fill:#ff8439;fill-opacity:1;" d="M 1080 450 L 1170 450 L 1170 540 L 1080 540 Z M 1080 450 "/><path style=" stroke:none;fill-rule:nonzero;fill:#231e2b;fill-opacity:1;" d="M 450 540 L 450 630 L 540 630 L 540 450 L 360 450 L 360 540 Z M 450 540 "/><path style=" stroke:none;fill-rule:nonzero;fill:#ff8439;fill-opacity:1;" d="M 270 450 L 360 450 L 360 540 L 270 540 Z M 270 450 "/><path style=" stroke:none;fill-rule:nonzero;fill:#ff8439;fill-opacity:1;" d="M 1170 360 L 1260 360 L 1260 450 L 1170 450 Z M 1170 360 "/><path style=" stroke:none;fill-rule:nonzero;fill:#231e2b;fill-opacity:1;" d="M 1080 360 L 1170 360 L 1170 450 L 1080 450 Z M 1080 360 "/><path style=" stroke:none;fill-rule:nonzero;fill:#f7feff;fill-opacity:1;" d="M 900 450 L 1080 450 L 1080 360 L 990 360 L 990 270 L 900 270 Z M 900 450 "/><path style=" stroke:none;fill-rule:nonzero;fill:#ff8439;fill-opacity:1;" d="M 720 360 L 810 360 L 810 270 L 630 270 L 630 450 L 720 450 Z M 720 360 "/><path style=" stroke:none;fill-rule:nonzero;fill:#231e2b;fill-opacity:1;" d="M 540 270 L 630 270 L 630 450 L 540 450 Z M 540 270 "/><path style=" stroke:none;fill-rule:nonzero;fill:#f7feff;fill-opacity:1;" d="M 540 450 L 540 270 L 450 270 L 450 360 L 360 360 L 360 450 Z M 540 450 "/><path style=" stroke:none;fill-rule:nonzero;fill:#231e2b;fill-opacity:1;" d="M 270 360 L 360 360 L 360 450 L 270 450 Z M 270 360 "/><path style=" stroke:none;fill-rule:nonzero;fill:#ff8439;fill-opacity:1;" d="M 180 360 L 270 360 L 270 450 L 180 450 Z M 180 360 "/><path style=" stroke:none;fill-rule:nonzero;fill:#f7feff;fill-opacity:1;" d="M 1350 270 L 1440 270 L 1440 1260 L 1350 1260 Z M 1350 270 "/><path style=" stroke:none;fill-rule:nonzero;fill:#f7feff;fill-opacity:1;" d="M 1080 270 L 1170 270 L 1170 360 L 1080 360 Z M 1080 270 "/><path style=" stroke:none;fill-rule:nonzero;fill:#231e2b;fill-opacity:1;" d="M 810 270 L 900 270 L 900 450 L 810 450 Z M 810 270 "/><path style=" stroke:none;fill-rule:nonzero;fill:#f7feff;fill-opacity:1;" d="M 270 270 L 360 270 L 360 360 L 270 360 Z M 270 270 "/><path style=" stroke:none;fill-rule:nonzero;fill:#f7feff;fill-opacity:1;" d="M 1170 180 L 1350 180 L 1350 270 L 1170 270 Z M 1170 180 "/><path style=" stroke:none;fill-rule:nonzero;fill:#f7feff;fill-opacity:1;" d="M 810 180 L 900 180 L 900 270 L 810 270 Z M 810 180 "/><path style=" stroke:none;fill-rule:nonzero;fill:#231e2b;fill-opacity:1;" d="M 630 180 L 810 180 L 810 270 L 630 270 Z M 630 180 "/><path style=" stroke:none;fill-rule:nonzero;fill:#f7feff;fill-opacity:1;" d="M 540 180 L 630 180 L 630 270 L 540 270 Z M 540 180 "/><path style=" stroke:none;fill-rule:nonzero;fill:#f7feff;fill-opacity:1;" d="M 90 180 L 270 180 L 270 270 L 90 270 Z M 90 180 "/><path style=" stroke:none;fill-rule:nonzero;fill:#f7feff;fill-opacity:1;" d="M 630 90 L 810 90 L 810 180 L 630 180 Z M 630 90 "/></g></svg>