<svg xmlns="http://www.w3.org/2000/svg" xmlns:xlink="http://www.w3.org/1999/xlink" width="2000" zoomAndPan="magnify" viewBox="0 0 1500 1499.999933" height="2000" preserveAspectRatio="xMidYMid meet" version="1.0"><defs><filter x="0%" y="0%" width="100%" height="100%" id="d69349a355"><feColorMatrix values="0 0 0 0 1 0 0 0 0 1 0 0 0 0 1 0 0 0 1 0" color-interpolation-filters="sRGB"/></filter><clipPath id="33758623a2"><path d="M 106.429688 0 L 1393.429688 0 L 1393.429688 1499.671875 L 106.429688 1499.671875 Z M 106.429688 0 " clip-rule="nonzero"/></clipPath><clipPath id="94f13364d0"><path d="M 186 1189 L 1314 1189 L 1314 1499.671875 L 186 1499.671875 Z M 186 1189 " clip-rule="nonzero"/></clipPath><clipPath id="782ed36a71"><path d="M 991 1431 L 1314 1431 L 1314 1499.671875 L 991 1499.671875 Z M 991 1431 " clip-rule="nonzero"/></clipPath><mask id="1ff0338f1f"><g filter="url(#d69349a355)"><rect x="-150" width="1800" fill="#000000" y="-149.999993" height="1799.99992" fill-opacity="0.5"/></g></mask><clipPath id="d6cfdd590b"><path d="M 0.601562 0.640625 L 81.238281 0.640625 L 81.238281 81.519531 L 0.601562 81.519531 Z M 0.601562 0.640625 " clip-rule="nonzero"/></clipPath><clipPath id="0ec980cebd"><rect x="0" width="82" y="0" height="82"/></clipPath><mask id="ec767f7bee"><g filter="url(#d69349a355)"><rect x="-150" width="1800" fill="#000000" y="-149.999993" height="1799.99992" fill-opacity="0.5"/></g></mask><clipPath id="a47e938c1f"><path d="M 0.800781 0.679688 L 81.441406 0.679688 L 81.441406 81.320312 L 0.800781 81.320312 Z M 0.800781 0.679688 " clip-rule="nonzero"/></clipPath><clipPath id="e9d55a9b0f"><rect x="0" width="82" y="0" height="82"/></clipPath><mask id="56f89c89a6"><g filter="url(#d69349a355)"><rect x="-150" width="1800" fill="#000000" y="-149.999993" height="1799.99992" fill-opacity="0.5"/></g></mask><clipPath id="d4340daaa1"><path d="M 0.558594 0.679688 L 81.199219 0.679688 L 81.199219 81.320312 L 0.558594 81.320312 Z M 0.558594 0.679688 " clip-rule="nonzero"/></clipPath><clipPath id="0af4765a08"><rect x="0" width="82" y="0" height="82"/></clipPath><mask id="1bf25a4c6f"><g filter="url(#d69349a355)"><rect x="-150" width="1800" fill="#000000" y="-149.999993" height="1799.99992" fill-opacity="0.5"/></g></mask><clipPath id="df406ca580"><path d="M 0.398438 0.078125 L 81 0.078125 L 81 80.71875 L 0.398438 80.71875 Z M 0.398438 0.078125 " clip-rule="nonzero"/></clipPath><clipPath id="2bef0d57fe"><rect x="0" width="82" y="0" height="81"/></clipPath><mask id="067f270421"><g filter="url(#d69349a355)"><rect x="-150" width="1800" fill="#000000" y="-149.999993" height="1799.99992" fill-opacity="0.2"/></g></mask><clipPath id="285631dcac"><path d="M 1 0.078125 L 81.601562 0.078125 L 81.601562 80.71875 L 1 80.71875 Z M 1 0.078125 " clip-rule="nonzero"/></clipPath><clipPath id="5d3322b66e"><rect x="0" width="82" y="0" height="81"/></clipPath><clipPath id="a6f5774607"><path d="M 1152 1431 L 1314 1431 L 1314 1499.671875 L 1152 1499.671875 Z M 1152 1431 " clip-rule="nonzero"/></clipPath><clipPath id="d9cf9e9b69"><path d="M 1232 1431 L 1314 1431 L 1314 1499.671875 L 1232 1499.671875 Z M 1232 1431 " clip-rule="nonzero"/></clipPath><clipPath id="2366120e74"><path d="M 991 1430 L 1153 1430 L 1153 1499.671875 L 991 1499.671875 Z M 991 1430 " clip-rule="nonzero"/></clipPath><mask id="3e5add31c4"><g filter="url(#d69349a355)"><rect x="-150" width="1800" fill="#000000" y="-149.999993" height="1799.99992" fill-opacity="0.5"/></g></mask><clipPath id="112a06b7c6"><path d="M 0.199219 1 L 161.238281 1 L 161.238281 69.671875 L 0.199219 69.671875 Z M 0.199219 1 " clip-rule="nonzero"/></clipPath><clipPath id="3e287ae971"><rect x="0" width="162" y="0" height="70"/></clipPath><clipPath id="a6762ccc56"><path d="M 106.429688 0 L 1393.429688 0 L 1393.429688 1499.671875 L 106.429688 1499.671875 Z M 106.429688 0 " clip-rule="nonzero"/></clipPath><mask id="a09f19fff2"><g filter="url(#d69349a355)"><rect x="-150" width="1800" fill="#000000" y="-149.999993" height="1799.99992" fill-opacity="0.5"/></g></mask><clipPath id="f7d5ea6851"><path d="M 0.199219 0.679688 L 80.839844 0.679688 L 80.839844 242.121094 L 0.199219 242.121094 Z M 0.199219 0.679688 " clip-rule="nonzero"/></clipPath><clipPath id="6135a60da6"><rect x="0" width="81" y="0" height="243"/></clipPath><clipPath id="dad6139662"><path d="M 991 1350 L 1072 1350 L 1072 1499.671875 L 991 1499.671875 Z M 991 1350 " clip-rule="nonzero"/></clipPath><mask id="396fd45339"><g filter="url(#d69349a355)"><rect x="-150" width="1800" fill="#000000" y="-149.999993" height="1799.99992" fill-opacity="0.5"/></g></mask><clipPath id="7d58f4c4a4"><path d="M 0.199219 0.480469 L 80.839844 0.480469 L 80.839844 149.671875 L 0.199219 149.671875 Z M 0.199219 0.480469 " clip-rule="nonzero"/></clipPath><clipPath id="b7be67ba01"><rect x="0" width="81" y="0" height="150"/></clipPath><clipPath id="b5b80fb2aa"><path d="M 669 1350 L 750 1350 L 750 1499.671875 L 669 1499.671875 Z M 669 1350 " clip-rule="nonzero"/></clipPath><clipPath id="f6c7a8e12e"><path d="M 749 1431 L 831 1431 L 831 1499.671875 L 749 1499.671875 Z M 749 1431 " clip-rule="nonzero"/></clipPath><clipPath id="5b83a58ffd"><path d="M 267 1270 L 348 1270 L 348 1499.671875 L 267 1499.671875 Z M 267 1270 " clip-rule="nonzero"/></clipPath><clipPath id="735151df7d"><path d="M 106.429688 626 L 187 626 L 187 868 L 106.429688 868 Z M 106.429688 626 " clip-rule="nonzero"/></clipPath><mask id="2210eec0b3"><g filter="url(#d69349a355)"><rect x="-150" width="1800" fill="#000000" y="-149.999993" height="1799.99992" fill-opacity="0.3"/></g></mask><clipPath id="555914cfa8"><path d="M 0.160156 0.601562 L 322 0.601562 L 322 81.238281 L 0.160156 81.238281 Z M 0.160156 0.601562 " clip-rule="nonzero"/></clipPath><clipPath id="bbbb3f07ac"><rect x="0" width="322" y="0" height="82"/></clipPath><mask id="620154a06b"><g filter="url(#d69349a355)"><rect x="-150" width="1800" fill="#000000" y="-149.999993" height="1799.99992" fill-opacity="0.5"/></g></mask><clipPath id="56e8cc3669"><path d="M 0.359375 0.640625 L 161.640625 0.640625 L 161.640625 81.519531 L 0.359375 81.519531 Z M 0.359375 0.640625 " clip-rule="nonzero"/></clipPath><clipPath id="c302fe95dd"><rect x="0" width="162" y="0" height="82"/></clipPath><mask id="de272516a1"><g filter="url(#d69349a355)"><rect x="-150" width="1800" fill="#000000" y="-149.999993" height="1799.99992" fill-opacity="0.5"/></g></mask><clipPath id="203bb98e6f"><path d="M 0.640625 0 L 81.28125 0 L 81.28125 402.480469 L 0.640625 402.480469 Z M 0.640625 0 " clip-rule="nonzero"/></clipPath><clipPath id="c99db3f48f"><rect x="0" width="82" y="0" height="403"/></clipPath><mask id="8e189c3071"><g filter="url(#d69349a355)"><rect x="-150" width="1800" fill="#000000" y="-149.999993" height="1799.99992" fill-opacity="0.5"/></g></mask><clipPath id="9633ddccdf"><path d="M 0.601562 0.160156 L 81.238281 0.160156 L 81.238281 81 L 0.601562 81 Z M 0.601562 0.160156 " clip-rule="nonzero"/></clipPath><clipPath id="afedcf3b96"><rect x="0" width="82" y="0" height="82"/></clipPath><mask id="a82653daa2"><g filter="url(#d69349a355)"><rect x="-150" width="1800" fill="#000000" y="-149.999993" height="1799.99992" fill-opacity="0.5"/></g></mask><clipPath id="5964ba0ff5"><path d="M 0.199219 0.761719 L 80.839844 0.761719 L 80.839844 81.398438 L 0.199219 81.398438 Z M 0.199219 0.761719 " clip-rule="nonzero"/></clipPath><clipPath id="ccb21a8290"><rect x="0" width="81" y="0" height="82"/></clipPath><mask id="2403b7ed4a"><g filter="url(#d69349a355)"><rect x="-150" width="1800" fill="#000000" y="-149.999993" height="1799.99992" fill-opacity="0.5"/></g></mask><clipPath id="b302c1d438"><path d="M 0.800781 0.359375 L 81.441406 0.359375 L 81.441406 81 L 0.800781 81 Z M 0.800781 0.359375 " clip-rule="nonzero"/></clipPath><clipPath id="3d750a11b6"><rect x="0" width="82" y="0" height="81"/></clipPath><mask id="e348dc32cb"><g filter="url(#d69349a355)"><rect x="-150" width="1800" fill="#000000" y="-149.999993" height="1799.99992" fill-opacity="0.2"/></g></mask><clipPath id="5ecac81689"><path d="M 0.160156 0.160156 L 80.800781 0.160156 L 80.800781 81 L 0.160156 81 Z M 0.160156 0.160156 " clip-rule="nonzero"/></clipPath><clipPath id="4fa6920211"><rect x="0" width="81" y="0" height="82"/></clipPath><mask id="0184e6fa37"><g filter="url(#d69349a355)"><rect x="-150" width="1800" fill="#000000" y="-149.999993" height="1799.99992" fill-opacity="0.2"/></g></mask><clipPath id="38578323bf"><path d="M 0.558594 0.800781 L 81.199219 0.800781 L 81.199219 81.441406 L 0.558594 81.441406 Z M 0.558594 0.800781 " clip-rule="nonzero"/></clipPath><clipPath id="9584155394"><rect x="0" width="82" y="0" height="82"/></clipPath><mask id="fd989418f5"><g filter="url(#d69349a355)"><rect x="-150" width="1800" fill="#000000" y="-149.999993" height="1799.99992" fill-opacity="0.2"/></g></mask><clipPath id="2c6ad21dbc"><path d="M 1 0.761719 L 162 0.761719 L 162 81.398438 L 1 81.398438 Z M 1 0.761719 " clip-rule="nonzero"/></clipPath><clipPath id="62c5d07770"><rect x="0" width="162" y="0" height="82"/></clipPath><mask id="31da3216a6"><g filter="url(#d69349a355)"><rect x="-150" width="1800" fill="#000000" y="-149.999993" height="1799.99992" fill-opacity="0.2"/></g></mask><clipPath id="3ee53919a4"><path d="M 0.800781 0.601562 L 81.441406 0.601562 L 81.441406 81.238281 L 0.800781 81.238281 Z M 0.800781 0.601562 " clip-rule="nonzero"/></clipPath><clipPath id="a25956fe01"><rect x="0" width="82" y="0" height="82"/></clipPath><mask id="cbf771936b"><g filter="url(#d69349a355)"><rect x="-150" width="1800" fill="#000000" y="-149.999993" height="1799.99992" fill-opacity="0.5"/></g></mask><clipPath id="820e1978af"><path d="M 0 0.238281 L 80.878906 0.238281 L 80.878906 161.519531 L 0 161.519531 Z M 0 0.238281 " clip-rule="nonzero"/></clipPath><clipPath id="086559de1b"><rect x="0" width="81" y="0" height="162"/></clipPath><mask id="7b5d94d39d"><g filter="url(#d69349a355)"><rect x="-150" width="1800" fill="#000000" y="-149.999993" height="1799.99992" fill-opacity="0.2"/></g></mask><clipPath id="b4541f66c4"><path d="M 0 0.0390625 L 80.878906 0.0390625 L 80.878906 161 L 0 161 Z M 0 0.0390625 " clip-rule="nonzero"/></clipPath><clipPath id="b0addf6e76"><rect x="0" width="81" y="0" height="162"/></clipPath><mask id="f8e034670b"><g filter="url(#d69349a355)"><rect x="-150" width="1800" fill="#000000" y="-149.999993" height="1799.99992" fill-opacity="0.2"/></g></mask><clipPath id="5c20e03098"><path d="M 0.601562 0.601562 L 161.878906 0.601562 L 161.878906 81.238281 L 0.601562 81.238281 Z M 0.601562 0.601562 " clip-rule="nonzero"/></clipPath><clipPath id="8339f18cb9"><rect x="0" width="162" y="0" height="82"/></clipPath><mask id="4592821b31"><g filter="url(#d69349a355)"><rect x="-150" width="1800" fill="#000000" y="-149.999993" height="1799.99992" fill-opacity="0.2"/></g></mask><clipPath id="7e73493817"><path d="M 0.199219 0.199219 L 80.839844 0.199219 L 80.839844 80.839844 L 0.199219 80.839844 Z M 0.199219 0.199219 " clip-rule="nonzero"/></clipPath><clipPath id="aa0cc98554"><rect x="0" width="81" y="0" height="81"/></clipPath><mask id="8ceae045a0"><g filter="url(#d69349a355)"><rect x="-150" width="1800" fill="#000000" y="-149.999993" height="1799.99992" fill-opacity="0.5"/></g></mask><clipPath id="62e4dd8310"><path d="M 0 0.800781 L 80.878906 0.800781 L 80.878906 81.441406 L 0 81.441406 Z M 0 0.800781 " clip-rule="nonzero"/></clipPath><clipPath id="9d02ba0caf"><rect x="0" width="81" y="0" height="82"/></clipPath><clipPath id="8d543bbdc3"><path d="M 1232 224 L 1393.429688 224 L 1393.429688 547 L 1232 547 Z M 1232 224 " clip-rule="nonzero"/></clipPath><mask id="789145a78a"><g filter="url(#d69349a355)"><rect x="-150" width="1800" fill="#000000" y="-149.999993" height="1799.99992" fill-opacity="0.5"/></g></mask><clipPath id="5ea5c4bc38"><path d="M 0.640625 0.160156 L 161.429688 0.160156 L 161.429688 322.238281 L 0.640625 322.238281 Z M 0.640625 0.160156 " clip-rule="nonzero"/></clipPath><clipPath id="8ec574971c"><rect x="0" width="162" y="0" height="323"/></clipPath><mask id="45d563f9a0"><g filter="url(#d69349a355)"><rect x="-150" width="1800" fill="#000000" y="-149.999993" height="1799.99992" fill-opacity="0.2"/></g></mask><clipPath id="615fd6f996"><path d="M 0.800781 0.800781 L 81.441406 0.800781 L 81.441406 81.441406 L 0.800781 81.441406 Z M 0.800781 0.800781 " clip-rule="nonzero"/></clipPath><clipPath id="872943b89e"><rect x="0" width="82" y="0" height="82"/></clipPath><mask id="cf60fcf353"><g filter="url(#d69349a355)"><rect x="-150" width="1800" fill="#000000" y="-149.999993" height="1799.99992" fill-opacity="0.2"/></g></mask><clipPath id="630304c72f"><path d="M 0.761719 0.160156 L 81.640625 0.160156 L 81.640625 81 L 0.761719 81 Z M 0.761719 0.160156 " clip-rule="nonzero"/></clipPath><clipPath id="71db499d8a"><rect x="0" width="82" y="0" height="82"/></clipPath><mask id="677ca0c61a"><g filter="url(#d69349a355)"><rect x="-150" width="1800" fill="#000000" y="-149.999993" height="1799.99992" fill-opacity="0.2"/></g></mask><clipPath id="9360802b40"><path d="M 0.761719 0.359375 L 81.640625 0.359375 L 81.640625 81 L 0.761719 81 Z M 0.761719 0.359375 " clip-rule="nonzero"/></clipPath><clipPath id="7e791d5500"><rect x="0" width="82" y="0" height="81"/></clipPath><mask id="3e5e29db91"><g filter="url(#d69349a355)"><rect x="-150" width="1800" fill="#000000" y="-149.999993" height="1799.99992" fill-opacity="0.2"/></g></mask><clipPath id="2c4f7ac4af"><path d="M 0.398438 0.761719 L 81 0.761719 L 81 81.398438 L 0.398438 81.398438 Z M 0.398438 0.761719 " clip-rule="nonzero"/></clipPath><clipPath id="d5a71bf2fa"><rect x="0" width="82" y="0" height="82"/></clipPath><mask id="670c821d74"><g filter="url(#d69349a355)"><rect x="-150" width="1800" fill="#000000" y="-149.999993" height="1799.99992" fill-opacity="0.2"/></g></mask><clipPath id="a65f225839"><path d="M 0.761719 0.199219 L 81.398438 0.199219 L 81.398438 80.839844 L 0.761719 80.839844 Z M 0.761719 0.199219 " clip-rule="nonzero"/></clipPath><clipPath id="8066c6d000"><rect x="0" width="82" y="0" height="81"/></clipPath><mask id="1bf2336590"><g filter="url(#d69349a355)"><rect x="-150" width="1800" fill="#000000" y="-149.999993" height="1799.99992" fill-opacity="0.5"/></g></mask><clipPath id="de41fe618a"><path d="M 0.359375 0 L 242 0 L 242 63.601562 L 0.359375 63.601562 Z M 0.359375 0 " clip-rule="nonzero"/></clipPath><clipPath id="842c0b1c23"><rect x="0" width="243" y="0" height="64"/></clipPath><mask id="9a6daa77d6"><g filter="url(#d69349a355)"><rect x="-150" width="1800" fill="#000000" y="-149.999993" height="1799.99992" fill-opacity="0.5"/></g></mask><clipPath id="8750c3afa5"><path d="M 0.160156 0.359375 L 80.800781 0.359375 L 80.800781 161.398438 L 0.160156 161.398438 Z M 0.160156 0.359375 " clip-rule="nonzero"/></clipPath><clipPath id="b94630ac66"><rect x="0" width="81" y="0" height="162"/></clipPath><mask id="179003dae9"><g filter="url(#d69349a355)"><rect x="-150" width="1800" fill="#000000" y="-149.999993" height="1799.99992" fill-opacity="0.3"/></g></mask><clipPath id="26a7a92f1b"><path d="M 0.761719 0.398438 L 81.398438 0.398438 L 81.398438 161.679688 L 0.761719 161.679688 Z M 0.761719 0.398438 " clip-rule="nonzero"/></clipPath><clipPath id="0c3928a261"><rect x="0" width="82" y="0" height="162"/></clipPath><mask id="4a800630d9"><g filter="url(#d69349a355)"><rect x="-150" width="1800" fill="#000000" y="-149.999993" height="1799.99992" fill-opacity="0.3"/></g></mask><clipPath id="18cad4ef36"><path d="M 0.199219 0.0390625 L 80.839844 0.0390625 L 80.839844 241.480469 L 0.199219 241.480469 Z M 0.199219 0.0390625 " clip-rule="nonzero"/></clipPath><clipPath id="8aac2b2114"><rect x="0" width="81" y="0" height="242"/></clipPath><mask id="461ece30c9"><g filter="url(#d69349a355)"><rect x="-150" width="1800" fill="#000000" y="-149.999993" height="1799.99992" fill-opacity="0.3"/></g></mask><clipPath id="073caa797b"><path d="M 0.160156 0.441406 L 80.800781 0.441406 L 80.800781 161.480469 L 0.160156 161.480469 Z M 0.160156 0.441406 " clip-rule="nonzero"/></clipPath><clipPath id="23abe68ada"><rect x="0" width="81" y="0" height="162"/></clipPath><mask id="7d2092c9b2"><g filter="url(#d69349a355)"><rect x="-150" width="1800" fill="#000000" y="-149.999993" height="1799.99992" fill-opacity="0.3"/></g></mask><clipPath id="712266d087"><path d="M 0.160156 0.601562 L 80.800781 0.601562 L 80.800781 161.640625 L 0.160156 161.640625 Z M 0.160156 0.601562 " clip-rule="nonzero"/></clipPath><clipPath id="f617a226de"><rect x="0" width="81" y="0" height="162"/></clipPath><clipPath id="56a27c3642"><path d="M 508 1431 L 590 1431 L 590 1499.671875 L 508 1499.671875 Z M 508 1431 " clip-rule="nonzero"/></clipPath><mask id="57f67ecadd"><g filter="url(#d69349a355)"><rect x="-150" width="1800" fill="#000000" y="-149.999993" height="1799.99992" fill-opacity="0.3"/></g></mask><clipPath id="e1904b2d5e"><path d="M 0.121094 0.28125 L 81 0.28125 L 81 161.320312 L 0.121094 161.320312 Z M 0.121094 0.28125 " clip-rule="nonzero"/></clipPath><clipPath id="cd3520a2f1"><rect x="0" width="81" y="0" height="162"/></clipPath><mask id="f39bcf402e"><g filter="url(#d69349a355)"><rect x="-150" width="1800" fill="#000000" y="-149.999993" height="1799.99992" fill-opacity="0.3"/></g></mask><clipPath id="33784607b4"><path d="M 0.121094 0.441406 L 81 0.441406 L 81 81 L 0.121094 81 Z M 0.121094 0.441406 " clip-rule="nonzero"/></clipPath><clipPath id="64471d20a5"><rect x="0" width="81" y="0" height="82"/></clipPath><mask id="c363dd39da"><g filter="url(#d69349a355)"><rect x="-150" width="1800" fill="#000000" y="-149.999993" height="1799.99992" fill-opacity="0.3"/></g></mask><clipPath id="1bb043f64c"><path d="M 0.71875 0.398438 L 81.359375 0.398438 L 81.359375 81.28125 L 0.71875 81.28125 Z M 0.71875 0.398438 " clip-rule="nonzero"/></clipPath><clipPath id="adccdc02a3"><rect x="0" width="82" y="0" height="82"/></clipPath><mask id="3992d98441"><g filter="url(#d69349a355)"><rect x="-150" width="1800" fill="#000000" y="-149.999993" height="1799.99992" fill-opacity="0.3"/></g></mask><clipPath id="f35ca87ff8"><path d="M 0.761719 0.078125 L 81.398438 0.078125 L 81.398438 161.121094 L 0.761719 161.121094 Z M 0.761719 0.078125 " clip-rule="nonzero"/></clipPath><clipPath id="433f306d54"><rect x="0" width="82" y="0" height="162"/></clipPath><clipPath id="9af76d8fa8"><path d="M 428 1430 L 509 1430 L 509 1499.671875 L 428 1499.671875 Z M 428 1430 " clip-rule="nonzero"/></clipPath><mask id="996a3ac5c9"><g filter="url(#d69349a355)"><rect x="-150" width="1800" fill="#000000" y="-149.999993" height="1799.99992" fill-opacity="0.3"/></g></mask><clipPath id="0dc340ca00"><path d="M 0.160156 1 L 80.800781 1 L 80.800781 69.671875 L 0.160156 69.671875 Z M 0.160156 1 " clip-rule="nonzero"/></clipPath><clipPath id="b809e8fc2e"><rect x="0" width="81" y="0" height="70"/></clipPath><mask id="d09e9ffbc2"><g filter="url(#d69349a355)"><rect x="-150" width="1800" fill="#000000" y="-149.999993" height="1799.99992" fill-opacity="0.2"/></g></mask><clipPath id="c5ffda5cb0"><path d="M 0.800781 0.640625 L 161.839844 0.640625 L 161.839844 81.519531 L 0.800781 81.519531 Z M 0.800781 0.640625 " clip-rule="nonzero"/></clipPath><clipPath id="e854dc69c4"><rect x="0" width="162" y="0" height="82"/></clipPath><mask id="ca8ebf1c87"><g filter="url(#d69349a355)"><rect x="-150" width="1800" fill="#000000" y="-149.999993" height="1799.99992" fill-opacity="0.2"/></g></mask><clipPath id="795b672b4c"><path d="M 0.558594 0.640625 L 81.199219 0.640625 L 81.199219 81.519531 L 0.558594 81.519531 Z M 0.558594 0.640625 " clip-rule="nonzero"/></clipPath><clipPath id="1f31ab8b26"><rect x="0" width="82" y="0" height="82"/></clipPath><clipPath id="aa62f424e2"><path d="M 186 1189 L 1314 1189 L 1314 1499.671875 L 186 1499.671875 Z M 186 1189 " clip-rule="nonzero"/></clipPath><clipPath id="8c4064a2cb"><path d="M 991 1431 L 1314 1431 L 1314 1499.671875 L 991 1499.671875 Z M 991 1431 " clip-rule="nonzero"/></clipPath><mask id="f1fb106490"><g filter="url(#d69349a355)"><rect x="-150" width="1800" fill="#000000" y="-149.999993" height="1799.99992" fill-opacity="0.5"/></g></mask><clipPath id="f6bc101f23"><path d="M 0.601562 0.640625 L 81.238281 0.640625 L 81.238281 81.519531 L 0.601562 81.519531 Z M 0.601562 0.640625 " clip-rule="nonzero"/></clipPath><clipPath id="eb4af10777"><rect x="0" width="82" y="0" height="82"/></clipPath><mask id="b758f75434"><g filter="url(#d69349a355)"><rect x="-150" width="1800" fill="#000000" y="-149.999993" height="1799.99992" fill-opacity="0.5"/></g></mask><clipPath id="3a99aba75d"><path d="M 0.800781 0.679688 L 81.441406 0.679688 L 81.441406 81.320312 L 0.800781 81.320312 Z M 0.800781 0.679688 " clip-rule="nonzero"/></clipPath><clipPath id="bb1661bbbb"><rect x="0" width="82" y="0" height="82"/></clipPath><mask id="5e405e91a1"><g filter="url(#d69349a355)"><rect x="-150" width="1800" fill="#000000" y="-149.999993" height="1799.99992" fill-opacity="0.5"/></g></mask><clipPath id="c0c2f61f14"><path d="M 0.558594 0.679688 L 81.199219 0.679688 L 81.199219 81.320312 L 0.558594 81.320312 Z M 0.558594 0.679688 " clip-rule="nonzero"/></clipPath><clipPath id="db641eeef5"><rect x="0" width="82" y="0" height="82"/></clipPath><mask id="8e2efa3417"><g filter="url(#d69349a355)"><rect x="-150" width="1800" fill="#000000" y="-149.999993" height="1799.99992" fill-opacity="0.5"/></g></mask><clipPath id="75fa529c0d"><path d="M 0.398438 0.078125 L 81 0.078125 L 81 80.71875 L 0.398438 80.71875 Z M 0.398438 0.078125 " clip-rule="nonzero"/></clipPath><clipPath id="1c5efa133e"><rect x="0" width="82" y="0" height="81"/></clipPath><mask id="d2568d098d"><g filter="url(#d69349a355)"><rect x="-150" width="1800" fill="#000000" y="-149.999993" height="1799.99992" fill-opacity="0.2"/></g></mask><clipPath id="52c7e7b2a8"><path d="M 1 0.078125 L 81.601562 0.078125 L 81.601562 80.71875 L 1 80.71875 Z M 1 0.078125 " clip-rule="nonzero"/></clipPath><clipPath id="73c4530807"><rect x="0" width="82" y="0" height="81"/></clipPath><clipPath id="d1ed49a28a"><path d="M 1152 1431 L 1314 1431 L 1314 1499.671875 L 1152 1499.671875 Z M 1152 1431 " clip-rule="nonzero"/></clipPath><clipPath id="0d6019e6a0"><path d="M 1232 1431 L 1314 1431 L 1314 1499.671875 L 1232 1499.671875 Z M 1232 1431 " clip-rule="nonzero"/></clipPath><clipPath id="8ee3102695"><path d="M 991 1430 L 1153 1430 L 1153 1499.671875 L 991 1499.671875 Z M 991 1430 " clip-rule="nonzero"/></clipPath><mask id="4461b52726"><g filter="url(#d69349a355)"><rect x="-150" width="1800" fill="#000000" y="-149.999993" height="1799.99992" fill-opacity="0.5"/></g></mask><clipPath id="041ae08fa9"><path d="M 0.199219 1 L 161.238281 1 L 161.238281 69.671875 L 0.199219 69.671875 Z M 0.199219 1 " clip-rule="nonzero"/></clipPath><clipPath id="639ef2ef06"><rect x="0" width="162" y="0" height="70"/></clipPath><clipPath id="c4e574c844"><path d="M 106.429688 0 L 1393.429688 0 L 1393.429688 1499.671875 L 106.429688 1499.671875 Z M 106.429688 0 " clip-rule="nonzero"/></clipPath><mask id="a325e7950f"><g filter="url(#d69349a355)"><rect x="-150" width="1800" fill="#000000" y="-149.999993" height="1799.99992" fill-opacity="0.5"/></g></mask><clipPath id="ed64e1c3ed"><path d="M 0.199219 0.679688 L 80.839844 0.679688 L 80.839844 242.121094 L 0.199219 242.121094 Z M 0.199219 0.679688 " clip-rule="nonzero"/></clipPath><clipPath id="c2164a86d0"><rect x="0" width="81" y="0" height="243"/></clipPath><clipPath id="61b49b71ad"><path d="M 991 1350 L 1072 1350 L 1072 1499.671875 L 991 1499.671875 Z M 991 1350 " clip-rule="nonzero"/></clipPath><mask id="3483f30c3e"><g filter="url(#d69349a355)"><rect x="-150" width="1800" fill="#000000" y="-149.999993" height="1799.99992" fill-opacity="0.5"/></g></mask><clipPath id="63c07f4ea2"><path d="M 0.199219 0.480469 L 80.839844 0.480469 L 80.839844 149.671875 L 0.199219 149.671875 Z M 0.199219 0.480469 " clip-rule="nonzero"/></clipPath><clipPath id="89a6bc21b0"><rect x="0" width="81" y="0" height="150"/></clipPath><clipPath id="eed90f22f8"><path d="M 669 1350 L 750 1350 L 750 1499.671875 L 669 1499.671875 Z M 669 1350 " clip-rule="nonzero"/></clipPath><clipPath id="ba061e5db4"><path d="M 749 1431 L 831 1431 L 831 1499.671875 L 749 1499.671875 Z M 749 1431 " clip-rule="nonzero"/></clipPath><clipPath id="6e60d63fb1"><path d="M 267 1270 L 348 1270 L 348 1499.671875 L 267 1499.671875 Z M 267 1270 " clip-rule="nonzero"/></clipPath><clipPath id="f56a9886a4"><path d="M 106.429688 626 L 187 626 L 187 868 L 106.429688 868 Z M 106.429688 626 " clip-rule="nonzero"/></clipPath><mask id="dacee55656"><g filter="url(#d69349a355)"><rect x="-150" width="1800" fill="#000000" y="-149.999993" height="1799.99992" fill-opacity="0.3"/></g></mask><clipPath id="7db53efd01"><path d="M 0.160156 0.601562 L 322 0.601562 L 322 81.238281 L 0.160156 81.238281 Z M 0.160156 0.601562 " clip-rule="nonzero"/></clipPath><clipPath id="8eef4e7782"><rect x="0" width="322" y="0" height="82"/></clipPath><mask id="3835b6d32a"><g filter="url(#d69349a355)"><rect x="-150" width="1800" fill="#000000" y="-149.999993" height="1799.99992" fill-opacity="0.5"/></g></mask><clipPath id="c947edc99e"><path d="M 0.359375 0.640625 L 161.640625 0.640625 L 161.640625 81.519531 L 0.359375 81.519531 Z M 0.359375 0.640625 " clip-rule="nonzero"/></clipPath><clipPath id="8a3f53356c"><rect x="0" width="162" y="0" height="82"/></clipPath><mask id="8aebd8f56b"><g filter="url(#d69349a355)"><rect x="-150" width="1800" fill="#000000" y="-149.999993" height="1799.99992" fill-opacity="0.5"/></g></mask><clipPath id="c35d86e5fb"><path d="M 0.640625 0 L 81.28125 0 L 81.28125 402.480469 L 0.640625 402.480469 Z M 0.640625 0 " clip-rule="nonzero"/></clipPath><clipPath id="de3ca4802b"><rect x="0" width="82" y="0" height="403"/></clipPath><mask id="0dc94aae33"><g filter="url(#d69349a355)"><rect x="-150" width="1800" fill="#000000" y="-149.999993" height="1799.99992" fill-opacity="0.5"/></g></mask><clipPath id="c6b45bf04b"><path d="M 0.601562 0.160156 L 81.238281 0.160156 L 81.238281 81 L 0.601562 81 Z M 0.601562 0.160156 " clip-rule="nonzero"/></clipPath><clipPath id="27a50a2ae2"><rect x="0" width="82" y="0" height="82"/></clipPath><mask id="0425636caa"><g filter="url(#d69349a355)"><rect x="-150" width="1800" fill="#000000" y="-149.999993" height="1799.99992" fill-opacity="0.5"/></g></mask><clipPath id="4200dedc7c"><path d="M 0.199219 0.761719 L 80.839844 0.761719 L 80.839844 81.398438 L 0.199219 81.398438 Z M 0.199219 0.761719 " clip-rule="nonzero"/></clipPath><clipPath id="22eb3d01f9"><rect x="0" width="81" y="0" height="82"/></clipPath><mask id="3e39fbc990"><g filter="url(#d69349a355)"><rect x="-150" width="1800" fill="#000000" y="-149.999993" height="1799.99992" fill-opacity="0.5"/></g></mask><clipPath id="ad8fb5f0f4"><path d="M 0.800781 0.359375 L 81.441406 0.359375 L 81.441406 81 L 0.800781 81 Z M 0.800781 0.359375 " clip-rule="nonzero"/></clipPath><clipPath id="180e99f3fb"><rect x="0" width="82" y="0" height="81"/></clipPath><mask id="4776caf610"><g filter="url(#d69349a355)"><rect x="-150" width="1800" fill="#000000" y="-149.999993" height="1799.99992" fill-opacity="0.2"/></g></mask><clipPath id="75e80971d6"><path d="M 0.160156 0.160156 L 80.800781 0.160156 L 80.800781 81 L 0.160156 81 Z M 0.160156 0.160156 " clip-rule="nonzero"/></clipPath><clipPath id="b54148c675"><rect x="0" width="81" y="0" height="82"/></clipPath><mask id="e8b0f4c434"><g filter="url(#d69349a355)"><rect x="-150" width="1800" fill="#000000" y="-149.999993" height="1799.99992" fill-opacity="0.2"/></g></mask><clipPath id="fa61a68699"><path d="M 0.558594 0.800781 L 81.199219 0.800781 L 81.199219 81.441406 L 0.558594 81.441406 Z M 0.558594 0.800781 " clip-rule="nonzero"/></clipPath><clipPath id="ea002a97f3"><rect x="0" width="82" y="0" height="82"/></clipPath><mask id="925677f609"><g filter="url(#d69349a355)"><rect x="-150" width="1800" fill="#000000" y="-149.999993" height="1799.99992" fill-opacity="0.2"/></g></mask><clipPath id="1985d8ecb4"><path d="M 1 0.761719 L 162 0.761719 L 162 81.398438 L 1 81.398438 Z M 1 0.761719 " clip-rule="nonzero"/></clipPath><clipPath id="380f8c33f2"><rect x="0" width="162" y="0" height="82"/></clipPath><mask id="4d0249296a"><g filter="url(#d69349a355)"><rect x="-150" width="1800" fill="#000000" y="-149.999993" height="1799.99992" fill-opacity="0.2"/></g></mask><clipPath id="b276f17efc"><path d="M 0.800781 0.601562 L 81.441406 0.601562 L 81.441406 81.238281 L 0.800781 81.238281 Z M 0.800781 0.601562 " clip-rule="nonzero"/></clipPath><clipPath id="9774e2a3b4"><rect x="0" width="82" y="0" height="82"/></clipPath><mask id="91b49feacc"><g filter="url(#d69349a355)"><rect x="-150" width="1800" fill="#000000" y="-149.999993" height="1799.99992" fill-opacity="0.5"/></g></mask><clipPath id="7f90eb0edf"><path d="M 0 0.238281 L 80.878906 0.238281 L 80.878906 161.519531 L 0 161.519531 Z M 0 0.238281 " clip-rule="nonzero"/></clipPath><clipPath id="84cd75f250"><rect x="0" width="81" y="0" height="162"/></clipPath><mask id="f2188cfda9"><g filter="url(#d69349a355)"><rect x="-150" width="1800" fill="#000000" y="-149.999993" height="1799.99992" fill-opacity="0.2"/></g></mask><clipPath id="33a385da31"><path d="M 0 0.0390625 L 80.878906 0.0390625 L 80.878906 161 L 0 161 Z M 0 0.0390625 " clip-rule="nonzero"/></clipPath><clipPath id="4fd5cb569f"><rect x="0" width="81" y="0" height="162"/></clipPath><mask id="da0688e78b"><g filter="url(#d69349a355)"><rect x="-150" width="1800" fill="#000000" y="-149.999993" height="1799.99992" fill-opacity="0.2"/></g></mask><clipPath id="8739cf3331"><path d="M 0.601562 0.601562 L 161.878906 0.601562 L 161.878906 81.238281 L 0.601562 81.238281 Z M 0.601562 0.601562 " clip-rule="nonzero"/></clipPath><clipPath id="3db80a58ca"><rect x="0" width="162" y="0" height="82"/></clipPath><mask id="a19cc03291"><g filter="url(#d69349a355)"><rect x="-150" width="1800" fill="#000000" y="-149.999993" height="1799.99992" fill-opacity="0.2"/></g></mask><clipPath id="3b5676fa25"><path d="M 0.199219 0.199219 L 80.839844 0.199219 L 80.839844 80.839844 L 0.199219 80.839844 Z M 0.199219 0.199219 " clip-rule="nonzero"/></clipPath><clipPath id="030f2d9957"><rect x="0" width="81" y="0" height="81"/></clipPath><mask id="07965f4742"><g filter="url(#d69349a355)"><rect x="-150" width="1800" fill="#000000" y="-149.999993" height="1799.99992" fill-opacity="0.5"/></g></mask><clipPath id="a9e00c43a7"><path d="M 0 0.800781 L 80.878906 0.800781 L 80.878906 81.441406 L 0 81.441406 Z M 0 0.800781 " clip-rule="nonzero"/></clipPath><clipPath id="cf6f809f35"><rect x="0" width="81" y="0" height="82"/></clipPath><clipPath id="acafd4ac6c"><path d="M 1232 224 L 1393.429688 224 L 1393.429688 547 L 1232 547 Z M 1232 224 " clip-rule="nonzero"/></clipPath><mask id="ac8036d4b3"><g filter="url(#d69349a355)"><rect x="-150" width="1800" fill="#000000" y="-149.999993" height="1799.99992" fill-opacity="0.5"/></g></mask><clipPath id="1c43b6d95c"><path d="M 0.640625 0.160156 L 161.429688 0.160156 L 161.429688 322.238281 L 0.640625 322.238281 Z M 0.640625 0.160156 " clip-rule="nonzero"/></clipPath><clipPath id="e76fc2f222"><rect x="0" width="162" y="0" height="323"/></clipPath><mask id="b23d6cec3e"><g filter="url(#d69349a355)"><rect x="-150" width="1800" fill="#000000" y="-149.999993" height="1799.99992" fill-opacity="0.2"/></g></mask><clipPath id="259592e06c"><path d="M 0.800781 0.800781 L 81.441406 0.800781 L 81.441406 81.441406 L 0.800781 81.441406 Z M 0.800781 0.800781 " clip-rule="nonzero"/></clipPath><clipPath id="b64b9886f3"><rect x="0" width="82" y="0" height="82"/></clipPath><mask id="9e4ab12a62"><g filter="url(#d69349a355)"><rect x="-150" width="1800" fill="#000000" y="-149.999993" height="1799.99992" fill-opacity="0.2"/></g></mask><clipPath id="0b7aef5fe5"><path d="M 0.761719 0.160156 L 81.640625 0.160156 L 81.640625 81 L 0.761719 81 Z M 0.761719 0.160156 " clip-rule="nonzero"/></clipPath><clipPath id="b94f3c9700"><rect x="0" width="82" y="0" height="82"/></clipPath><mask id="5aa6c3faa2"><g filter="url(#d69349a355)"><rect x="-150" width="1800" fill="#000000" y="-149.999993" height="1799.99992" fill-opacity="0.2"/></g></mask><clipPath id="c537d3965d"><path d="M 0.761719 0.359375 L 81.640625 0.359375 L 81.640625 81 L 0.761719 81 Z M 0.761719 0.359375 " clip-rule="nonzero"/></clipPath><clipPath id="015235382f"><rect x="0" width="82" y="0" height="81"/></clipPath><mask id="07838980a6"><g filter="url(#d69349a355)"><rect x="-150" width="1800" fill="#000000" y="-149.999993" height="1799.99992" fill-opacity="0.2"/></g></mask><clipPath id="1946029b33"><path d="M 0.398438 0.761719 L 81 0.761719 L 81 81.398438 L 0.398438 81.398438 Z M 0.398438 0.761719 " clip-rule="nonzero"/></clipPath><clipPath id="bbfe7e5329"><rect x="0" width="82" y="0" height="82"/></clipPath><mask id="41db742fd4"><g filter="url(#d69349a355)"><rect x="-150" width="1800" fill="#000000" y="-149.999993" height="1799.99992" fill-opacity="0.2"/></g></mask><clipPath id="aeb58ddad8"><path d="M 0.761719 0.199219 L 81.398438 0.199219 L 81.398438 80.839844 L 0.761719 80.839844 Z M 0.761719 0.199219 " clip-rule="nonzero"/></clipPath><clipPath id="60e33abb71"><rect x="0" width="82" y="0" height="81"/></clipPath><mask id="f6af8dc2b6"><g filter="url(#d69349a355)"><rect x="-150" width="1800" fill="#000000" y="-149.999993" height="1799.99992" fill-opacity="0.5"/></g></mask><clipPath id="8f2b42eb99"><path d="M 0.359375 0 L 242 0 L 242 63.601562 L 0.359375 63.601562 Z M 0.359375 0 " clip-rule="nonzero"/></clipPath><clipPath id="9c429991b2"><rect x="0" width="243" y="0" height="64"/></clipPath><mask id="09ad81d737"><g filter="url(#d69349a355)"><rect x="-150" width="1800" fill="#000000" y="-149.999993" height="1799.99992" fill-opacity="0.5"/></g></mask><clipPath id="b03f2c6172"><path d="M 0.160156 0.359375 L 80.800781 0.359375 L 80.800781 161.398438 L 0.160156 161.398438 Z M 0.160156 0.359375 " clip-rule="nonzero"/></clipPath><clipPath id="f5daca37b9"><rect x="0" width="81" y="0" height="162"/></clipPath><mask id="7124cf53bb"><g filter="url(#d69349a355)"><rect x="-150" width="1800" fill="#000000" y="-149.999993" height="1799.99992" fill-opacity="0.3"/></g></mask><clipPath id="8896fc7448"><path d="M 0.761719 0.398438 L 81.398438 0.398438 L 81.398438 161.679688 L 0.761719 161.679688 Z M 0.761719 0.398438 " clip-rule="nonzero"/></clipPath><clipPath id="2ad201b41d"><rect x="0" width="82" y="0" height="162"/></clipPath><mask id="8b0d0d2196"><g filter="url(#d69349a355)"><rect x="-150" width="1800" fill="#000000" y="-149.999993" height="1799.99992" fill-opacity="0.3"/></g></mask><clipPath id="73991cd84a"><path d="M 0.199219 0.0390625 L 80.839844 0.0390625 L 80.839844 241.480469 L 0.199219 241.480469 Z M 0.199219 0.0390625 " clip-rule="nonzero"/></clipPath><clipPath id="a0573cdb95"><rect x="0" width="81" y="0" height="242"/></clipPath><mask id="a4a699d0ab"><g filter="url(#d69349a355)"><rect x="-150" width="1800" fill="#000000" y="-149.999993" height="1799.99992" fill-opacity="0.3"/></g></mask><clipPath id="c8080c5268"><path d="M 0.160156 0.441406 L 80.800781 0.441406 L 80.800781 161.480469 L 0.160156 161.480469 Z M 0.160156 0.441406 " clip-rule="nonzero"/></clipPath><clipPath id="b8ca2d9272"><rect x="0" width="81" y="0" height="162"/></clipPath><mask id="49fddc2469"><g filter="url(#d69349a355)"><rect x="-150" width="1800" fill="#000000" y="-149.999993" height="1799.99992" fill-opacity="0.3"/></g></mask><clipPath id="aa0ded8ee9"><path d="M 0.160156 0.601562 L 80.800781 0.601562 L 80.800781 161.640625 L 0.160156 161.640625 Z M 0.160156 0.601562 " clip-rule="nonzero"/></clipPath><clipPath id="daeb409c4b"><rect x="0" width="81" y="0" height="162"/></clipPath><clipPath id="97b285ae00"><path d="M 508 1431 L 590 1431 L 590 1499.671875 L 508 1499.671875 Z M 508 1431 " clip-rule="nonzero"/></clipPath><mask id="75a807c210"><g filter="url(#d69349a355)"><rect x="-150" width="1800" fill="#000000" y="-149.999993" height="1799.99992" fill-opacity="0.3"/></g></mask><clipPath id="1ac17c3c15"><path d="M 0.121094 0.28125 L 81 0.28125 L 81 161.320312 L 0.121094 161.320312 Z M 0.121094 0.28125 " clip-rule="nonzero"/></clipPath><clipPath id="c11aefa003"><rect x="0" width="81" y="0" height="162"/></clipPath><mask id="749ffc7aa2"><g filter="url(#d69349a355)"><rect x="-150" width="1800" fill="#000000" y="-149.999993" height="1799.99992" fill-opacity="0.3"/></g></mask><clipPath id="6ad2f3e8a0"><path d="M 0.121094 0.441406 L 81 0.441406 L 81 81 L 0.121094 81 Z M 0.121094 0.441406 " clip-rule="nonzero"/></clipPath><clipPath id="29790c8eeb"><rect x="0" width="81" y="0" height="82"/></clipPath><mask id="ec5ff949a0"><g filter="url(#d69349a355)"><rect x="-150" width="1800" fill="#000000" y="-149.999993" height="1799.99992" fill-opacity="0.3"/></g></mask><clipPath id="b2073da886"><path d="M 0.71875 0.398438 L 81.359375 0.398438 L 81.359375 81.28125 L 0.71875 81.28125 Z M 0.71875 0.398438 " clip-rule="nonzero"/></clipPath><clipPath id="c5c597918b"><rect x="0" width="82" y="0" height="82"/></clipPath><mask id="acedbc5320"><g filter="url(#d69349a355)"><rect x="-150" width="1800" fill="#000000" y="-149.999993" height="1799.99992" fill-opacity="0.3"/></g></mask><clipPath id="2cb455981b"><path d="M 0.761719 0.078125 L 81.398438 0.078125 L 81.398438 161.121094 L 0.761719 161.121094 Z M 0.761719 0.078125 " clip-rule="nonzero"/></clipPath><clipPath id="4ae250eda5"><rect x="0" width="82" y="0" height="162"/></clipPath><clipPath id="7078a1b9d6"><path d="M 428 1430 L 509 1430 L 509 1499.671875 L 428 1499.671875 Z M 428 1430 " clip-rule="nonzero"/></clipPath><mask id="ff2144e577"><g filter="url(#d69349a355)"><rect x="-150" width="1800" fill="#000000" y="-149.999993" height="1799.99992" fill-opacity="0.3"/></g></mask><clipPath id="e24224f529"><path d="M 0.160156 1 L 80.800781 1 L 80.800781 69.671875 L 0.160156 69.671875 Z M 0.160156 1 " clip-rule="nonzero"/></clipPath><clipPath id="5c62e16adf"><rect x="0" width="81" y="0" height="70"/></clipPath><mask id="6c8cf72ff9"><g filter="url(#d69349a355)"><rect x="-150" width="1800" fill="#000000" y="-149.999993" height="1799.99992" fill-opacity="0.2"/></g></mask><clipPath id="821e34e686"><path d="M 0.800781 0.640625 L 161.839844 0.640625 L 161.839844 81.519531 L 0.800781 81.519531 Z M 0.800781 0.640625 " clip-rule="nonzero"/></clipPath><clipPath id="39747c800a"><rect x="0" width="162" y="0" height="82"/></clipPath><mask id="99a85a724e"><g filter="url(#d69349a355)"><rect x="-150" width="1800" fill="#000000" y="-149.999993" height="1799.99992" fill-opacity="0.2"/></g></mask><clipPath id="c36c16bee6"><path d="M 0.558594 0.640625 L 81.199219 0.640625 L 81.199219 81.519531 L 0.558594 81.519531 Z M 0.558594 0.640625 " clip-rule="nonzero"/></clipPath><clipPath id="45c879ec4a"><rect x="0" width="82" y="0" height="82"/></clipPath></defs><g clip-path="url(#33758623a2)"><path fill="#000000" d="M 1313.113281 224.386719 L 1232.667969 224.386719 L 1232.667969 304.832031 L 1152.222656 304.832031 L 1152.222656 224.386719 L 1071.777344 224.386719 L 1071.777344 143.941406 L 991.332031 143.941406 L 991.332031 63.496094 L 910.886719 63.496094 L 910.886719 -16.949219 L 428.214844 -16.949219 L 428.214844 63.496094 L 347.769531 63.496094 L 347.769531 304.832031 L 267.320312 304.832031 L 267.320312 385.277344 L 186.875 385.277344 L 186.875 626.613281 L 106.429688 626.613281 L 106.429688 867.953125 L 186.875 867.953125 L 186.875 948.398438 L 267.320312 948.398438 L 267.320312 1109.289062 L 186.875 1109.289062 L 186.875 1270.179688 L 267.320312 1270.179688 L 267.320312 1511.515625 L 186.875 1511.515625 L 186.875 1833.296875 L 267.320312 1833.296875 L 267.320312 1913.742188 L 186.875 1913.742188 L 186.875 2155.082031 L 267.320312 2155.082031 L 267.320312 2396.417969 L 589.105469 2396.417969 L 589.105469 2315.972656 L 669.550781 2315.972656 L 669.550781 2235.527344 L 830.441406 2235.527344 L 830.441406 2315.972656 L 910.886719 2315.972656 L 910.886719 2396.417969 L 1232.667969 2396.417969 L 1232.667969 2155.082031 L 1313.113281 2155.082031 L 1313.113281 1431.070312 L 1232.667969 1431.070312 L 1232.667969 1189.734375 L 1152.222656 1189.734375 L 1152.222656 1109.289062 L 1232.667969 1109.289062 L 1232.667969 948.398438 L 1313.113281 948.398438 L 1313.113281 546.167969 L 1393.558594 546.167969 L 1393.558594 224.386719 Z M 1313.113281 224.386719 " fill-opacity="1" fill-rule="nonzero"/></g><path fill="#d70400" d="M 991.332031 1028.84375 L 830.441406 1028.84375 L 830.441406 1189.734375 L 669.550781 1189.734375 L 669.550781 1028.84375 L 508.660156 1028.84375 L 508.660156 1270.179688 L 669.550781 1270.179688 L 669.550781 1350.625 L 830.441406 1350.625 L 830.441406 1270.179688 L 991.332031 1270.179688 L 991.332031 1109.289062 L 1071.777344 1109.289062 L 1071.777344 1028.84375 Z M 991.332031 1028.84375 " fill-opacity="1" fill-rule="nonzero"/><g clip-path="url(#94f13364d0)"><path fill="#8217ff" d="M 1313.113281 1913.742188 L 991.332031 1913.742188 L 991.332031 1833.296875 L 1071.777344 1833.296875 L 1071.777344 1431.070312 L 991.332031 1431.070312 L 991.332031 1189.734375 L 910.886719 1189.734375 L 910.886719 1270.179688 L 830.441406 1270.179688 L 830.441406 1350.625 L 669.550781 1350.625 L 669.550781 1270.179688 L 589.105469 1270.179688 L 589.105469 1189.734375 L 508.660156 1189.734375 L 508.660156 1672.40625 L 347.769531 1672.40625 L 347.769531 1913.742188 L 186.875 1913.742188 L 186.875 2155.082031 L 267.320312 2155.082031 L 267.320312 2235.527344 L 1232.667969 2235.527344 L 1232.667969 2155.082031 L 1313.113281 2155.082031 Z M 1313.113281 1913.742188 " fill-opacity="1" fill-rule="nonzero"/></g><path fill="#8217ff" d="M 991.332031 1109.289062 L 1071.777344 1109.289062 L 1071.777344 1189.734375 L 991.332031 1189.734375 Z M 991.332031 1109.289062 " fill-opacity="1" fill-rule="nonzero"/><path fill="#8217ff" d="M 1071.777344 1028.84375 L 1152.222656 1028.84375 L 1152.222656 1109.289062 L 1071.777344 1109.289062 Z M 1071.777344 1028.84375 " fill-opacity="1" fill-rule="nonzero"/><path fill="#ffd9c0" d="M 1152.222656 1028.84375 L 1152.222656 385.277344 L 267.320312 385.277344 L 267.320312 1028.84375 L 669.550781 1028.84375 L 669.550781 1189.734375 L 830.441406 1189.734375 L 830.441406 1028.84375 Z M 1152.222656 1028.84375 " fill-opacity="1" fill-rule="nonzero"/><g clip-path="url(#782ed36a71)"><path fill="#ffd9c0" d="M 991.332031 1431.070312 L 991.332031 1913.742188 L 1071.777344 1913.742188 L 1071.777344 1994.1875 L 1232.667969 1994.1875 L 1232.667969 1913.742188 L 1313.113281 1913.742188 L 1313.113281 1431.070312 Z M 991.332031 1431.070312 " fill-opacity="1" fill-rule="nonzero"/></g><path fill="#d70400" d="M 991.332031 1189.734375 L 1232.667969 1189.734375 L 1232.667969 1431.070312 L 991.332031 1431.070312 Z M 991.332031 1189.734375 " fill-opacity="1" fill-rule="nonzero"/><path fill="#000000" d="M 1071.777344 1109.289062 L 1152.222656 1109.289062 L 1152.222656 1189.734375 L 1071.777344 1189.734375 Z M 1071.777344 1109.289062 " fill-opacity="1" fill-rule="nonzero"/><g mask="url(#1ff0338f1f)"><g transform="matrix(1, 0, 0, 1, 1071, 1028)"><g clip-path="url(#0ec980cebd)"><g clip-path="url(#d6cfdd590b)"><path fill="#000000" d="M 0.777344 0.84375 L 81.222656 0.84375 L 81.222656 81.289062 L 0.777344 81.289062 Z M 0.777344 0.84375 " fill-opacity="1" fill-rule="nonzero"/></g></g></g></g><g mask="url(#ec767f7bee)"><g transform="matrix(1, 0, 0, 1, 910, 1189)"><g clip-path="url(#e9d55a9b0f)"><g clip-path="url(#a47e938c1f)"><path fill="#000000" d="M 0.886719 0.734375 L 81.332031 0.734375 L 81.332031 81.179688 L 0.886719 81.179688 Z M 0.886719 0.734375 " fill-opacity="1" fill-rule="nonzero"/></g></g></g></g><g mask="url(#56f89c89a6)"><g transform="matrix(1, 0, 0, 1, 508, 1189)"><g clip-path="url(#0af4765a08)"><g clip-path="url(#d4340daaa1)"><path fill="#000000" d="M 0.660156 0.734375 L 81.105469 0.734375 L 81.105469 81.179688 L 0.660156 81.179688 Z M 0.660156 0.734375 " fill-opacity="1" fill-rule="nonzero"/></g></g></g></g><g mask="url(#1bf25a4c6f)"><g transform="matrix(1, 0, 0, 1, 830, 1270)"><g clip-path="url(#2bef0d57fe)"><g clip-path="url(#df406ca580)"><path fill="#000000" d="M 0.441406 0.179688 L 80.886719 0.179688 L 80.886719 80.625 L 0.441406 80.625 Z M 0.441406 0.179688 " fill-opacity="1" fill-rule="nonzero"/></g></g></g></g><g mask="url(#067f270421)"><g transform="matrix(1, 0, 0, 1, 588, 1270)"><g clip-path="url(#5d3322b66e)"><g clip-path="url(#285631dcac)"><path fill="#000000" d="M 1.105469 0.179688 L 81.550781 0.179688 L 81.550781 80.625 L 1.105469 80.625 Z M 1.105469 0.179688 " fill-opacity="1" fill-rule="nonzero"/></g></g></g></g><path fill="#000000" d="M 1152.222656 1189.734375 L 1232.667969 1189.734375 L 1232.667969 1431.070312 L 1152.222656 1431.070312 Z M 1152.222656 1189.734375 " fill-opacity="1" fill-rule="nonzero"/><g clip-path="url(#a6f5774607)"><path fill="#000000" d="M 1152.222656 1431.070312 L 1313.113281 1431.070312 L 1313.113281 1511.515625 L 1152.222656 1511.515625 Z M 1152.222656 1431.070312 " fill-opacity="1" fill-rule="nonzero"/></g><g clip-path="url(#d9cf9e9b69)"><path fill="#000000" d="M 1232.667969 1431.070312 L 1313.113281 1431.070312 L 1313.113281 1591.960938 L 1232.667969 1591.960938 Z M 1232.667969 1431.070312 " fill-opacity="1" fill-rule="nonzero"/></g><g clip-path="url(#2366120e74)"><g mask="url(#3e5add31c4)"><g transform="matrix(1, 0, 0, 1, 991, 1430)"><g clip-path="url(#3e287ae971)"><g clip-path="url(#112a06b7c6)"><path fill="#000000" d="M 161.222656 1.070312 L 0.332031 1.070312 L 0.332031 322.851562 L 80.777344 322.851562 L 80.777344 81.515625 L 161.222656 81.515625 Z M 161.222656 1.070312 " fill-opacity="1" fill-rule="nonzero"/></g></g></g></g></g><g clip-path="url(#a6762ccc56)"><path fill="#e0e579" d="M 1232.667969 224.386719 L 1232.667969 304.832031 L 1152.222656 304.832031 L 1152.222656 224.386719 L 1071.777344 224.386719 L 1071.777344 143.941406 L 991.332031 143.941406 L 991.332031 63.496094 L 910.886719 63.496094 L 910.886719 -16.949219 L 428.214844 -16.949219 L 428.214844 63.496094 L 347.769531 63.496094 L 347.769531 304.832031 L 267.320312 304.832031 L 267.320312 385.277344 L 186.875 385.277344 L 186.875 626.613281 L 106.429688 626.613281 L 106.429688 867.953125 L 186.875 867.953125 L 186.875 948.398438 L 267.320312 948.398438 L 267.320312 1109.289062 L 186.875 1109.289062 L 186.875 1270.179688 L 267.320312 1270.179688 L 267.320312 1511.515625 L 186.875 1511.515625 L 186.875 1833.296875 L 267.320312 1833.296875 L 267.320312 1913.742188 L 347.769531 1913.742188 L 347.769531 1833.296875 L 428.214844 1833.296875 L 428.214844 1752.851562 L 508.660156 1752.851562 L 508.660156 1833.296875 L 589.105469 1833.296875 L 589.105469 1431.070312 L 508.660156 1431.070312 L 508.660156 1028.84375 L 428.214844 1028.84375 L 428.214844 787.507812 L 347.769531 787.507812 L 347.769531 626.613281 L 428.214844 626.613281 L 428.214844 465.722656 L 749.996094 465.722656 L 749.996094 546.167969 L 830.441406 546.167969 L 830.441406 626.613281 L 991.332031 626.613281 L 991.332031 707.058594 L 1071.777344 707.058594 L 1071.777344 948.398438 L 1152.222656 948.398438 L 1152.222656 1109.289062 L 1232.667969 1109.289062 L 1232.667969 948.398438 L 1313.113281 948.398438 L 1313.113281 546.167969 L 1393.558594 546.167969 L 1393.558594 224.386719 Z M 1232.667969 224.386719 " fill-opacity="1" fill-rule="nonzero"/></g><g mask="url(#a09f19fff2)"><g transform="matrix(1, 0, 0, 1, 991, 1189)"><g clip-path="url(#6135a60da6)"><g clip-path="url(#f7d5ea6851)"><path fill="#000000" d="M 0.332031 0.734375 L 80.777344 0.734375 L 80.777344 242.070312 L 0.332031 242.070312 Z M 0.332031 0.734375 " fill-opacity="1" fill-rule="nonzero"/></g></g></g></g><g clip-path="url(#dad6139662)"><g mask="url(#396fd45339)"><g transform="matrix(1, 0, 0, 1, 991, 1350)"><g clip-path="url(#b7be67ba01)"><g clip-path="url(#7d58f4c4a4)"><path fill="#000000" d="M 0.332031 0.625 L 80.777344 0.625 L 80.777344 161.515625 L 0.332031 161.515625 Z M 0.332031 0.625 " fill-opacity="1" fill-rule="nonzero"/></g></g></g></g></g><path fill="#000000" d="M 669.550781 1350.625 L 830.441406 1350.625 L 830.441406 1431.070312 L 669.550781 1431.070312 Z M 669.550781 1350.625 " fill-opacity="1" fill-rule="nonzero"/><g clip-path="url(#b5b80fb2aa)"><path fill="#000000" d="M 669.550781 1350.625 L 749.996094 1350.625 L 749.996094 1591.960938 L 669.550781 1591.960938 Z M 669.550781 1350.625 " fill-opacity="1" fill-rule="nonzero"/></g><g clip-path="url(#f6c7a8e12e)"><path fill="#d70400" d="M 749.996094 1431.070312 L 830.441406 1431.070312 L 830.441406 1511.515625 L 749.996094 1511.515625 Z M 749.996094 1431.070312 " fill-opacity="1" fill-rule="nonzero"/></g><g clip-path="url(#5b83a58ffd)"><path fill="#000000" d="M 267.320312 1270.179688 L 347.769531 1270.179688 L 347.769531 1511.515625 L 267.320312 1511.515625 Z M 267.320312 1270.179688 " fill-opacity="1" fill-rule="nonzero"/></g><path fill="#000000" d="M 186.875 1109.289062 L 267.320312 1109.289062 L 267.320312 1270.179688 L 186.875 1270.179688 Z M 186.875 1109.289062 " fill-opacity="1" fill-rule="nonzero"/><path fill="#000000" d="M 267.320312 948.398438 L 347.769531 948.398438 L 347.769531 1109.289062 L 267.320312 1109.289062 Z M 267.320312 948.398438 " fill-opacity="1" fill-rule="nonzero"/><path fill="#000000" d="M 186.875 867.953125 L 267.320312 867.953125 L 267.320312 948.398438 L 186.875 948.398438 Z M 186.875 867.953125 " fill-opacity="1" fill-rule="nonzero"/><g clip-path="url(#735151df7d)"><path fill="#000000" d="M 106.429688 626.613281 L 186.875 626.613281 L 186.875 867.953125 L 106.429688 867.953125 Z M 106.429688 626.613281 " fill-opacity="1" fill-rule="nonzero"/></g><path fill="#000000" d="M 186.875 385.277344 L 267.320312 385.277344 L 267.320312 626.613281 L 186.875 626.613281 Z M 186.875 385.277344 " fill-opacity="1" fill-rule="nonzero"/><path fill="#000000" d="M 267.320312 304.832031 L 347.769531 304.832031 L 347.769531 385.277344 L 267.320312 385.277344 Z M 267.320312 304.832031 " fill-opacity="1" fill-rule="nonzero"/><path fill="#000000" d="M 347.769531 63.496094 L 428.214844 63.496094 L 428.214844 304.832031 L 347.769531 304.832031 Z M 347.769531 63.496094 " fill-opacity="1" fill-rule="nonzero"/><path fill="#000000" d="M 428.214844 -16.949219 L 669.550781 -16.949219 L 669.550781 63.496094 L 428.214844 63.496094 Z M 428.214844 -16.949219 " fill-opacity="1" fill-rule="nonzero"/><g mask="url(#2210eec0b3)"><g transform="matrix(1, 0, 0, 1, 428, 465)"><g clip-path="url(#bbbb3f07ac)"><g clip-path="url(#555914cfa8)"><path fill="#000000" d="M 0.214844 0.722656 L 321.996094 0.722656 L 321.996094 81.167969 L 0.214844 81.167969 Z M 0.214844 0.722656 " fill-opacity="1" fill-rule="nonzero"/></g></g></g></g><path fill="#000000" d="M 428.214844 385.277344 L 749.996094 385.277344 L 749.996094 465.722656 L 428.214844 465.722656 Z M 428.214844 385.277344 " fill-opacity="1" fill-rule="nonzero"/><path fill="#000000" d="M 347.769531 465.722656 L 428.214844 465.722656 L 428.214844 626.613281 L 347.769531 626.613281 Z M 347.769531 465.722656 " fill-opacity="1" fill-rule="nonzero"/><path fill="#000000" d="M 267.320312 626.613281 L 347.769531 626.613281 L 347.769531 787.507812 L 267.320312 787.507812 Z M 267.320312 626.613281 " fill-opacity="1" fill-rule="nonzero"/><path fill="#000000" d="M 347.769531 787.507812 L 428.214844 787.507812 L 428.214844 948.398438 L 347.769531 948.398438 Z M 347.769531 787.507812 " fill-opacity="1" fill-rule="nonzero"/><path fill="#000000" d="M 428.214844 948.398438 L 669.550781 948.398438 L 669.550781 1028.84375 L 428.214844 1028.84375 Z M 428.214844 948.398438 " fill-opacity="1" fill-rule="nonzero"/><g mask="url(#620154a06b)"><g transform="matrix(1, 0, 0, 1, 669, 1028)"><g clip-path="url(#c302fe95dd)"><g clip-path="url(#56e8cc3669)"><path fill="#000000" d="M 0.550781 0.84375 L 161.441406 0.84375 L 161.441406 81.289062 L 0.550781 81.289062 Z M 0.550781 0.84375 " fill-opacity="1" fill-rule="nonzero"/></g></g></g></g><path fill="#000000" d="M 830.441406 948.398438 L 1071.777344 948.398438 L 1071.777344 1028.84375 L 830.441406 1028.84375 Z M 830.441406 948.398438 " fill-opacity="1" fill-rule="nonzero"/><path fill="#000000" d="M 749.996094 465.722656 L 830.441406 465.722656 L 830.441406 546.167969 L 749.996094 546.167969 Z M 749.996094 465.722656 " fill-opacity="1" fill-rule="nonzero"/><path fill="#000000" d="M 830.441406 546.167969 L 991.332031 546.167969 L 991.332031 626.613281 L 830.441406 626.613281 Z M 830.441406 546.167969 " fill-opacity="1" fill-rule="nonzero"/><path fill="#000000" d="M 991.332031 626.613281 L 1071.777344 626.613281 L 1071.777344 707.058594 L 991.332031 707.058594 Z M 991.332031 626.613281 " fill-opacity="1" fill-rule="nonzero"/><path fill="#000000" d="M 1071.777344 707.058594 L 1152.222656 707.058594 L 1152.222656 948.398438 L 1071.777344 948.398438 Z M 1071.777344 707.058594 " fill-opacity="1" fill-rule="nonzero"/><g mask="url(#de272516a1)"><g transform="matrix(1, 0, 0, 1, 1232, 546)"><g clip-path="url(#c99db3f48f)"><g clip-path="url(#203bb98e6f)"><path fill="#000000" d="M 0.667969 0.167969 L 81.113281 0.167969 L 81.113281 402.398438 L 0.667969 402.398438 Z M 0.667969 0.167969 " fill-opacity="1" fill-rule="nonzero"/></g></g></g></g><g mask="url(#8e189c3071)"><g transform="matrix(1, 0, 0, 1, 1071, 224)"><g clip-path="url(#afedcf3b96)"><g clip-path="url(#9633ddccdf)"><path fill="#000000" d="M 0.777344 0.386719 L 81.222656 0.386719 L 81.222656 80.832031 L 0.777344 80.832031 Z M 0.777344 0.386719 " fill-opacity="1" fill-rule="nonzero"/></g></g></g></g><g mask="url(#a82653daa2)"><g transform="matrix(1, 0, 0, 1, 991, 143)"><g clip-path="url(#ccb21a8290)"><g clip-path="url(#5964ba0ff5)"><path fill="#000000" d="M 0.332031 0.941406 L 80.777344 0.941406 L 80.777344 81.386719 L 0.332031 81.386719 Z M 0.332031 0.941406 " fill-opacity="1" fill-rule="nonzero"/></g></g></g></g><g mask="url(#2403b7ed4a)"><g transform="matrix(1, 0, 0, 1, 910, 63)"><g clip-path="url(#3d750a11b6)"><g clip-path="url(#b302c1d438)"><path fill="#000000" d="M 0.886719 0.496094 L 81.332031 0.496094 L 81.332031 80.941406 L 0.886719 80.941406 Z M 0.886719 0.496094 " fill-opacity="1" fill-rule="nonzero"/></g></g></g></g><g mask="url(#e348dc32cb)"><g transform="matrix(1, 0, 0, 1, 428, 224)"><g clip-path="url(#4fa6920211)"><g clip-path="url(#5ecac81689)"><path fill="#000000" d="M 0.214844 0.386719 L 80.660156 0.386719 L 80.660156 80.832031 L 0.214844 80.832031 Z M 0.214844 0.386719 " fill-opacity="1" fill-rule="nonzero"/></g></g></g></g><g mask="url(#0184e6fa37)"><g transform="matrix(1, 0, 0, 1, 508, 304)"><g clip-path="url(#9584155394)"><g clip-path="url(#38578323bf)"><path fill="#000000" d="M 0.660156 0.832031 L 81.105469 0.832031 L 81.105469 81.277344 L 0.660156 81.277344 Z M 0.660156 0.832031 " fill-opacity="1" fill-rule="nonzero"/></g></g></g></g><g mask="url(#fd989418f5)"><g transform="matrix(1, 0, 0, 1, 588, 143)"><g clip-path="url(#62c5d07770)"><g clip-path="url(#2c6ad21dbc)"><path fill="#000000" d="M 1.105469 0.941406 L 161.996094 0.941406 L 161.996094 81.386719 L 1.105469 81.386719 Z M 1.105469 0.941406 " fill-opacity="1" fill-rule="nonzero"/></g></g></g></g><g mask="url(#31da3216a6)"><g transform="matrix(1, 0, 0, 1, 910, 465)"><g clip-path="url(#a25956fe01)"><g clip-path="url(#3ee53919a4)"><path fill="#000000" d="M 0.886719 0.722656 L 81.332031 0.722656 L 81.332031 81.167969 L 0.886719 81.167969 Z M 0.886719 0.722656 " fill-opacity="1" fill-rule="nonzero"/></g></g></g></g><g mask="url(#cbf771936b)"><g transform="matrix(1, 0, 0, 1, 1152, 948)"><g clip-path="url(#086559de1b)"><g clip-path="url(#820e1978af)"><path fill="#000000" d="M 0.222656 0.398438 L 80.667969 0.398438 L 80.667969 161.289062 L 0.222656 161.289062 Z M 0.222656 0.398438 " fill-opacity="1" fill-rule="nonzero"/></g></g></g></g><g mask="url(#7b5d94d39d)"><g transform="matrix(1, 0, 0, 1, 1152, 707)"><g clip-path="url(#b0addf6e76)"><g clip-path="url(#b4541f66c4)"><path fill="#000000" d="M 0.222656 0.0585938 L 80.667969 0.0585938 L 80.667969 160.953125 L 0.222656 160.953125 Z M 0.222656 0.0585938 " fill-opacity="1" fill-rule="nonzero"/></g></g></g></g><g mask="url(#f8e034670b)"><g transform="matrix(1, 0, 0, 1, 1071, 465)"><g clip-path="url(#8339f18cb9)"><g clip-path="url(#5c20e03098)"><path fill="#000000" d="M 0.777344 0.722656 L 161.667969 0.722656 L 161.667969 81.167969 L 0.777344 81.167969 Z M 0.777344 0.722656 " fill-opacity="1" fill-rule="nonzero"/></g></g></g></g><g mask="url(#4592821b31)"><g transform="matrix(1, 0, 0, 1, 991, 385)"><g clip-path="url(#aa0cc98554)"><g clip-path="url(#7e73493817)"><path fill="#000000" d="M 0.332031 0.277344 L 80.777344 0.277344 L 80.777344 80.722656 L 0.332031 80.722656 Z M 0.332031 0.277344 " fill-opacity="1" fill-rule="nonzero"/></g></g></g></g><g mask="url(#8ceae045a0)"><g transform="matrix(1, 0, 0, 1, 1152, 304)"><g clip-path="url(#9d02ba0caf)"><g clip-path="url(#62e4dd8310)"><path fill="#000000" d="M 0.222656 0.832031 L 80.667969 0.832031 L 80.667969 81.277344 L 0.222656 81.277344 Z M 0.222656 0.832031 " fill-opacity="1" fill-rule="nonzero"/></g></g></g></g><g clip-path="url(#8d543bbdc3)"><g mask="url(#789145a78a)"><g transform="matrix(1, 0, 0, 1, 1232, 224)"><g clip-path="url(#8ec574971c)"><g clip-path="url(#5ea5c4bc38)"><path fill="#000000" d="M 81.113281 0.386719 L 0.667969 0.386719 L 0.667969 80.832031 L 81.113281 80.832031 L 81.113281 322.167969 L 161.558594 322.167969 L 161.558594 0.386719 Z M 81.113281 0.386719 " fill-opacity="1" fill-rule="nonzero"/></g></g></g></g></g><g mask="url(#45d563f9a0)"><g transform="matrix(1, 0, 0, 1, 910, 304)"><g clip-path="url(#872943b89e)"><g clip-path="url(#615fd6f996)"><path fill="#000000" d="M 0.886719 0.832031 L 81.332031 0.832031 L 81.332031 81.277344 L 0.886719 81.277344 Z M 0.886719 0.832031 " fill-opacity="1" fill-rule="nonzero"/></g></g></g></g><g mask="url(#cf60fcf353)"><g transform="matrix(1, 0, 0, 1, 749, 224)"><g clip-path="url(#71db499d8a)"><g clip-path="url(#630304c72f)"><path fill="#000000" d="M 0.996094 0.386719 L 81.441406 0.386719 L 81.441406 80.832031 L 0.996094 80.832031 Z M 0.996094 0.386719 " fill-opacity="1" fill-rule="nonzero"/></g></g></g></g><g mask="url(#677ca0c61a)"><g transform="matrix(1, 0, 0, 1, 749, 63)"><g clip-path="url(#7e791d5500)"><g clip-path="url(#9360802b40)"><path fill="#000000" d="M 0.996094 0.496094 L 81.441406 0.496094 L 81.441406 80.941406 L 0.996094 80.941406 Z M 0.996094 0.496094 " fill-opacity="1" fill-rule="nonzero"/></g></g></g></g><g mask="url(#3e5e29db91)"><g transform="matrix(1, 0, 0, 1, 830, 143)"><g clip-path="url(#d5a71bf2fa)"><g clip-path="url(#2c4f7ac4af)"><path fill="#000000" d="M 0.441406 0.941406 L 80.886719 0.941406 L 80.886719 81.386719 L 0.441406 81.386719 Z M 0.441406 0.941406 " fill-opacity="1" fill-rule="nonzero"/></g></g></g></g><g mask="url(#670c821d74)"><g transform="matrix(1, 0, 0, 1, 347, 385)"><g clip-path="url(#8066c6d000)"><g clip-path="url(#a65f225839)"><path fill="#000000" d="M 0.769531 0.277344 L 81.214844 0.277344 L 81.214844 80.722656 L 0.769531 80.722656 Z M 0.769531 0.277344 " fill-opacity="1" fill-rule="nonzero"/></g></g></g></g><g mask="url(#1bf2336590)"><g transform="matrix(1, 0, 0, 1, 669, 0.000000000000112861)"><g clip-path="url(#842c0b1c23)"><g clip-path="url(#de41fe618a)"><path fill="#000000" d="M 0.550781 -16.949219 L 241.886719 -16.949219 L 241.886719 63.496094 L 0.550781 63.496094 Z M 0.550781 -16.949219 " fill-opacity="1" fill-rule="nonzero"/></g></g></g></g><g mask="url(#9a6daa77d6)"><g transform="matrix(1, 0, 0, 1, 428, 63)"><g clip-path="url(#b94630ac66)"><g clip-path="url(#8750c3afa5)"><path fill="#000000" d="M 0.214844 0.496094 L 80.660156 0.496094 L 80.660156 161.386719 L 0.214844 161.386719 Z M 0.214844 0.496094 " fill-opacity="1" fill-rule="nonzero"/></g></g></g></g><path fill="#000000" d="M 830.441406 707.058594 L 991.332031 707.058594 L 991.332031 787.507812 L 830.441406 787.507812 Z M 830.441406 707.058594 " fill-opacity="1" fill-rule="nonzero"/><path fill="#000000" d="M 508.660156 707.058594 L 669.550781 707.058594 L 669.550781 787.507812 L 508.660156 787.507812 Z M 508.660156 707.058594 " fill-opacity="1" fill-rule="nonzero"/><path fill="#8217ff" d="M 830.441406 787.507812 L 910.886719 787.507812 L 910.886719 867.953125 L 830.441406 867.953125 Z M 830.441406 787.507812 " fill-opacity="1" fill-rule="nonzero"/><path fill="#8217ff" d="M 589.105469 787.507812 L 669.550781 787.507812 L 669.550781 867.953125 L 589.105469 867.953125 Z M 589.105469 787.507812 " fill-opacity="1" fill-rule="nonzero"/><g mask="url(#179003dae9)"><g transform="matrix(1, 0, 0, 1, 347, 626)"><g clip-path="url(#0c3928a261)"><g clip-path="url(#26a7a92f1b)"><path fill="#000000" d="M 0.769531 0.613281 L 81.214844 0.613281 L 81.214844 161.507812 L 0.769531 161.507812 Z M 0.769531 0.613281 " fill-opacity="1" fill-rule="nonzero"/></g></g></g></g><g mask="url(#4a800630d9)"><g transform="matrix(1, 0, 0, 1, 991, 707)"><g clip-path="url(#8aac2b2114)"><g clip-path="url(#18cad4ef36)"><path fill="#000000" d="M 0.332031 0.0585938 L 80.777344 0.0585938 L 80.777344 241.398438 L 0.332031 241.398438 Z M 0.332031 0.0585938 " fill-opacity="1" fill-rule="nonzero"/></g></g></g></g><g mask="url(#461ece30c9)"><g transform="matrix(1, 0, 0, 1, 428, 787)"><g clip-path="url(#23abe68ada)"><g clip-path="url(#073caa797b)"><path fill="#000000" d="M 0.214844 0.507812 L 80.660156 0.507812 L 80.660156 161.398438 L 0.214844 161.398438 Z M 0.214844 0.507812 " fill-opacity="1" fill-rule="nonzero"/></g></g></g></g><g mask="url(#7d2092c9b2)"><g transform="matrix(1, 0, 0, 1, 428, 465)"><g clip-path="url(#f617a226de)"><g clip-path="url(#712266d087)"><path fill="#000000" d="M 0.214844 0.722656 L 80.660156 0.722656 L 80.660156 161.613281 L 0.214844 161.613281 Z M 0.214844 0.722656 " fill-opacity="1" fill-rule="nonzero"/></g></g></g></g><path fill="#000000" d="M 428.214844 948.398438 L 508.660156 948.398438 L 508.660156 1431.070312 L 428.214844 1431.070312 Z M 428.214844 948.398438 " fill-opacity="1" fill-rule="nonzero"/><g clip-path="url(#56a27c3642)"><path fill="#000000" d="M 508.660156 1431.070312 L 589.105469 1431.070312 L 589.105469 1833.296875 L 508.660156 1833.296875 Z M 508.660156 1431.070312 " fill-opacity="1" fill-rule="nonzero"/></g><g mask="url(#57f67ecadd)"><g transform="matrix(1, 0, 0, 1, 267, 1109)"><g clip-path="url(#cd3520a2f1)"><g clip-path="url(#e1904b2d5e)"><path fill="#000000" d="M 0.320312 0.289062 L 80.769531 0.289062 L 80.769531 161.179688 L 0.320312 161.179688 Z M 0.320312 0.289062 " fill-opacity="1" fill-rule="nonzero"/></g></g></g></g><g mask="url(#f39bcf402e)"><g transform="matrix(1, 0, 0, 1, 267, 787)"><g clip-path="url(#64471d20a5)"><g clip-path="url(#33784607b4)"><path fill="#000000" d="M 0.320312 0.507812 L 80.769531 0.507812 L 80.769531 80.953125 L 0.320312 80.953125 Z M 0.320312 0.507812 " fill-opacity="1" fill-rule="nonzero"/></g></g></g></g><g mask="url(#c363dd39da)"><g transform="matrix(1, 0, 0, 1, 186, 626)"><g clip-path="url(#adccdc02a3)"><g clip-path="url(#1bb043f64c)"><path fill="#000000" d="M 0.875 0.613281 L 81.320312 0.613281 L 81.320312 81.058594 L 0.875 81.058594 Z M 0.875 0.613281 " fill-opacity="1" fill-rule="nonzero"/></g></g></g></g><g mask="url(#3992d98441)"><g transform="matrix(1, 0, 0, 1, 347, 1270)"><g clip-path="url(#433f306d54)"><g clip-path="url(#f35ca87ff8)"><path fill="#000000" d="M 0.769531 0.179688 L 81.214844 0.179688 L 81.214844 161.070312 L 0.769531 161.070312 Z M 0.769531 0.179688 " fill-opacity="1" fill-rule="nonzero"/></g></g></g></g><g clip-path="url(#9af76d8fa8)"><g mask="url(#996a3ac5c9)"><g transform="matrix(1, 0, 0, 1, 428, 1430)"><g clip-path="url(#b809e8fc2e)"><g clip-path="url(#0dc340ca00)"><path fill="#000000" d="M 0.214844 1.070312 L 80.660156 1.070312 L 80.660156 161.960938 L 0.214844 161.960938 Z M 0.214844 1.070312 " fill-opacity="1" fill-rule="nonzero"/></g></g></g></g></g><g mask="url(#d09e9ffbc2)"><g transform="matrix(1, 0, 0, 1, 910, 1028)"><g clip-path="url(#e854dc69c4)"><g clip-path="url(#c5ffda5cb0)"><path fill="#000000" d="M 0.886719 0.84375 L 161.777344 0.84375 L 161.777344 81.289062 L 0.886719 81.289062 Z M 0.886719 0.84375 " fill-opacity="1" fill-rule="nonzero"/></g></g></g></g><g mask="url(#ca8ebf1c87)"><g transform="matrix(1, 0, 0, 1, 508, 1028)"><g clip-path="url(#1f31ab8b26)"><g clip-path="url(#795b672b4c)"><path fill="#000000" d="M 0.660156 0.84375 L 81.105469 0.84375 L 81.105469 81.289062 L 0.660156 81.289062 Z M 0.660156 0.84375 " fill-opacity="1" fill-rule="nonzero"/></g></g></g></g><path fill="#d70400" d="M 991.332031 1028.84375 L 830.441406 1028.84375 L 830.441406 1189.734375 L 669.550781 1189.734375 L 669.550781 1028.84375 L 508.660156 1028.84375 L 508.660156 1270.179688 L 669.550781 1270.179688 L 669.550781 1350.625 L 830.441406 1350.625 L 830.441406 1270.179688 L 991.332031 1270.179688 L 991.332031 1109.289062 L 1071.777344 1109.289062 L 1071.777344 1028.84375 Z M 991.332031 1028.84375 " fill-opacity="1" fill-rule="nonzero"/><g clip-path="url(#aa62f424e2)"><path fill="#8217ff" d="M 1313.113281 1913.742188 L 991.332031 1913.742188 L 991.332031 1833.296875 L 1071.777344 1833.296875 L 1071.777344 1431.070312 L 991.332031 1431.070312 L 991.332031 1189.734375 L 910.886719 1189.734375 L 910.886719 1270.179688 L 830.441406 1270.179688 L 830.441406 1350.625 L 669.550781 1350.625 L 669.550781 1270.179688 L 589.105469 1270.179688 L 589.105469 1189.734375 L 508.660156 1189.734375 L 508.660156 1672.40625 L 347.769531 1672.40625 L 347.769531 1913.742188 L 186.875 1913.742188 L 186.875 2155.082031 L 267.320312 2155.082031 L 267.320312 2235.527344 L 1232.667969 2235.527344 L 1232.667969 2155.082031 L 1313.113281 2155.082031 Z M 1313.113281 1913.742188 " fill-opacity="1" fill-rule="nonzero"/></g><path fill="#8217ff" d="M 991.332031 1109.289062 L 1071.777344 1109.289062 L 1071.777344 1189.734375 L 991.332031 1189.734375 Z M 991.332031 1109.289062 " fill-opacity="1" fill-rule="nonzero"/><path fill="#8217ff" d="M 1071.777344 1028.84375 L 1152.222656 1028.84375 L 1152.222656 1109.289062 L 1071.777344 1109.289062 Z M 1071.777344 1028.84375 " fill-opacity="1" fill-rule="nonzero"/><path fill="#ffd9c0" d="M 1152.222656 1028.84375 L 1152.222656 385.277344 L 267.320312 385.277344 L 267.320312 1028.84375 L 669.550781 1028.84375 L 669.550781 1189.734375 L 830.441406 1189.734375 L 830.441406 1028.84375 Z M 1152.222656 1028.84375 " fill-opacity="1" fill-rule="nonzero"/><g clip-path="url(#8c4064a2cb)"><path fill="#ffd9c0" d="M 991.332031 1431.070312 L 991.332031 1913.742188 L 1071.777344 1913.742188 L 1071.777344 1994.1875 L 1232.667969 1994.1875 L 1232.667969 1913.742188 L 1313.113281 1913.742188 L 1313.113281 1431.070312 Z M 991.332031 1431.070312 " fill-opacity="1" fill-rule="nonzero"/></g><path fill="#d70400" d="M 991.332031 1189.734375 L 1232.667969 1189.734375 L 1232.667969 1431.070312 L 991.332031 1431.070312 Z M 991.332031 1189.734375 " fill-opacity="1" fill-rule="nonzero"/><path fill="#000000" d="M 1071.777344 1109.289062 L 1152.222656 1109.289062 L 1152.222656 1189.734375 L 1071.777344 1189.734375 Z M 1071.777344 1109.289062 " fill-opacity="1" fill-rule="nonzero"/><g mask="url(#f1fb106490)"><g transform="matrix(1, 0, 0, 1, 1071, 1028)"><g clip-path="url(#eb4af10777)"><g clip-path="url(#f6bc101f23)"><path fill="#000000" d="M 0.777344 0.84375 L 81.222656 0.84375 L 81.222656 81.289062 L 0.777344 81.289062 Z M 0.777344 0.84375 " fill-opacity="1" fill-rule="nonzero"/></g></g></g></g><g mask="url(#b758f75434)"><g transform="matrix(1, 0, 0, 1, 910, 1189)"><g clip-path="url(#bb1661bbbb)"><g clip-path="url(#3a99aba75d)"><path fill="#000000" d="M 0.886719 0.734375 L 81.332031 0.734375 L 81.332031 81.179688 L 0.886719 81.179688 Z M 0.886719 0.734375 " fill-opacity="1" fill-rule="nonzero"/></g></g></g></g><g mask="url(#5e405e91a1)"><g transform="matrix(1, 0, 0, 1, 508, 1189)"><g clip-path="url(#db641eeef5)"><g clip-path="url(#c0c2f61f14)"><path fill="#000000" d="M 0.660156 0.734375 L 81.105469 0.734375 L 81.105469 81.179688 L 0.660156 81.179688 Z M 0.660156 0.734375 " fill-opacity="1" fill-rule="nonzero"/></g></g></g></g><g mask="url(#8e2efa3417)"><g transform="matrix(1, 0, 0, 1, 830, 1270)"><g clip-path="url(#1c5efa133e)"><g clip-path="url(#75fa529c0d)"><path fill="#000000" d="M 0.441406 0.179688 L 80.886719 0.179688 L 80.886719 80.625 L 0.441406 80.625 Z M 0.441406 0.179688 " fill-opacity="1" fill-rule="nonzero"/></g></g></g></g><g mask="url(#d2568d098d)"><g transform="matrix(1, 0, 0, 1, 588, 1270)"><g clip-path="url(#73c4530807)"><g clip-path="url(#52c7e7b2a8)"><path fill="#000000" d="M 1.105469 0.179688 L 81.550781 0.179688 L 81.550781 80.625 L 1.105469 80.625 Z M 1.105469 0.179688 " fill-opacity="1" fill-rule="nonzero"/></g></g></g></g><path fill="#000000" d="M 1152.222656 1189.734375 L 1232.667969 1189.734375 L 1232.667969 1431.070312 L 1152.222656 1431.070312 Z M 1152.222656 1189.734375 " fill-opacity="1" fill-rule="nonzero"/><g clip-path="url(#d1ed49a28a)"><path fill="#000000" d="M 1152.222656 1431.070312 L 1313.113281 1431.070312 L 1313.113281 1511.515625 L 1152.222656 1511.515625 Z M 1152.222656 1431.070312 " fill-opacity="1" fill-rule="nonzero"/></g><g clip-path="url(#0d6019e6a0)"><path fill="#000000" d="M 1232.667969 1431.070312 L 1313.113281 1431.070312 L 1313.113281 1591.960938 L 1232.667969 1591.960938 Z M 1232.667969 1431.070312 " fill-opacity="1" fill-rule="nonzero"/></g><g clip-path="url(#8ee3102695)"><g mask="url(#4461b52726)"><g transform="matrix(1, 0, 0, 1, 991, 1430)"><g clip-path="url(#639ef2ef06)"><g clip-path="url(#041ae08fa9)"><path fill="#000000" d="M 161.222656 1.070312 L 0.332031 1.070312 L 0.332031 322.851562 L 80.777344 322.851562 L 80.777344 81.515625 L 161.222656 81.515625 Z M 161.222656 1.070312 " fill-opacity="1" fill-rule="nonzero"/></g></g></g></g></g><g clip-path="url(#c4e574c844)"><path fill="#e0e579" d="M 1232.667969 224.386719 L 1232.667969 304.832031 L 1152.222656 304.832031 L 1152.222656 224.386719 L 1071.777344 224.386719 L 1071.777344 143.941406 L 991.332031 143.941406 L 991.332031 63.496094 L 910.886719 63.496094 L 910.886719 -16.949219 L 428.214844 -16.949219 L 428.214844 63.496094 L 347.769531 63.496094 L 347.769531 304.832031 L 267.320312 304.832031 L 267.320312 385.277344 L 186.875 385.277344 L 186.875 626.613281 L 106.429688 626.613281 L 106.429688 867.953125 L 186.875 867.953125 L 186.875 948.398438 L 267.320312 948.398438 L 267.320312 1109.289062 L 186.875 1109.289062 L 186.875 1270.179688 L 267.320312 1270.179688 L 267.320312 1511.515625 L 186.875 1511.515625 L 186.875 1833.296875 L 267.320312 1833.296875 L 267.320312 1913.742188 L 347.769531 1913.742188 L 347.769531 1833.296875 L 428.214844 1833.296875 L 428.214844 1752.851562 L 508.660156 1752.851562 L 508.660156 1833.296875 L 589.105469 1833.296875 L 589.105469 1431.070312 L 508.660156 1431.070312 L 508.660156 1028.84375 L 428.214844 1028.84375 L 428.214844 787.507812 L 347.769531 787.507812 L 347.769531 626.613281 L 428.214844 626.613281 L 428.214844 465.722656 L 749.996094 465.722656 L 749.996094 546.167969 L 830.441406 546.167969 L 830.441406 626.613281 L 991.332031 626.613281 L 991.332031 707.058594 L 1071.777344 707.058594 L 1071.777344 948.398438 L 1152.222656 948.398438 L 1152.222656 1109.289062 L 1232.667969 1109.289062 L 1232.667969 948.398438 L 1313.113281 948.398438 L 1313.113281 546.167969 L 1393.558594 546.167969 L 1393.558594 224.386719 Z M 1232.667969 224.386719 " fill-opacity="1" fill-rule="nonzero"/></g><g mask="url(#a325e7950f)"><g transform="matrix(1, 0, 0, 1, 991, 1189)"><g clip-path="url(#c2164a86d0)"><g clip-path="url(#ed64e1c3ed)"><path fill="#000000" d="M 0.332031 0.734375 L 80.777344 0.734375 L 80.777344 242.070312 L 0.332031 242.070312 Z M 0.332031 0.734375 " fill-opacity="1" fill-rule="nonzero"/></g></g></g></g><g clip-path="url(#61b49b71ad)"><g mask="url(#3483f30c3e)"><g transform="matrix(1, 0, 0, 1, 991, 1350)"><g clip-path="url(#89a6bc21b0)"><g clip-path="url(#63c07f4ea2)"><path fill="#000000" d="M 0.332031 0.625 L 80.777344 0.625 L 80.777344 161.515625 L 0.332031 161.515625 Z M 0.332031 0.625 " fill-opacity="1" fill-rule="nonzero"/></g></g></g></g></g><path fill="#000000" d="M 669.550781 1350.625 L 830.441406 1350.625 L 830.441406 1431.070312 L 669.550781 1431.070312 Z M 669.550781 1350.625 " fill-opacity="1" fill-rule="nonzero"/><g clip-path="url(#eed90f22f8)"><path fill="#000000" d="M 669.550781 1350.625 L 749.996094 1350.625 L 749.996094 1591.960938 L 669.550781 1591.960938 Z M 669.550781 1350.625 " fill-opacity="1" fill-rule="nonzero"/></g><g clip-path="url(#ba061e5db4)"><path fill="#d70400" d="M 749.996094 1431.070312 L 830.441406 1431.070312 L 830.441406 1511.515625 L 749.996094 1511.515625 Z M 749.996094 1431.070312 " fill-opacity="1" fill-rule="nonzero"/></g><g clip-path="url(#6e60d63fb1)"><path fill="#000000" d="M 267.320312 1270.179688 L 347.769531 1270.179688 L 347.769531 1511.515625 L 267.320312 1511.515625 Z M 267.320312 1270.179688 " fill-opacity="1" fill-rule="nonzero"/></g><path fill="#000000" d="M 186.875 1109.289062 L 267.320312 1109.289062 L 267.320312 1270.179688 L 186.875 1270.179688 Z M 186.875 1109.289062 " fill-opacity="1" fill-rule="nonzero"/><path fill="#000000" d="M 267.320312 948.398438 L 347.769531 948.398438 L 347.769531 1109.289062 L 267.320312 1109.289062 Z M 267.320312 948.398438 " fill-opacity="1" fill-rule="nonzero"/><path fill="#000000" d="M 186.875 867.953125 L 267.320312 867.953125 L 267.320312 948.398438 L 186.875 948.398438 Z M 186.875 867.953125 " fill-opacity="1" fill-rule="nonzero"/><g clip-path="url(#f56a9886a4)"><path fill="#000000" d="M 106.429688 626.613281 L 186.875 626.613281 L 186.875 867.953125 L 106.429688 867.953125 Z M 106.429688 626.613281 " fill-opacity="1" fill-rule="nonzero"/></g><path fill="#000000" d="M 186.875 385.277344 L 267.320312 385.277344 L 267.320312 626.613281 L 186.875 626.613281 Z M 186.875 385.277344 " fill-opacity="1" fill-rule="nonzero"/><path fill="#000000" d="M 267.320312 304.832031 L 347.769531 304.832031 L 347.769531 385.277344 L 267.320312 385.277344 Z M 267.320312 304.832031 " fill-opacity="1" fill-rule="nonzero"/><path fill="#000000" d="M 347.769531 63.496094 L 428.214844 63.496094 L 428.214844 304.832031 L 347.769531 304.832031 Z M 347.769531 63.496094 " fill-opacity="1" fill-rule="nonzero"/><path fill="#000000" d="M 428.214844 -16.949219 L 669.550781 -16.949219 L 669.550781 63.496094 L 428.214844 63.496094 Z M 428.214844 -16.949219 " fill-opacity="1" fill-rule="nonzero"/><g mask="url(#dacee55656)"><g transform="matrix(1, 0, 0, 1, 428, 465)"><g clip-path="url(#8eef4e7782)"><g clip-path="url(#7db53efd01)"><path fill="#000000" d="M 0.214844 0.722656 L 321.996094 0.722656 L 321.996094 81.167969 L 0.214844 81.167969 Z M 0.214844 0.722656 " fill-opacity="1" fill-rule="nonzero"/></g></g></g></g><path fill="#000000" d="M 428.214844 385.277344 L 749.996094 385.277344 L 749.996094 465.722656 L 428.214844 465.722656 Z M 428.214844 385.277344 " fill-opacity="1" fill-rule="nonzero"/><path fill="#000000" d="M 347.769531 465.722656 L 428.214844 465.722656 L 428.214844 626.613281 L 347.769531 626.613281 Z M 347.769531 465.722656 " fill-opacity="1" fill-rule="nonzero"/><path fill="#000000" d="M 267.320312 626.613281 L 347.769531 626.613281 L 347.769531 787.507812 L 267.320312 787.507812 Z M 267.320312 626.613281 " fill-opacity="1" fill-rule="nonzero"/><path fill="#000000" d="M 347.769531 787.507812 L 428.214844 787.507812 L 428.214844 948.398438 L 347.769531 948.398438 Z M 347.769531 787.507812 " fill-opacity="1" fill-rule="nonzero"/><path fill="#000000" d="M 428.214844 948.398438 L 669.550781 948.398438 L 669.550781 1028.84375 L 428.214844 1028.84375 Z M 428.214844 948.398438 " fill-opacity="1" fill-rule="nonzero"/><g mask="url(#3835b6d32a)"><g transform="matrix(1, 0, 0, 1, 669, 1028)"><g clip-path="url(#8a3f53356c)"><g clip-path="url(#c947edc99e)"><path fill="#000000" d="M 0.550781 0.84375 L 161.441406 0.84375 L 161.441406 81.289062 L 0.550781 81.289062 Z M 0.550781 0.84375 " fill-opacity="1" fill-rule="nonzero"/></g></g></g></g><path fill="#000000" d="M 830.441406 948.398438 L 1071.777344 948.398438 L 1071.777344 1028.84375 L 830.441406 1028.84375 Z M 830.441406 948.398438 " fill-opacity="1" fill-rule="nonzero"/><path fill="#000000" d="M 749.996094 465.722656 L 830.441406 465.722656 L 830.441406 546.167969 L 749.996094 546.167969 Z M 749.996094 465.722656 " fill-opacity="1" fill-rule="nonzero"/><path fill="#000000" d="M 830.441406 546.167969 L 991.332031 546.167969 L 991.332031 626.613281 L 830.441406 626.613281 Z M 830.441406 546.167969 " fill-opacity="1" fill-rule="nonzero"/><path fill="#000000" d="M 991.332031 626.613281 L 1071.777344 626.613281 L 1071.777344 707.058594 L 991.332031 707.058594 Z M 991.332031 626.613281 " fill-opacity="1" fill-rule="nonzero"/><path fill="#000000" d="M 1071.777344 707.058594 L 1152.222656 707.058594 L 1152.222656 948.398438 L 1071.777344 948.398438 Z M 1071.777344 707.058594 " fill-opacity="1" fill-rule="nonzero"/><g mask="url(#8aebd8f56b)"><g transform="matrix(1, 0, 0, 1, 1232, 546)"><g clip-path="url(#de3ca4802b)"><g clip-path="url(#c35d86e5fb)"><path fill="#000000" d="M 0.667969 0.167969 L 81.113281 0.167969 L 81.113281 402.398438 L 0.667969 402.398438 Z M 0.667969 0.167969 " fill-opacity="1" fill-rule="nonzero"/></g></g></g></g><g mask="url(#0dc94aae33)"><g transform="matrix(1, 0, 0, 1, 1071, 224)"><g clip-path="url(#27a50a2ae2)"><g clip-path="url(#c6b45bf04b)"><path fill="#000000" d="M 0.777344 0.386719 L 81.222656 0.386719 L 81.222656 80.832031 L 0.777344 80.832031 Z M 0.777344 0.386719 " fill-opacity="1" fill-rule="nonzero"/></g></g></g></g><g mask="url(#0425636caa)"><g transform="matrix(1, 0, 0, 1, 991, 143)"><g clip-path="url(#22eb3d01f9)"><g clip-path="url(#4200dedc7c)"><path fill="#000000" d="M 0.332031 0.941406 L 80.777344 0.941406 L 80.777344 81.386719 L 0.332031 81.386719 Z M 0.332031 0.941406 " fill-opacity="1" fill-rule="nonzero"/></g></g></g></g><g mask="url(#3e39fbc990)"><g transform="matrix(1, 0, 0, 1, 910, 63)"><g clip-path="url(#180e99f3fb)"><g clip-path="url(#ad8fb5f0f4)"><path fill="#000000" d="M 0.886719 0.496094 L 81.332031 0.496094 L 81.332031 80.941406 L 0.886719 80.941406 Z M 0.886719 0.496094 " fill-opacity="1" fill-rule="nonzero"/></g></g></g></g><g mask="url(#4776caf610)"><g transform="matrix(1, 0, 0, 1, 428, 224)"><g clip-path="url(#b54148c675)"><g clip-path="url(#75e80971d6)"><path fill="#000000" d="M 0.214844 0.386719 L 80.660156 0.386719 L 80.660156 80.832031 L 0.214844 80.832031 Z M 0.214844 0.386719 " fill-opacity="1" fill-rule="nonzero"/></g></g></g></g><g mask="url(#e8b0f4c434)"><g transform="matrix(1, 0, 0, 1, 508, 304)"><g clip-path="url(#ea002a97f3)"><g clip-path="url(#fa61a68699)"><path fill="#000000" d="M 0.660156 0.832031 L 81.105469 0.832031 L 81.105469 81.277344 L 0.660156 81.277344 Z M 0.660156 0.832031 " fill-opacity="1" fill-rule="nonzero"/></g></g></g></g><g mask="url(#925677f609)"><g transform="matrix(1, 0, 0, 1, 588, 143)"><g clip-path="url(#380f8c33f2)"><g clip-path="url(#1985d8ecb4)"><path fill="#000000" d="M 1.105469 0.941406 L 161.996094 0.941406 L 161.996094 81.386719 L 1.105469 81.386719 Z M 1.105469 0.941406 " fill-opacity="1" fill-rule="nonzero"/></g></g></g></g><g mask="url(#4d0249296a)"><g transform="matrix(1, 0, 0, 1, 910, 465)"><g clip-path="url(#9774e2a3b4)"><g clip-path="url(#b276f17efc)"><path fill="#000000" d="M 0.886719 0.722656 L 81.332031 0.722656 L 81.332031 81.167969 L 0.886719 81.167969 Z M 0.886719 0.722656 " fill-opacity="1" fill-rule="nonzero"/></g></g></g></g><g mask="url(#91b49feacc)"><g transform="matrix(1, 0, 0, 1, 1152, 948)"><g clip-path="url(#84cd75f250)"><g clip-path="url(#7f90eb0edf)"><path fill="#000000" d="M 0.222656 0.398438 L 80.667969 0.398438 L 80.667969 161.289062 L 0.222656 161.289062 Z M 0.222656 0.398438 " fill-opacity="1" fill-rule="nonzero"/></g></g></g></g><g mask="url(#f2188cfda9)"><g transform="matrix(1, 0, 0, 1, 1152, 707)"><g clip-path="url(#4fd5cb569f)"><g clip-path="url(#33a385da31)"><path fill="#000000" d="M 0.222656 0.0585938 L 80.667969 0.0585938 L 80.667969 160.953125 L 0.222656 160.953125 Z M 0.222656 0.0585938 " fill-opacity="1" fill-rule="nonzero"/></g></g></g></g><g mask="url(#da0688e78b)"><g transform="matrix(1, 0, 0, 1, 1071, 465)"><g clip-path="url(#3db80a58ca)"><g clip-path="url(#8739cf3331)"><path fill="#000000" d="M 0.777344 0.722656 L 161.667969 0.722656 L 161.667969 81.167969 L 0.777344 81.167969 Z M 0.777344 0.722656 " fill-opacity="1" fill-rule="nonzero"/></g></g></g></g><g mask="url(#a19cc03291)"><g transform="matrix(1, 0, 0, 1, 991, 385)"><g clip-path="url(#030f2d9957)"><g clip-path="url(#3b5676fa25)"><path fill="#000000" d="M 0.332031 0.277344 L 80.777344 0.277344 L 80.777344 80.722656 L 0.332031 80.722656 Z M 0.332031 0.277344 " fill-opacity="1" fill-rule="nonzero"/></g></g></g></g><g mask="url(#07965f4742)"><g transform="matrix(1, 0, 0, 1, 1152, 304)"><g clip-path="url(#cf6f809f35)"><g clip-path="url(#a9e00c43a7)"><path fill="#000000" d="M 0.222656 0.832031 L 80.667969 0.832031 L 80.667969 81.277344 L 0.222656 81.277344 Z M 0.222656 0.832031 " fill-opacity="1" fill-rule="nonzero"/></g></g></g></g><g clip-path="url(#acafd4ac6c)"><g mask="url(#ac8036d4b3)"><g transform="matrix(1, 0, 0, 1, 1232, 224)"><g clip-path="url(#e76fc2f222)"><g clip-path="url(#1c43b6d95c)"><path fill="#000000" d="M 81.113281 0.386719 L 0.667969 0.386719 L 0.667969 80.832031 L 81.113281 80.832031 L 81.113281 322.167969 L 161.558594 322.167969 L 161.558594 0.386719 Z M 81.113281 0.386719 " fill-opacity="1" fill-rule="nonzero"/></g></g></g></g></g><g mask="url(#b23d6cec3e)"><g transform="matrix(1, 0, 0, 1, 910, 304)"><g clip-path="url(#b64b9886f3)"><g clip-path="url(#259592e06c)"><path fill="#000000" d="M 0.886719 0.832031 L 81.332031 0.832031 L 81.332031 81.277344 L 0.886719 81.277344 Z M 0.886719 0.832031 " fill-opacity="1" fill-rule="nonzero"/></g></g></g></g><g mask="url(#9e4ab12a62)"><g transform="matrix(1, 0, 0, 1, 749, 224)"><g clip-path="url(#b94f3c9700)"><g clip-path="url(#0b7aef5fe5)"><path fill="#000000" d="M 0.996094 0.386719 L 81.441406 0.386719 L 81.441406 80.832031 L 0.996094 80.832031 Z M 0.996094 0.386719 " fill-opacity="1" fill-rule="nonzero"/></g></g></g></g><g mask="url(#5aa6c3faa2)"><g transform="matrix(1, 0, 0, 1, 749, 63)"><g clip-path="url(#015235382f)"><g clip-path="url(#c537d3965d)"><path fill="#000000" d="M 0.996094 0.496094 L 81.441406 0.496094 L 81.441406 80.941406 L 0.996094 80.941406 Z M 0.996094 0.496094 " fill-opacity="1" fill-rule="nonzero"/></g></g></g></g><g mask="url(#07838980a6)"><g transform="matrix(1, 0, 0, 1, 830, 143)"><g clip-path="url(#bbfe7e5329)"><g clip-path="url(#1946029b33)"><path fill="#000000" d="M 0.441406 0.941406 L 80.886719 0.941406 L 80.886719 81.386719 L 0.441406 81.386719 Z M 0.441406 0.941406 " fill-opacity="1" fill-rule="nonzero"/></g></g></g></g><g mask="url(#41db742fd4)"><g transform="matrix(1, 0, 0, 1, 347, 385)"><g clip-path="url(#60e33abb71)"><g clip-path="url(#aeb58ddad8)"><path fill="#000000" d="M 0.769531 0.277344 L 81.214844 0.277344 L 81.214844 80.722656 L 0.769531 80.722656 Z M 0.769531 0.277344 " fill-opacity="1" fill-rule="nonzero"/></g></g></g></g><g mask="url(#f6af8dc2b6)"><g transform="matrix(1, 0, 0, 1, 669, 0.000000000000112861)"><g clip-path="url(#9c429991b2)"><g clip-path="url(#8f2b42eb99)"><path fill="#000000" d="M 0.550781 -16.949219 L 241.886719 -16.949219 L 241.886719 63.496094 L 0.550781 63.496094 Z M 0.550781 -16.949219 " fill-opacity="1" fill-rule="nonzero"/></g></g></g></g><g mask="url(#09ad81d737)"><g transform="matrix(1, 0, 0, 1, 428, 63)"><g clip-path="url(#f5daca37b9)"><g clip-path="url(#b03f2c6172)"><path fill="#000000" d="M 0.214844 0.496094 L 80.660156 0.496094 L 80.660156 161.386719 L 0.214844 161.386719 Z M 0.214844 0.496094 " fill-opacity="1" fill-rule="nonzero"/></g></g></g></g><path fill="#000000" d="M 830.441406 707.058594 L 991.332031 707.058594 L 991.332031 787.507812 L 830.441406 787.507812 Z M 830.441406 707.058594 " fill-opacity="1" fill-rule="nonzero"/><path fill="#000000" d="M 508.660156 707.058594 L 669.550781 707.058594 L 669.550781 787.507812 L 508.660156 787.507812 Z M 508.660156 707.058594 " fill-opacity="1" fill-rule="nonzero"/><path fill="#8217ff" d="M 830.441406 787.507812 L 910.886719 787.507812 L 910.886719 867.953125 L 830.441406 867.953125 Z M 830.441406 787.507812 " fill-opacity="1" fill-rule="nonzero"/><path fill="#8217ff" d="M 589.105469 787.507812 L 669.550781 787.507812 L 669.550781 867.953125 L 589.105469 867.953125 Z M 589.105469 787.507812 " fill-opacity="1" fill-rule="nonzero"/><g mask="url(#7124cf53bb)"><g transform="matrix(1, 0, 0, 1, 347, 626)"><g clip-path="url(#2ad201b41d)"><g clip-path="url(#8896fc7448)"><path fill="#000000" d="M 0.769531 0.613281 L 81.214844 0.613281 L 81.214844 161.507812 L 0.769531 161.507812 Z M 0.769531 0.613281 " fill-opacity="1" fill-rule="nonzero"/></g></g></g></g><g mask="url(#8b0d0d2196)"><g transform="matrix(1, 0, 0, 1, 991, 707)"><g clip-path="url(#a0573cdb95)"><g clip-path="url(#73991cd84a)"><path fill="#000000" d="M 0.332031 0.0585938 L 80.777344 0.0585938 L 80.777344 241.398438 L 0.332031 241.398438 Z M 0.332031 0.0585938 " fill-opacity="1" fill-rule="nonzero"/></g></g></g></g><g mask="url(#a4a699d0ab)"><g transform="matrix(1, 0, 0, 1, 428, 787)"><g clip-path="url(#b8ca2d9272)"><g clip-path="url(#c8080c5268)"><path fill="#000000" d="M 0.214844 0.507812 L 80.660156 0.507812 L 80.660156 161.398438 L 0.214844 161.398438 Z M 0.214844 0.507812 " fill-opacity="1" fill-rule="nonzero"/></g></g></g></g><g mask="url(#49fddc2469)"><g transform="matrix(1, 0, 0, 1, 428, 465)"><g clip-path="url(#daeb409c4b)"><g clip-path="url(#aa0ded8ee9)"><path fill="#000000" d="M 0.214844 0.722656 L 80.660156 0.722656 L 80.660156 161.613281 L 0.214844 161.613281 Z M 0.214844 0.722656 " fill-opacity="1" fill-rule="nonzero"/></g></g></g></g><path fill="#000000" d="M 428.214844 948.398438 L 508.660156 948.398438 L 508.660156 1431.070312 L 428.214844 1431.070312 Z M 428.214844 948.398438 " fill-opacity="1" fill-rule="nonzero"/><g clip-path="url(#97b285ae00)"><path fill="#000000" d="M 508.660156 1431.070312 L 589.105469 1431.070312 L 589.105469 1833.296875 L 508.660156 1833.296875 Z M 508.660156 1431.070312 " fill-opacity="1" fill-rule="nonzero"/></g><g mask="url(#75a807c210)"><g transform="matrix(1, 0, 0, 1, 267, 1109)"><g clip-path="url(#c11aefa003)"><g clip-path="url(#1ac17c3c15)"><path fill="#000000" d="M 0.320312 0.289062 L 80.769531 0.289062 L 80.769531 161.179688 L 0.320312 161.179688 Z M 0.320312 0.289062 " fill-opacity="1" fill-rule="nonzero"/></g></g></g></g><g mask="url(#749ffc7aa2)"><g transform="matrix(1, 0, 0, 1, 267, 787)"><g clip-path="url(#29790c8eeb)"><g clip-path="url(#6ad2f3e8a0)"><path fill="#000000" d="M 0.320312 0.507812 L 80.769531 0.507812 L 80.769531 80.953125 L 0.320312 80.953125 Z M 0.320312 0.507812 " fill-opacity="1" fill-rule="nonzero"/></g></g></g></g><g mask="url(#ec5ff949a0)"><g transform="matrix(1, 0, 0, 1, 186, 626)"><g clip-path="url(#c5c597918b)"><g clip-path="url(#b2073da886)"><path fill="#000000" d="M 0.875 0.613281 L 81.320312 0.613281 L 81.320312 81.058594 L 0.875 81.058594 Z M 0.875 0.613281 " fill-opacity="1" fill-rule="nonzero"/></g></g></g></g><g mask="url(#acedbc5320)"><g transform="matrix(1, 0, 0, 1, 347, 1270)"><g clip-path="url(#4ae250eda5)"><g clip-path="url(#2cb455981b)"><path fill="#000000" d="M 0.769531 0.179688 L 81.214844 0.179688 L 81.214844 161.070312 L 0.769531 161.070312 Z M 0.769531 0.179688 " fill-opacity="1" fill-rule="nonzero"/></g></g></g></g><g clip-path="url(#7078a1b9d6)"><g mask="url(#ff2144e577)"><g transform="matrix(1, 0, 0, 1, 428, 1430)"><g clip-path="url(#5c62e16adf)"><g clip-path="url(#e24224f529)"><path fill="#000000" d="M 0.214844 1.070312 L 80.660156 1.070312 L 80.660156 161.960938 L 0.214844 161.960938 Z M 0.214844 1.070312 " fill-opacity="1" fill-rule="nonzero"/></g></g></g></g></g><g mask="url(#6c8cf72ff9)"><g transform="matrix(1, 0, 0, 1, 910, 1028)"><g clip-path="url(#39747c800a)"><g clip-path="url(#821e34e686)"><path fill="#000000" d="M 0.886719 0.84375 L 161.777344 0.84375 L 161.777344 81.289062 L 0.886719 81.289062 Z M 0.886719 0.84375 " fill-opacity="1" fill-rule="nonzero"/></g></g></g></g><g mask="url(#99a85a724e)"><g transform="matrix(1, 0, 0, 1, 508, 1028)"><g clip-path="url(#45c879ec4a)"><g clip-path="url(#c36c16bee6)"><path fill="#000000" d="M 0.660156 0.84375 L 81.105469 0.84375 L 81.105469 81.289062 L 0.660156 81.289062 Z M 0.660156 0.84375 " fill-opacity="1" fill-rule="nonzero"/></g></g></g></g></svg>