<svg xmlns="http://www.w3.org/2000/svg" xmlns:xlink="http://www.w3.org/1999/xlink" width="2000" zoomAndPan="magnify" viewBox="0 0 1500 1499.999933" height="2000" preserveAspectRatio="xMidYMid meet" version="1.0"><defs><filter x="0%" y="0%" width="100%" height="100%" id="97cb700074"><feColorMatrix values="0 0 0 0 1 0 0 0 0 1 0 0 0 0 1 0 0 0 1 0" color-interpolation-filters="sRGB"/></filter><clipPath id="10a87acd25"><path d="M 240.539062 0 L 1259.789062 0 L 1259.789062 1500 L 240.539062 1500 Z M 240.539062 0 " clip-rule="nonzero"/></clipPath><clipPath id="2256695172"><path d="M 240.539062 1092 L 1259.789062 1092 L 1259.789062 1500 L 240.539062 1500 Z M 240.539062 1092 " clip-rule="nonzero"/></clipPath><clipPath id="d5e4c8b668"><path d="M 240.539062 655 L 1259.789062 655 L 1259.789062 1238 L 240.539062 1238 Z M 240.539062 655 " clip-rule="nonzero"/></clipPath><clipPath id="f42a86089a"><path d="M 240.539062 0 L 1259.789062 0 L 1259.789062 729 L 240.539062 729 Z M 240.539062 0 " clip-rule="nonzero"/></clipPath><clipPath id="8bc8020efb"><path d="M 240.539062 728 L 314 728 L 314 874 L 240.539062 874 Z M 240.539062 728 " clip-rule="nonzero"/></clipPath><clipPath id="914cdfd633"><path d="M 240.539062 655 L 387 655 L 387 729 L 240.539062 729 Z M 240.539062 655 " clip-rule="nonzero"/></clipPath><clipPath id="d7e1d3fe88"><path d="M 1113 655 L 1259.789062 655 L 1259.789062 874 L 1113 874 Z M 1113 655 " clip-rule="nonzero"/></clipPath><mask id="ff1fd47f8e"><g filter="url(#97cb700074)"><rect x="-150" width="1800" fill="#000000" y="-149.999993" height="1799.99992" fill-opacity="0.5"/></g></mask><clipPath id="980e399582"><path d="M 0.0390625 0.238281 L 145.960938 0.238281 L 145.960938 73.199219 L 0.0390625 73.199219 Z M 0.0390625 0.238281 " clip-rule="nonzero"/></clipPath><clipPath id="232ddb22fc"><rect x="0" width="146" y="0" height="74"/></clipPath><mask id="46a668e670"><g filter="url(#97cb700074)"><rect x="-150" width="1800" fill="#000000" y="-149.999993" height="1799.99992" fill-opacity="0.1"/></g></mask><clipPath id="bc9c1491a0"><path d="M 0.601562 0.519531 L 437.398438 0.519531 L 437.398438 73.480469 L 0.601562 73.480469 Z M 0.601562 0.519531 " clip-rule="nonzero"/></clipPath><clipPath id="b62f864800"><rect x="0" width="438" y="0" height="74"/></clipPath><clipPath id="2f98e973f1"><path d="M 240.539062 1310 L 314 1310 L 314 1500 L 240.539062 1500 Z M 240.539062 1310 " clip-rule="nonzero"/></clipPath><clipPath id="d8c7328078"><path d="M 1186 1310 L 1259.789062 1310 L 1259.789062 1500 L 1186 1500 Z M 1186 1310 " clip-rule="nonzero"/></clipPath><mask id="1317a3d2c2"><g filter="url(#97cb700074)"><rect x="-150" width="1800" fill="#000000" y="-149.999993" height="1799.99992" fill-opacity="0.5"/></g></mask><clipPath id="528ea08fbc"><path d="M 0.558594 0.640625 L 73.519531 0.640625 L 73.519531 190 L 0.558594 190 Z M 0.558594 0.640625 " clip-rule="nonzero"/></clipPath><clipPath id="0aac4fbeaf"><rect x="0" width="74" y="0" height="190"/></clipPath><mask id="038ea64c50"><g filter="url(#97cb700074)"><rect x="-150" width="1800" fill="#000000" y="-149.999993" height="1799.99992" fill-opacity="0.5"/></g></mask><clipPath id="151c6a379b"><path d="M 1 0.238281 L 146.839844 0.238281 L 146.839844 73.199219 L 1 73.199219 Z M 1 0.238281 " clip-rule="nonzero"/></clipPath><clipPath id="d0c2968562"><rect x="0" width="147" y="0" height="74"/></clipPath><mask id="b526e04aff"><g filter="url(#97cb700074)"><rect x="-150" width="1800" fill="#000000" y="-149.999993" height="1799.99992" fill-opacity="0.5"/></g></mask><clipPath id="faefbfd0e4"><path d="M 0.160156 0.238281 L 218.800781 0.238281 L 218.800781 218.878906 L 0.160156 218.878906 Z M 0.160156 0.238281 " clip-rule="nonzero"/></clipPath><clipPath id="1befc4c3e6"><rect x="0" width="219" y="0" height="219"/></clipPath><mask id="dc6c1933cd"><g filter="url(#97cb700074)"><rect x="-150" width="1800" fill="#000000" y="-149.999993" height="1799.99992" fill-opacity="0.5"/></g></mask><clipPath id="ff395c1481"><path d="M 1 0.238281 L 73.878906 0.238281 L 73.878906 73.199219 L 1 73.199219 Z M 1 0.238281 " clip-rule="nonzero"/></clipPath><clipPath id="94116c4df9"><rect x="0" width="74" y="0" height="74"/></clipPath><mask id="5775f0b832"><g filter="url(#97cb700074)"><rect x="-150" width="1800" fill="#000000" y="-149.999993" height="1799.99992" fill-opacity="0.5"/></g></mask><clipPath id="6e5e722f04"><path d="M 0.160156 0.238281 L 73.121094 0.238281 L 73.121094 73.199219 L 0.160156 73.199219 Z M 0.160156 0.238281 " clip-rule="nonzero"/></clipPath><clipPath id="8ae3644fa6"><rect x="0" width="74" y="0" height="74"/></clipPath><mask id="7c786be701"><g filter="url(#97cb700074)"><rect x="-150" width="1800" fill="#000000" y="-149.999993" height="1799.99992" fill-opacity="0.5"/></g></mask><clipPath id="4fa0389f77"><path d="M 0.601562 0.640625 L 73.558594 0.640625 L 73.558594 146.320312 L 0.601562 146.320312 Z M 0.601562 0.640625 " clip-rule="nonzero"/></clipPath><clipPath id="eb7da9fcc6"><rect x="0" width="74" y="0" height="147"/></clipPath><mask id="a1495425dc"><g filter="url(#97cb700074)"><rect x="-150" width="1800" fill="#000000" y="-149.999993" height="1799.99992" fill-opacity="0.5"/></g></mask><clipPath id="387911fd47"><path d="M 0.441406 0.640625 L 73.398438 0.640625 L 73.398438 146.320312 L 0.441406 146.320312 Z M 0.441406 0.640625 " clip-rule="nonzero"/></clipPath><clipPath id="c7b3e1ed15"><rect x="0" width="74" y="0" height="147"/></clipPath><mask id="97f47717e6"><g filter="url(#97cb700074)"><rect x="-150" width="1800" fill="#000000" y="-149.999993" height="1799.99992" fill-opacity="0.2"/></g></mask><clipPath id="a97e2c7a03"><path d="M 0.640625 0.441406 L 583.121094 0.441406 L 583.121094 73.640625 L 0.640625 73.640625 Z M 0.640625 0.441406 " clip-rule="nonzero"/></clipPath><clipPath id="22632446a4"><rect x="0" width="584" y="0" height="74"/></clipPath><mask id="de3dc3d087"><g filter="url(#97cb700074)"><rect x="-150" width="1800" fill="#000000" y="-149.999993" height="1799.99992" fill-opacity="0.2"/></g></mask><clipPath id="a5f9c1d6d0"><path d="M 0.199219 0.398438 L 73.160156 0.398438 L 73.160156 146 L 0.199219 146 Z M 0.199219 0.398438 " clip-rule="nonzero"/></clipPath><clipPath id="14d84ad041"><rect x="0" width="74" y="0" height="147"/></clipPath><mask id="899a02a2e6"><g filter="url(#97cb700074)"><rect x="-150" width="1800" fill="#000000" y="-149.999993" height="1799.99992" fill-opacity="0.2"/></g></mask><clipPath id="2359e24af5"><path d="M 1 0.839844 L 73.878906 0.839844 L 73.878906 73.800781 L 1 73.800781 Z M 1 0.839844 " clip-rule="nonzero"/></clipPath><clipPath id="71c453e407"><rect x="0" width="74" y="0" height="74"/></clipPath><mask id="2e57c94331"><g filter="url(#97cb700074)"><rect x="-150" width="1800" fill="#000000" y="-149.999993" height="1799.99992" fill-opacity="0.2"/></g></mask><clipPath id="f9ac7473cc"><path d="M 1 0.839844 L 74 0.839844 L 74 73.800781 L 1 73.800781 Z M 1 0.839844 " clip-rule="nonzero"/></clipPath><clipPath id="a8ca8ab1e7"><rect x="0" width="75" y="0" height="74"/></clipPath><mask id="9069ade471"><g filter="url(#97cb700074)"><rect x="-150" width="1800" fill="#000000" y="-149.999993" height="1799.99992" fill-opacity="0.2"/></g></mask><clipPath id="1f72023352"><path d="M 0.160156 0.558594 L 73.121094 0.558594 L 73.121094 73.761719 L 0.160156 73.761719 Z M 0.160156 0.558594 " clip-rule="nonzero"/></clipPath><clipPath id="209f29f777"><rect x="0" width="74" y="0" height="74"/></clipPath><mask id="1308b14650"><g filter="url(#97cb700074)"><rect x="-150" width="1800" fill="#000000" y="-149.999993" height="1799.99992" fill-opacity="0.2"/></g></mask><clipPath id="61f7bd45d9"><path d="M 0.640625 0.558594 L 73.839844 0.558594 L 73.839844 73.761719 L 0.640625 73.761719 Z M 0.640625 0.558594 " clip-rule="nonzero"/></clipPath><clipPath id="d26fcf3437"><rect x="0" width="74" y="0" height="74"/></clipPath><mask id="b1e71ad292"><g filter="url(#97cb700074)"><rect x="-150" width="1800" fill="#000000" y="-149.999993" height="1799.99992" fill-opacity="0.2"/></g></mask><clipPath id="f18fdfb56c"><path d="M 0.839844 0.398438 L 73.800781 0.398438 L 73.800781 146 L 0.839844 146 Z M 0.839844 0.398438 " clip-rule="nonzero"/></clipPath><clipPath id="2d38da82e6"><rect x="0" width="74" y="0" height="147"/></clipPath><clipPath id="a7a807f307"><path d="M 240.539062 146 L 314 146 L 314 729 L 240.539062 729 Z M 240.539062 146 " clip-rule="nonzero"/></clipPath><mask id="c8c17f8246"><g filter="url(#97cb700074)"><rect x="-150" width="1800" fill="#000000" y="-149.999993" height="1799.99992" fill-opacity="0.5"/></g></mask><clipPath id="cb3f4f66cd"><path d="M 0.0390625 0.199219 L 73 0.199219 L 73 73.398438 L 0.0390625 73.398438 Z M 0.0390625 0.199219 " clip-rule="nonzero"/></clipPath><clipPath id="f323090542"><rect x="0" width="73" y="0" height="74"/></clipPath><mask id="67e3b6c007"><g filter="url(#97cb700074)"><rect x="-150" width="1800" fill="#000000" y="-149.999993" height="1799.99992" fill-opacity="0.5"/></g></mask><clipPath id="08a0f1ac49"><path d="M 1 0.480469 L 74 0.480469 L 74 73.441406 L 1 73.441406 Z M 1 0.480469 " clip-rule="nonzero"/></clipPath><clipPath id="7ae9cc65dc"><rect x="0" width="75" y="0" height="74"/></clipPath><mask id="a761b17c75"><g filter="url(#97cb700074)"><rect x="-150" width="1800" fill="#000000" y="-149.999993" height="1799.99992" fill-opacity="0.5"/></g></mask><clipPath id="39701c2510"><path d="M 1 0.480469 L 73.960938 0.480469 L 73.960938 73.441406 L 1 73.441406 Z M 1 0.480469 " clip-rule="nonzero"/></clipPath><clipPath id="1663a80599"><rect x="0" width="74" y="0" height="74"/></clipPath><mask id="70d89b4f46"><g filter="url(#97cb700074)"><rect x="-150" width="1800" fill="#000000" y="-149.999993" height="1799.99992" fill-opacity="0.5"/></g></mask><clipPath id="c974f347df"><path d="M 0.71875 0.199219 L 219.121094 0.199219 L 219.121094 73.398438 L 0.71875 73.398438 Z M 0.71875 0.199219 " clip-rule="nonzero"/></clipPath><clipPath id="9d70655b73"><rect x="0" width="220" y="0" height="74"/></clipPath><mask id="92a78e2af7"><g filter="url(#97cb700074)"><rect x="-150" width="1800" fill="#000000" y="-149.999993" height="1799.99992" fill-opacity="0.5"/></g></mask><clipPath id="e6829854d8"><path d="M 1 0.878906 L 146.839844 0.878906 L 146.839844 146.558594 L 1 146.558594 Z M 1 0.878906 " clip-rule="nonzero"/></clipPath><clipPath id="e82d0c3377"><rect x="0" width="147" y="0" height="147"/></clipPath><mask id="1ff3987767"><g filter="url(#97cb700074)"><rect x="-150" width="1800" fill="#000000" y="-149.999993" height="1799.99992" fill-opacity="0.5"/></g></mask><clipPath id="ce0c5d3905"><path d="M 0.441406 0.320312 L 73.398438 0.320312 L 73.398438 146.238281 L 0.441406 146.238281 Z M 0.441406 0.320312 " clip-rule="nonzero"/></clipPath><clipPath id="4c60ffc732"><rect x="0" width="74" y="0" height="147"/></clipPath><mask id="6b938252d6"><g filter="url(#97cb700074)"><rect x="-150" width="1800" fill="#000000" y="-149.999993" height="1799.99992" fill-opacity="0.3"/></g></mask><clipPath id="2604554b7a"><path d="M 0.640625 0.28125 L 73.839844 0.28125 L 73.839844 73.238281 L 0.640625 73.238281 Z M 0.640625 0.28125 " clip-rule="nonzero"/></clipPath><clipPath id="80affb271f"><rect x="0" width="74" y="0" height="74"/></clipPath><mask id="b434d75c12"><g filter="url(#97cb700074)"><rect x="-150" width="1800" fill="#000000" y="-149.999993" height="1799.99992" fill-opacity="0.3"/></g></mask><clipPath id="5ecf94440f"><path d="M 1 0.160156 L 73.960938 0.160156 L 73.960938 73 L 1 73 Z M 1 0.160156 " clip-rule="nonzero"/></clipPath><clipPath id="91aaf6bee8"><rect x="0" width="74" y="0" height="74"/></clipPath><mask id="d81c0e5fb2"><g filter="url(#97cb700074)"><rect x="-150" width="1800" fill="#000000" y="-149.999993" height="1799.99992" fill-opacity="0.3"/></g></mask><clipPath id="d80e3f2e25"><path d="M 0.320312 0.601562 L 73.28125 0.601562 L 73.28125 73.558594 L 0.320312 73.558594 Z M 0.320312 0.601562 " clip-rule="nonzero"/></clipPath><clipPath id="9bb46b3f0d"><rect x="0" width="74" y="0" height="74"/></clipPath><mask id="60af2a4f4b"><g filter="url(#97cb700074)"><rect x="-150" width="1800" fill="#000000" y="-149.999993" height="1799.99992" fill-opacity="0.3"/></g></mask><clipPath id="e3f63f88b4"><path d="M 0.601562 0.160156 L 73.558594 0.160156 L 73.558594 73 L 0.601562 73 Z M 0.601562 0.160156 " clip-rule="nonzero"/></clipPath><clipPath id="52b76f2b95"><rect x="0" width="74" y="0" height="74"/></clipPath><mask id="056404aa43"><g filter="url(#97cb700074)"><rect x="-150" width="1800" fill="#000000" y="-149.999993" height="1799.99992" fill-opacity="0.1"/></g></mask><clipPath id="ff743e04ba"><path d="M 0.0390625 0.320312 L 73 0.320312 L 73 73.519531 L 0.0390625 73.519531 Z M 0.0390625 0.320312 " clip-rule="nonzero"/></clipPath><clipPath id="d6711ef5f8"><rect x="0" width="73" y="0" height="74"/></clipPath><mask id="72da0a5dfd"><g filter="url(#97cb700074)"><rect x="-150" width="1800" fill="#000000" y="-149.999993" height="1799.99992" fill-opacity="0.1"/></g></mask><clipPath id="dc387e33dc"><path d="M 0.320312 0.878906 L 73.28125 0.878906 L 73.28125 73.839844 L 0.320312 73.839844 Z M 0.320312 0.878906 " clip-rule="nonzero"/></clipPath><clipPath id="ecb8d2be90"><rect x="0" width="74" y="0" height="74"/></clipPath><mask id="82162ca9c0"><g filter="url(#97cb700074)"><rect x="-150" width="1800" fill="#000000" y="-149.999993" height="1799.99992" fill-opacity="0.1"/></g></mask><clipPath id="1b2c6ac7d6"><path d="M 0.199219 0.878906 L 73.160156 0.878906 L 73.160156 73.839844 L 0.199219 73.839844 Z M 0.199219 0.878906 " clip-rule="nonzero"/></clipPath><clipPath id="171aa6d670"><rect x="0" width="74" y="0" height="74"/></clipPath><mask id="7693687088"><g filter="url(#97cb700074)"><rect x="-150" width="1800" fill="#000000" y="-149.999993" height="1799.99992" fill-opacity="0.1"/></g></mask><clipPath id="318f9708f1"><path d="M 0.320312 0.28125 L 73.28125 0.28125 L 73.28125 73.238281 L 0.320312 73.238281 Z M 0.320312 0.28125 " clip-rule="nonzero"/></clipPath><clipPath id="cd8f2517af"><rect x="0" width="74" y="0" height="74"/></clipPath><mask id="312bc07523"><g filter="url(#97cb700074)"><rect x="-150" width="1800" fill="#000000" y="-149.999993" height="1799.99992" fill-opacity="0.1"/></g></mask><clipPath id="a63b15834d"><path d="M 1 0.28125 L 73.960938 0.28125 L 73.960938 73.238281 L 1 73.238281 Z M 1 0.28125 " clip-rule="nonzero"/></clipPath><clipPath id="a9362d3435"><rect x="0" width="74" y="0" height="74"/></clipPath><mask id="04e2295202"><g filter="url(#97cb700074)"><rect x="-150" width="1800" fill="#000000" y="-149.999993" height="1799.99992" fill-opacity="0.1"/></g></mask><clipPath id="e70d967c46"><path d="M 0.160156 0 L 73.121094 0 L 73.121094 72.960938 L 0.160156 72.960938 Z M 0.160156 0 " clip-rule="nonzero"/></clipPath><clipPath id="eda8327141"><rect x="0" width="74" y="0" height="73"/></clipPath><mask id="732550554d"><g filter="url(#97cb700074)"><rect x="-150" width="1800" fill="#000000" y="-149.999993" height="1799.99992" fill-opacity="0.1"/></g></mask><clipPath id="5d050573c7"><path d="M 1 0.320312 L 74 0.320312 L 74 73.519531 L 1 73.519531 Z M 1 0.320312 " clip-rule="nonzero"/></clipPath><clipPath id="12618afe20"><rect x="0" width="75" y="0" height="74"/></clipPath><mask id="146b62383f"><g filter="url(#97cb700074)"><rect x="-150" width="1800" fill="#000000" y="-149.999993" height="1799.99992" fill-opacity="0.3"/></g></mask><clipPath id="97f4b782c4"><path d="M 1 0.441406 L 74 0.441406 L 74 73.640625 L 1 73.640625 Z M 1 0.441406 " clip-rule="nonzero"/></clipPath><clipPath id="b1e9d7ed8b"><rect x="0" width="75" y="0" height="74"/></clipPath><clipPath id="50446ba0fd"><path d="M 1040 73 L 1259.789062 73 L 1259.789062 656 L 1040 656 Z M 1040 73 " clip-rule="nonzero"/></clipPath><mask id="0c52e762e2"><g filter="url(#97cb700074)"><rect x="-150" width="1800" fill="#000000" y="-149.999993" height="1799.99992" fill-opacity="0.5"/></g></mask><clipPath id="f7d0e659ab"><path d="M 1 0.199219 L 219.519531 0.199219 L 219.519531 582.679688 L 1 582.679688 Z M 1 0.199219 " clip-rule="nonzero"/></clipPath><clipPath id="ff530d31ea"><rect x="0" width="220" y="0" height="583"/></clipPath><mask id="9e00d5b21f"><g filter="url(#97cb700074)"><rect x="-150" width="1800" fill="#000000" y="-149.999993" height="1799.99992" fill-opacity="0.3"/></g></mask><clipPath id="83887c9b2e"><path d="M 1 0.601562 L 73.960938 0.601562 L 73.960938 73.558594 L 1 73.558594 Z M 1 0.601562 " clip-rule="nonzero"/></clipPath><clipPath id="37cb01ea7b"><rect x="0" width="74" y="0" height="74"/></clipPath><mask id="3fea50a43a"><g filter="url(#97cb700074)"><rect x="-150" width="1800" fill="#000000" y="-149.999993" height="1799.99992" fill-opacity="0.3"/></g></mask><clipPath id="17bbb5def9"><path d="M 0.71875 0.320312 L 73.679688 0.320312 L 73.679688 73.519531 L 0.71875 73.519531 Z M 0.71875 0.320312 " clip-rule="nonzero"/></clipPath><clipPath id="d6a5301e6b"><rect x="0" width="74" y="0" height="74"/></clipPath><mask id="363574cb60"><g filter="url(#97cb700074)"><rect x="-150" width="1800" fill="#000000" y="-149.999993" height="1799.99992" fill-opacity="0.3"/></g></mask><clipPath id="6c78c4063d"><path d="M 0.199219 0 L 73.160156 0 L 73.160156 72.960938 L 0.199219 72.960938 Z M 0.199219 0 " clip-rule="nonzero"/></clipPath><clipPath id="0d16774b37"><rect x="0" width="74" y="0" height="73"/></clipPath><mask id="7cf251725a"><g filter="url(#97cb700074)"><rect x="-150" width="1800" fill="#000000" y="-149.999993" height="1799.99992" fill-opacity="0.3"/></g></mask><clipPath id="8718c45995"><path d="M 0.160156 0.160156 L 73.121094 0.160156 L 73.121094 73 L 0.160156 73 Z M 0.160156 0.160156 " clip-rule="nonzero"/></clipPath><clipPath id="72355335a5"><rect x="0" width="74" y="0" height="74"/></clipPath><mask id="8982731215"><g filter="url(#97cb700074)"><rect x="-150" width="1800" fill="#000000" y="-149.999993" height="1799.99992" fill-opacity="0.3"/></g></mask><clipPath id="05e6909fc9"><path d="M 0.441406 0.878906 L 73.398438 0.878906 L 73.398438 73.839844 L 0.441406 73.839844 Z M 0.441406 0.878906 " clip-rule="nonzero"/></clipPath><clipPath id="8d41785558"><rect x="0" width="74" y="0" height="74"/></clipPath><mask id="2948a1dc55"><g filter="url(#97cb700074)"><rect x="-150" width="1800" fill="#000000" y="-149.999993" height="1799.99992" fill-opacity="0.3"/></g></mask><clipPath id="4a9538b761"><path d="M 0.839844 0.398438 L 73.800781 0.398438 L 73.800781 73.359375 L 0.839844 73.359375 Z M 0.839844 0.398438 " clip-rule="nonzero"/></clipPath><clipPath id="112d82d90a"><rect x="0" width="74" y="0" height="74"/></clipPath><mask id="f33cdc8031"><g filter="url(#97cb700074)"><rect x="-150" width="1800" fill="#000000" y="-149.999993" height="1799.99992" fill-opacity="0.3"/></g></mask><clipPath id="fe44efd9af"><path d="M 0.441406 0.441406 L 73.398438 0.441406 L 73.398438 73.640625 L 0.441406 73.640625 Z M 0.441406 0.441406 " clip-rule="nonzero"/></clipPath><clipPath id="5c7468c082"><rect x="0" width="74" y="0" height="74"/></clipPath><mask id="008f00bfc0"><g filter="url(#97cb700074)"><rect x="-150" width="1800" fill="#000000" y="-149.999993" height="1799.99992" fill-opacity="0.3"/></g></mask><clipPath id="c3aae2d4bc"><path d="M 0.601562 0.441406 L 73.558594 0.441406 L 73.558594 73.640625 L 0.601562 73.640625 Z M 0.601562 0.441406 " clip-rule="nonzero"/></clipPath><clipPath id="8aac1a0698"><rect x="0" width="74" y="0" height="74"/></clipPath><mask id="893b7f22d4"><g filter="url(#97cb700074)"><rect x="-150" width="1800" fill="#000000" y="-149.999993" height="1799.99992" fill-opacity="0.3"/></g></mask><clipPath id="f560b09520"><path d="M 0.199219 0.398438 L 73.160156 0.398438 L 73.160156 73.359375 L 0.199219 73.359375 Z M 0.199219 0.398438 " clip-rule="nonzero"/></clipPath><clipPath id="780321461d"><rect x="0" width="74" y="0" height="74"/></clipPath><mask id="0fe65f6e45"><g filter="url(#97cb700074)"><rect x="-150" width="1800" fill="#000000" y="-149.999993" height="1799.99992" fill-opacity="0.3"/></g></mask><clipPath id="c7c0381564"><path d="M 0.601562 0 L 73.558594 0 L 73.558594 72.960938 L 0.601562 72.960938 Z M 0.601562 0 " clip-rule="nonzero"/></clipPath><clipPath id="c6a724c0d4"><rect x="0" width="74" y="0" height="73"/></clipPath><mask id="c7670a83ad"><g filter="url(#97cb700074)"><rect x="-150" width="1800" fill="#000000" y="-149.999993" height="1799.99992" fill-opacity="0.3"/></g></mask><clipPath id="3b911843e7"><path d="M 1 0.71875 L 73.878906 0.71875 L 73.878906 73.679688 L 1 73.679688 Z M 1 0.71875 " clip-rule="nonzero"/></clipPath><clipPath id="4844298734"><rect x="0" width="74" y="0" height="74"/></clipPath></defs><g clip-path="url(#10a87acd25)"><path fill="#000000" d="M 1186.679688 218.976562 L 1186.679688 73.417969 L 1113.898438 73.417969 L 1113.898438 0.636719 L 1041.121094 0.636719 L 1041.121094 73.417969 L 822.777344 73.417969 L 822.777344 0.636719 L 750 0.636719 L 750 73.417969 L 677.21875 73.417969 L 677.21875 0.636719 L 604.4375 0.636719 L 604.4375 73.417969 L 531.660156 73.417969 L 531.660156 146.195312 L 386.097656 146.195312 L 386.097656 73.417969 L 313.316406 73.417969 L 313.316406 146.195312 L 240.539062 146.195312 L 240.539062 873.996094 L 313.316406 873.996094 L 313.316406 946.777344 L 386.097656 946.777344 L 386.097656 1092.339844 L 313.316406 1092.339844 L 313.316406 1310.679688 L 240.539062 1310.679688 L 240.539062 1601.800781 L 313.316406 1601.800781 L 313.316406 1674.578125 L 386.097656 1674.578125 L 386.097656 1820.140625 L 313.316406 1820.140625 L 313.316406 1965.699219 L 677.21875 1965.699219 L 677.21875 1820.140625 L 822.777344 1820.140625 L 822.777344 1965.699219 L 1186.679688 1965.699219 L 1186.679688 1820.140625 L 1113.898438 1820.140625 L 1113.898438 1674.578125 L 1186.679688 1674.578125 L 1186.679688 1601.800781 L 1259.460938 1601.800781 L 1259.460938 1310.679688 L 1186.679688 1310.679688 L 1186.679688 1092.339844 L 1113.898438 1092.339844 L 1113.898438 946.777344 L 1186.679688 946.777344 L 1186.679688 873.996094 L 1259.460938 873.996094 L 1259.460938 218.976562 Z M 1186.679688 218.976562 " fill-opacity="1" fill-rule="nonzero"/></g><g clip-path="url(#2256695172)"><path fill="#a7c7e7" d="M 1186.679688 1310.679688 L 1186.679688 1092.339844 L 313.316406 1092.339844 L 313.316406 1310.679688 L 240.539062 1310.679688 L 240.539062 1601.800781 L 1259.460938 1601.800781 L 1259.460938 1310.679688 Z M 1186.679688 1310.679688 " fill-opacity="1" fill-rule="nonzero"/></g><g clip-path="url(#d5e4c8b668)"><path fill="#ffc487" d="M 240.539062 655.65625 L 240.539062 873.996094 L 386.097656 873.996094 L 386.097656 1092.339844 L 677.21875 1092.339844 L 677.21875 1237.898438 L 822.777344 1237.898438 L 822.777344 1092.339844 L 1113.898438 1092.339844 L 1113.898438 873.996094 L 1259.460938 873.996094 L 1259.460938 655.65625 Z M 240.539062 655.65625 " fill-opacity="1" fill-rule="nonzero"/></g><g clip-path="url(#f42a86089a)"><path fill="#383737" d="M 313.316406 146.195312 L 313.316406 73.417969 L 386.097656 73.417969 L 386.097656 146.195312 L 531.660156 146.195312 L 531.660156 73.417969 L 604.4375 73.417969 L 604.4375 0.636719 L 677.21875 0.636719 L 677.21875 73.417969 L 750 73.417969 L 750 0.636719 L 822.777344 0.636719 L 822.777344 73.417969 L 1041.121094 73.417969 L 1041.121094 0.636719 L 1113.898438 0.636719 L 1113.898438 73.417969 L 1186.679688 73.417969 L 1186.679688 218.976562 L 1259.460938 218.976562 L 1259.460938 655.65625 L 1186.679688 655.65625 L 1186.679688 728.4375 L 1041.121094 728.4375 L 1041.121094 655.65625 L 458.878906 655.65625 L 458.878906 728.4375 L 313.316406 728.4375 L 313.316406 655.65625 L 240.539062 655.65625 L 240.539062 146.195312 Z M 313.316406 146.195312 " fill-opacity="1" fill-rule="nonzero"/></g><g clip-path="url(#8bc8020efb)"><path fill="#000000" d="M 240.539062 728.4375 L 313.316406 728.4375 L 313.316406 873.996094 L 240.539062 873.996094 Z M 240.539062 728.4375 " fill-opacity="1" fill-rule="nonzero"/></g><g clip-path="url(#914cdfd633)"><path fill="#000000" d="M 240.539062 655.65625 L 386.097656 655.65625 L 386.097656 728.4375 L 240.539062 728.4375 Z M 240.539062 655.65625 " fill-opacity="1" fill-rule="nonzero"/></g><g clip-path="url(#d7e1d3fe88)"><path fill="#000000" d="M 1186.679688 655.65625 L 1113.898438 655.65625 L 1113.898438 728.4375 L 1186.679688 728.4375 L 1186.679688 873.996094 L 1259.460938 873.996094 L 1259.460938 655.65625 Z M 1186.679688 655.65625 " fill-opacity="1" fill-rule="nonzero"/></g><path fill="#000000" d="M 1113.898438 873.996094 L 1186.679688 873.996094 L 1186.679688 946.777344 L 1113.898438 946.777344 Z M 1113.898438 873.996094 " fill-opacity="1" fill-rule="nonzero"/><path fill="#000000" d="M 313.316406 873.996094 L 386.097656 873.996094 L 386.097656 946.777344 L 313.316406 946.777344 Z M 313.316406 873.996094 " fill-opacity="1" fill-rule="nonzero"/><path fill="#000000" d="M 458.878906 1019.558594 L 458.878906 946.777344 L 386.097656 946.777344 L 386.097656 1092.339844 L 531.660156 1092.339844 L 531.660156 1019.558594 Z M 458.878906 1019.558594 " fill-opacity="1" fill-rule="nonzero"/><path fill="#000000" d="M 1041.121094 946.777344 L 1041.121094 1019.558594 L 968.339844 1019.558594 L 968.339844 1092.339844 L 1113.898438 1092.339844 L 1113.898438 946.777344 Z M 1041.121094 946.777344 " fill-opacity="1" fill-rule="nonzero"/><path fill="#000000" d="M 531.660156 1092.339844 L 677.21875 1092.339844 L 677.21875 1165.117188 L 531.660156 1165.117188 Z M 531.660156 1092.339844 " fill-opacity="1" fill-rule="nonzero"/><path fill="#000000" d="M 822.777344 1092.339844 L 968.339844 1092.339844 L 968.339844 1165.117188 L 822.777344 1165.117188 Z M 822.777344 1092.339844 " fill-opacity="1" fill-rule="nonzero"/><path fill="#000000" d="M 822.777344 728.4375 L 968.339844 728.4375 L 968.339844 801.21875 L 822.777344 801.21875 Z M 822.777344 728.4375 " fill-opacity="1" fill-rule="nonzero"/><path fill="#000000" d="M 531.660156 728.4375 L 677.21875 728.4375 L 677.21875 801.21875 L 531.660156 801.21875 Z M 531.660156 728.4375 " fill-opacity="1" fill-rule="nonzero"/><path fill="#0a3f3e" d="M 604.4375 801.21875 L 677.21875 801.21875 L 677.21875 873.996094 L 604.4375 873.996094 Z M 604.4375 801.21875 " fill-opacity="1" fill-rule="nonzero"/><path fill="#0a3f3e" d="M 822.777344 801.21875 L 895.558594 801.21875 L 895.558594 873.996094 L 822.777344 873.996094 Z M 822.777344 801.21875 " fill-opacity="1" fill-rule="nonzero"/><path fill="#000000" d="M 604.4375 1092.339844 L 677.21875 1092.339844 L 677.21875 1237.898438 L 604.4375 1237.898438 Z M 604.4375 1092.339844 " fill-opacity="1" fill-rule="nonzero"/><path fill="#000000" d="M 822.777344 1092.339844 L 895.558594 1092.339844 L 895.558594 1237.898438 L 822.777344 1237.898438 Z M 822.777344 1092.339844 " fill-opacity="1" fill-rule="nonzero"/><path fill="#000000" d="M 677.21875 1237.898438 L 822.777344 1237.898438 L 822.777344 1310.679688 L 677.21875 1310.679688 Z M 677.21875 1237.898438 " fill-opacity="1" fill-rule="nonzero"/><g mask="url(#ff1fd47f8e)"><g transform="matrix(1, 0, 0, 1, 677, 1092)"><g clip-path="url(#232ddb22fc)"><g clip-path="url(#980e399582)"><path fill="#000000" d="M 0.21875 0.339844 L 145.777344 0.339844 L 145.777344 73.117188 L 0.21875 73.117188 Z M 0.21875 0.339844 " fill-opacity="1" fill-rule="nonzero"/></g></g></g></g><g mask="url(#46a668e670)"><g transform="matrix(1, 0, 0, 1, 531, 1019)"><g clip-path="url(#b62f864800)"><g clip-path="url(#bc9c1491a0)"><path fill="#000000" d="M 0.660156 0.558594 L 437.339844 0.558594 L 437.339844 73.339844 L 0.660156 73.339844 Z M 0.660156 0.558594 " fill-opacity="1" fill-rule="nonzero"/></g></g></g></g><path fill="#ffc487" d="M 386.097656 1456.238281 L 313.316406 1456.238281 L 313.316406 1601.800781 L 386.097656 1601.800781 L 386.097656 1529.019531 L 458.878906 1529.019531 L 458.878906 1456.238281 Z M 386.097656 1456.238281 " fill-opacity="1" fill-rule="nonzero"/><path fill="#ffc487" d="M 1113.898438 1456.238281 L 1041.121094 1456.238281 L 1041.121094 1529.019531 L 1113.898438 1529.019531 L 1113.898438 1601.800781 L 1186.679688 1601.800781 L 1186.679688 1456.238281 Z M 1113.898438 1456.238281 " fill-opacity="1" fill-rule="nonzero"/><path fill="#000000" d="M 313.316406 1092.339844 L 386.097656 1092.339844 L 386.097656 1310.679688 L 313.316406 1310.679688 Z M 313.316406 1092.339844 " fill-opacity="1" fill-rule="nonzero"/><g clip-path="url(#2f98e973f1)"><path fill="#000000" d="M 240.539062 1310.679688 L 313.316406 1310.679688 L 313.316406 1601.800781 L 240.539062 1601.800781 Z M 240.539062 1310.679688 " fill-opacity="1" fill-rule="nonzero"/></g><g clip-path="url(#d8c7328078)"><g mask="url(#1317a3d2c2)"><g transform="matrix(1, 0, 0, 1, 1186, 1310)"><g clip-path="url(#0aac4fbeaf)"><g clip-path="url(#528ea08fbc)"><path fill="#000000" d="M 0.679688 0.679688 L 73.460938 0.679688 L 73.460938 291.800781 L 0.679688 291.800781 Z M 0.679688 0.679688 " fill-opacity="1" fill-rule="nonzero"/></g></g></g></g></g><path fill="#000000" d="M 386.097656 1383.457031 L 386.097656 1456.238281 L 458.878906 1456.238281 L 458.878906 1529.019531 L 386.097656 1529.019531 L 386.097656 1601.800781 L 531.660156 1601.800781 L 531.660156 1383.457031 Z M 386.097656 1383.457031 " fill-opacity="1" fill-rule="nonzero"/><path fill="#000000" d="M 1113.898438 1456.238281 L 1113.898438 1383.457031 L 968.339844 1383.457031 L 968.339844 1601.800781 L 1113.898438 1601.800781 L 1113.898438 1529.019531 L 1041.121094 1529.019531 L 1041.121094 1456.238281 Z M 1113.898438 1456.238281 " fill-opacity="1" fill-rule="nonzero"/><g mask="url(#038ea64c50)"><g transform="matrix(1, 0, 0, 1, 385, 1092)"><g clip-path="url(#d0c2968562)"><g clip-path="url(#151c6a379b)"><path fill="#000000" d="M 1.097656 0.339844 L 146.660156 0.339844 L 146.660156 73.117188 L 1.097656 73.117188 Z M 1.097656 0.339844 " fill-opacity="1" fill-rule="nonzero"/></g></g></g></g><g mask="url(#b526e04aff)"><g transform="matrix(1, 0, 0, 1, 968, 1092)"><g clip-path="url(#1befc4c3e6)"><g clip-path="url(#faefbfd0e4)"><path fill="#000000" d="M 145.898438 0.339844 L 0.339844 0.339844 L 0.339844 73.117188 L 145.898438 73.117188 L 145.898438 218.679688 L 218.679688 218.679688 L 218.679688 0.339844 Z M 145.898438 0.339844 " fill-opacity="1" fill-rule="nonzero"/></g></g></g></g><g mask="url(#dc6c1933cd)"><g transform="matrix(1, 0, 0, 1, 385, 1092)"><g clip-path="url(#94116c4df9)"><g clip-path="url(#ff395c1481)"><path fill="#000000" d="M 1.097656 0.339844 L 73.878906 0.339844 L 73.878906 73.117188 L 1.097656 73.117188 Z M 1.097656 0.339844 " fill-opacity="1" fill-rule="nonzero"/></g></g></g></g><g mask="url(#5775f0b832)"><g transform="matrix(1, 0, 0, 1, 968, 1092)"><g clip-path="url(#8ae3644fa6)"><g clip-path="url(#6e5e722f04)"><path fill="#000000" d="M 0.339844 0.339844 L 73.121094 0.339844 L 73.121094 73.117188 L 0.339844 73.117188 Z M 0.339844 0.339844 " fill-opacity="1" fill-rule="nonzero"/></g></g></g></g><g mask="url(#7c786be701)"><g transform="matrix(1, 0, 0, 1, 531, 1310)"><g clip-path="url(#eb7da9fcc6)"><g clip-path="url(#4fa0389f77)"><path fill="#000000" d="M 0.660156 0.679688 L 73.4375 0.679688 L 73.4375 146.238281 L 0.660156 146.238281 Z M 0.660156 0.679688 " fill-opacity="1" fill-rule="nonzero"/></g></g></g></g><g mask="url(#a1495425dc)"><g transform="matrix(1, 0, 0, 1, 895, 1310)"><g clip-path="url(#c7b3e1ed15)"><g clip-path="url(#387911fd47)"><path fill="#000000" d="M 0.558594 0.679688 L 73.339844 0.679688 L 73.339844 146.238281 L 0.558594 146.238281 Z M 0.558594 0.679688 " fill-opacity="1" fill-rule="nonzero"/></g></g></g></g><g mask="url(#97f47717e6)"><g transform="matrix(1, 0, 0, 1, 458, 655)"><g clip-path="url(#22632446a4)"><g clip-path="url(#a97e2c7a03)"><path fill="#000000" d="M 0.878906 0.65625 L 583.121094 0.65625 L 583.121094 73.4375 L 0.878906 73.4375 Z M 0.878906 0.65625 " fill-opacity="1" fill-rule="nonzero"/></g></g></g></g><g mask="url(#de3dc3d087)"><g transform="matrix(1, 0, 0, 1, 313, 728)"><g clip-path="url(#14d84ad041)"><g clip-path="url(#a5f9c1d6d0)"><path fill="#000000" d="M 0.316406 0.4375 L 73.097656 0.4375 L 73.097656 145.996094 L 0.316406 145.996094 Z M 0.316406 0.4375 " fill-opacity="1" fill-rule="nonzero"/></g></g></g></g><g mask="url(#899a02a2e6)"><g transform="matrix(1, 0, 0, 1, 385, 873)"><g clip-path="url(#71c453e407)"><g clip-path="url(#2359e24af5)"><path fill="#000000" d="M 1.097656 0.996094 L 73.878906 0.996094 L 73.878906 73.777344 L 1.097656 73.777344 Z M 1.097656 0.996094 " fill-opacity="1" fill-rule="nonzero"/></g></g></g></g><g mask="url(#2e57c94331)"><g transform="matrix(1, 0, 0, 1, 1040, 873)"><g clip-path="url(#a8ca8ab1e7)"><g clip-path="url(#f9ac7473cc)"><path fill="#000000" d="M 1.121094 0.996094 L 73.898438 0.996094 L 73.898438 73.777344 L 1.121094 73.777344 Z M 1.121094 0.996094 " fill-opacity="1" fill-rule="nonzero"/></g></g></g></g><g mask="url(#9069ade471)"><g transform="matrix(1, 0, 0, 1, 968, 946)"><g clip-path="url(#209f29f777)"><g clip-path="url(#1f72023352)"><path fill="#000000" d="M 0.339844 0.777344 L 73.121094 0.777344 L 73.121094 73.558594 L 0.339844 73.558594 Z M 0.339844 0.777344 " fill-opacity="1" fill-rule="nonzero"/></g></g></g></g><g mask="url(#1308b14650)"><g transform="matrix(1, 0, 0, 1, 458, 946)"><g clip-path="url(#d26fcf3437)"><g clip-path="url(#61f7bd45d9)"><path fill="#000000" d="M 0.878906 0.777344 L 73.660156 0.777344 L 73.660156 73.558594 L 0.878906 73.558594 Z M 0.878906 0.777344 " fill-opacity="1" fill-rule="nonzero"/></g></g></g></g><g mask="url(#b1e71ad292)"><g transform="matrix(1, 0, 0, 1, 1113, 728)"><g clip-path="url(#2d38da82e6)"><g clip-path="url(#f18fdfb56c)"><path fill="#000000" d="M 0.898438 0.4375 L 73.679688 0.4375 L 73.679688 145.996094 L 0.898438 145.996094 Z M 0.898438 0.4375 " fill-opacity="1" fill-rule="nonzero"/></g></g></g></g><path fill="#000000" d="M 1041.121094 582.878906 L 458.878906 582.878906 L 458.878906 728.4375 L 531.660156 728.4375 L 531.660156 655.65625 L 968.339844 655.65625 L 968.339844 728.4375 L 1041.121094 728.4375 Z M 1041.121094 582.878906 " fill-opacity="1" fill-rule="nonzero"/><path fill="#000000" d="M 386.097656 728.4375 L 458.878906 728.4375 L 458.878906 801.21875 L 386.097656 801.21875 Z M 386.097656 728.4375 " fill-opacity="1" fill-rule="nonzero"/><path fill="#000000" d="M 1041.121094 728.4375 L 1113.898438 728.4375 L 1113.898438 801.21875 L 1041.121094 801.21875 Z M 1041.121094 728.4375 " fill-opacity="1" fill-rule="nonzero"/><g clip-path="url(#a7a807f307)"><path fill="#000000" d="M 240.539062 146.195312 L 313.316406 146.195312 L 313.316406 728.4375 L 240.539062 728.4375 Z M 240.539062 146.195312 " fill-opacity="1" fill-rule="nonzero"/></g><path fill="#000000" d="M 313.316406 73.417969 L 386.097656 73.417969 L 386.097656 146.195312 L 313.316406 146.195312 Z M 313.316406 73.417969 " fill-opacity="1" fill-rule="nonzero"/><path fill="#000000" d="M 386.097656 146.195312 L 531.660156 146.195312 L 531.660156 218.976562 L 386.097656 218.976562 Z M 386.097656 146.195312 " fill-opacity="1" fill-rule="nonzero"/><path fill="#000000" d="M 531.660156 73.417969 L 604.4375 73.417969 L 604.4375 146.195312 L 531.660156 146.195312 Z M 531.660156 73.417969 " fill-opacity="1" fill-rule="nonzero"/><path fill="#000000" d="M 604.4375 0.636719 L 677.21875 0.636719 L 677.21875 73.417969 L 604.4375 73.417969 Z M 604.4375 0.636719 " fill-opacity="1" fill-rule="nonzero"/><g mask="url(#c8c17f8246)"><g transform="matrix(1, 0, 0, 1, 677, 73)"><g clip-path="url(#f323090542)"><g clip-path="url(#cb3f4f66cd)"><path fill="#000000" d="M 0.21875 0.417969 L 73 0.417969 L 73 73.195312 L 0.21875 73.195312 Z M 0.21875 0.417969 " fill-opacity="1" fill-rule="nonzero"/></g></g></g></g><g mask="url(#67e3b6c007)"><g transform="matrix(1, 0, 0, 1, 1040, 0.000000000000112854)"><g clip-path="url(#7ae9cc65dc)"><g clip-path="url(#08a0f1ac49)"><path fill="#000000" d="M 1.121094 0.636719 L 73.898438 0.636719 L 73.898438 73.417969 L 1.121094 73.417969 Z M 1.121094 0.636719 " fill-opacity="1" fill-rule="nonzero"/></g></g></g></g><g mask="url(#a761b17c75)"><g transform="matrix(1, 0, 0, 1, 749, 0.000000000000112854)"><g clip-path="url(#1663a80599)"><g clip-path="url(#39701c2510)"><path fill="#000000" d="M 1 0.636719 L 73.777344 0.636719 L 73.777344 73.417969 L 1 73.417969 Z M 1 0.636719 " fill-opacity="1" fill-rule="nonzero"/></g></g></g></g><g mask="url(#70d89b4f46)"><g transform="matrix(1, 0, 0, 1, 822, 73)"><g clip-path="url(#9d70655b73)"><g clip-path="url(#c974f347df)"><path fill="#000000" d="M 0.777344 0.417969 L 219.121094 0.417969 L 219.121094 73.195312 L 0.777344 73.195312 Z M 0.777344 0.417969 " fill-opacity="1" fill-rule="nonzero"/></g></g></g></g><g mask="url(#92a78e2af7)"><g transform="matrix(1, 0, 0, 1, 385, 218)"><g clip-path="url(#e82d0c3377)"><g clip-path="url(#e6829854d8)"><path fill="#000000" d="M 1.097656 0.976562 L 1.097656 146.535156 L 73.878906 146.535156 L 73.878906 73.757812 L 146.660156 73.757812 L 146.660156 0.976562 Z M 1.097656 0.976562 " fill-opacity="1" fill-rule="nonzero"/></g></g></g></g><path fill="#000000" d="M 313.316406 364.535156 L 386.097656 364.535156 L 386.097656 437.316406 L 313.316406 437.316406 Z M 313.316406 364.535156 " fill-opacity="1" fill-rule="nonzero"/><path fill="#000000" d="M 531.660156 291.757812 L 604.4375 291.757812 L 604.4375 364.535156 L 531.660156 364.535156 Z M 531.660156 291.757812 " fill-opacity="1" fill-rule="nonzero"/><path fill="#000000" d="M 822.777344 510.097656 L 895.558594 510.097656 L 895.558594 655.65625 L 822.777344 655.65625 Z M 822.777344 510.097656 " fill-opacity="1" fill-rule="nonzero"/><g mask="url(#1ff3987767)"><g transform="matrix(1, 0, 0, 1, 895, 364)"><g clip-path="url(#4c60ffc732)"><g clip-path="url(#ce0c5d3905)"><path fill="#000000" d="M 0.558594 0.535156 L 73.339844 0.535156 L 73.339844 146.097656 L 0.558594 146.097656 Z M 0.558594 0.535156 " fill-opacity="1" fill-rule="nonzero"/></g></g></g></g><path fill="#000000" d="M 604.4375 510.097656 L 677.21875 510.097656 L 677.21875 655.65625 L 604.4375 655.65625 Z M 604.4375 510.097656 " fill-opacity="1" fill-rule="nonzero"/><g mask="url(#6b938252d6)"><g transform="matrix(1, 0, 0, 1, 458, 437)"><g clip-path="url(#80affb271f)"><g clip-path="url(#2604554b7a)"><path fill="#000000" d="M 0.878906 0.316406 L 73.660156 0.316406 L 73.660156 73.097656 L 0.878906 73.097656 Z M 0.878906 0.316406 " fill-opacity="1" fill-rule="nonzero"/></g></g></g></g><g mask="url(#b434d75c12)"><g transform="matrix(1, 0, 0, 1, 749, 146)"><g clip-path="url(#91aaf6bee8)"><g clip-path="url(#5ecf94440f)"><path fill="#000000" d="M 1 0.195312 L 73.777344 0.195312 L 73.777344 72.976562 L 1 72.976562 Z M 1 0.195312 " fill-opacity="1" fill-rule="nonzero"/></g></g></g></g><g mask="url(#d81c0e5fb2)"><g transform="matrix(1, 0, 0, 1, 604, 291)"><g clip-path="url(#9bb46b3f0d)"><g clip-path="url(#d80e3f2e25)"><path fill="#000000" d="M 0.4375 0.757812 L 73.21875 0.757812 L 73.21875 73.535156 L 0.4375 73.535156 Z M 0.4375 0.757812 " fill-opacity="1" fill-rule="nonzero"/></g></g></g></g><g mask="url(#60af2a4f4b)"><g transform="matrix(1, 0, 0, 1, 531, 146)"><g clip-path="url(#52b76f2b95)"><g clip-path="url(#e3f63f88b4)"><path fill="#000000" d="M 0.660156 0.195312 L 73.4375 0.195312 L 73.4375 72.976562 L 0.660156 72.976562 Z M 0.660156 0.195312 " fill-opacity="1" fill-rule="nonzero"/></g></g></g></g><g mask="url(#056404aa43)"><g transform="matrix(1, 0, 0, 1, 677, 364)"><g clip-path="url(#d6711ef5f8)"><g clip-path="url(#ff743e04ba)"><path fill="#000000" d="M 0.21875 0.535156 L 73 0.535156 L 73 73.316406 L 0.21875 73.316406 Z M 0.21875 0.535156 " fill-opacity="1" fill-rule="nonzero"/></g></g></g></g><g mask="url(#72da0a5dfd)"><g transform="matrix(1, 0, 0, 1, 604, 218)"><g clip-path="url(#ecb8d2be90)"><g clip-path="url(#dc387e33dc)"><path fill="#000000" d="M 0.4375 0.976562 L 73.21875 0.976562 L 73.21875 73.757812 L 0.4375 73.757812 Z M 0.4375 0.976562 " fill-opacity="1" fill-rule="nonzero"/></g></g></g></g><g mask="url(#82162ca9c0)"><g transform="matrix(1, 0, 0, 1, 313, 218)"><g clip-path="url(#171aa6d670)"><g clip-path="url(#1b2c6ac7d6)"><path fill="#000000" d="M 0.316406 0.976562 L 73.097656 0.976562 L 73.097656 73.757812 L 0.316406 73.757812 Z M 0.316406 0.976562 " fill-opacity="1" fill-rule="nonzero"/></g></g></g></g><g mask="url(#7693687088)"><g transform="matrix(1, 0, 0, 1, 604, 437)"><g clip-path="url(#cd8f2517af)"><g clip-path="url(#318f9708f1)"><path fill="#000000" d="M 0.4375 0.316406 L 73.21875 0.316406 L 73.21875 73.097656 L 0.4375 73.097656 Z M 0.4375 0.316406 " fill-opacity="1" fill-rule="nonzero"/></g></g></g></g><g mask="url(#312bc07523)"><g transform="matrix(1, 0, 0, 1, 749, 437)"><g clip-path="url(#a9362d3435)"><g clip-path="url(#a63b15834d)"><path fill="#000000" d="M 1 0.316406 L 73.777344 0.316406 L 73.777344 73.097656 L 1 73.097656 Z M 1 0.316406 " fill-opacity="1" fill-rule="nonzero"/></g></g></g></g><g mask="url(#04e2295202)"><g transform="matrix(1, 0, 0, 1, 968, 510)"><g clip-path="url(#eda8327141)"><g clip-path="url(#e70d967c46)"><path fill="#000000" d="M 0.339844 0.0976562 L 73.121094 0.0976562 L 73.121094 72.878906 L 0.339844 72.878906 Z M 0.339844 0.0976562 " fill-opacity="1" fill-rule="nonzero"/></g></g></g></g><g mask="url(#732550554d)"><g transform="matrix(1, 0, 0, 1, 1040, 364)"><g clip-path="url(#12618afe20)"><g clip-path="url(#5d050573c7)"><path fill="#000000" d="M 1.121094 0.535156 L 73.898438 0.535156 L 73.898438 73.316406 L 1.121094 73.316406 Z M 1.121094 0.535156 " fill-opacity="1" fill-rule="nonzero"/></g></g></g></g><g mask="url(#146b62383f)"><g transform="matrix(1, 0, 0, 1, 1040, 655)"><g clip-path="url(#b1e9d7ed8b)"><g clip-path="url(#97f4b782c4)"><path fill="#000000" d="M 1.121094 0.65625 L 73.898438 0.65625 L 73.898438 73.4375 L 1.121094 73.4375 Z M 1.121094 0.65625 " fill-opacity="1" fill-rule="nonzero"/></g></g></g></g><g clip-path="url(#50446ba0fd)"><g mask="url(#0c52e762e2)"><g transform="matrix(1, 0, 0, 1, 1040, 73)"><g clip-path="url(#ff530d31ea)"><g clip-path="url(#f7d0e659ab)"><path fill="#000000" d="M 146.679688 145.976562 L 146.679688 0.417969 L 73.898438 0.417969 L 73.898438 218.757812 L 146.679688 218.757812 L 146.679688 364.316406 L 73.898438 364.316406 L 73.898438 437.097656 L 1.121094 437.097656 L 1.121094 509.878906 L 146.679688 509.878906 L 146.679688 582.65625 L 219.460938 582.65625 L 219.460938 145.976562 Z M 146.679688 145.976562 " fill-opacity="1" fill-rule="nonzero"/></g></g></g></g></g><g mask="url(#9e00d5b21f)"><g transform="matrix(1, 0, 0, 1, 749, 291)"><g clip-path="url(#37cb01ea7b)"><g clip-path="url(#83887c9b2e)"><path fill="#000000" d="M 1 0.757812 L 73.777344 0.757812 L 73.777344 73.535156 L 1 73.535156 Z M 1 0.757812 " fill-opacity="1" fill-rule="nonzero"/></g></g></g></g><g mask="url(#3fea50a43a)"><g transform="matrix(1, 0, 0, 1, 822, 364)"><g clip-path="url(#d6a5301e6b)"><g clip-path="url(#17bbb5def9)"><path fill="#000000" d="M 0.777344 0.535156 L 73.558594 0.535156 L 73.558594 73.316406 L 0.777344 73.316406 Z M 0.777344 0.535156 " fill-opacity="1" fill-rule="nonzero"/></g></g></g></g><g mask="url(#363574cb60)"><g transform="matrix(1, 0, 0, 1, 313, 510)"><g clip-path="url(#0d16774b37)"><g clip-path="url(#6c78c4063d)"><path fill="#000000" d="M 0.316406 0.0976562 L 73.097656 0.0976562 L 73.097656 72.878906 L 0.316406 72.878906 Z M 0.316406 0.0976562 " fill-opacity="1" fill-rule="nonzero"/></g></g></g></g><g mask="url(#7cf251725a)"><g transform="matrix(1, 0, 0, 1, 968, 146)"><g clip-path="url(#72355335a5)"><g clip-path="url(#8718c45995)"><path fill="#000000" d="M 0.339844 0.195312 L 73.121094 0.195312 L 73.121094 72.976562 L 0.339844 72.976562 Z M 0.339844 0.195312 " fill-opacity="1" fill-rule="nonzero"/></g></g></g></g><g mask="url(#8982731215)"><g transform="matrix(1, 0, 0, 1, 895, 218)"><g clip-path="url(#8d41785558)"><g clip-path="url(#05e6909fc9)"><path fill="#000000" d="M 0.558594 0.976562 L 73.339844 0.976562 L 73.339844 73.757812 L 0.558594 73.757812 Z M 0.558594 0.976562 " fill-opacity="1" fill-rule="nonzero"/></g></g></g></g><g mask="url(#2948a1dc55)"><g transform="matrix(1, 0, 0, 1, 1113, 728)"><g clip-path="url(#112d82d90a)"><g clip-path="url(#4a9538b761)"><path fill="#000000" d="M 0.898438 0.4375 L 73.679688 0.4375 L 73.679688 73.21875 L 0.898438 73.21875 Z M 0.898438 0.4375 " fill-opacity="1" fill-rule="nonzero"/></g></g></g></g><g mask="url(#f33cdc8031)"><g transform="matrix(1, 0, 0, 1, 895, 655)"><g clip-path="url(#5c7468c082)"><g clip-path="url(#fe44efd9af)"><path fill="#000000" d="M 0.558594 0.65625 L 73.339844 0.65625 L 73.339844 73.4375 L 0.558594 73.4375 Z M 0.558594 0.65625 " fill-opacity="1" fill-rule="nonzero"/></g></g></g></g><g mask="url(#008f00bfc0)"><g transform="matrix(1, 0, 0, 1, 531, 655)"><g clip-path="url(#8aac1a0698)"><g clip-path="url(#c3aae2d4bc)"><path fill="#000000" d="M 0.660156 0.65625 L 73.4375 0.65625 L 73.4375 73.4375 L 0.660156 73.4375 Z M 0.660156 0.65625 " fill-opacity="1" fill-rule="nonzero"/></g></g></g></g><g mask="url(#893b7f22d4)"><g transform="matrix(1, 0, 0, 1, 313, 728)"><g clip-path="url(#780321461d)"><g clip-path="url(#f560b09520)"><path fill="#000000" d="M 0.316406 0.4375 L 73.097656 0.4375 L 73.097656 73.21875 L 0.316406 73.21875 Z M 0.316406 0.4375 " fill-opacity="1" fill-rule="nonzero"/></g></g></g></g><g mask="url(#0fe65f6e45)"><g transform="matrix(1, 0, 0, 1, 531, 510)"><g clip-path="url(#c6a724c0d4)"><g clip-path="url(#c7c0381564)"><path fill="#000000" d="M 0.660156 0.0976562 L 73.4375 0.0976562 L 73.4375 72.878906 L 0.660156 72.878906 Z M 0.660156 0.0976562 " fill-opacity="1" fill-rule="nonzero"/></g></g></g></g><g mask="url(#c7670a83ad)"><g transform="matrix(1, 0, 0, 1, 385, 582)"><g clip-path="url(#4844298734)"><g clip-path="url(#3b911843e7)"><path fill="#000000" d="M 1.097656 0.878906 L 73.878906 0.878906 L 73.878906 73.65625 L 1.097656 73.65625 Z M 1.097656 0.878906 " fill-opacity="1" fill-rule="nonzero"/></g></g></g></g></svg>