<svg xmlns="http://www.w3.org/2000/svg" xmlns:xlink="http://www.w3.org/1999/xlink" width="1000" zoomAndPan="magnify" viewBox="0 0 750 749.999995" height="1000" preserveAspectRatio="xMidYMid meet" version="1.0"><defs><clipPath id="3c71b0734c"><path d="M 400 219 L 575.089844 219 L 575.089844 320 L 400 320 Z M 400 219 " clip-rule="nonzero"/></clipPath><clipPath id="c0b9e78e87"><path d="M 324 69.300781 L 526 69.300781 L 526 120 L 324 120 Z M 324 69.300781 " clip-rule="nonzero"/></clipPath><clipPath id="25f72b6375"><path d="M 224 570 L 275 570 L 275 695.550781 L 224 695.550781 Z M 224 570 " clip-rule="nonzero"/></clipPath><clipPath id="8319b7132f"><path d="M 174.589844 344 L 350 344 L 350 446 L 174.589844 446 Z M 174.589844 344 " clip-rule="nonzero"/></clipPath><clipPath id="ad6fdbfadf"><path d="M 533.34375 75 L 636 75 L 636 177 L 533.34375 177 Z M 533.34375 75 " clip-rule="nonzero"/></clipPath><clipPath id="4c3cccfb23"><path d="M 533.34375 121 L 562 121 L 562 131 L 533.34375 131 Z M 533.34375 121 " clip-rule="nonzero"/></clipPath><clipPath id="e8d67ab26a"><path d="M 609 149 L 675.09375 149 L 675.09375 215.25 L 609 215.25 Z M 609 149 " clip-rule="nonzero"/></clipPath><clipPath id="ee6ff7f715"><path d="M 639 197 L 646 197 L 646 215.25 L 639 215.25 Z M 639 197 " clip-rule="nonzero"/></clipPath><clipPath id="ff4fd592ea"><path d="M 657 179 L 675.09375 179 L 675.09375 186 L 657 186 Z M 657 179 " clip-rule="nonzero"/></clipPath><clipPath id="bafe59c60f"><path d="M 75 555.34375 L 177 555.34375 L 177 658 L 75 658 Z M 75 555.34375 " clip-rule="nonzero"/></clipPath><clipPath id="23e58fee0e"><path d="M 121 555.34375 L 131 555.34375 L 131 584 L 121 584 Z M 121 555.34375 " clip-rule="nonzero"/></clipPath><clipPath id="309f3a1b07"><path d="M 150 629 L 216.75 629 L 216.75 695.59375 L 150 695.59375 Z M 150 629 " clip-rule="nonzero"/></clipPath><clipPath id="156f9fdff0"><path d="M 180 677 L 187 677 L 187 695.59375 L 180 695.59375 Z M 180 677 " clip-rule="nonzero"/></clipPath><clipPath id="512a89184a"><path d="M 198 659 L 216.75 659 L 216.75 666 L 198 666 Z M 198 659 " clip-rule="nonzero"/></clipPath></defs><path fill="#0097b2" d="M 525.292969 294.761719 L 400.050781 294.761719 L 400.050781 269.738281 L 424.945312 269.738281 L 424.945312 219.628906 L 450.035156 219.628906 L 450.035156 169.519531 L 475.054688 169.519531 L 475.054688 119.410156 L 500.144531 119.410156 L 500.144531 94.324219 L 324.921875 94.324219 L 324.921875 144.433594 L 299.832031 144.433594 L 299.832031 194.542969 L 274.808594 194.542969 L 274.808594 244.652344 L 249.722656 244.652344 L 249.722656 294.761719 L 224.699219 294.761719 L 224.699219 344.871094 L 199.613281 344.871094 L 199.613281 369.894531 L 349.941406 369.894531 L 349.941406 394.980469 L 324.921875 394.980469 L 324.921875 445.089844 L 299.832031 445.089844 L 299.832031 495.199219 L 274.808594 495.199219 L 274.808594 570.332031 L 249.722656 570.332031 L 249.722656 645.464844 L 274.808594 645.464844 L 274.808594 595.417969 L 299.832031 595.417969 L 299.832031 570.332031 L 324.921875 570.332031 L 324.921875 545.308594 L 349.941406 545.308594 L 349.941406 520.222656 L 375.03125 520.222656 L 375.03125 495.199219 L 400.050781 495.199219 L 400.050781 445.089844 L 425.140625 445.089844 L 425.140625 420.003906 L 450.160156 420.003906 L 450.160156 394.980469 L 475.183594 394.980469 L 475.183594 369.894531 L 500.273438 369.894531 L 500.273438 344.871094 L 525.292969 344.871094 L 525.292969 319.847656 L 550.382812 319.847656 L 550.382812 294.761719 Z M 525.292969 294.761719 " fill-opacity="1" fill-rule="nonzero"/><path fill="#2d3c53" d="M 450.035156 194.542969 L 450.035156 219.628906 L 475.054688 219.628906 L 475.054688 169.519531 L 450.035156 169.519531 Z M 450.035156 194.542969 " fill-opacity="1" fill-rule="nonzero"/><path fill="#2d3c53" d="M 475.054688 144.433594 L 475.054688 169.519531 L 500.144531 169.519531 L 500.144531 119.410156 L 475.054688 119.410156 Z M 475.054688 144.433594 " fill-opacity="1" fill-rule="nonzero"/><path fill="#2d3c53" d="M 324.921875 119.410156 L 324.921875 94.324219 L 299.832031 94.324219 L 299.832031 144.433594 L 324.921875 144.433594 Z M 324.921875 119.410156 " fill-opacity="1" fill-rule="nonzero"/><path fill="#2d3c53" d="M 299.832031 169.519531 L 299.832031 144.433594 L 274.808594 144.433594 L 274.808594 194.542969 L 299.832031 194.542969 Z M 299.832031 169.519531 " fill-opacity="1" fill-rule="nonzero"/><path fill="#2d3c53" d="M 274.808594 219.628906 L 274.808594 194.542969 L 249.722656 194.542969 L 249.722656 244.652344 L 274.808594 244.652344 Z M 274.808594 219.628906 " fill-opacity="1" fill-rule="nonzero"/><path fill="#2d3c53" d="M 249.722656 269.738281 L 249.722656 244.652344 L 224.699219 244.652344 L 224.699219 294.761719 L 249.722656 294.761719 Z M 249.722656 269.738281 " fill-opacity="1" fill-rule="nonzero"/><path fill="#2d3c53" d="M 224.699219 319.847656 L 224.699219 294.761719 L 199.613281 294.761719 L 199.613281 344.871094 L 224.699219 344.871094 Z M 224.699219 319.847656 " fill-opacity="1" fill-rule="nonzero"/><g clip-path="url(#3c71b0734c)"><path fill="#2d3c53" d="M 550.382812 269.738281 L 450.035156 269.738281 L 450.035156 219.628906 L 424.945312 219.628906 L 424.945312 269.738281 L 400.050781 269.738281 L 400.050781 294.761719 L 550.382812 294.761719 L 550.382812 319.847656 L 575.402344 319.847656 L 575.402344 269.738281 Z M 550.382812 269.738281 " fill-opacity="1" fill-rule="nonzero"/></g><g clip-path="url(#c0b9e78e87)"><path fill="#2d3c53" d="M 374.835938 94.324219 L 500.144531 94.324219 L 500.144531 119.410156 L 525.164062 119.410156 L 525.164062 69.300781 L 324.921875 69.300781 L 324.921875 94.324219 Z M 374.835938 94.324219 " fill-opacity="1" fill-rule="nonzero"/></g><path fill="#2d3c53" d="M 425.140625 445.089844 L 400.050781 445.089844 L 400.050781 495.199219 L 425.140625 495.199219 L 425.140625 470.113281 L 450.160156 470.113281 L 450.160156 420.003906 L 425.140625 420.003906 Z M 425.140625 445.089844 " fill-opacity="1" fill-rule="nonzero"/><path fill="#2d3c53" d="M 375.03125 495.199219 L 400.050781 495.199219 L 400.050781 520.222656 L 375.03125 520.222656 Z M 375.03125 495.199219 " fill-opacity="1" fill-rule="nonzero"/><path fill="#2d3c53" d="M 349.941406 520.222656 L 374.964844 520.222656 L 374.964844 545.246094 L 349.941406 545.246094 Z M 349.941406 520.222656 " fill-opacity="1" fill-rule="nonzero"/><path fill="#2d3c53" d="M 324.921875 545.308594 L 349.941406 545.308594 L 349.941406 570.332031 L 324.921875 570.332031 Z M 324.921875 545.308594 " fill-opacity="1" fill-rule="nonzero"/><path fill="#2d3c53" d="M 299.832031 595.417969 L 274.808594 595.417969 L 274.808594 645.464844 L 299.832031 645.464844 L 299.832031 620.441406 L 324.921875 620.441406 L 324.921875 570.332031 L 299.832031 570.332031 Z M 299.832031 595.417969 " fill-opacity="1" fill-rule="nonzero"/><g clip-path="url(#25f72b6375)"><path fill="#2d3c53" d="M 249.722656 620.441406 L 249.722656 570.332031 L 224.699219 570.332031 L 224.699219 695.574219 L 249.722656 695.574219 L 249.722656 670.550781 L 274.808594 670.550781 L 274.808594 645.464844 L 249.722656 645.464844 Z M 249.722656 620.441406 " fill-opacity="1" fill-rule="nonzero"/></g><path fill="#2d3c53" d="M 274.808594 545.308594 L 274.808594 495.199219 L 249.722656 495.199219 L 249.722656 570.332031 L 274.808594 570.332031 Z M 274.808594 545.308594 " fill-opacity="1" fill-rule="nonzero"/><path fill="#2d3c53" d="M 299.832031 470.113281 L 299.832031 445.089844 L 274.808594 445.089844 L 274.808594 495.199219 L 299.832031 495.199219 Z M 299.832031 470.113281 " fill-opacity="1" fill-rule="nonzero"/><g clip-path="url(#8319b7132f)"><path fill="#2d3c53" d="M 324.921875 420.003906 L 324.921875 394.980469 L 349.941406 394.980469 L 349.941406 369.894531 L 199.613281 369.894531 L 199.613281 344.871094 L 174.589844 344.871094 L 174.589844 394.980469 L 299.832031 394.980469 L 299.832031 445.089844 L 324.921875 445.089844 Z M 324.921875 420.003906 " fill-opacity="1" fill-rule="nonzero"/></g><path fill="#2d3c53" d="M 525.292969 319.847656 L 550.316406 319.847656 L 550.316406 344.871094 L 525.292969 344.871094 Z M 525.292969 319.847656 " fill-opacity="1" fill-rule="nonzero"/><path fill="#2d3c53" d="M 475.183594 369.894531 L 500.207031 369.894531 L 500.207031 394.917969 L 475.183594 394.917969 Z M 475.183594 369.894531 " fill-opacity="1" fill-rule="nonzero"/><path fill="#2d3c53" d="M 450.160156 394.980469 L 475.183594 394.980469 L 475.183594 420.003906 L 450.160156 420.003906 Z M 450.160156 394.980469 " fill-opacity="1" fill-rule="nonzero"/><path fill="#2d3c53" d="M 500.273438 344.871094 L 525.292969 344.871094 L 525.292969 369.894531 L 500.273438 369.894531 Z M 500.273438 344.871094 " fill-opacity="1" fill-rule="nonzero"/><path fill="#0cc0df" d="M 274.808594 369.894531 L 375.03125 369.894531 L 375.03125 344.871094 L 199.613281 344.871094 L 199.613281 369.894531 Z M 274.808594 369.894531 " fill-opacity="1" fill-rule="nonzero"/><path fill="#0cc0df" d="M 450.035156 194.542969 L 450.035156 169.519531 L 424.945312 169.519531 L 424.945312 219.628906 L 450.035156 219.628906 Z M 450.035156 194.542969 " fill-opacity="1" fill-rule="nonzero"/><path fill="#0cc0df" d="M 475.054688 144.433594 L 475.054688 119.410156 L 450.035156 119.410156 L 450.035156 169.519531 L 475.054688 169.519531 Z M 475.054688 144.433594 " fill-opacity="1" fill-rule="nonzero"/><path fill="#0cc0df" d="M 475.054688 94.324219 L 500.078125 94.324219 L 500.078125 119.347656 L 475.054688 119.347656 Z M 475.054688 94.324219 " fill-opacity="1" fill-rule="nonzero"/><path fill="#0cc0df" d="M 374.835938 269.738281 L 399.859375 269.738281 L 399.859375 294.761719 L 374.835938 294.761719 Z M 374.835938 269.738281 " fill-opacity="1" fill-rule="nonzero"/><path fill="#0cc0df" d="M 424.945312 244.652344 L 424.945312 219.628906 L 399.925781 219.628906 L 399.925781 269.738281 L 424.945312 269.738281 Z M 424.945312 244.652344 " fill-opacity="1" fill-rule="nonzero"/><path fill="#0cc0df" d="M 375.03125 470.113281 L 375.03125 495.199219 L 400.050781 495.199219 L 400.050781 445.089844 L 375.03125 445.089844 Z M 375.03125 470.113281 " fill-opacity="1" fill-rule="nonzero"/><path fill="#0cc0df" d="M 400.050781 420.003906 L 425.074219 420.003906 L 425.074219 445.027344 L 400.050781 445.027344 Z M 400.050781 420.003906 " fill-opacity="1" fill-rule="nonzero"/><path fill="#0cc0df" d="M 349.941406 495.199219 L 374.964844 495.199219 L 374.964844 520.222656 L 349.941406 520.222656 Z M 349.941406 495.199219 " fill-opacity="1" fill-rule="nonzero"/><path fill="#0cc0df" d="M 324.921875 520.222656 L 349.941406 520.222656 L 349.941406 545.246094 L 324.921875 545.246094 Z M 324.921875 520.222656 " fill-opacity="1" fill-rule="nonzero"/><path fill="#0cc0df" d="M 274.808594 595.417969 L 249.722656 595.417969 L 249.722656 645.464844 L 274.808594 645.464844 L 274.808594 620.441406 L 299.832031 620.441406 L 299.832031 570.332031 L 274.808594 570.332031 Z M 274.808594 595.417969 " fill-opacity="1" fill-rule="nonzero"/><path fill="#0cc0df" d="M 299.832031 545.308594 L 324.855469 545.308594 L 324.855469 570.332031 L 299.832031 570.332031 Z M 299.832031 545.308594 " fill-opacity="1" fill-rule="nonzero"/><path fill="#0cc0df" d="M 500.273438 319.847656 L 525.292969 319.847656 L 525.292969 344.871094 L 500.273438 344.871094 Z M 500.273438 319.847656 " fill-opacity="1" fill-rule="nonzero"/><path fill="#0cc0df" d="M 525.292969 294.761719 L 550.316406 294.761719 L 550.316406 319.785156 L 525.292969 319.785156 Z M 525.292969 294.761719 " fill-opacity="1" fill-rule="nonzero"/><path fill="#0cc0df" d="M 450.160156 369.894531 L 475.183594 369.894531 L 475.183594 394.917969 L 450.160156 394.917969 Z M 450.160156 369.894531 " fill-opacity="1" fill-rule="nonzero"/><path fill="#0cc0df" d="M 425.140625 394.980469 L 450.160156 394.980469 L 450.160156 420.003906 L 425.140625 420.003906 Z M 425.140625 394.980469 " fill-opacity="1" fill-rule="nonzero"/><path fill="#0cc0df" d="M 475.183594 344.871094 L 500.207031 344.871094 L 500.207031 369.894531 L 475.183594 369.894531 Z M 475.183594 344.871094 " fill-opacity="1" fill-rule="nonzero"/><g clip-path="url(#ad6fdbfadf)"><path fill="#ffe84e" d="M 625.921875 121.253906 L 607.410156 121.253906 L 607.410156 111.996094 L 598.15625 111.996094 L 598.15625 102.746094 L 588.894531 102.746094 L 588.894531 75 L 579.644531 75 L 579.644531 102.746094 L 570.382812 102.746094 L 570.382812 111.996094 L 561.132812 111.996094 L 561.132812 121.253906 L 533.363281 121.253906 L 533.363281 130.492188 L 561.132812 130.492188 L 561.132812 139.75 L 570.382812 139.75 L 570.382812 148.992188 L 579.644531 148.992188 L 579.644531 176.746094 L 588.894531 176.746094 L 588.894531 148.992188 L 598.15625 148.992188 L 598.15625 139.75 L 607.410156 139.75 L 607.410156 130.492188 L 635.175781 130.492188 L 635.175781 121.253906 Z M 625.921875 121.253906 " fill-opacity="1" fill-rule="nonzero"/></g><path fill="#ffbf00" d="M 588.894531 139.75 L 598.15625 139.75 L 598.15625 148.992188 L 588.894531 148.992188 Z M 588.894531 139.75 " fill-opacity="1" fill-rule="nonzero"/><path fill="#ffbf00" d="M 598.15625 130.492188 L 607.410156 130.492188 L 607.410156 139.75 L 598.15625 139.75 Z M 598.15625 130.492188 " fill-opacity="1" fill-rule="nonzero"/><path fill="#ffbf00" d="M 579.644531 158.246094 L 579.644531 176.746094 L 588.894531 176.746094 L 588.894531 148.992188 L 579.644531 148.992188 Z M 579.644531 158.246094 " fill-opacity="1" fill-rule="nonzero"/><path fill="#ffbf00" d="M 570.382812 139.75 L 579.644531 139.75 L 579.644531 148.992188 L 570.382812 148.992188 Z M 570.382812 139.75 " fill-opacity="1" fill-rule="nonzero"/><path fill="#ffbf00" d="M 561.132812 130.492188 L 570.382812 130.492188 L 570.382812 139.75 L 561.132812 139.75 Z M 561.132812 130.492188 " fill-opacity="1" fill-rule="nonzero"/><path fill="#ffbf00" d="M 625.921875 121.253906 L 607.410156 121.253906 L 607.410156 130.492188 L 635.175781 130.492188 L 635.175781 121.253906 Z M 625.921875 121.253906 " fill-opacity="1" fill-rule="nonzero"/><g clip-path="url(#4c3cccfb23)"><path fill="#ffbf00" d="M 551.871094 121.253906 L 533.363281 121.253906 L 533.363281 130.492188 L 561.132812 130.492188 L 561.132812 121.253906 Z M 551.871094 121.253906 " fill-opacity="1" fill-rule="nonzero"/></g><path fill="#ffbf00" d="M 598.15625 111.996094 L 607.410156 111.996094 L 607.410156 121.25 L 598.15625 121.25 Z M 598.15625 111.996094 " fill-opacity="1" fill-rule="nonzero"/><path fill="#ffbf00" d="M 561.132812 111.996094 L 570.382812 111.996094 L 570.382812 121.25 L 561.132812 121.25 Z M 561.132812 111.996094 " fill-opacity="1" fill-rule="nonzero"/><path fill="#ffbf00" d="M 588.894531 102.746094 L 598.15625 102.746094 L 598.15625 111.996094 L 588.894531 111.996094 Z M 588.894531 102.746094 " fill-opacity="1" fill-rule="nonzero"/><path fill="#ffbf00" d="M 570.382812 102.746094 L 579.644531 102.746094 L 579.644531 111.996094 L 570.382812 111.996094 Z M 570.382812 102.746094 " fill-opacity="1" fill-rule="nonzero"/><path fill="#ffbf00" d="M 588.894531 93.496094 L 588.894531 75 L 579.644531 75 L 579.644531 102.746094 L 588.894531 102.746094 Z M 588.894531 93.496094 " fill-opacity="1" fill-rule="nonzero"/><path fill="#ffed00" d="M 598.15625 121.253906 L 598.15625 111.996094 L 579.644531 111.996094 L 579.644531 121.253906 L 570.382812 121.253906 L 570.382812 139.75 L 579.644531 139.75 L 579.644531 148.992188 L 588.894531 148.992188 L 588.894531 139.75 L 598.15625 139.75 L 598.15625 130.492188 L 607.410156 130.492188 L 607.410156 121.253906 Z M 598.15625 121.253906 " fill-opacity="1" fill-rule="nonzero"/><path fill="#ffffa7" d="M 561.132812 121.253906 L 570.382812 121.253906 L 570.382812 130.492188 L 561.132812 130.492188 Z M 561.132812 121.253906 " fill-opacity="1" fill-rule="nonzero"/><path fill="#ffffa7" d="M 570.382812 111.996094 L 579.644531 111.996094 L 579.644531 121.25 L 570.382812 121.25 Z M 570.382812 111.996094 " fill-opacity="1" fill-rule="nonzero"/><path fill="#ffffa7" d="M 579.644531 102.746094 L 588.894531 102.746094 L 588.894531 111.996094 L 579.644531 111.996094 Z M 579.644531 102.746094 " fill-opacity="1" fill-rule="nonzero"/><path fill="#ffed00" d="M 559.503906 97.242188 L 564.191406 97.242188 L 564.191406 101.925781 L 559.503906 101.925781 Z M 559.503906 97.242188 " fill-opacity="1" fill-rule="nonzero"/><path fill="#ffed00" d="M 605.191406 97.242188 L 609.878906 97.242188 L 609.878906 101.925781 L 605.191406 101.925781 Z M 605.191406 97.242188 " fill-opacity="1" fill-rule="nonzero"/><path fill="#ffed00" d="M 559.503906 148.753906 L 564.191406 148.753906 L 564.191406 153.4375 L 559.503906 153.4375 Z M 559.503906 148.753906 " fill-opacity="1" fill-rule="nonzero"/><path fill="#ffed00" d="M 605.191406 148.753906 L 609.878906 148.753906 L 609.878906 153.4375 L 605.191406 153.4375 Z M 605.191406 148.753906 " fill-opacity="1" fill-rule="nonzero"/><g clip-path="url(#e8d67ab26a)"><path fill="#ffe84e" d="M 669.074219 179.25 L 657.066406 179.25 L 657.066406 173.246094 L 651.0625 173.246094 L 651.0625 167.246094 L 645.054688 167.246094 L 645.054688 149.246094 L 639.054688 149.246094 L 639.054688 167.246094 L 633.046875 167.246094 L 633.046875 173.246094 L 627.050781 173.246094 L 627.050781 179.25 L 609.035156 179.25 L 609.035156 185.242188 L 627.050781 185.242188 L 627.050781 191.246094 L 633.046875 191.246094 L 633.046875 197.242188 L 639.054688 197.242188 L 639.054688 215.242188 L 645.054688 215.242188 L 645.054688 197.242188 L 651.0625 197.242188 L 651.0625 191.246094 L 657.066406 191.246094 L 657.066406 185.242188 L 675.074219 185.242188 L 675.074219 179.25 Z M 669.074219 179.25 " fill-opacity="1" fill-rule="nonzero"/></g><path fill="#ffbf00" d="M 645.054688 191.246094 L 651.0625 191.246094 L 651.0625 197.242188 L 645.054688 197.242188 Z M 645.054688 191.246094 " fill-opacity="1" fill-rule="nonzero"/><path fill="#ffbf00" d="M 651.0625 185.242188 L 657.066406 185.242188 L 657.066406 191.246094 L 651.0625 191.246094 Z M 651.0625 185.242188 " fill-opacity="1" fill-rule="nonzero"/><g clip-path="url(#ee6ff7f715)"><path fill="#ffbf00" d="M 639.054688 203.246094 L 639.054688 215.242188 L 645.054688 215.242188 L 645.054688 197.242188 L 639.054688 197.242188 Z M 639.054688 203.246094 " fill-opacity="1" fill-rule="nonzero"/></g><path fill="#ffbf00" d="M 633.046875 191.246094 L 639.054688 191.246094 L 639.054688 197.242188 L 633.046875 197.242188 Z M 633.046875 191.246094 " fill-opacity="1" fill-rule="nonzero"/><path fill="#ffbf00" d="M 627.050781 185.242188 L 633.046875 185.242188 L 633.046875 191.246094 L 627.050781 191.246094 Z M 627.050781 185.242188 " fill-opacity="1" fill-rule="nonzero"/><g clip-path="url(#ff4fd592ea)"><path fill="#ffbf00" d="M 669.074219 179.25 L 657.066406 179.25 L 657.066406 185.242188 L 675.074219 185.242188 L 675.074219 179.25 Z M 669.074219 179.25 " fill-opacity="1" fill-rule="nonzero"/></g><path fill="#ffbf00" d="M 621.042969 179.25 L 609.035156 179.25 L 609.035156 185.242188 L 627.050781 185.242188 L 627.050781 179.25 Z M 621.042969 179.25 " fill-opacity="1" fill-rule="nonzero"/><path fill="#ffbf00" d="M 651.0625 173.246094 L 657.066406 173.246094 L 657.066406 179.25 L 651.0625 179.25 Z M 651.0625 173.246094 " fill-opacity="1" fill-rule="nonzero"/><path fill="#ffbf00" d="M 627.050781 173.246094 L 633.046875 173.246094 L 633.046875 179.25 L 627.050781 179.25 Z M 627.050781 173.246094 " fill-opacity="1" fill-rule="nonzero"/><path fill="#ffbf00" d="M 645.054688 167.246094 L 651.0625 167.246094 L 651.0625 173.246094 L 645.054688 173.246094 Z M 645.054688 167.246094 " fill-opacity="1" fill-rule="nonzero"/><path fill="#ffbf00" d="M 633.046875 167.246094 L 639.054688 167.246094 L 639.054688 173.246094 L 633.046875 173.246094 Z M 633.046875 167.246094 " fill-opacity="1" fill-rule="nonzero"/><path fill="#ffbf00" d="M 645.054688 161.246094 L 645.054688 149.246094 L 639.054688 149.246094 L 639.054688 167.246094 L 645.054688 167.246094 Z M 645.054688 161.246094 " fill-opacity="1" fill-rule="nonzero"/><path fill="#ffed00" d="M 651.0625 179.25 L 651.0625 173.246094 L 639.054688 173.246094 L 639.054688 179.25 L 633.046875 179.25 L 633.046875 191.246094 L 639.054688 191.246094 L 639.054688 197.242188 L 645.054688 197.242188 L 645.054688 191.246094 L 651.0625 191.246094 L 651.0625 185.242188 L 657.066406 185.242188 L 657.066406 179.25 Z M 651.0625 179.25 " fill-opacity="1" fill-rule="nonzero"/><path fill="#ffffa7" d="M 627.050781 179.25 L 633.046875 179.25 L 633.046875 185.242188 L 627.050781 185.242188 Z M 627.050781 179.25 " fill-opacity="1" fill-rule="nonzero"/><path fill="#ffffa7" d="M 633.046875 173.246094 L 639.054688 173.246094 L 639.054688 179.25 L 633.046875 179.25 Z M 633.046875 173.246094 " fill-opacity="1" fill-rule="nonzero"/><path fill="#ffffa7" d="M 639.054688 167.246094 L 645.054688 167.246094 L 645.054688 173.246094 L 639.054688 173.246094 Z M 639.054688 167.246094 " fill-opacity="1" fill-rule="nonzero"/><path fill="#ffed00" d="M 625.992188 163.675781 L 629.03125 163.675781 L 629.03125 166.710938 L 625.992188 166.710938 Z M 625.992188 163.675781 " fill-opacity="1" fill-rule="nonzero"/><path fill="#ffed00" d="M 655.625 163.675781 L 658.667969 163.675781 L 658.667969 166.710938 L 655.625 166.710938 Z M 655.625 163.675781 " fill-opacity="1" fill-rule="nonzero"/><path fill="#ffed00" d="M 625.992188 197.085938 L 629.03125 197.085938 L 629.03125 200.125 L 625.992188 200.125 Z M 625.992188 197.085938 " fill-opacity="1" fill-rule="nonzero"/><path fill="#ffed00" d="M 655.625 197.085938 L 658.667969 197.085938 L 658.667969 200.125 L 655.625 200.125 Z M 655.625 197.085938 " fill-opacity="1" fill-rule="nonzero"/><g clip-path="url(#bafe59c60f)"><path fill="#ffe84e" d="M 167.574219 601.597656 L 149.066406 601.597656 L 149.066406 592.339844 L 139.8125 592.339844 L 139.8125 583.089844 L 130.546875 583.089844 L 130.546875 555.34375 L 121.300781 555.34375 L 121.300781 583.089844 L 112.035156 583.089844 L 112.035156 592.339844 L 102.789062 592.339844 L 102.789062 601.597656 L 75.019531 601.597656 L 75.019531 610.839844 L 102.789062 610.839844 L 102.789062 620.09375 L 112.035156 620.09375 L 112.035156 629.335938 L 121.300781 629.335938 L 121.300781 657.089844 L 130.546875 657.089844 L 130.546875 629.335938 L 139.8125 629.335938 L 139.8125 620.09375 L 149.066406 620.09375 L 149.066406 610.839844 L 176.832031 610.839844 L 176.832031 601.597656 Z M 167.574219 601.597656 " fill-opacity="1" fill-rule="nonzero"/></g><path fill="#ffbf00" d="M 130.546875 620.09375 L 139.8125 620.09375 L 139.8125 629.335938 L 130.546875 629.335938 Z M 130.546875 620.09375 " fill-opacity="1" fill-rule="nonzero"/><path fill="#ffbf00" d="M 139.8125 610.839844 L 149.066406 610.839844 L 149.066406 620.09375 L 139.8125 620.09375 Z M 139.8125 610.839844 " fill-opacity="1" fill-rule="nonzero"/><path fill="#ffbf00" d="M 121.300781 638.59375 L 121.300781 657.089844 L 130.546875 657.089844 L 130.546875 629.335938 L 121.300781 629.335938 Z M 121.300781 638.59375 " fill-opacity="1" fill-rule="nonzero"/><path fill="#ffbf00" d="M 112.035156 620.09375 L 121.300781 620.09375 L 121.300781 629.335938 L 112.035156 629.335938 Z M 112.035156 620.09375 " fill-opacity="1" fill-rule="nonzero"/><path fill="#ffbf00" d="M 102.789062 610.839844 L 112.035156 610.839844 L 112.035156 620.09375 L 102.789062 620.09375 Z M 102.789062 610.839844 " fill-opacity="1" fill-rule="nonzero"/><path fill="#ffbf00" d="M 167.574219 601.597656 L 149.066406 601.597656 L 149.066406 610.839844 L 176.832031 610.839844 L 176.832031 601.597656 Z M 167.574219 601.597656 " fill-opacity="1" fill-rule="nonzero"/><path fill="#ffbf00" d="M 93.527344 601.597656 L 75.019531 601.597656 L 75.019531 610.839844 L 102.789062 610.839844 L 102.789062 601.597656 Z M 93.527344 601.597656 " fill-opacity="1" fill-rule="nonzero"/><path fill="#ffbf00" d="M 139.8125 592.339844 L 149.066406 592.339844 L 149.066406 601.597656 L 139.8125 601.597656 Z M 139.8125 592.339844 " fill-opacity="1" fill-rule="nonzero"/><path fill="#ffbf00" d="M 102.789062 592.339844 L 112.035156 592.339844 L 112.035156 601.597656 L 102.789062 601.597656 Z M 102.789062 592.339844 " fill-opacity="1" fill-rule="nonzero"/><path fill="#ffbf00" d="M 130.546875 583.089844 L 139.8125 583.089844 L 139.8125 592.339844 L 130.546875 592.339844 Z M 130.546875 583.089844 " fill-opacity="1" fill-rule="nonzero"/><path fill="#ffbf00" d="M 112.035156 583.089844 L 121.300781 583.089844 L 121.300781 592.339844 L 112.035156 592.339844 Z M 112.035156 583.089844 " fill-opacity="1" fill-rule="nonzero"/><g clip-path="url(#23e58fee0e)"><path fill="#ffbf00" d="M 130.546875 573.84375 L 130.546875 555.34375 L 121.300781 555.34375 L 121.300781 583.089844 L 130.546875 583.089844 Z M 130.546875 573.84375 " fill-opacity="1" fill-rule="nonzero"/></g><path fill="#ffed00" d="M 139.8125 601.597656 L 139.8125 592.339844 L 121.300781 592.339844 L 121.300781 601.597656 L 112.035156 601.597656 L 112.035156 620.09375 L 121.300781 620.09375 L 121.300781 629.335938 L 130.546875 629.335938 L 130.546875 620.09375 L 139.8125 620.09375 L 139.8125 610.839844 L 149.066406 610.839844 L 149.066406 601.597656 Z M 139.8125 601.597656 " fill-opacity="1" fill-rule="nonzero"/><path fill="#ffffa7" d="M 102.789062 601.597656 L 112.035156 601.597656 L 112.035156 610.839844 L 102.789062 610.839844 Z M 102.789062 601.597656 " fill-opacity="1" fill-rule="nonzero"/><path fill="#ffffa7" d="M 112.035156 592.339844 L 121.300781 592.339844 L 121.300781 601.597656 L 112.035156 601.597656 Z M 112.035156 592.339844 " fill-opacity="1" fill-rule="nonzero"/><path fill="#ffffa7" d="M 121.300781 583.089844 L 130.546875 583.089844 L 130.546875 592.339844 L 121.300781 592.339844 Z M 121.300781 583.089844 " fill-opacity="1" fill-rule="nonzero"/><path fill="#ffed00" d="M 101.160156 577.585938 L 105.847656 577.585938 L 105.847656 582.269531 L 101.160156 582.269531 Z M 101.160156 577.585938 " fill-opacity="1" fill-rule="nonzero"/><path fill="#ffed00" d="M 146.847656 577.585938 L 151.535156 577.585938 L 151.535156 582.269531 L 146.847656 582.269531 Z M 146.847656 577.585938 " fill-opacity="1" fill-rule="nonzero"/><path fill="#ffed00" d="M 101.160156 629.097656 L 105.847656 629.097656 L 105.847656 633.78125 L 101.160156 633.78125 Z M 101.160156 629.097656 " fill-opacity="1" fill-rule="nonzero"/><path fill="#ffed00" d="M 146.847656 629.097656 L 151.535156 629.097656 L 151.535156 633.78125 L 146.847656 633.78125 Z M 146.847656 629.097656 " fill-opacity="1" fill-rule="nonzero"/><g clip-path="url(#309f3a1b07)"><path fill="#ffe84e" d="M 210.726562 659.59375 L 198.722656 659.59375 L 198.722656 653.589844 L 192.71875 653.589844 L 192.71875 647.589844 L 186.710938 647.589844 L 186.710938 629.59375 L 180.710938 629.59375 L 180.710938 647.589844 L 174.703125 647.589844 L 174.703125 653.589844 L 168.703125 653.589844 L 168.703125 659.59375 L 150.691406 659.59375 L 150.691406 665.589844 L 168.703125 665.589844 L 168.703125 671.59375 L 174.703125 671.59375 L 174.703125 677.585938 L 180.710938 677.585938 L 180.710938 695.589844 L 186.710938 695.589844 L 186.710938 677.585938 L 192.71875 677.585938 L 192.71875 671.59375 L 198.722656 671.59375 L 198.722656 665.589844 L 216.730469 665.589844 L 216.730469 659.59375 Z M 210.726562 659.59375 " fill-opacity="1" fill-rule="nonzero"/></g><path fill="#ffbf00" d="M 186.710938 671.59375 L 192.71875 671.59375 L 192.71875 677.585938 L 186.710938 677.585938 Z M 186.710938 671.59375 " fill-opacity="1" fill-rule="nonzero"/><path fill="#ffbf00" d="M 192.71875 665.589844 L 198.722656 665.589844 L 198.722656 671.59375 L 192.71875 671.59375 Z M 192.71875 665.589844 " fill-opacity="1" fill-rule="nonzero"/><g clip-path="url(#156f9fdff0)"><path fill="#ffbf00" d="M 180.710938 683.589844 L 180.710938 695.589844 L 186.710938 695.589844 L 186.710938 677.585938 L 180.710938 677.585938 Z M 180.710938 683.589844 " fill-opacity="1" fill-rule="nonzero"/></g><path fill="#ffbf00" d="M 174.703125 671.59375 L 180.710938 671.59375 L 180.710938 677.585938 L 174.703125 677.585938 Z M 174.703125 671.59375 " fill-opacity="1" fill-rule="nonzero"/><path fill="#ffbf00" d="M 168.703125 665.589844 L 174.703125 665.589844 L 174.703125 671.59375 L 168.703125 671.59375 Z M 168.703125 665.589844 " fill-opacity="1" fill-rule="nonzero"/><g clip-path="url(#512a89184a)"><path fill="#ffbf00" d="M 210.726562 659.59375 L 198.722656 659.59375 L 198.722656 665.589844 L 216.730469 665.589844 L 216.730469 659.59375 Z M 210.726562 659.59375 " fill-opacity="1" fill-rule="nonzero"/></g><path fill="#ffbf00" d="M 162.695312 659.59375 L 150.691406 659.59375 L 150.691406 665.589844 L 168.703125 665.589844 L 168.703125 659.59375 Z M 162.695312 659.59375 " fill-opacity="1" fill-rule="nonzero"/><path fill="#ffbf00" d="M 192.71875 653.589844 L 198.722656 653.589844 L 198.722656 659.59375 L 192.71875 659.59375 Z M 192.71875 653.589844 " fill-opacity="1" fill-rule="nonzero"/><path fill="#ffbf00" d="M 168.703125 653.589844 L 174.703125 653.589844 L 174.703125 659.59375 L 168.703125 659.59375 Z M 168.703125 653.589844 " fill-opacity="1" fill-rule="nonzero"/><path fill="#ffbf00" d="M 186.710938 647.589844 L 192.71875 647.589844 L 192.71875 653.589844 L 186.710938 653.589844 Z M 186.710938 647.589844 " fill-opacity="1" fill-rule="nonzero"/><path fill="#ffbf00" d="M 174.703125 647.589844 L 180.710938 647.589844 L 180.710938 653.589844 L 174.703125 653.589844 Z M 174.703125 647.589844 " fill-opacity="1" fill-rule="nonzero"/><path fill="#ffbf00" d="M 186.710938 641.589844 L 186.710938 629.59375 L 180.710938 629.59375 L 180.710938 647.589844 L 186.710938 647.589844 Z M 186.710938 641.589844 " fill-opacity="1" fill-rule="nonzero"/><path fill="#ffed00" d="M 192.71875 659.59375 L 192.71875 653.589844 L 180.710938 653.589844 L 180.710938 659.59375 L 174.703125 659.59375 L 174.703125 671.59375 L 180.710938 671.59375 L 180.710938 677.585938 L 186.710938 677.585938 L 186.710938 671.59375 L 192.71875 671.59375 L 192.71875 665.589844 L 198.722656 665.589844 L 198.722656 659.59375 Z M 192.71875 659.59375 " fill-opacity="1" fill-rule="nonzero"/><path fill="#ffffa7" d="M 168.703125 659.59375 L 174.703125 659.59375 L 174.703125 665.589844 L 168.703125 665.589844 Z M 168.703125 659.59375 " fill-opacity="1" fill-rule="nonzero"/><path fill="#ffffa7" d="M 174.703125 653.589844 L 180.710938 653.589844 L 180.710938 659.59375 L 174.703125 659.59375 Z M 174.703125 653.589844 " fill-opacity="1" fill-rule="nonzero"/><path fill="#ffffa7" d="M 180.710938 647.589844 L 186.710938 647.589844 L 186.710938 653.589844 L 180.710938 653.589844 Z M 180.710938 647.589844 " fill-opacity="1" fill-rule="nonzero"/><path fill="#ffed00" d="M 167.648438 644.019531 L 170.6875 644.019531 L 170.6875 647.058594 L 167.648438 647.058594 Z M 167.648438 644.019531 " fill-opacity="1" fill-rule="nonzero"/><path fill="#ffed00" d="M 197.28125 644.019531 L 200.320312 644.019531 L 200.320312 647.058594 L 197.28125 647.058594 Z M 197.28125 644.019531 " fill-opacity="1" fill-rule="nonzero"/><path fill="#ffed00" d="M 167.648438 677.429688 L 170.6875 677.429688 L 170.6875 680.46875 L 167.648438 680.46875 Z M 167.648438 677.429688 " fill-opacity="1" fill-rule="nonzero"/><path fill="#ffed00" d="M 197.28125 677.429688 L 200.320312 677.429688 L 200.320312 680.46875 L 197.28125 680.46875 Z M 197.28125 677.429688 " fill-opacity="1" fill-rule="nonzero"/></svg>