<svg width="1995" height="882" viewBox="0 0 1995 882" fill="none" xmlns="http://www.w3.org/2000/svg">
<mask id="mask0_9_77" style="mask-type:luminance" maskUnits="userSpaceOnUse" x="3" y="353" width="1992" height="529">
<path d="M3 353.896H1995V881.334H3V353.896Z" fill="white"/>
</mask>
<g mask="url(#mask0_9_77)">
<path fill-rule="evenodd" clip-rule="evenodd" d="M530.432 617.037C530.432 762.37 412.417 880.183 266.833 880.183C128.714 880.183 15.4011 774.136 4.15112 639.156H352.568V594.917H4.15112C15.4011 459.943 128.714 353.896 266.833 353.896C412.417 353.896 530.432 471.709 530.432 617.037ZM1507.7 832.505C1599.04 832.505 1658.95 783.281 1658.95 709.141C1658.95 640.339 1613.87 607.719 1545.67 596.448L1485.17 586.365C1438.91 578.656 1408.06 558.49 1408.06 514.005C1408.06 468.927 1442.46 434.526 1507.7 434.526C1571.17 434.526 1603.79 466.557 1607.35 512.224H1653.02C1649.46 451.729 1603.19 397.755 1508.3 397.755C1414.58 397.755 1362.98 450.542 1362.98 515.787C1362.98 585.177 1409.84 617.209 1473.9 627.88L1534.99 637.375C1585.99 646.271 1614.46 667.026 1614.46 710.917C1614.46 762.521 1572.35 795.735 1508.3 795.735C1441.87 795.735 1400.35 763.709 1396.79 709.141H1351.72C1355.28 780.313 1409.84 832.505 1507.7 832.505ZM834.344 824.203H668.271V406.651H828.412C898.995 406.651 948.219 448.167 948.219 514.599C948.219 562.641 920.938 594.667 877.047 605.344V607.125C929.24 617.209 961.266 652.792 961.266 708.547C961.266 780.313 908.484 824.203 834.344 824.203ZM822.479 589.922C872.896 589.922 903.74 562.641 903.74 519.938V514.005C903.74 471.302 872.896 444.61 822.479 444.61H712.755V589.922H822.479ZM827.818 786.245C882.979 786.245 916.787 755.995 916.787 709.735V703.802C916.787 655.761 882.386 626.698 827.224 626.698H712.755V786.245H827.818ZM1320.49 824.203H1273.04L1237.45 710.917H1071.38L1035.8 824.203H990.714L1127.73 406.651H1181.7L1320.49 824.203ZM1156.79 452.323H1153.23L1083.24 673.552H1226.18L1156.79 452.323ZM1725.76 824.203V406.651H1993.85V445.203H1770.25V588.74H1976.06V626.698H1770.25V785.651H1993.85V824.203H1725.76Z" fill="#E2E4F5"/>
</g>
<path d="M182.016 272.684V182.059H227.308V272.684H182.016ZM182.016 136.747V46.1423H227.308V136.747H182.016ZM0.766113 317.997V0.829834H182.016V46.1423H46.0786V136.747H182.016V182.059H46.0786V272.684H182.016V317.997H0.766113Z" fill="#E2E4F5"/>
<path d="M317.935 317.997V272.684H453.873V317.997H317.935ZM272.623 272.684V0.829834H317.935V272.684H272.623ZM453.873 272.684V0.829834H499.164V272.684H453.873Z" fill="#E2E4F5"/>
<path d="M544.479 317.997V272.684H589.792V46.1423H544.479V0.829834H680.417V46.1423H635.104V272.684H680.417V317.997H544.479Z" fill="#E2E4F5"/>
<path d="M725.717 317.997V0.829834H771.03V272.684H952.259V317.997H725.717Z" fill="#E2E4F5"/>
<path d="M1088.2 317.997V46.1423H997.574V0.829834H1224.12V46.1423H1133.51V317.997H1088.2Z" fill="#E2E4F5"/>
<path d="M1541.29 317.997V272.684H1677.23V317.997H1541.29ZM1495.98 272.684V46.1423H1541.29V272.684H1495.98ZM1677.23 272.684V46.1423H1722.52V272.684H1677.23ZM1541.29 46.1423V0.829834H1677.23V46.1423H1541.29Z" fill="#E2E4F5"/>
<path d="M1858.46 182.059V136.747H1903.77V182.059H1858.46ZM1767.83 317.997V0.829834H1813.15V91.4548H1858.46V136.747H1813.15V317.997H1767.83ZM1949.08 317.997V227.372H1903.77V182.059H1949.08V0.829834H1994.38V317.997H1949.08Z" fill="#E2E4F5"/>
</svg>
