<svg xmlns="http://www.w3.org/2000/svg" xmlns:xlink="http://www.w3.org/1999/xlink" width="1000" zoomAndPan="magnify" viewBox="0 0 750 749.999995" height="1000" preserveAspectRatio="xMidYMid meet" version="1.2"><defs/><g id="609e66bcc0"><path style=" stroke:none;fill-rule:nonzero;fill:#ffc500;fill-opacity:1;" d="M 750 93 L 750 141 L 729 141 L 729 162 L 705 162 L 705 210 L 681 210 L 681 234 L 657 234 L 657 258 L 633 258 L 633 279 L 609 279 L 609 303 L 588 303 L 588 327 L 564 327 L 564 351 L 540 351 L 540 373.5 L 516 373.5 L 516 399 L 492 399 L 492 421.5 L 471 421.5 L 471 445.5 L 447 445.5 L 447 469.5 L 423 469.5 L 423 493.5 L 399 493.5 L 399 514.5 L 375 514.5 L 375 538.5 L 352.5 538.5 L 352.5 562.5 L 328.5 562.5 L 328.5 586.5 L 304.5 586.5 L 304.5 610.5 L 280.5 610.5 L 280.5 631.5 L 256.5 631.5 L 256.5 655.5 L 235.5 655.5 L 235.5 679.5 L 187.5 679.5 L 187.5 703.5 L 139.5 703.5 L 139.5 727.5 L 70.5 727.5 L 70.5 750 L 0 750 L 0 679.5 L 22.5 679.5 L 22.5 610.5 L 46.5 610.5 L 46.5 562.5 L 70.5 562.5 L 70.5 514.5 L 94.5 514.5 L 94.5 493.5 L 118.5 493.5 L 118.5 469.5 L 139.5 469.5 L 139.5 445.5 L 163.5 445.5 L 163.5 421.5 L 187.5 421.5 L 187.5 399 L 211.5 399 L 211.5 373.5 L 235.5 373.5 L 235.5 351 L 256.5 351 L 256.5 327 L 280.5 327 L 280.5 303 L 304.5 303 L 304.5 279 L 328.5 279 L 328.5 258 L 352.5 258 L 352.5 234 L 375 234 L 375 210 L 399 210 L 399 186 L 423 186 L 423 162 L 447 162 L 447 141 L 471 141 L 471 117 L 492 117 L 492 93 L 516 93 L 516 69 L 540 69 L 540 45 L 588 45 L 588 22.5 L 609 22.5 L 609 0 L 657 0 L 657 22.5 L 681 22.5 L 681 45 L 705 45 L 705 69 L 729 69 L 729 93 Z M 750 93 "/><path style=" stroke:none;fill-rule:nonzero;fill:#dd6557;fill-opacity:1;" d="M 705 69 L 705 117 L 657 117 L 657 93 L 633 93 L 633 69 L 609 69 L 609 22.5 L 657 22.5 L 657 45 L 681 45 L 681 69 Z M 705 69 "/><path style=" stroke:none;fill-rule:nonzero;fill:#c24c4d;fill-opacity:1;" d="M 729 93 L 729 141 L 705 141 L 705 162 L 681 162 L 681 141 L 657 141 L 657 117 L 705 117 L 705 93 Z M 633 93 L 633 117 L 657 117 L 657 93 Z M 609 69 L 609 93 L 633 93 L 633 69 Z M 588 45 L 588 69 L 609 69 L 609 45 Z M 588 45 "/><path style=" stroke:none;fill-rule:nonzero;fill:#dfd6c5;fill-opacity:1;" d="M 681 162 L 681 186 L 633 186 L 633 162 L 609 162 L 609 141 L 588 141 L 588 117 L 564 117 L 564 93 L 540 93 L 540 69 L 588 69 L 588 93 L 609 93 L 609 117 L 633 117 L 633 141 L 657 141 L 657 162 Z M 609 162 L 588 162 L 588 141 L 564 141 L 564 117 L 540 117 L 540 93 L 516 93 L 516 141 L 540 141 L 540 162 L 564 162 L 564 186 L 588 186 L 588 210 L 609 210 L 609 234 L 633 234 L 633 186 L 609 186 Z M 609 162 "/><path style=" stroke:none;fill-rule:nonzero;fill:#c4b5ab;fill-opacity:1;" d="M 681 186 L 681 210 L 657 210 L 657 234 L 633 234 L 633 186 Z M 609 258 L 633 258 L 633 234 L 609 234 Z M 609 162 L 609 186 L 633 186 L 633 162 Z M 588 210 L 588 234 L 609 234 L 609 210 Z M 588 141 L 588 162 L 609 162 L 609 141 Z M 564 186 L 564 210 L 588 210 L 588 186 Z M 564 117 L 564 141 L 588 141 L 588 117 Z M 540 162 L 540 186 L 564 186 L 564 162 Z M 540 93 L 540 117 L 564 117 L 564 93 Z M 516 141 L 516 162 L 540 162 L 540 141 Z M 492 117 L 492 141 L 516 141 L 516 117 Z M 492 117 "/><path style=" stroke:none;fill-rule:nonzero;fill:#d4a200;fill-opacity:1;" d="M 609 258 L 609 279 L 588 279 L 588 258 Z M 564 303 L 588 303 L 588 279 L 564 279 Z M 540 327 L 564 327 L 564 303 L 540 303 Z M 516 351 L 540 351 L 540 327 L 516 327 Z M 492 373.5 L 516 373.5 L 516 351 L 492 351 Z M 471 399 L 492 399 L 492 373.5 L 471 373.5 Z M 447 421.5 L 471 421.5 L 471 399 L 447 399 Z M 423 445.5 L 447 445.5 L 447 421.5 L 423 421.5 Z M 399 469.5 L 423 469.5 L 423 445.5 L 399 445.5 Z M 375 493.5 L 399 493.5 L 399 469.5 L 375 469.5 Z M 352.5 514.5 L 375 514.5 L 375 493.5 L 352.5 493.5 Z M 328.5 538.5 L 352.5 538.5 L 352.5 514.5 L 328.5 514.5 Z M 304.5 562.5 L 328.5 562.5 L 328.5 538.5 L 304.5 538.5 Z M 280.5 586.5 L 304.5 586.5 L 304.5 562.5 L 280.5 562.5 Z M 256.5 610.5 L 280.5 610.5 L 280.5 586.5 L 256.5 586.5 Z M 235.5 631.5 L 256.5 631.5 L 256.5 610.5 L 235.5 610.5 Z M 187.5 631.5 L 187.5 655.5 L 235.5 655.5 L 235.5 631.5 Z M 187.5 631.5 "/><path style=" stroke:none;fill-rule:nonzero;fill:#a68800;fill-opacity:1;" d="M 280.5 445.5 L 256.5 445.5 L 256.5 421.5 L 280.5 421.5 Z M 328.5 373.5 L 304.5 373.5 L 304.5 399 L 328.5 399 Z M 304.5 399 L 280.5 399 L 280.5 421.5 L 304.5 421.5 Z M 187.5 514.5 L 163.5 514.5 L 163.5 538.5 L 187.5 538.5 Z M 352.5 351 L 328.5 351 L 328.5 373.5 L 352.5 373.5 Z M 256.5 445.5 L 235.5 445.5 L 235.5 469.5 L 256.5 469.5 Z M 211.5 493.5 L 187.5 493.5 L 187.5 514.5 L 211.5 514.5 Z M 235.5 469.5 L 211.5 469.5 L 211.5 493.5 L 235.5 493.5 Z M 163.5 538.5 L 139.5 538.5 L 139.5 562.5 L 163.5 562.5 Z M 492 210 L 471 210 L 471 234 L 492 234 Z M 516 186 L 492 186 L 492 210 L 516 210 Z M 118.5 586.5 L 139.5 586.5 L 139.5 562.5 L 118.5 562.5 Z M 399 303 L 375 303 L 375 327 L 399 327 Z M 423 279 L 399 279 L 399 303 L 423 303 Z M 471 234 L 447 234 L 447 258 L 471 258 Z M 447 258 L 423 258 L 423 279 L 447 279 Z M 375 327 L 352.5 327 L 352.5 351 L 375 351 Z M 471 327 L 492 327 L 492 303 L 471 303 Z M 447 351 L 471 351 L 471 327 L 447 327 Z M 423 373.5 L 447 373.5 L 447 351 L 423 351 Z M 375 421.5 L 399 421.5 L 399 399 L 375 399 Z M 399 399 L 423 399 L 423 373.5 L 399 373.5 Z M 492 303 L 516 303 L 516 279 L 492 279 Z M 540 234 L 540 258 L 564 258 L 564 234 Z M 163.5 631.5 L 187.5 631.5 L 187.5 610.5 L 163.5 610.5 Z M 516 279 L 540 279 L 540 258 L 516 258 Z M 211.5 586.5 L 235.5 586.5 L 235.5 562.5 L 211.5 562.5 Z M 235.5 562.5 L 256.5 562.5 L 256.5 538.5 L 235.5 538.5 Z M 256.5 538.5 L 280.5 538.5 L 280.5 514.5 L 256.5 514.5 Z M 187.5 610.5 L 211.5 610.5 L 211.5 586.5 L 187.5 586.5 Z M 280.5 514.5 L 304.5 514.5 L 304.5 493.5 L 280.5 493.5 Z M 328.5 469.5 L 352.5 469.5 L 352.5 445.5 L 328.5 445.5 Z M 304.5 493.5 L 328.5 493.5 L 328.5 469.5 L 304.5 469.5 Z M 352.5 445.5 L 375 445.5 L 375 421.5 L 352.5 421.5 Z M 352.5 445.5 "/><path style=" stroke:none;fill-rule:nonzero;fill:#ffc500;fill-opacity:1;" d="M 588 234 L 588 279 L 564 279 L 564 303 L 540 303 L 540 327 L 516 327 L 516 351 L 492 351 L 492 373.5 L 471 373.5 L 471 399 L 447 399 L 447 421.5 L 423 421.5 L 423 445.5 L 399 445.5 L 399 469.5 L 375 469.5 L 375 493.5 L 352.5 493.5 L 352.5 514.5 L 328.5 514.5 L 328.5 538.5 L 304.5 538.5 L 304.5 562.5 L 280.5 562.5 L 280.5 586.5 L 256.5 586.5 L 256.5 610.5 L 235.5 610.5 L 235.5 631.5 L 211.5 631.5 L 211.5 586.5 L 235.5 586.5 L 235.5 562.5 L 256.5 562.5 L 256.5 538.5 L 280.5 538.5 L 280.5 514.5 L 304.5 514.5 L 304.5 493.5 L 328.5 493.5 L 328.5 469.5 L 352.5 469.5 L 352.5 445.5 L 375 445.5 L 375 421.5 L 399 421.5 L 399 399 L 423 399 L 423 373.5 L 447 373.5 L 447 351 L 471 351 L 471 327 L 492 327 L 492 303 L 516 303 L 516 279 L 540 279 L 540 258 L 564 258 L 564 234 Z M 235.5 562.5 L 235.5 538.5 L 256.5 538.5 L 256.5 514.5 L 280.5 514.5 L 280.5 493.5 L 304.5 493.5 L 304.5 469.5 L 328.5 469.5 L 328.5 445.5 L 352.5 445.5 L 352.5 421.5 L 375 421.5 L 375 399 L 399 399 L 399 373.5 L 423 373.5 L 423 351 L 447 351 L 447 327 L 471 327 L 471 303 L 492 303 L 492 279 L 516 279 L 516 258 L 540 258 L 540 234 L 564 234 L 564 210 L 540 210 L 540 186 L 516 186 L 516 210 L 492 210 L 492 234 L 471 234 L 471 258 L 447 258 L 447 279 L 423 279 L 423 303 L 399 303 L 399 327 L 375 327 L 375 351 L 352.5 351 L 352.5 373.5 L 328.5 373.5 L 328.5 399 L 304.5 399 L 304.5 421.5 L 280.5 421.5 L 280.5 445.5 L 256.5 445.5 L 256.5 469.5 L 235.5 469.5 L 235.5 493.5 L 211.5 493.5 L 211.5 514.5 L 187.5 514.5 L 187.5 538.5 L 163.5 538.5 L 163.5 586.5 L 211.5 586.5 L 211.5 562.5 Z M 187.5 514.5 L 187.5 493.5 L 211.5 493.5 L 211.5 469.5 L 235.5 469.5 L 235.5 445.5 L 256.5 445.5 L 256.5 421.5 L 280.5 421.5 L 280.5 399 L 304.5 399 L 304.5 373.5 L 328.5 373.5 L 328.5 351 L 352.5 351 L 352.5 327 L 375 327 L 375 303 L 399 303 L 399 279 L 423 279 L 423 258 L 447 258 L 447 234 L 471 234 L 471 210 L 492 210 L 492 186 L 516 186 L 516 162 L 471 162 L 471 186 L 447 186 L 447 210 L 423 210 L 423 234 L 399 234 L 399 258 L 375 258 L 375 279 L 352.5 279 L 352.5 303 L 328.5 303 L 328.5 327 L 304.5 327 L 304.5 351 L 280.5 351 L 280.5 373.5 L 256.5 373.5 L 256.5 399 L 235.5 399 L 235.5 421.5 L 211.5 421.5 L 211.5 445.5 L 187.5 445.5 L 187.5 469.5 L 163.5 469.5 L 163.5 493.5 L 139.5 493.5 L 139.5 514.5 L 118.5 514.5 L 118.5 538.5 L 163.5 538.5 L 163.5 514.5 Z M 187.5 514.5 "/><path style=" stroke:none;fill-rule:nonzero;fill:#e2b083;fill-opacity:1;" d="M 187.5 631.5 L 187.5 679.5 L 139.5 679.5 L 139.5 655.5 L 163.5 655.5 L 163.5 631.5 Z M 94.5 679.5 L 94.5 703.5 L 139.5 703.5 L 139.5 679.5 Z M 94.5 679.5 "/><path style=" stroke:none;fill-rule:nonzero;fill:#e0ae00;fill-opacity:1;" d="M 139.5 538.5 L 139.5 562.5 L 94.5 562.5 L 94.5 538.5 Z M 163.5 586.5 L 163.5 562.5 L 139.5 562.5 L 139.5 610.5 L 187.5 610.5 L 187.5 586.5 Z M 187.5 610.5 L 187.5 631.5 L 211.5 631.5 L 211.5 610.5 Z M 187.5 610.5 "/><path style=" stroke:none;fill-rule:nonzero;fill:#ffe218;fill-opacity:1;" d="M 256.5 351 L 280.5 351 L 280.5 373.5 L 256.5 373.5 Z M 235.5 399 L 256.5 399 L 256.5 373.5 L 235.5 373.5 Z M 187.5 445.5 L 211.5 445.5 L 211.5 421.5 L 187.5 421.5 Z M 211.5 421.5 L 235.5 421.5 L 235.5 399 L 211.5 399 Z M 94.5 538.5 L 118.5 538.5 L 118.5 514.5 L 94.5 514.5 Z M 118.5 514.5 L 139.5 514.5 L 139.5 493.5 L 118.5 493.5 Z M 163.5 469.5 L 187.5 469.5 L 187.5 445.5 L 163.5 445.5 Z M 139.5 493.5 L 163.5 493.5 L 163.5 469.5 L 139.5 469.5 Z M 304.5 327 L 328.5 327 L 328.5 303 L 304.5 303 Z M 447 186 L 471 186 L 471 162 L 447 162 Z M 423 210 L 447 210 L 447 186 L 423 186 Z M 471 141 L 471 162 L 492 162 L 492 141 Z M 399 234 L 423 234 L 423 210 L 399 210 Z M 280.5 351 L 304.5 351 L 304.5 327 L 280.5 327 Z M 375 258 L 399 258 L 399 234 L 375 234 Z M 328.5 303 L 352.5 303 L 352.5 279 L 328.5 279 Z M 352.5 279 L 375 279 L 375 258 L 352.5 258 Z M 352.5 279 "/><path style=" stroke:none;fill-rule:nonzero;fill:#ffd3a1;fill-opacity:1;" d="M 163.5 610.5 L 163.5 655.5 L 139.5 655.5 L 139.5 679.5 L 70.5 679.5 L 70.5 655.5 L 46.5 655.5 L 46.5 610.5 L 70.5 610.5 L 70.5 562.5 L 118.5 562.5 L 118.5 586.5 L 139.5 586.5 L 139.5 610.5 Z M 163.5 610.5 "/><path style=" stroke:none;fill-rule:nonzero;fill:#380000;fill-opacity:1;" d="M 94.5 679.5 L 94.5 703.5 L 46.5 703.5 L 46.5 655.5 L 70.5 655.5 L 70.5 679.5 Z M 22.5 727.5 L 46.5 727.5 L 46.5 703.5 L 22.5 703.5 Z M 22.5 727.5 "/><path style=" stroke:none;fill-rule:nonzero;fill:#000000;fill-opacity:1;" d="M 750 93 L 750 141 L 729 141 L 729 93 Z M 705 162 L 729 162 L 729 141 L 705 141 Z M 729 93 L 729 69 L 705 69 L 705 93 Z M 681 185.257812 L 681 210 L 705 210 L 705 162 L 681 162 Z M 705 69 L 705 45 L 681 45 L 681 69 Z M 657 234 L 681 234 L 681 210 L 657 210 Z M 681 162 L 681 141 L 657 141 L 657 162 Z M 681 45 L 681 22.5 L 657 22.5 L 657 45 Z M 633 258 L 657 258 L 657 234 L 633 234 Z M 657 141 L 657 117 L 633 117 L 633 141 Z M 657 22.5 L 657 0 L 609 0 L 609 22.5 Z M 609 279 L 633 279 L 633 258 L 609 258 Z M 633 117 L 633 93 L 609 93 L 609 117 Z M 588 303 L 609 303 L 609 279 L 588 279 Z M 609 258 L 609 234 L 588 234 L 588 258 Z M 609 93 L 609 69 L 588 69 L 588 93 Z M 609 22.5 L 588 22.5 L 588 45 L 609 45 Z M 564 327 L 588 327 L 588 303 L 564 303 Z M 588 234 L 588 210 L 564 210 L 564 234 Z M 588 69 L 588 45 L 540 45 L 540 69 Z M 540 351 L 564 351 L 564 327 L 540 327 Z M 564 210 L 564 186 L 540 186 L 540 210 Z M 516 373.5 L 540 373.5 L 540 351 L 516 351 Z M 540 186 L 540 162 L 516 162 L 516 186 Z M 540 69 L 516 69 L 516 93 L 540 93 Z M 492 399 L 516 399 L 516 373.5 L 492 373.5 Z M 516 162 L 516 141 L 492 141 L 492 162 Z M 516 93 L 492 93 L 492 117 L 516 117 Z M 471 421.5 L 492 421.5 L 492 399 L 471 399 Z M 492 117 L 471 117 L 471 141 L 492 141 Z M 447 445.5 L 471 445.5 L 471 421.5 L 447 421.5 Z M 471 141 L 447 141 L 447 162 L 471 162 Z M 423 469.5 L 447 469.5 L 447 445.5 L 423 445.5 Z M 447 162 L 423 162 L 423 186 L 447 186 Z M 399 493.5 L 423 493.5 L 423 469.5 L 399 469.5 Z M 423 186 L 399 186 L 399 210 L 423 210 Z M 375 514.5 L 399 514.5 L 399 493.5 L 375 493.5 Z M 399 210 L 375 210 L 375 234 L 399 234 Z M 352.5 538.5 L 375 538.5 L 375 514.5 L 352.5 514.5 Z M 375 234 L 352.5 234 L 352.5 258 L 375 258 Z M 328.5 562.5 L 352.5 562.5 L 352.5 538.5 L 328.5 538.5 Z M 352.5 258 L 328.5 258 L 328.5 279 L 352.5 279 Z M 304.5 586.5 L 328.5 586.5 L 328.5 562.5 L 304.5 562.5 Z M 328.5 279 L 304.5 279 L 304.5 303 L 328.5 303 Z M 280.5 610.5 L 304.5 610.5 L 304.5 586.5 L 280.5 586.5 Z M 304.5 303 L 280.5 303 L 280.5 327 L 304.5 327 Z M 256.5 631.5 L 280.5 631.5 L 280.5 610.5 L 256.5 610.5 Z M 280.5 327 L 256.5 327 L 256.5 351 L 280.5 351 Z M 235.5 655.5 L 256.5 655.5 L 256.5 631.5 L 235.5 631.5 Z M 256.5 351 L 235.5 351 L 235.5 373.5 L 256.5 373.5 Z M 235.5 373.5 L 211.5 373.5 L 211.5 399 L 235.5 399 Z M 187.5 655.5 L 187.5 679.5 L 235.5 679.5 L 235.5 655.5 Z M 211.5 399 L 187.5 399 L 187.5 421.5 L 211.5 421.5 Z M 187.5 421.5 L 163.5 421.5 L 163.5 445.5 L 187.5 445.5 Z M 139.5 679.5 L 139.5 703.5 L 187.5 703.5 L 187.5 679.5 Z M 163.5 445.5 L 139.5 445.5 L 139.5 469.5 L 163.5 469.5 Z M 139.5 469.5 L 118.5 469.5 L 118.5 493.5 L 139.5 493.5 Z M 46.5 703.5 L 46.5 727.5 L 22.5 727.5 L 22.5 703.5 L 46.5 703.5 L 46.5 610.5 L 22.5 610.5 L 22.5 679.5 L 0 679.5 L 0 750 L 70.5 750 L 70.5 727.5 L 139.5 727.5 L 139.5 703.5 Z M 118.5 493.5 L 94.5 493.5 L 94.5 514.5 L 118.5 514.5 Z M 94.5 538.019531 L 94.5 514.5 L 70.5 514.5 L 70.5 562.5 L 94.5 562.5 Z M 70.5 584.820312 L 70.5 562.5 L 46.5 562.5 L 46.5 610.5 L 70.5 610.5 Z M 70.5 584.820312 "/><g style="fill:#000000;fill-opacity:1;"><g transform="translate(0.00000265, 747.199976)"><path style="stroke:none" d="M 0 0 L 0 -8 L 8 -8 L 8 0 Z M 0 0 "/></g></g></g></svg>