<?xml version="1.0" encoding="UTF-8"?>
<svg id="Layer_1" xmlns="http://www.w3.org/2000/svg" viewBox="0 0 600 600">
  <defs>
    <style>
      .cls-1 {
        fill: #29abe2;
      }

      .cls-2 {
        fill: #39b54a;
      }

      .cls-3 {
        fill: #8cc63f;
      }

      .cls-4 {
        fill: #73c7e5;
      }

      .cls-5 {
        fill: #009245;
      }
    </style>
  </defs>
  <g>
    <rect class="cls-1" x="395.44" y="437.88" width="17.35" height="34.71"/>
    <rect class="cls-1" x="378.09" y="472.59" width="17.35" height="34.71"/>
    <rect class="cls-1" x="360.74" y="507.29" width="17.35" height="17.35"/>
    <rect class="cls-1" x="360.74" y="437.88" width="17.35" height="34.71"/>
    <rect class="cls-1" x="343.38" y="472.59" width="17.35" height="34.71"/>
    <rect class="cls-1" x="326.03" y="507.29" width="17.35" height="17.35"/>
    <rect class="cls-1" x="326.03" y="437.88" width="17.35" height="34.71"/>
    <rect class="cls-1" x="308.68" y="472.59" width="17.35" height="34.71"/>
    <rect class="cls-1" x="291.32" y="507.29" width="17.35" height="17.35"/>
    <rect class="cls-1" x="291.32" y="437.88" width="17.35" height="34.71"/>
    <rect class="cls-1" x="273.97" y="472.59" width="17.35" height="34.71"/>
    <rect class="cls-1" x="256.62" y="507.29" width="17.35" height="17.35"/>
    <rect class="cls-1" x="256.62" y="437.88" width="17.35" height="34.71"/>
    <rect class="cls-1" x="239.26" y="472.59" width="17.35" height="34.71"/>
    <rect class="cls-1" x="221.91" y="507.29" width="17.35" height="17.35"/>
    <rect class="cls-1" x="221.91" y="437.88" width="17.35" height="34.71"/>
    <rect class="cls-1" x="204.56" y="472.59" width="17.35" height="34.71"/>
    <rect class="cls-1" x="187.21" y="437.88" width="17.35" height="34.71"/>
  </g>
  <g>
    <path class="cls-4" d="M152.5,420.53v69.41h17.35v17.35h17.35v17.35h17.35v17.35h190.88v-17.35h17.35v-17.35h17.35v-17.35h17.35v-69.41H152.5ZM378.09,507.29v17.35h-17.35v-17.35h-17.35v17.35h-17.35v-17.35h-17.35v17.35h-17.35v-17.35h-17.35v17.35h-17.35v-17.35h-17.35v17.35h-17.35v-17.35h-17.35v-34.71h-17.35v-34.71h17.35v34.71h17.35v-34.71h17.35v34.71h17.35v-34.71h17.35v34.71h17.35v-34.71h17.35v34.71h17.35v-34.71h17.35v34.71h17.35v-34.71h17.35v34.71h17.35v-34.71h17.35v34.71h-17.35v34.71h-17.35Z"/>
    <rect class="cls-4" x="360.74" y="472.59" width="17.35" height="34.71"/>
    <rect class="cls-4" x="326.03" y="472.59" width="17.35" height="34.71"/>
    <rect class="cls-4" x="291.32" y="472.59" width="17.35" height="34.71"/>
    <rect class="cls-4" x="256.62" y="472.59" width="17.35" height="34.71"/>
    <rect class="cls-4" x="221.91" y="472.59" width="17.35" height="34.71"/>
  </g>
  <rect class="cls-5" x="430.15" y="333.76" width="17.35" height="17.35"/>
  <rect class="cls-5" x="430.15" y="229.65" width="17.35" height="17.35"/>
  <rect class="cls-5" x="412.79" y="333.76" width="17.35" height="17.35"/>
  <rect class="cls-5" x="412.79" y="229.65" width="17.35" height="17.35"/>
  <rect class="cls-5" x="412.79" y="125.53" width="17.35" height="17.35"/>
  <rect class="cls-5" x="395.44" y="368.47" width="17.35" height="17.35"/>
  <rect class="cls-5" x="395.44" y="351.12" width="17.35" height="17.35"/>
  <rect class="cls-3" x="395.44" y="333.76" width="17.35" height="17.35"/>
  <rect class="cls-5" x="395.44" y="316.41" width="17.35" height="17.35"/>
  <rect class="cls-5" x="395.44" y="247" width="17.35" height="17.35"/>
  <rect class="cls-3" x="395.44" y="229.65" width="17.35" height="17.35"/>
  <rect class="cls-5" x="395.44" y="212.29" width="17.35" height="17.35"/>
  <rect class="cls-5" x="395.44" y="125.53" width="17.35" height="17.35"/>
  <rect class="cls-5" x="378.09" y="385.82" width="17.35" height="17.35"/>
  <rect class="cls-2" x="378.09" y="368.47" width="17.35" height="17.35"/>
  <rect class="cls-2" x="378.09" y="351.12" width="17.35" height="17.35"/>
  <rect class="cls-2" x="378.09" y="333.76" width="17.35" height="17.35"/>
  <rect class="cls-3" x="378.09" y="316.41" width="17.35" height="17.35"/>
  <rect class="cls-5" x="378.09" y="299.06" width="17.35" height="17.35"/>
  <rect class="cls-5" x="378.09" y="281.71" width="17.35" height="17.35"/>
  <rect class="cls-5" x="378.09" y="264.35" width="17.35" height="17.35"/>
  <rect class="cls-2" x="378.09" y="247" width="17.35" height="17.35"/>
  <rect class="cls-2" x="378.09" y="229.65" width="17.35" height="17.35"/>
  <rect class="cls-3" x="378.09" y="212.29" width="17.35" height="17.35"/>
  <rect class="cls-5" x="378.09" y="160.24" width="17.35" height="17.35"/>
  <rect class="cls-5" x="378.09" y="142.88" width="17.35" height="17.35"/>
  <rect class="cls-3" x="378.09" y="125.53" width="17.35" height="17.35"/>
  <rect class="cls-5" x="378.09" y="108.18" width="17.35" height="17.35"/>
  <rect class="cls-5" x="360.74" y="403.18" width="17.35" height="17.35"/>
  <rect class="cls-2" x="360.74" y="385.82" width="17.35" height="17.35"/>
  <rect class="cls-2" x="360.74" y="368.47" width="17.35" height="17.35"/>
  <rect class="cls-2" x="360.74" y="351.12" width="17.35" height="17.35"/>
  <rect class="cls-3" x="360.74" y="333.76" width="17.35" height="17.35"/>
  <rect class="cls-5" x="360.74" y="316.41" width="17.35" height="17.35"/>
  <rect class="cls-2" x="360.74" y="299.06" width="17.35" height="17.35"/>
  <rect class="cls-2" x="360.74" y="281.71" width="17.35" height="17.35"/>
  <rect class="cls-2" x="360.74" y="264.35" width="17.35" height="17.35"/>
  <rect class="cls-2" x="360.74" y="247" width="17.35" height="17.35"/>
  <rect class="cls-3" x="360.74" y="229.65" width="17.35" height="17.35"/>
  <rect class="cls-5" x="360.74" y="212.29" width="17.35" height="17.35"/>
  <rect class="cls-5" x="360.74" y="194.94" width="17.35" height="17.35"/>
  <rect class="cls-5" x="360.74" y="177.59" width="17.35" height="17.35"/>
  <rect class="cls-2" x="360.74" y="160.24" width="17.35" height="17.35"/>
  <rect class="cls-2" x="360.74" y="142.88" width="17.35" height="17.35"/>
  <rect class="cls-3" x="360.74" y="125.53" width="17.35" height="17.35"/>
  <rect class="cls-5" x="360.74" y="108.18" width="17.35" height="17.35"/>
  <rect class="cls-5" x="343.38" y="403.18" width="17.35" height="17.35"/>
  <rect class="cls-2" x="343.38" y="385.82" width="17.35" height="17.35"/>
  <rect class="cls-2" x="343.38" y="368.47" width="17.35" height="17.35"/>
  <rect class="cls-3" x="343.38" y="351.12" width="17.35" height="17.35"/>
  <rect class="cls-5" x="343.38" y="333.76" width="17.35" height="17.35"/>
  <rect class="cls-2" x="343.38" y="316.41" width="17.35" height="17.35"/>
  <rect class="cls-2" x="343.38" y="299.06" width="17.35" height="17.35"/>
  <rect class="cls-2" x="343.38" y="281.71" width="17.35" height="17.35"/>
  <rect class="cls-2" x="343.38" y="264.35" width="17.35" height="17.35"/>
  <rect class="cls-3" x="343.38" y="247" width="17.35" height="17.35"/>
  <rect class="cls-5" x="343.38" y="229.65" width="17.35" height="17.35"/>
  <rect class="cls-2" x="343.38" y="212.29" width="17.35" height="17.35"/>
  <rect class="cls-2" x="343.38" y="194.94" width="17.35" height="17.35"/>
  <rect class="cls-2" x="343.38" y="177.59" width="17.35" height="17.35"/>
  <rect class="cls-2" x="343.38" y="160.24" width="17.35" height="17.35"/>
  <rect class="cls-3" x="343.38" y="142.88" width="17.35" height="17.35"/>
  <rect class="cls-5" x="343.38" y="125.53" width="17.35" height="17.35"/>
  <rect class="cls-2" x="326.03" y="403.18" width="17.35" height="17.35"/>
  <rect class="cls-2" x="326.03" y="385.82" width="17.35" height="17.35"/>
  <rect class="cls-3" x="326.03" y="368.47" width="17.35" height="17.35"/>
  <rect class="cls-5" x="326.03" y="351.12" width="17.35" height="17.35"/>
  <rect class="cls-5" x="326.03" y="333.76" width="17.35" height="17.35"/>
  <rect class="cls-5" x="326.03" y="316.41" width="17.35" height="17.35"/>
  <rect class="cls-2" x="326.03" y="299.06" width="17.35" height="17.35"/>
  <rect class="cls-2" x="326.03" y="281.71" width="17.35" height="17.35"/>
  <rect class="cls-3" x="326.03" y="264.35" width="17.35" height="17.35"/>
  <rect class="cls-5" x="326.03" y="247" width="17.35" height="17.35"/>
  <rect class="cls-5" x="326.03" y="229.65" width="17.35" height="17.35"/>
  <rect class="cls-5" x="326.03" y="212.29" width="17.35" height="17.35"/>
  <rect class="cls-2" x="326.03" y="194.94" width="17.35" height="17.35"/>
  <rect class="cls-2" x="326.03" y="177.59" width="17.35" height="17.35"/>
  <rect class="cls-3" x="326.03" y="160.24" width="17.35" height="17.35"/>
  <rect class="cls-5" x="326.03" y="142.88" width="17.35" height="17.35"/>
  <rect class="cls-5" x="326.03" y="125.53" width="17.35" height="17.35"/>
  <rect class="cls-5" x="326.03" y="108.18" width="17.35" height="17.35"/>
  <rect class="cls-5" x="326.03" y="90.82" width="17.35" height="17.35"/>
  <rect class="cls-5" x="326.03" y="73.47" width="17.35" height="17.35"/>
  <rect class="cls-2" x="308.68" y="403.18" width="17.35" height="17.35"/>
  <rect class="cls-2" x="308.68" y="385.82" width="17.35" height="17.35"/>
  <rect class="cls-5" x="308.68" y="368.47" width="17.35" height="17.35"/>
  <rect class="cls-5" x="308.68" y="351.12" width="17.35" height="17.35"/>
  <rect class="cls-5" x="308.68" y="333.76" width="17.35" height="17.35"/>
  <rect class="cls-5" x="308.68" y="316.41" width="17.35" height="17.35"/>
  <rect class="cls-5" x="308.68" y="299.06" width="17.35" height="17.35"/>
  <rect class="cls-3" x="308.68" y="281.71" width="17.35" height="17.35"/>
  <rect class="cls-5" x="308.68" y="264.35" width="17.35" height="17.35"/>
  <rect class="cls-5" x="308.68" y="247" width="17.35" height="17.35"/>
  <rect class="cls-5" x="308.68" y="229.65" width="17.35" height="17.35"/>
  <rect class="cls-5" x="308.68" y="212.29" width="17.35" height="17.35"/>
  <rect class="cls-5" x="308.68" y="194.94" width="17.35" height="17.35"/>
  <rect class="cls-3" x="308.68" y="177.59" width="17.35" height="17.35"/>
  <rect class="cls-5" x="308.68" y="160.24" width="17.35" height="17.35"/>
  <rect class="cls-5" x="308.68" y="142.88" width="17.35" height="17.35"/>
  <rect class="cls-2" x="308.68" y="125.53" width="17.35" height="17.35"/>
  <rect class="cls-2" x="308.68" y="108.18" width="17.35" height="17.35"/>
  <rect class="cls-2" x="308.68" y="90.82" width="17.35" height="17.35"/>
  <rect class="cls-3" x="308.68" y="73.47" width="17.35" height="17.35"/>
  <rect class="cls-5" x="308.68" y="56.12" width="17.35" height="17.35"/>
  <rect class="cls-2" x="291.32" y="403.18" width="17.35" height="17.35"/>
  <rect class="cls-5" x="291.32" y="385.82" width="17.35" height="17.35"/>
  <rect class="cls-5" x="291.32" y="368.47" width="17.35" height="17.35"/>
  <rect class="cls-5" x="291.32" y="351.12" width="17.35" height="17.35"/>
  <rect class="cls-5" x="291.32" y="333.76" width="17.35" height="17.35"/>
  <rect class="cls-5" x="291.32" y="316.41" width="17.35" height="17.35"/>
  <rect class="cls-5" x="291.32" y="299.06" width="17.35" height="17.35"/>
  <rect class="cls-5" x="291.32" y="281.71" width="17.35" height="17.35"/>
  <rect class="cls-5" x="291.32" y="264.35" width="17.35" height="17.35"/>
  <rect class="cls-5" x="291.32" y="247" width="17.35" height="17.35"/>
  <rect class="cls-5" x="291.32" y="229.65" width="17.35" height="17.35"/>
  <rect class="cls-5" x="291.32" y="212.29" width="17.35" height="17.35"/>
  <rect class="cls-5" x="291.32" y="194.94" width="17.35" height="17.35"/>
  <rect class="cls-5" x="291.32" y="177.59" width="17.35" height="17.35"/>
  <rect class="cls-5" x="291.32" y="160.24" width="17.35" height="17.35"/>
  <rect class="cls-2" x="291.32" y="142.88" width="17.35" height="17.35"/>
  <rect class="cls-2" x="291.32" y="125.53" width="17.35" height="17.35"/>
  <rect class="cls-2" x="291.32" y="108.18" width="17.35" height="17.35"/>
  <rect class="cls-2" x="291.32" y="90.82" width="17.35" height="17.35"/>
  <rect class="cls-2" x="291.32" y="73.47" width="17.35" height="17.35"/>
  <rect class="cls-3" x="291.32" y="56.12" width="17.35" height="17.35"/>
  <rect class="cls-5" x="291.32" y="38.76" width="17.35" height="17.35"/>
  <rect class="cls-2" x="273.97" y="403.18" width="17.35" height="17.35"/>
  <rect class="cls-2" x="273.97" y="385.82" width="17.35" height="17.35"/>
  <rect class="cls-5" x="273.97" y="368.47" width="17.35" height="17.35"/>
  <rect class="cls-5" x="273.97" y="351.12" width="17.35" height="17.35"/>
  <rect class="cls-5" x="273.97" y="333.76" width="17.35" height="17.35"/>
  <rect class="cls-5" x="273.97" y="316.41" width="17.35" height="17.35"/>
  <rect class="cls-5" x="273.97" y="299.06" width="17.35" height="17.35"/>
  <rect class="cls-3" x="273.97" y="281.71" width="17.35" height="17.35"/>
  <rect class="cls-5" x="273.97" y="264.35" width="17.35" height="17.35"/>
  <rect class="cls-5" x="273.97" y="247" width="17.35" height="17.35"/>
  <rect class="cls-5" x="273.97" y="229.65" width="17.35" height="17.35"/>
  <rect class="cls-5" x="273.97" y="212.29" width="17.35" height="17.35"/>
  <rect class="cls-5" x="273.97" y="194.94" width="17.35" height="17.35"/>
  <rect class="cls-3" x="273.97" y="177.59" width="17.35" height="17.35"/>
  <rect class="cls-5" x="273.97" y="160.24" width="17.35" height="17.35"/>
  <rect class="cls-5" x="273.97" y="142.88" width="17.35" height="17.35"/>
  <rect class="cls-2" x="273.97" y="125.53" width="17.35" height="17.35"/>
  <rect class="cls-2" x="273.97" y="108.18" width="17.35" height="17.35"/>
  <rect class="cls-2" x="273.97" y="90.82" width="17.35" height="17.35"/>
  <rect class="cls-3" x="273.97" y="73.47" width="17.35" height="17.35"/>
  <rect class="cls-5" x="273.97" y="56.12" width="17.35" height="17.35"/>
  <rect class="cls-2" x="256.62" y="403.18" width="17.35" height="17.35"/>
  <rect class="cls-2" x="256.62" y="385.82" width="17.35" height="17.35"/>
  <rect class="cls-3" x="256.62" y="368.47" width="17.35" height="17.35"/>
  <rect class="cls-5" x="256.62" y="351.12" width="17.35" height="17.35"/>
  <rect class="cls-5" x="256.62" y="333.76" width="17.35" height="17.35"/>
  <rect class="cls-5" x="256.62" y="316.41" width="17.35" height="17.35"/>
  <rect class="cls-2" x="256.62" y="299.06" width="17.35" height="17.35"/>
  <rect class="cls-2" x="256.62" y="281.71" width="17.35" height="17.35"/>
  <rect class="cls-3" x="256.62" y="264.35" width="17.35" height="17.35"/>
  <rect class="cls-5" x="256.62" y="247" width="17.35" height="17.35"/>
  <rect class="cls-5" x="256.62" y="229.65" width="17.35" height="17.35"/>
  <rect class="cls-5" x="256.62" y="212.29" width="17.35" height="17.35"/>
  <rect class="cls-2" x="256.62" y="194.94" width="17.35" height="17.35"/>
  <rect class="cls-2" x="256.62" y="177.59" width="17.35" height="17.35"/>
  <rect class="cls-3" x="256.62" y="160.24" width="17.35" height="17.35"/>
  <rect class="cls-5" x="256.62" y="142.88" width="17.35" height="17.35"/>
  <rect class="cls-5" x="256.62" y="125.53" width="17.35" height="17.35"/>
  <rect class="cls-5" x="256.62" y="108.18" width="17.35" height="17.35"/>
  <rect class="cls-5" x="256.62" y="90.82" width="17.35" height="17.35"/>
  <rect class="cls-5" x="256.62" y="73.47" width="17.35" height="17.35"/>
  <rect class="cls-5" x="239.26" y="403.18" width="17.35" height="17.35"/>
  <rect class="cls-2" x="239.26" y="385.82" width="17.35" height="17.35"/>
  <rect class="cls-2" x="239.26" y="368.47" width="17.35" height="17.35"/>
  <rect class="cls-3" x="239.26" y="351.12" width="17.35" height="17.35"/>
  <rect class="cls-5" x="239.26" y="333.76" width="17.35" height="17.35"/>
  <rect class="cls-2" x="239.26" y="316.41" width="17.35" height="17.35"/>
  <rect class="cls-2" x="239.26" y="299.06" width="17.35" height="17.35"/>
  <rect class="cls-2" x="239.26" y="281.71" width="17.35" height="17.35"/>
  <rect class="cls-2" x="239.26" y="264.35" width="17.35" height="17.35"/>
  <rect class="cls-3" x="239.26" y="247" width="17.35" height="17.35"/>
  <rect class="cls-5" x="239.26" y="229.65" width="17.35" height="17.35"/>
  <rect class="cls-2" x="239.26" y="212.29" width="17.35" height="17.35"/>
  <rect class="cls-2" x="239.26" y="194.94" width="17.35" height="17.35"/>
  <rect class="cls-2" x="239.26" y="177.59" width="17.35" height="17.35"/>
  <rect class="cls-2" x="239.26" y="160.24" width="17.35" height="17.35"/>
  <rect class="cls-3" x="239.26" y="142.88" width="17.35" height="17.35"/>
  <rect class="cls-5" x="239.26" y="125.53" width="17.35" height="17.35"/>
  <rect class="cls-5" x="221.91" y="403.18" width="17.35" height="17.35"/>
  <rect class="cls-2" x="221.91" y="385.82" width="17.35" height="17.35"/>
  <rect class="cls-2" x="221.91" y="368.47" width="17.35" height="17.35"/>
  <rect class="cls-2" x="221.91" y="351.12" width="17.35" height="17.35"/>
  <rect class="cls-3" x="221.91" y="333.76" width="17.35" height="17.35"/>
  <rect class="cls-5" x="221.91" y="316.41" width="17.35" height="17.35"/>
  <rect class="cls-2" x="221.91" y="299.06" width="17.35" height="17.35"/>
  <rect class="cls-2" x="221.91" y="281.71" width="17.35" height="17.35"/>
  <rect class="cls-2" x="221.91" y="264.35" width="17.35" height="17.35"/>
  <rect class="cls-2" x="221.91" y="247" width="17.35" height="17.35"/>
  <rect class="cls-3" x="221.91" y="229.65" width="17.35" height="17.35"/>
  <rect class="cls-5" x="221.91" y="212.29" width="17.35" height="17.35"/>
  <rect class="cls-5" x="221.91" y="194.94" width="17.35" height="17.35"/>
  <rect class="cls-5" x="221.91" y="177.59" width="17.35" height="17.35"/>
  <rect class="cls-2" x="221.91" y="160.24" width="17.35" height="17.35"/>
  <rect class="cls-2" x="221.91" y="142.88" width="17.35" height="17.35"/>
  <rect class="cls-3" x="221.91" y="125.53" width="17.35" height="17.35"/>
  <rect class="cls-5" x="221.91" y="108.18" width="17.35" height="17.35"/>
  <rect class="cls-5" x="204.56" y="385.82" width="17.35" height="17.35"/>
  <rect class="cls-2" x="204.56" y="368.47" width="17.35" height="17.35"/>
  <rect class="cls-2" x="204.56" y="351.12" width="17.35" height="17.35"/>
  <rect class="cls-2" x="204.56" y="333.76" width="17.35" height="17.35"/>
  <rect class="cls-3" x="204.56" y="316.41" width="17.35" height="17.35"/>
  <rect class="cls-5" x="204.56" y="299.06" width="17.35" height="17.35"/>
  <rect class="cls-5" x="204.56" y="281.71" width="17.35" height="17.35"/>
  <rect class="cls-5" x="204.56" y="264.35" width="17.35" height="17.35"/>
  <rect class="cls-2" x="204.56" y="247" width="17.35" height="17.35"/>
  <rect class="cls-2" x="204.56" y="229.65" width="17.35" height="17.35"/>
  <rect class="cls-3" x="204.56" y="212.29" width="17.35" height="17.35"/>
  <rect class="cls-5" x="204.56" y="160.24" width="17.35" height="17.35"/>
  <rect class="cls-5" x="204.56" y="142.88" width="17.35" height="17.35"/>
  <rect class="cls-3" x="204.56" y="125.53" width="17.35" height="17.35"/>
  <rect class="cls-5" x="204.56" y="108.18" width="17.35" height="17.35"/>
  <rect class="cls-5" x="187.21" y="368.47" width="17.35" height="17.35"/>
  <rect class="cls-5" x="187.21" y="351.12" width="17.35" height="17.35"/>
  <rect class="cls-3" x="187.21" y="333.76" width="17.35" height="17.35"/>
  <rect class="cls-5" x="187.21" y="316.41" width="17.35" height="17.35"/>
  <rect class="cls-5" x="187.21" y="247" width="17.35" height="17.35"/>
  <rect class="cls-3" x="187.21" y="229.65" width="17.35" height="17.35"/>
  <rect class="cls-5" x="187.21" y="212.29" width="17.35" height="17.35"/>
  <rect class="cls-5" x="187.21" y="125.53" width="17.35" height="17.35"/>
  <rect class="cls-5" x="169.85" y="333.76" width="17.35" height="17.35"/>
  <rect class="cls-5" x="169.85" y="229.65" width="17.35" height="17.35"/>
  <rect class="cls-5" x="169.85" y="125.53" width="17.35" height="17.35"/>
  <rect class="cls-5" x="152.5" y="333.76" width="17.35" height="17.35"/>
  <rect class="cls-5" x="152.5" y="229.65" width="17.35" height="17.35"/>
</svg>