<svg width="600" height="600" viewBox="0 0 600 600" fill="none" xmlns="http://www.w3.org/2000/svg">
<rect x="310" y="402" width="20" height="20" fill="#3E5E13"/>
<rect x="290" y="402" width="20" height="20" fill="#A0B92A"/>
<rect x="250" y="402" width="40" height="20" fill="#334C0A"/>
<rect x="210" y="402" width="40" height="20" fill="#5F710D"/>
<rect x="350" y="402" width="40" height="20" fill="#5F710D"/>
<rect x="330" y="402" width="20" height="20" fill="#334C0A"/>
<rect x="230" y="382" width="20" height="20" fill="#334C0A"/>
<rect x="250" y="382" width="20" height="20" fill="#415C15"/>
<rect x="270" y="382" width="20" height="20" fill="#A0B92A"/>
<rect x="330" y="382" width="20" height="20" fill="#3E5E13"/>
<rect x="350" y="382" width="20" height="20" fill="#334C0A"/>
<rect x="290" y="382" width="40" height="20" fill="#B2CA34"/>
<rect x="390" y="382" width="40" height="20" fill="#5F710D"/>
<rect x="190" y="382" width="20" height="20" fill="#415C15"/>
<rect x="210" y="362" width="20" height="20" fill="#334C0A"/>
<rect x="230" y="362" width="20" height="20" fill="#415C15"/>
<rect x="250" y="362" width="20" height="20" fill="#A0B92A"/>
<rect x="270" y="362" width="20" height="20" fill="#B2CA34"/>
<rect x="290" y="362" width="40" height="20" fill="#5F710D"/>
<rect x="350" y="362" width="20" height="20" fill="#3E5E13"/>
<rect x="370" y="362" width="20" height="20" fill="#334C0A"/>
<rect x="150" y="362" width="40" height="20" fill="#5F710D"/>
<rect x="410" y="362" width="20" height="20" fill="#334C0A"/>
<rect x="190" y="342" width="20" height="20" fill="#334C0A"/>
<rect x="210" y="342" width="20" height="20" fill="#415C15"/>
<rect x="370" y="342" width="20" height="20" fill="#3E5E13"/>
<rect x="250" y="322" width="20" height="40" fill="#B2CA34"/>
<rect x="270" y="342" width="40" height="20" fill="#334C0A"/>
<rect x="390" y="322" width="20" height="40" fill="#334C0A"/>
<rect x="330" y="322" width="20" height="40" fill="#5F710D"/>
<rect x="170" y="342" width="20" height="20" fill="#334C0A"/>
<rect x="430" y="342" width="20" height="20" fill="#3E5E13"/>
<rect x="230" y="322" width="20" height="20" fill="#A0B92A"/>
<rect x="290" y="322" width="20" height="20" fill="#3E5E13"/>
<rect x="430" y="322" width="40" height="20" fill="#5F710D"/>
<rect x="190" y="322" width="20" height="20" fill="#415C15"/>
<rect x="270" y="322" width="20" height="20" fill="#334C0A"/>
<rect x="310" y="302" width="20" height="40" fill="#A0B92A"/>
<rect x="150" y="322" width="20" height="20" fill="#415C15"/>
<rect x="350" y="322" width="20" height="20" fill="#A0B92A"/>
<rect x="350" y="302" width="20" height="20" fill="#5F710D"/>
<rect x="270" y="282" width="20" height="40" fill="#3E5E13"/>
<rect x="410" y="302" width="20" height="20" fill="#334C0A"/>
<rect x="170" y="302" width="20" height="20" fill="#334C0A"/>
<rect x="210" y="302" width="20" height="20" fill="#5F710D"/>
<rect x="190" y="302" width="20" height="20" fill="#415C15"/>
<rect x="390" y="302" width="20" height="20" fill="#3E5E13"/>
<rect x="450" y="302" width="20" height="20" fill="#3E5E13"/>
<rect x="290" y="302" width="20" height="20" fill="#B2CA34"/>
<rect x="230" y="282" width="20" height="40" fill="#B2CA34"/>
<rect x="250" y="282" width="20" height="20" fill="#334C0A"/>
<rect x="370" y="262" width="20" height="40" fill="#5F710D"/>
<rect x="330" y="282" width="20" height="20" fill="#5F710D"/>
<rect x="150" y="282" width="20" height="20" fill="#334C0A"/>
<rect x="170" y="282" width="20" height="20" fill="#415C15"/>
<rect x="210" y="282" width="20" height="20" fill="#A0B92A"/>
<rect x="290" y="282" width="20" height="20" fill="#5F710D"/>
<rect x="410" y="282" width="40" height="20" fill="#3E5E13"/>
<rect x="310" y="262" width="20" height="40" fill="#B2CA34"/>
<rect x="330" y="242" width="20" height="40" fill="#A0B92A"/>
<rect x="270" y="262" width="20" height="20" fill="#334C0A"/>
<rect x="390" y="262" width="20" height="20" fill="#3E5E13"/>
<rect x="190" y="262" width="20" height="20" fill="#A0B92A"/>
<rect x="250" y="242" width="20" height="40" fill="#3E5E13"/>
<rect x="210" y="262" width="20" height="20" fill="#B2CA34"/>
<rect x="450" y="262" width="20" height="20" fill="#5F710D"/>
<rect x="290" y="242" width="20" height="20" fill="#334C0A"/>
<rect x="390" y="242" width="40" height="20" fill="#5F710D"/>
<rect x="190" y="242" width="20" height="20" fill="#A0B92A"/>
<rect x="350" y="242" width="20" height="20" fill="#B2CA34"/>
<rect x="150" y="242" width="40" height="20" fill="#B2CA34"/>
<rect x="230" y="242" width="20" height="20" fill="#5F710D"/>
<rect x="330" y="222" width="20" height="20" fill="#B2CA34"/>
<rect x="150" y="222" width="20" height="20" fill="#A0B92A"/>
<rect x="250" y="222" width="20" height="20" fill="#A0B92A"/>
<rect x="370" y="222" width="20" height="20" fill="#A0B92A"/>
<rect x="390" y="222" width="20" height="20" fill="#3E5E13"/>
<rect x="190" y="222" width="20" height="20" fill="#5F710D"/>
<rect x="290" y="202" width="20" height="40" fill="#334C0A"/>
<rect x="130" y="222" width="20" height="20" fill="#A0B92A"/>
<rect x="430" y="222" width="20" height="20" fill="#3E5E13"/>
<rect x="210" y="202" width="20" height="40" fill="#5F710D"/>
<rect x="310" y="202" width="20" height="20" fill="#3E5E13"/>
<rect x="350" y="202" width="20" height="20" fill="#B2CA34"/>
<rect x="230" y="202" width="20" height="20" fill="#A0B92A"/>
<rect x="270" y="182" width="20" height="40" fill="#5F710D"/>
<rect x="410" y="202" width="20" height="20" fill="#3E5E13"/>
<rect x="310" y="182" width="20" height="20" fill="#5F710D"/>
<rect x="350" y="182" width="40" height="20" fill="#A0B92A"/>
<rect x="190" y="182" width="40" height="20" fill="#A0B92A"/>
<rect x="250" y="182" width="20" height="20" fill="#A0B92A"/>
<rect x="170" y="202" width="20" height="20" fill="#3E5E13"/>
<rect x="150" y="182" width="20" height="20" fill="#5F710D"/>
<rect x="330" y="162" width="20" height="20" fill="#B2CA34"/>
<rect x="450" y="202" width="20" height="20" fill="#B2CA34"/>
<rect x="410" y="182" width="40" height="20" fill="#5F710D"/>
<rect x="350" y="162" width="20" height="20" fill="#5F710D"/>
<rect x="250" y="162" width="20" height="20" fill="#5F710D"/>
<rect x="290" y="162" width="20" height="20" fill="#3E5E13"/>
<rect x="390" y="162" width="20" height="20" fill="#B2CA34"/>
<rect x="130" y="162" width="20" height="20" fill="#A0B92A"/>
<rect x="170" y="162" width="40" height="20" fill="#B2CA34"/>
<rect x="330" y="142" width="20" height="20" fill="#B2CA34"/>
<rect x="410" y="142" width="20" height="20" fill="#B2CA34"/>
<rect x="370" y="142" width="20" height="20" fill="#3E5E13"/>
<rect x="230" y="142" width="20" height="20" fill="#5F710D"/>
<rect x="270" y="142" width="20" height="20" fill="#3E5E13"/>
<rect x="170" y="142" width="20" height="20" fill="#5F710D"/>
<rect x="216" y="542" width="15" height="168" transform="rotate(-90 216 542)" fill="#CE9F69"/>
<rect x="156" y="422" width="45" height="60" fill="#DFB384"/>
<rect x="215" y="422" width="140" height="60" fill="#FDDFBD"/>
<rect x="429" y="422" width="15" height="60" fill="#CE9F69"/>
<rect x="171" y="482" width="30" height="15" fill="#965E13"/>
<rect x="201" y="482" width="30" height="30" fill="#B26F16"/>
<rect x="414" y="422" width="15" height="60" fill="#CE9F69"/>
<rect x="414" y="482" width="15" height="15" fill="#965E13"/>
<rect x="384" y="422" width="30" height="60" fill="#DFB384"/>
<rect x="354" y="422" width="30" height="60" fill="#F1C699"/>
<rect x="324" y="452" width="30" height="30" fill="#F1C699"/>
<rect x="186" y="497" width="15" height="15" fill="#965E13"/>
<rect x="290" y="482" width="95" height="30" fill="#B26F16"/>
<rect x="201" y="422" width="30" height="60" fill="#F1C699"/>
<rect x="201" y="512" width="184" height="15" fill="#DFB384"/>
<rect x="384" y="512" width="15" height="15" fill="#CE9F69"/>
<rect x="231" y="482" width="60" height="30" fill="#D18219"/>
<rect x="384" y="482" width="30" height="30" fill="#965E13"/>
</svg>
