<?xml version="1.0" encoding="UTF-8"?>
<svg id="Layer_1" xmlns="http://www.w3.org/2000/svg" viewBox="0 0 600 600">
  <defs>
    <style>
      .cls-1 {
        fill: #39b54a;
      }

      .cls-2 {
        fill: #8cc63f;
      }

      .cls-3 {
        fill: #c69c6d;
      }

      .cls-4 {
        fill: #009245;
      }

      .cls-5 {
        fill: #fcee21;
      }

      .cls-6 {
        fill: #ff7bac;
      }

      .cls-7 {
        fill: #8c6239;
      }
    </style>
  </defs>
  <rect class="cls-4" x="378.1" y="316.37" width="17.36" height="17.36"/>
  <rect class="cls-1" x="378.1" y="299.02" width="17.36" height="17.36"/>
  <rect class="cls-2" x="378.1" y="281.66" width="17.36" height="17.36"/>
  <rect class="cls-2" x="378.1" y="264.31" width="17.36" height="17.36"/>
  <rect class="cls-4" x="378.1" y="194.88" width="17.36" height="17.36"/>
  <rect class="cls-1" x="378.1" y="177.53" width="17.36" height="17.36"/>
  <rect class="cls-1" x="378.1" y="160.17" width="17.36" height="17.36"/>
  <rect class="cls-2" x="378.1" y="142.82" width="17.36" height="17.36"/>
  <rect class="cls-4" x="360.75" y="333.73" width="17.36" height="17.36"/>
  <rect class="cls-1" x="360.75" y="316.37" width="17.36" height="17.36"/>
  <rect class="cls-2" x="360.75" y="299.02" width="17.36" height="17.36"/>
  <rect class="cls-2" x="360.75" y="281.66" width="17.36" height="17.36"/>
  <rect class="cls-4" x="360.75" y="212.24" width="17.36" height="17.36"/>
  <rect class="cls-1" x="360.75" y="194.88" width="17.36" height="17.36"/>
  <rect class="cls-2" x="360.75" y="177.53" width="17.36" height="17.36"/>
  <rect class="cls-2" x="360.75" y="160.17" width="17.36" height="17.36"/>
  <rect class="cls-4" x="343.39" y="351.09" width="17.36" height="17.36"/>
  <rect class="cls-1" x="343.39" y="333.73" width="17.36" height="17.36"/>
  <rect class="cls-2" x="343.39" y="316.37" width="17.36" height="17.36"/>
  <rect class="cls-2" x="343.39" y="299.02" width="17.36" height="17.36"/>
  <rect class="cls-4" x="343.39" y="229.6" width="17.36" height="17.36"/>
  <rect class="cls-1" x="343.39" y="212.24" width="17.36" height="17.36"/>
  <rect class="cls-2" x="343.39" y="194.88" width="17.36" height="17.36"/>
  <rect class="cls-2" x="343.39" y="177.53" width="17.36" height="17.36"/>
  <rect class="cls-6" x="343.39" y="108.11" width="17.36" height="17.36"/>
  <rect class="cls-6" x="343.39" y="73.39" width="17.36" height="17.36"/>
  <rect class="cls-1" x="326.03" y="351.09" width="17.36" height="17.36"/>
  <rect class="cls-2" x="326.03" y="333.73" width="17.36" height="17.36"/>
  <rect class="cls-2" x="326.03" y="316.37" width="17.36" height="17.36"/>
  <rect class="cls-1" x="326.03" y="229.6" width="17.36" height="17.36"/>
  <rect class="cls-2" x="326.03" y="212.24" width="17.36" height="17.36"/>
  <rect class="cls-2" x="326.03" y="194.88" width="17.36" height="17.36"/>
  <rect class="cls-6" x="326.03" y="125.46" width="17.36" height="17.36"/>
  <rect class="cls-6" x="326.03" y="90.75" width="17.36" height="17.36"/>
  <rect class="cls-6" x="326.03" y="56.04" width="17.36" height="17.36"/>
  <rect class="cls-1" x="308.68" y="351.09" width="17.36" height="17.36"/>
  <rect class="cls-1" x="308.68" y="229.6" width="17.36" height="17.36"/>
  <rect class="cls-6" x="308.68" y="142.82" width="17.36" height="17.36"/>
  <rect class="cls-6" x="308.68" y="108.11" width="17.36" height="17.36"/>
  <rect class="cls-6" x="308.68" y="90.75" width="17.36" height="17.36"/>
  <rect class="cls-6" x="308.68" y="73.39" width="17.36" height="17.36"/>
  <rect class="cls-6" x="308.68" y="38.68" width="17.36" height="17.36"/>
  <rect class="cls-1" x="291.32" y="403.15" width="17.36" height="17.36"/>
  <rect class="cls-1" x="291.32" y="385.8" width="17.36" height="17.36"/>
  <rect class="cls-1" x="291.32" y="368.44" width="17.36" height="17.36"/>
  <rect class="cls-1" x="291.32" y="351.09" width="17.36" height="17.36"/>
  <rect class="cls-1" x="291.32" y="333.73" width="17.36" height="17.36"/>
  <rect class="cls-1" x="291.32" y="316.37" width="17.36" height="17.36"/>
  <rect class="cls-1" x="291.32" y="299.02" width="17.36" height="17.36"/>
  <rect class="cls-1" x="291.32" y="281.66" width="17.36" height="17.36"/>
  <rect class="cls-1" x="291.32" y="264.31" width="17.36" height="17.36"/>
  <rect class="cls-1" x="291.32" y="246.95" width="17.36" height="17.36"/>
  <rect class="cls-1" x="291.32" y="229.6" width="17.36" height="17.36"/>
  <rect class="cls-1" x="291.32" y="212.24" width="17.36" height="17.36"/>
  <rect class="cls-1" x="291.32" y="194.88" width="17.36" height="17.36"/>
  <rect class="cls-1" x="291.32" y="177.53" width="17.36" height="17.36"/>
  <rect class="cls-1" x="291.32" y="160.17" width="17.36" height="17.36"/>
  <rect class="cls-1" x="291.32" y="142.82" width="17.36" height="17.36"/>
  <rect class="cls-6" x="291.32" y="125.46" width="17.36" height="17.36"/>
  <rect class="cls-6" x="291.32" y="108.11" width="17.36" height="17.36"/>
  <rect class="cls-5" x="291.32" y="90.75" width="17.36" height="17.36"/>
  <rect class="cls-6" x="291.32" y="73.39" width="17.36" height="17.36"/>
  <rect class="cls-6" x="291.32" y="56.04" width="17.36" height="17.36"/>
  <rect class="cls-1" x="273.97" y="385.8" width="17.36" height="17.36"/>
  <rect class="cls-1" x="273.97" y="281.66" width="17.36" height="17.36"/>
  <rect class="cls-4" x="273.97" y="194.88" width="17.36" height="17.36"/>
  <rect class="cls-6" x="273.97" y="142.82" width="17.36" height="17.36"/>
  <rect class="cls-6" x="273.97" y="108.11" width="17.36" height="17.36"/>
  <rect class="cls-6" x="273.97" y="90.75" width="17.36" height="17.36"/>
  <rect class="cls-6" x="273.97" y="73.39" width="17.36" height="17.36"/>
  <rect class="cls-6" x="273.97" y="38.68" width="17.36" height="17.36"/>
  <rect class="cls-1" x="256.61" y="385.8" width="17.36" height="17.36"/>
  <rect class="cls-2" x="256.61" y="368.44" width="17.36" height="17.36"/>
  <rect class="cls-1" x="256.61" y="281.66" width="17.36" height="17.36"/>
  <rect class="cls-2" x="256.61" y="264.31" width="17.36" height="17.36"/>
  <rect class="cls-2" x="256.61" y="246.95" width="17.36" height="17.36"/>
  <rect class="cls-1" x="256.61" y="177.53" width="17.36" height="17.36"/>
  <rect class="cls-6" x="256.61" y="125.46" width="17.36" height="17.36"/>
  <rect class="cls-6" x="256.61" y="90.75" width="17.36" height="17.36"/>
  <rect class="cls-6" x="256.61" y="56.04" width="17.36" height="17.36"/>
  <rect class="cls-4" x="239.25" y="385.8" width="17.36" height="17.36"/>
  <rect class="cls-1" x="239.25" y="368.44" width="17.36" height="17.36"/>
  <rect class="cls-2" x="239.25" y="351.09" width="17.36" height="17.36"/>
  <rect class="cls-4" x="239.25" y="281.66" width="17.36" height="17.36"/>
  <rect class="cls-1" x="239.25" y="264.31" width="17.36" height="17.36"/>
  <rect class="cls-2" x="239.25" y="246.95" width="17.36" height="17.36"/>
  <rect class="cls-2" x="239.25" y="229.6" width="17.36" height="17.36"/>
  <rect class="cls-4" x="239.25" y="177.53" width="17.36" height="17.36"/>
  <rect class="cls-6" x="239.25" y="108.11" width="17.36" height="17.36"/>
  <rect class="cls-6" x="239.25" y="73.39" width="17.36" height="17.36"/>
  <rect class="cls-4" x="221.9" y="368.44" width="17.36" height="17.36"/>
  <rect class="cls-1" x="221.9" y="351.09" width="17.36" height="17.36"/>
  <rect class="cls-2" x="221.9" y="333.73" width="17.36" height="17.36"/>
  <rect class="cls-4" x="221.9" y="264.31" width="17.36" height="17.36"/>
  <rect class="cls-1" x="221.9" y="246.95" width="17.36" height="17.36"/>
  <rect class="cls-2" x="221.9" y="229.6" width="17.36" height="17.36"/>
  <rect class="cls-2" x="221.9" y="212.24" width="17.36" height="17.36"/>
  <rect class="cls-1" x="221.9" y="160.17" width="17.36" height="17.36"/>
  <rect class="cls-6" x="221.9" y="142.82" width="17.36" height="17.36"/>
  <rect class="cls-4" x="204.54" y="351.09" width="17.36" height="17.36"/>
  <rect class="cls-1" x="204.54" y="333.73" width="17.36" height="17.36"/>
  <rect class="cls-2" x="204.54" y="316.37" width="17.36" height="17.36"/>
  <rect class="cls-4" x="204.54" y="246.95" width="17.36" height="17.36"/>
  <rect class="cls-1" x="204.54" y="229.6" width="17.36" height="17.36"/>
  <rect class="cls-2" x="204.54" y="212.24" width="17.36" height="17.36"/>
  <rect class="cls-2" x="204.54" y="194.88" width="17.36" height="17.36"/>
  <rect class="cls-6" x="204.54" y="160.17" width="17.36" height="17.36"/>
  <rect class="cls-6" x="204.54" y="142.82" width="17.36" height="17.36"/>
  <g>
    <rect class="cls-7" x="152.48" y="437.87" width="295.05" height="17.36"/>
    <rect class="cls-7" x="412.81" y="472.58" width="17.36" height="17.36"/>
    <rect class="cls-7" x="395.46" y="489.93" width="17.36" height="17.36"/>
    <rect class="cls-7" x="378.1" y="507.29" width="17.36" height="17.36"/>
    <rect class="cls-7" x="378.1" y="472.58" width="17.36" height="17.36"/>
    <rect class="cls-7" x="360.75" y="489.93" width="17.36" height="17.36"/>
    <rect class="cls-7" x="343.39" y="507.29" width="17.36" height="17.36"/>
    <rect class="cls-7" x="343.39" y="472.58" width="17.36" height="17.36"/>
    <rect class="cls-7" x="326.03" y="489.93" width="17.36" height="17.36"/>
    <rect class="cls-7" x="308.68" y="507.29" width="17.36" height="17.36"/>
    <rect class="cls-7" x="308.68" y="472.58" width="17.36" height="17.36"/>
    <rect class="cls-7" x="291.32" y="489.93" width="17.36" height="17.36"/>
    <rect class="cls-7" x="273.97" y="507.29" width="17.36" height="17.36"/>
    <rect class="cls-7" x="273.97" y="472.58" width="17.36" height="17.36"/>
    <rect class="cls-7" x="256.61" y="489.93" width="17.36" height="17.36"/>
    <rect class="cls-7" x="239.25" y="507.29" width="17.36" height="17.36"/>
    <rect class="cls-7" x="239.25" y="472.58" width="17.36" height="17.36"/>
    <rect class="cls-7" x="221.9" y="489.93" width="17.36" height="17.36"/>
    <rect class="cls-7" x="204.54" y="507.29" width="17.36" height="17.36"/>
    <rect class="cls-7" x="204.54" y="472.58" width="17.36" height="17.36"/>
    <rect class="cls-7" x="187.19" y="489.93" width="17.36" height="17.36"/>
    <rect class="cls-7" x="169.83" y="472.58" width="17.36" height="17.36"/>
  </g>
  <g>
    <rect class="cls-3" x="152.48" y="420.51" width="295.05" height="17.36"/>
    <rect class="cls-3" x="412.81" y="489.93" width="17.36" height="17.36"/>
    <polygon class="cls-3" points="152.48 455.22 152.48 489.93 169.83 489.93 169.83 472.58 187.19 472.58 187.19 489.93 204.54 489.93 204.54 472.58 221.9 472.58 221.9 489.93 239.25 489.93 239.25 472.58 256.61 472.58 256.61 489.93 273.97 489.93 273.97 472.58 291.32 472.58 291.32 489.93 308.68 489.93 308.68 472.58 326.03 472.58 326.03 489.93 343.39 489.93 343.39 472.58 360.75 472.58 360.75 489.93 378.1 489.93 378.1 472.58 395.46 472.58 395.46 489.93 412.81 489.93 412.81 472.58 430.17 472.58 430.17 489.93 447.52 489.93 447.52 455.22 152.48 455.22"/>
    <rect class="cls-3" x="395.46" y="507.29" width="17.36" height="17.36"/>
    <rect class="cls-3" x="378.1" y="489.93" width="17.36" height="17.36"/>
    <polygon class="cls-3" points="378.1 507.29 360.75 507.29 360.75 524.64 343.39 524.64 343.39 507.29 326.03 507.29 326.03 524.64 308.68 524.64 308.68 507.29 291.32 507.29 291.32 524.64 273.97 524.64 273.97 507.29 256.61 507.29 256.61 524.64 239.25 524.64 239.25 507.29 221.9 507.29 221.9 524.64 204.54 524.64 204.54 542 395.46 542 395.46 524.64 378.1 524.64 378.1 507.29"/>
    <rect class="cls-3" x="343.39" y="489.93" width="17.36" height="17.36"/>
    <rect class="cls-3" x="308.68" y="489.93" width="17.36" height="17.36"/>
    <rect class="cls-3" x="273.97" y="489.93" width="17.36" height="17.36"/>
    <rect class="cls-3" x="239.25" y="489.93" width="17.36" height="17.36"/>
    <rect class="cls-3" x="204.54" y="489.93" width="17.36" height="17.36"/>
    <rect class="cls-3" x="187.19" y="507.29" width="17.36" height="17.36"/>
    <rect class="cls-3" x="169.83" y="489.93" width="17.36" height="17.36"/>
  </g>
</svg>