<svg xmlns="http://www.w3.org/2000/svg" xmlns:xlink="http://www.w3.org/1999/xlink" width="50" zoomAndPan="magnify" viewBox="0 0 37.5 37.499999" height="50" preserveAspectRatio="xMidYMid meet" version="1.0"><defs><g/><clipPath id="371d7e6672"><path d="M 0.0078125 1.617188 L 36.996094 1.617188 L 36.996094 35.390625 L 0.0078125 35.390625 Z M 0.0078125 1.617188 " clip-rule="nonzero"/></clipPath></defs><g clip-path="url(#371d7e6672)"><path fill="#0d0d0c" d="M 0.0078125 16.09375 L 0.0078125 17.699219 L 1.617188 17.699219 L 1.617188 16.09375 Z M 1.617188 17.699219 L 1.617188 19.308594 L 3.226562 19.308594 L 3.226562 17.699219 Z M 4.832031 16.09375 L 11.265625 16.09375 L 11.265625 14.484375 L 1.617188 14.484375 L 1.617188 16.09375 Z M 3.226562 19.308594 L 3.226562 20.917969 L 4.832031 20.917969 L 4.832031 19.308594 Z M 3.226562 32.175781 L 3.226562 33.78125 L 4.832031 33.78125 L 4.832031 32.175781 Z M 4.832031 20.917969 L 4.832031 22.523438 L 6.441406 22.523438 L 6.441406 20.917969 Z M 6.441406 30.566406 L 6.441406 28.957031 L 4.832031 28.957031 L 4.832031 32.175781 L 6.441406 32.175781 Z M 4.832031 33.78125 L 4.832031 35.390625 L 8.050781 35.390625 L 8.050781 33.78125 Z M 6.441406 22.523438 L 6.441406 24.132812 L 8.050781 24.132812 L 8.050781 22.523438 Z M 8.050781 27.351562 L 8.050781 25.742188 L 6.441406 25.742188 L 6.441406 28.957031 L 8.050781 28.957031 Z M 9.65625 24.132812 L 8.050781 24.132812 L 8.050781 25.742188 L 9.65625 25.742188 Z M 8.050781 32.175781 L 8.050781 33.78125 L 11.265625 33.78125 L 11.265625 32.175781 Z M 12.875 12.875 L 11.265625 12.875 L 11.265625 14.484375 L 12.875 14.484375 Z M 11.265625 30.566406 L 11.265625 32.175781 L 14.480469 32.175781 L 14.480469 30.566406 Z M 14.480469 11.269531 L 14.480469 9.660156 L 12.875 9.660156 L 12.875 12.875 L 14.480469 12.875 Z M 16.089844 8.050781 L 16.089844 6.445312 L 14.480469 6.445312 L 14.480469 9.660156 L 16.089844 9.660156 Z M 14.480469 28.957031 L 14.480469 30.566406 L 17.699219 30.566406 L 17.699219 28.957031 Z M 17.699219 4.835938 L 17.699219 3.226562 L 16.089844 3.226562 L 16.089844 6.445312 L 17.699219 6.445312 Z M 19.304688 1.621094 L 17.699219 1.621094 L 17.699219 3.226562 L 19.304688 3.226562 Z M 17.699219 27.351562 L 17.699219 28.957031 L 19.304688 28.957031 L 19.304688 27.351562 Z M 19.304688 6.445312 L 20.914062 6.445312 L 20.914062 3.226562 L 19.304688 3.226562 Z M 20.914062 9.660156 L 22.523438 9.660156 L 22.523438 6.445312 L 20.914062 6.445312 Z M 20.914062 28.957031 L 19.304688 28.957031 L 19.304688 30.566406 L 22.523438 30.566406 L 22.523438 28.957031 Z M 22.523438 12.875 L 24.132812 12.875 L 24.132812 9.660156 L 22.523438 9.660156 Z M 25.738281 14.484375 L 25.738281 12.875 L 24.132812 12.875 L 24.132812 14.484375 Z M 24.132812 30.566406 L 22.523438 30.566406 L 22.523438 32.175781 L 25.738281 32.175781 L 25.738281 30.566406 Z M 27.347656 16.09375 L 35.386719 16.09375 L 35.386719 14.484375 L 25.738281 14.484375 L 25.738281 16.09375 Z M 27.347656 25.742188 L 28.957031 25.742188 L 28.957031 24.132812 L 27.347656 24.132812 Z M 27.347656 32.175781 L 25.738281 32.175781 L 25.738281 33.78125 L 28.957031 33.78125 L 28.957031 32.175781 Z M 28.957031 24.132812 L 30.5625 24.132812 L 30.5625 22.523438 L 28.957031 22.523438 Z M 28.957031 28.957031 L 30.5625 28.957031 L 30.5625 25.742188 L 28.957031 25.742188 Z M 28.957031 33.78125 L 28.957031 35.390625 L 32.171875 35.390625 L 32.171875 33.78125 Z M 30.5625 22.523438 L 32.171875 22.523438 L 32.171875 20.917969 L 30.5625 20.917969 Z M 30.5625 32.175781 L 32.171875 32.175781 L 32.171875 28.957031 L 30.5625 28.957031 Z M 32.171875 20.917969 L 33.78125 20.917969 L 33.78125 19.308594 L 32.171875 19.308594 Z M 33.78125 33.78125 L 33.78125 32.175781 L 32.171875 32.175781 L 32.171875 33.78125 Z M 33.78125 19.308594 L 35.386719 19.308594 L 35.386719 17.699219 L 33.78125 17.699219 Z M 36.996094 16.09375 L 36.996094 17.699219 L 35.386719 17.699219 L 35.386719 16.09375 L 36.996094 16.09375 " fill-opacity="1" fill-rule="nonzero"/></g><path fill="#ffffff" d="M 11.265625 17.699219 L 8.050781 17.699219 L 8.050781 19.308594 L 14.480469 19.308594 L 14.480469 17.699219 Z M 14.480469 17.699219 L 16.089844 17.699219 L 16.089844 16.09375 L 14.480469 16.09375 Z M 17.699219 12.875 L 17.699219 16.09375 L 16.089844 16.09375 L 16.089844 12.875 L 17.699219 12.875 " fill-opacity="1" fill-rule="nonzero"/><path fill="#ffbb00" d="M 14.480469 27.351562 L 12.875 27.351562 L 12.875 28.957031 L 9.65625 28.957031 L 9.65625 30.566406 L 6.441406 30.566406 L 6.441406 32.175781 L 4.832031 32.175781 L 4.832031 33.78125 L 8.050781 33.78125 L 8.050781 32.175781 L 11.265625 32.175781 L 11.265625 30.566406 L 14.480469 30.566406 L 14.480469 28.957031 L 17.699219 28.957031 L 17.699219 27.351562 Z M 35.386719 16.09375 L 35.386719 17.699219 L 33.78125 17.699219 L 33.78125 19.308594 L 32.171875 19.308594 L 32.171875 20.917969 L 30.5625 20.917969 L 30.5625 22.523438 L 28.957031 22.523438 L 28.957031 24.132812 L 27.347656 24.132812 L 27.347656 25.742188 L 28.957031 25.742188 L 28.957031 28.957031 L 30.5625 28.957031 L 30.5625 32.175781 L 32.171875 32.175781 L 32.171875 33.78125 L 28.957031 33.78125 L 28.957031 30.566406 L 27.347656 30.566406 L 27.347656 27.351562 L 25.738281 27.351562 L 25.738281 25.742188 L 24.132812 25.742188 L 24.132812 24.132812 L 25.738281 24.132812 L 25.738281 22.523438 L 27.347656 22.523438 L 27.347656 20.917969 L 28.957031 20.917969 L 28.957031 19.308594 L 30.5625 19.308594 L 30.5625 17.699219 L 24.132812 17.699219 L 24.132812 16.09375 L 22.523438 16.09375 L 22.523438 14.484375 L 20.914062 14.484375 L 20.914062 11.269531 L 19.304688 11.269531 L 19.304688 6.445312 L 20.914062 6.445312 L 20.914062 9.660156 L 22.523438 9.660156 L 22.523438 12.875 L 24.132812 12.875 L 24.132812 14.484375 L 25.738281 14.484375 L 25.738281 16.09375 L 35.386719 16.09375 " fill-opacity="1" fill-rule="nonzero"/><path fill="#fcf100" d="M 9.65625 17.699219 L 14.480469 17.699219 L 14.480469 16.09375 L 16.089844 16.09375 L 16.089844 12.875 L 17.699219 12.875 L 17.699219 16.09375 L 16.089844 16.09375 L 16.089844 17.699219 L 14.480469 17.699219 L 14.480469 19.308594 L 8.050781 19.308594 L 8.050781 17.699219 Z M 28.957031 17.699219 L 24.132812 17.699219 L 24.132812 16.09375 L 22.523438 16.09375 L 22.523438 14.484375 L 20.914062 14.484375 L 20.914062 11.269531 L 19.304688 11.269531 L 19.304688 3.226562 L 17.699219 3.226562 L 17.699219 6.445312 L 16.089844 6.445312 L 16.089844 9.660156 L 14.480469 9.660156 L 14.480469 12.875 L 12.875 12.875 L 12.875 14.484375 L 11.265625 14.484375 L 11.265625 16.09375 L 1.617188 16.09375 L 1.617188 17.699219 L 3.226562 17.699219 L 3.226562 19.308594 L 4.832031 19.308594 L 4.832031 20.917969 L 6.441406 20.917969 L 6.441406 22.523438 L 8.050781 22.523438 L 8.050781 24.132812 L 9.65625 24.132812 L 9.65625 25.742188 L 8.050781 25.742188 L 8.050781 28.957031 L 6.441406 28.957031 L 6.441406 30.566406 L 9.65625 30.566406 L 9.65625 28.957031 L 12.875 28.957031 L 12.875 27.351562 L 19.304688 27.351562 L 19.304688 28.957031 L 22.523438 28.957031 L 22.523438 30.566406 L 25.738281 30.566406 L 25.738281 32.175781 L 28.957031 32.175781 L 28.957031 30.566406 L 27.347656 30.566406 L 27.347656 27.351562 L 25.738281 27.351562 L 25.738281 25.742188 L 24.132812 25.742188 L 24.132812 24.132812 L 25.738281 24.132812 L 25.738281 22.523438 L 27.347656 22.523438 L 27.347656 20.917969 L 28.957031 20.917969 L 28.957031 19.308594 L 30.5625 19.308594 L 30.5625 17.699219 L 28.957031 17.699219 " fill-opacity="1" fill-rule="nonzero"/><g fill="#000000" fill-opacity="1"><g transform="translate(8.812387, 33.832538)"><g><path d="M 0 0 L 0 -1.03125 L 1.03125 -1.03125 L 1.03125 0 Z M 0 0 "/></g></g></g></svg>