<svg xmlns="http://www.w3.org/2000/svg" xmlns:xlink="http://www.w3.org/1999/xlink" width="1000" zoomAndPan="magnify" viewBox="0 0 750 749.999995" height="1000" preserveAspectRatio="xMidYMid meet" version="1.0"><defs><clipPath id="3b8013fa99"><path d="M 3 3 L 747 3 L 747 747 L 3 747 Z M 3 3 " clip-rule="nonzero"/></clipPath><clipPath id="e3ea0311e2"><path d="M 3.769531 375 L 375 3.769531 L 746.230469 375 L 375 746.230469 Z M 3.769531 375 " clip-rule="nonzero"/></clipPath><clipPath id="5157779674"><path d="M 0.601562 0.601562 L 743.398438 0.601562 L 743.398438 743.398438 L 0.601562 743.398438 Z M 0.601562 0.601562 " clip-rule="nonzero"/></clipPath><clipPath id="24b4bba5c9"><path d="M 0.769531 372 L 372 0.769531 L 743.230469 372 L 372 743.230469 Z M 0.769531 372 " clip-rule="nonzero"/></clipPath><clipPath id="40d2912832"><rect x="0" width="744" y="0" height="744"/></clipPath><clipPath id="29b674476e"><path d="M 112.5 112.5 L 637.5 112.5 L 637.5 637.5 L 112.5 637.5 Z M 112.5 112.5 " clip-rule="nonzero"/></clipPath><clipPath id="457dc749dc"><path d="M 0.5 0.5 L 525.5 0.5 L 525.5 525.5 L 0.5 525.5 Z M 0.5 0.5 " clip-rule="nonzero"/></clipPath><clipPath id="a75d7f3e90"><rect x="0" width="526" y="0" height="526"/></clipPath><clipPath id="ac14eac1af"><path d="M 225 263.453125 L 525 263.453125 L 525 486.203125 L 225 486.203125 Z M 225 263.453125 " clip-rule="nonzero"/></clipPath></defs><g clip-path="url(#3b8013fa99)"><g clip-path="url(#e3ea0311e2)"><g transform="matrix(1, 0, 0, 1, 3, 3)"><g clip-path="url(#40d2912832)"><g clip-path="url(#5157779674)"><g clip-path="url(#24b4bba5c9)"><path fill="#0000ff" d="M 0.769531 372 L 372 0.769531 L 743.230469 372 L 372 743.230469 Z M 0.769531 372 " fill-opacity="1" fill-rule="nonzero"/></g></g></g></g></g></g><g clip-path="url(#29b674476e)"><g transform="matrix(1, 0, 0, 1, 112, 112)"><g clip-path="url(#a75d7f3e90)"><g clip-path="url(#457dc749dc)"><path fill="#0000ff" d="M 0.5 525.5 L 0.5 0.5 L 525.5 0.5 L 525.5 525.5 Z M 0.5 525.5 " fill-opacity="1" fill-rule="nonzero"/></g></g></g></g><g clip-path="url(#ac14eac1af)"><path fill="#ffffff" d="M 323.652344 486.261719 L 225.128906 387.695312 L 246.433594 366.390625 L 323.652344 443.652344 L 503.910156 263.4375 L 525.214844 284.742188 Z M 323.652344 486.261719 " fill-opacity="1" fill-rule="nonzero"/></g></svg>