<svg xmlns="http://www.w3.org/2000/svg" viewBox="0 -0.5 32 32" shape-rendering="crispEdges">
<metadata>Made with Pixels to Svg https://codepen.io/shshaw/pen/XbxvNj</metadata>
<path stroke="#000000" d="M10 4h3M14 4h5M9 5h1M13 5h1M19 5h2M8 6h2M21 6h1M7 7h1M22 7h4M7 8h1M26 8h1M7 9h1M27 9h1M6 10h1M28 10h1M5 11h1M28 11h1M4 12h1M28 12h1M3 13h1M28 13h1M3 14h2M28 14h1M2 15h1M29 15h2M1 16h1M30 16h1M1 17h1M30 17h1M1 18h1M29 18h1M2 19h1M30 19h1M3 20h2M30 20h1M4 21h2M30 21h1M5 22h1M29 22h1M6 23h1M28 23h1M7 24h3M27 24h1M10 25h1M26 25h1M11 26h1M19 26h2M25 26h1M12 27h7M21 27h4" />
<path stroke="#858585" d="M10 5h2M14 5h4M10 6h2M14 6h2M17 6h3M11 7h5M18 7h2M16 8h3M23 8h2M14 9h3M21 9h5M7 10h3M14 10h2M20 10h2M24 10h2M27 10h1M7 11h1M10 11h1M13 11h5M19 11h2M23 11h2M27 11h1M5 12h2M10 12h1M12 12h2M19 12h2M22 12h6M5 13h1M9 13h2M12 13h2M19 13h1M24 13h3M5 14h6M12 14h3M19 14h1M27 14h1M6 15h4M13 15h7M25 15h3M14 16h5M24 16h2M20 17h2M24 17h1M20 18h5M21 19h3" />
<path stroke="#5d5d5d" d="M12 5h1M18 5h1M12 6h2M16 6h1M20 6h1M9 7h2M16 7h2M8 8h1M15 8h1M22 8h1M25 8h1M8 9h1M17 9h1M26 9h1M13 10h1M19 10h1M22 10h2M26 10h1M6 11h1M11 11h2M18 11h1M21 11h2M25 11h2M11 12h1M14 12h1M18 12h1M21 12h1M4 13h1M6 13h1M23 13h1M27 13h1M15 14h1M24 14h3M3 15h2M10 15h1M12 15h1M24 15h1M2 16h2M13 16h1M19 16h2M27 16h3M2 17h1M5 17h2M18 17h2M22 17h2M26 17h3M2 18h3M11 18h7M25 18h2M3 19h2M10 19h2M17 19h2M25 19h2M6 20h1M10 20h2M17 20h2M25 20h1M7 21h2M11 21h1M17 21h1M20 21h1M23 21h1M26 21h1M14 22h4M21 22h3M25 22h2M15 23h2M21 23h2M25 23h1" />
<path stroke="#3d3d3d" d="M8 7h1M20 7h2M13 8h2M19 8h3M18 9h3M16 10h3M8 11h2M7 12h3M7 13h2M11 13h1M5 15h1M28 15h1M6 16h2M26 16h1M3 17h1M7 17h4M15 17h3M25 17h1M29 17h1M5 18h1M9 18h2M18 18h2M12 19h2M19 19h1M28 19h1M7 20h1M19 20h1M23 20h1M26 20h3M6 21h1M9 21h1M16 21h1M18 21h1M25 21h1M27 21h1M6 22h4M11 22h3M20 22h1M7 23h3M11 23h4M17 23h1M19 23h1M23 23h1M26 23h1M11 24h1M13 24h5M19 24h2M25 24h2M11 25h2M15 25h3M20 25h6M13 26h4M22 26h3" />
<path stroke="#272727" d="M9 8h4M9 9h5M10 10h3M20 13h3M20 14h4M20 15h4M4 16h2M21 16h3M4 17h1" />
<path stroke="#1b1b1b" d="M15 12h3M14 13h5M11 14h1M16 14h3M11 15h1M8 16h5M11 17h4M6 18h3M27 18h2M5 19h5M14 19h3M20 19h1M24 19h1M27 19h1M29 19h1M5 20h1M8 20h2M12 20h5M20 20h3M24 20h1M29 20h1M10 21h1M12 21h4M19 21h1M21 21h2M24 21h1M28 21h2M10 22h1M18 22h2M24 22h1M27 22h2M10 23h1M18 23h1M20 23h1M24 23h1M27 23h1M10 24h1M12 24h1M18 24h1M21 24h4M13 25h2M18 25h2M12 26h1M17 26h2M21 26h1" />
</svg>