<?xml version="1.0" encoding="UTF-8"?>
<svg id="Layer_1" xmlns="http://www.w3.org/2000/svg" viewBox="0 0 452 388">
  <defs>
    <style>
      .cls-1 {
        fill: #7f940c;
      }

      .cls-2 {
        fill: #603813;
      }

      .cls-3 {
        fill: #84aabf;
      }

      .cls-4 {
        fill: #fff;
      }

      .cls-5 {
        fill: #444;
      }

      .cls-6 {
        fill: #392839;
      }

      .cls-7 {
        fill: #c9b9b5;
      }

      .cls-8 {
        fill: #996050;
      }

      .cls-9 {
        fill: #fc9e54;
      }

      .cls-10 {
        fill: #b87a37;
      }

      .cls-11 {
        fill: #edc066;
      }

      .cls-12 {
        fill: #8ecc35;
      }

      .cls-13 {
        fill: #d87430;
      }

      .cls-14 {
        fill: #ba761f;
      }

      .cls-15 {
        fill: #cc9450;
      }

      .cls-16 {
        fill: #614e60;
      }

      .cls-17 {
        fill: #8c4911;
      }

      .cls-18 {
        fill: #590901;
      }
    </style>
  </defs>
  <g id="Warehouse">
    <g id="Base">
      <g>
        <rect class="cls-5" x="444" y="228" width="4" height="12"/>
        <rect class="cls-5" x="440" y="240" width="4" height="4"/>
        <rect class="cls-5" x="436" y="244" width="4" height="4"/>
        <rect class="cls-5" x="432" y="248" width="4" height="4"/>
        <rect class="cls-5" x="428" y="252" width="4" height="4"/>
        <rect class="cls-5" x="424" y="256" width="4" height="4"/>
        <rect class="cls-5" x="416" y="260" width="8" height="4"/>
        <rect class="cls-5" x="412" y="264" width="4" height="4"/>
        <rect class="cls-5" x="408" y="268" width="4" height="4"/>
        <rect class="cls-5" x="404" y="272" width="4" height="4"/>
        <rect class="cls-5" x="400" y="276" width="4" height="4"/>
        <rect class="cls-5" x="396" y="280" width="4" height="4"/>
        <polygon class="cls-5" points="396 284 396 292 388 292 388 288 392 288 392 284 396 284"/>
        <rect class="cls-5" x="384" y="292" width="4" height="4"/>
        <rect class="cls-5" x="380" y="296" width="4" height="4"/>
        <rect class="cls-5" x="376" y="300" width="4" height="4"/>
        <rect class="cls-5" x="372" y="304" width="4" height="4"/>
        <rect class="cls-5" x="368" y="308" width="4" height="4"/>
        <rect class="cls-5" x="364" y="312" width="4" height="4"/>
        <rect class="cls-5" x="360" y="316" width="4" height="4"/>
        <rect class="cls-5" x="356" y="320" width="4" height="4"/>
        <rect class="cls-5" x="352" y="324" width="4" height="4"/>
        <polygon class="cls-5" points="352 328 352 336 344 336 344 332 348 332 348 328 352 328"/>
        <rect class="cls-5" x="336" y="336" width="8" height="4"/>
        <rect class="cls-5" x="328" y="340" width="8" height="4"/>
        <rect class="cls-5" x="324" y="344" width="4" height="4"/>
        <polygon class="cls-5" points="324 348 324 356 316 356 316 352 320 352 320 348 324 348"/>
        <rect class="cls-5" x="312" y="356" width="4" height="4"/>
        <rect class="cls-5" x="308" y="360" width="4" height="8"/>
        <polygon class="cls-5" points="288 364 288 368 276 368 276 360 280 360 280 364 288 364"/>
        <rect class="cls-5" x="260" y="356" width="16" height="4"/>
        <polygon class="cls-5" points="260 352 260 356 248 356 248 348 252 348 252 352 260 352"/>
        <polygon class="cls-5" points="248 344 248 348 240 348 240 344 228 344 228 340 244 340 244 344 248 344"/>
        <rect class="cls-5" x="220" y="336" width="8" height="4"/>
        <polygon class="cls-5" points="220 332 220 336 204 336 204 328 208 328 208 332 220 332"/>
        <rect class="cls-5" x="196" y="324" width="8" height="4"/>
        <polygon class="cls-5" points="196 320 196 324 184 324 184 316 188 316 188 320 196 320"/>
        <rect class="cls-5" x="176" y="312" width="8" height="4"/>
        <rect class="cls-5" x="160" y="308" width="16" height="4"/>
        <rect class="cls-5" x="152" y="304" width="8" height="4"/>
        <polygon class="cls-5" points="152 300 152 304 140 304 140 296 144 296 144 300 152 300"/>
        <rect class="cls-5" x="132" y="292" width="8" height="4"/>
        <polygon class="cls-5" points="132 288 132 292 120 292 120 284 124 284 124 288 132 288"/>
        <rect class="cls-5" x="108" y="280" width="12" height="4"/>
        <polygon class="cls-5" points="108 276 108 280 96 280 96 272 100 272 100 276 108 276"/>
        <rect class="cls-5" x="88" y="268" width="8" height="4"/>
        <rect class="cls-5" x="76" y="264" width="12" height="4"/>
        <rect class="cls-5" x="64" y="260" width="12" height="4"/>
        <polygon class="cls-5" points="64 256 64 260 52 260 52 252 56 252 56 256 64 256"/>
        <rect class="cls-5" x="44" y="248" width="8" height="4"/>
        <polygon class="cls-5" points="44 244 44 248 32 248 32 240 36 240 36 244 44 244"/>
        <rect class="cls-5" x="20" y="236" width="12" height="4"/>
        <polygon class="cls-5" points="20 232 20 236 8 236 8 228 12 228 12 232 20 232"/>
        <rect class="cls-5" x="4" y="224" width="4" height="4"/>
        <rect class="cls-5" y="208" width="4" height="16"/>
        <rect class="cls-5" x="448" y="215.99" width="4" height="12"/>
        <g>
          <rect class="cls-5" x="288" y="368" width="4" height="8"/>
          <polygon class="cls-5" points="300 368 300 376 292 376 292 380 300 380 300 376 304 376 304 372 308 372 308 368 300 368"/>
        </g>
      </g>
      <polygon class="cls-1" points="452 207.99 448 207.99 448 204 440 204 440 200 432 200 432 196 420 196 420 192 408 192 408 188 404 188 404 184 396 184 396 180 388 180 388 176 384 176 384 172 376 172 376 168 364 168 364 164 352 164 352 160 340 160 340 156 336 156 336 152 328 152 328 148 312 148 312 140 304 140 304 136 292 136 292 128 284 128 284 124 268 124 268 120 260 120 260 116 248 116 248 108 236 108 236 104 224 104 224 96 216 96 216 92 204 92 204 84 196 84 196 80 180 80 180 76 172 76 172 72 164 72 164 68 160 68 160 64 140 64 140 72 136 72 136 76 128 76 128 84 120 84 120 92 116 92 116 96 108 96 108 104 104 104 104 108 96 108 96 116 92 116 92 120 84 120 84 124 80 124 80 128 76 128 76 136 72 136 72 140 64 140 64 148 60 148 60 152 52 152 52 160 48 160 48 164 44 164 44 168 40 168 40 172 32 172 32 180 28 180 28 184 20 184 20 192 16 192 16 196 8 196 8 204 0 204 0 208 4 208 4 224 8 224 8 228 12 228 12 232 20 232 20 236 32 236 32 240 36 240 36 244 44 244 44 248 52 248 52 252 56 252 56 256 64 256 64 260 76 260 76 264 88 264 88 268 96 268 96 272 100 272 100 276 108 276 108 280 120 280 120 284 124 284 124 288 132 288 132 292 140 292 140 296 144 296 144 300 152 300 152 304 160 304 160 308 176 308 176 312 184 312 184 316 188 316 188 320 196 320 196 324 204 324 204 328 208 328 208 332 220 332 220 336 228 336 228 340 244 340 244 344 248 344 248 348 252 348 252 352 260 352 260 356 276 356 276 360 280 360 280 364 288 364 288 368 292 368 292 376 300 376 300 368 308 368 308 360 312 360 312 356 316 356 316 352 320 352 320 348 324 348 324 344 328 344 328 340 336 340 336 336 344 336 344 332 348 332 348 328 352 328 352 324 356 324 356 320 360 320 360 316 364 316 364 312 368 312 368 308 372 308 372 304 376 304 376 300 380 300 380 296 384 296 384 292 388 292 388 288 392 288 392 284 396 284 396 280 400 280 400 276 404 276 404 272 408 272 408 268 412 268 412 264 416 264 416 260 424 260 424 256 428 256 428 252 432 252 432 248 436 248 436 244 440 244 440 240 444 240 444 228 448 228 448 215.99 452 215.99 452 207.99"/>
      <g id="Flowers">
        <rect class="cls-12" x="192" y="263.83" width="4" height="4"/>
        <rect class="cls-12" x="368" y="223.83" width="4" height="4"/>
        <rect class="cls-12" x="376" y="223.83" width="4" height="4"/>
        <rect class="cls-12" x="432" y="215.83" width="4" height="4"/>
        <rect class="cls-12" x="420" y="243.83" width="4" height="4"/>
        <rect class="cls-12" x="416" y="223.83" width="4" height="4"/>
        <rect class="cls-12" x="412" y="227.83" width="4" height="4"/>
        <rect class="cls-12" x="408" y="223.83" width="4" height="4"/>
        <rect class="cls-12" x="404" y="207.83" width="4" height="4"/>
        <rect class="cls-12" x="376" y="279.83" width="4" height="4"/>
        <rect class="cls-12" x="372" y="275.83" width="4" height="4"/>
        <rect class="cls-12" x="372" y="219.83" width="4" height="4"/>
        <rect class="cls-12" x="368" y="279.83" width="4" height="4"/>
        <rect class="cls-12" x="340" y="255.83" width="4" height="4"/>
        <rect class="cls-12" x="336" y="259.83" width="4" height="4"/>
        <rect class="cls-12" x="332" y="255.83" width="4" height="4"/>
        <rect class="cls-12" x="324" y="327.83" width="4" height="4"/>
        <rect class="cls-12" x="304" y="267.83" width="4" height="4"/>
        <rect class="cls-12" x="300" y="323.83" width="4" height="4"/>
        <rect class="cls-12" x="296" y="359.83" width="4" height="4"/>
        <rect class="cls-12" x="296" y="327.83" width="4" height="4"/>
        <rect class="cls-12" x="292" y="323.83" width="4" height="4"/>
        <rect class="cls-12" x="292" y="303.83" width="4" height="4"/>
        <rect class="cls-12" x="276" y="347.83" width="4" height="4"/>
        <rect class="cls-12" x="272" y="279.83" width="4" height="4"/>
        <rect class="cls-12" x="244" y="287.83" width="4" height="4"/>
        <rect class="cls-12" x="228" y="319.83" width="4" height="4"/>
        <rect class="cls-12" x="160" y="255.83" width="4" height="4"/>
        <rect class="cls-12" x="156" y="279.83" width="4" height="4"/>
        <rect class="cls-12" x="152" y="283.83" width="4" height="4"/>
        <rect class="cls-12" x="148" y="279.83" width="4" height="4"/>
        <rect class="cls-12" x="148" y="235.83" width="4" height="4"/>
        <rect class="cls-12" x="144" y="239.83" width="4" height="4"/>
        <rect class="cls-12" x="140" y="235.83" width="4" height="4"/>
        <rect class="cls-12" x="120" y="107.83" width="4" height="4"/>
        <rect class="cls-12" x="116" y="263.83" width="4" height="4"/>
        <rect class="cls-12" x="116" y="103.83" width="4" height="4"/>
        <rect class="cls-12" x="112" y="107.83" width="4" height="4"/>
        <rect class="cls-12" x="80" y="239.83" width="4" height="4"/>
        <rect class="cls-12" x="80" y="215.83" width="4" height="4"/>
        <rect class="cls-12" x="80" y="131.83" width="4" height="4"/>
        <rect class="cls-12" x="76" y="243.83" width="4" height="4"/>
        <rect class="cls-12" x="72" y="239.83" width="4" height="4"/>
        <rect class="cls-12" x="56" y="179.83" width="4" height="4"/>
        <rect class="cls-12" x="52" y="183.83" width="4" height="4"/>
        <rect class="cls-12" x="48" y="179.83" width="4" height="4"/>
        <rect class="cls-12" x="16" y="211.83" width="4" height="4"/>
      </g>
    </g>
    <g id="Building">
      <g>
        <rect x="403.83" y="164" width="4" height="32"/>
        <rect x="395.83" y="196" width="8" height="4"/>
        <rect x="387.83" y="200" width="8" height="4"/>
        <rect x="379.83" y="204" width="8" height="4"/>
        <rect x="371.83" y="208" width="8" height="4"/>
        <rect x="363.83" y="212" width="8" height="4"/>
        <rect x="355.83" y="208" width="8" height="4"/>
        <rect x="351.83" y="200" width="4" height="8"/>
      </g>
      <g>
        <polygon class="cls-3" points="335.83 208 335.83 212 331.83 212 331.83 216 323.83 216 323.83 220 319.83 220 319.83 240 323.83 240 323.83 236 331.83 236 331.83 232 335.83 232 335.83 228 339.83 228 339.83 208 335.83 208"/>
        <polygon class="cls-3" points="283.83 236 283.83 240 275.83 240 275.83 244 267.83 244 267.83 248 259.83 248 259.83 268 267.83 268 267.83 264 275.83 264 275.83 260 283.83 260 283.83 256 291.83 256 291.83 236 283.83 236"/>
      </g>
      <g>
        <polygon class="cls-7" points="335.83 160 327.83 160 327.83 164 319.83 164 319.83 168 311.83 168 311.83 172 303.83 172 303.83 176 295.83 176 295.83 180 291.83 180 291.83 184 283.83 184 283.83 188 275.83 188 275.83 192 267.83 192 267.83 196 259.83 196 259.83 204 267.83 204 267.83 200 275.83 200 275.83 196 283.83 196 283.83 192 291.83 192 291.83 188 295.83 188 295.83 184 303.83 184 303.83 180 311.83 180 311.83 176 319.83 176 319.83 172 327.83 172 327.83 168 335.83 168 335.83 164 339.83 164 339.83 156 335.83 156 335.83 160"/>
        <rect class="cls-7" x="335.83" y="124" width="4" height="24"/>
        <polygon class="cls-7" points="335.83 100 335.83 96 331.83 96 331.83 104 327.83 104 327.83 108 335.83 108 335.83 104 339.83 104 339.83 100 335.83 100"/>
        <polygon class="cls-7" points="331.83 176 331.83 180 323.83 180 323.83 184 315.83 184 315.83 188 307.83 188 307.83 192 299.83 192 299.83 196 295.83 196 295.83 200 287.83 200 287.83 204 279.83 204 279.83 208 271.83 208 271.83 212 263.83 212 263.83 216 259.83 216 259.83 248 267.83 248 267.83 244 275.83 244 275.83 240 283.83 240 283.83 236 291.83 236 291.83 208 295.83 208 295.83 204 299.83 204 299.83 200 311.83 200 311.83 204 315.83 204 315.83 208 319.83 208 319.83 220 323.83 220 323.83 216 331.83 216 331.83 212 335.83 212 335.83 208 339.83 208 339.83 176 331.83 176"/>
        <rect class="cls-7" x="327.83" y="128" width="4" height="24"/>
        <rect class="cls-7" x="323.83" y="108" width="4" height="4"/>
        <rect class="cls-7" x="319.83" y="132" width="4" height="24"/>
        <polygon class="cls-7" points="323.83 100 327.83 100 327.83 92 311.83 92 311.83 120 315.83 120 315.83 116 319.83 116 319.83 108 323.83 108 323.83 100"/>
        <rect class="cls-7" x="311.83" y="136" width="4" height="24"/>
        <rect class="cls-7" x="303.83" y="140" width="4" height="24"/>
        <rect class="cls-7" x="295.83" y="144" width="4" height="24"/>
        <polygon class="cls-7" points="295.83 128 303.83 128 303.83 124 307.83 124 307.83 92 303.83 92 303.83 96 299.83 96 299.83 100 295.83 100 295.83 108 299.83 108 299.83 104 303.83 104 303.83 116 299.83 116 299.83 120 295.83 120 295.83 108 291.83 108 291.83 132 295.83 132 295.83 128"/>
        <rect class="cls-7" x="287.83" y="148" width="4" height="28"/>
        <polygon class="cls-7" points="283.83 136 287.83 136 287.83 116 283.83 116 283.83 124 279.83 124 279.83 132 283.83 132 283.83 136"/>
        <rect class="cls-7" x="279.83" y="152" width="4" height="28"/>
        <rect class="cls-7" x="271.83" y="136" width="8" height="4"/>
        <rect class="cls-7" x="271.83" y="156" width="4" height="28"/>
        <rect class="cls-7" x="267.83" y="140" width="4" height="4"/>
        <rect class="cls-7" x="263.83" y="160" width="4" height="28"/>
      </g>
      <g>
        <rect class="cls-11" x="247.83" y="160" width="4" height="112"/>
        <rect class="cls-11" x="239.83" y="176" width="4" height="4"/>
        <rect class="cls-11" x="235.83" y="200" width="8" height="4"/>
        <rect class="cls-11" x="231.83" y="172" width="8" height="4"/>
        <rect class="cls-11" x="231.83" y="196" width="4" height="4"/>
        <rect class="cls-11" x="223.83" y="192" width="8" height="4"/>
        <rect class="cls-11" x="223.83" y="168" width="8" height="4"/>
        <rect class="cls-11" x="215.83" y="188" width="8" height="4"/>
        <rect class="cls-11" x="215.83" y="164" width="8" height="4"/>
        <rect class="cls-11" x="207.83" y="184" width="8" height="4"/>
        <rect class="cls-11" x="207.83" y="160" width="8" height="4"/>
        <polygon class="cls-11" points="203.83 180 203.83 176 195.83 176 195.83 180 199.83 180 199.83 184 207.83 184 207.83 180 203.83 180"/>
        <rect class="cls-11" x="199.83" y="156" width="8" height="4"/>
        <polygon class="cls-11" points="199.83 192 195.83 192 195.83 188 187.83 188 187.83 184 167.83 184 167.83 188 163.83 188 163.83 232 167.83 232 167.83 192 171.83 192 171.83 188 183.83 188 183.83 192 191.83 192 191.83 196 195.83 196 195.83 252 199.83 252 199.83 204 203.83 204 203.83 196 199.83 196 199.83 192"/>
        <rect class="cls-11" x="191.83" y="152" width="8" height="4"/>
        <rect class="cls-11" x="187.83" y="172" width="8" height="4"/>
        <rect class="cls-11" x="183.83" y="148" width="8" height="4"/>
        <rect class="cls-11" x="179.83" y="168" width="8" height="4"/>
        <rect class="cls-11" x="175.83" y="144" width="8" height="4"/>
        <rect class="cls-11" x="171.83" y="164" width="8" height="4"/>
        <rect class="cls-11" x="167.83" y="140" width="8" height="4"/>
        <rect class="cls-11" x="163.83" y="160" width="8" height="4"/>
        <rect class="cls-11" x="159.83" y="136" width="8" height="4"/>
        <rect class="cls-11" x="159.83" y="156" width="4" height="4"/>
        <rect class="cls-11" x="151.83" y="152" width="8" height="4"/>
        <rect class="cls-11" x="151.83" y="132" width="8" height="4"/>
        <rect class="cls-11" x="147.83" y="148" width="4" height="4"/>
        <rect class="cls-11" x="147.83" y="128" width="4" height="4"/>
        <rect class="cls-11" x="135.83" y="100" width="4" height="120"/>
      </g>
      <polygon class="cls-9" points="295.83 84 295.83 80 287.83 80 287.83 76 283.83 76 283.83 72 275.83 72 275.83 68 271.83 68 271.83 64 267.83 64 267.83 60 259.83 60 259.83 56 251.83 56 251.83 52 247.83 52 247.83 48 239.83 48 239.83 44 231.83 44 231.83 40 227.83 40 227.83 36 223.83 36 223.83 32 215.83 32 215.83 28 207.83 28 207.83 24 203.83 24 203.83 20 195.83 20 195.83 16 191.83 16 191.83 20 187.83 20 187.83 28 183.83 28 183.83 32 179.83 32 179.83 36 175.83 36 175.83 44 171.83 44 171.83 48 167.83 48 167.83 56 163.83 56 163.83 60 159.83 60 159.83 68 155.83 68 155.83 72 151.83 72 151.83 76 147.83 76 147.83 80 143.83 80 143.83 84 139.83 84 139.83 88 135.83 88 135.83 92 139.83 92 139.83 96 143.83 96 143.83 100 151.83 100 151.83 104 159.83 104 159.83 108 163.83 108 163.83 112 171.83 112 171.83 116 179.83 116 179.83 120 187.83 120 187.83 124 195.83 124 195.83 128 199.83 128 199.83 132 207.83 132 207.83 136 215.83 136 215.83 140 223.83 140 223.83 144 231.83 144 231.83 148 239.83 148 239.83 152 247.83 152 247.83 156 251.83 156 251.83 152 255.83 152 255.83 148 259.83 148 259.83 140 267.83 140 267.83 132 271.83 132 271.83 128 275.83 128 275.83 120 279.83 120 279.83 116 283.83 116 283.83 112 287.83 112 287.83 104 291.83 104 291.83 96 295.83 96 295.83 92 299.83 92 299.83 84 295.83 84"/>
      <g>
        <polygon class="cls-17" points="355.83 100 355.83 96 347.83 96 347.83 92 343.83 92 343.83 88 335.83 88 335.83 84 327.83 84 327.83 80 323.83 80 323.83 76 319.83 76 319.83 72 315.83 72 315.83 68 307.83 68 307.83 64 299.83 64 299.83 60 295.83 60 295.83 56 287.83 56 287.83 52 283.83 52 283.83 48 279.83 48 279.83 44 271.83 44 271.83 40 263.83 40 263.83 36 259.83 36 259.83 32 255.83 32 255.83 28 247.83 28 247.83 24 243.83 24 243.83 20 235.83 20 235.83 16 231.83 16 231.83 12 199.83 12 199.83 16 203.83 16 203.83 20 207.83 20 207.83 24 215.83 24 215.83 28 223.83 28 223.83 32 227.83 32 227.83 36 231.83 36 231.83 40 239.83 40 239.83 44 247.83 44 247.83 48 251.83 48 251.83 52 259.83 52 259.83 56 267.83 56 267.83 60 271.83 60 271.83 64 275.83 64 275.83 68 283.83 68 283.83 72 287.83 72 287.83 76 295.83 76 295.83 80 299.83 80 299.83 84 303.83 84 303.83 88 331.83 88 331.83 92 339.83 92 339.83 96 343.83 96 343.83 100 351.83 100 351.83 104 359.83 104 359.83 100 355.83 100"/>
        <polygon class="cls-17" points="331.83 112 331.83 116 323.83 116 323.83 120 315.83 120 315.83 124 311.83 124 311.83 128 303.83 128 303.83 132 295.83 132 295.83 136 291.83 136 291.83 140 299.83 140 299.83 136 307.83 136 307.83 132 315.83 132 315.83 128 323.83 128 323.83 124 331.83 124 331.83 120 335.83 120 335.83 116 339.83 116 339.83 112 331.83 112"/>
        <rect class="cls-17" x="315.83" y="208" width="4" height="32"/>
        <rect class="cls-17" x="311.83" y="204" width="4" height="4"/>
        <rect class="cls-17" x="299.83" y="200" width="12" height="4"/>
        <rect class="cls-17" x="295.83" y="204" width="4" height="4"/>
        <rect class="cls-17" x="291.83" y="208" width="4" height="44"/>
        <polygon class="cls-17" points="279.83 140 279.83 144 271.83 144 271.83 148 267.83 148 267.83 152 275.83 152 275.83 148 283.83 148 283.83 144 291.83 144 291.83 140 279.83 140"/>
        <rect class="cls-17" x="255.83" y="152" width="12" height="4"/>
        <rect class="cls-17" x="251.83" y="160" width="4" height="112"/>
        <polygon class="cls-17" points="235.83 204 235.83 200 231.83 200 231.83 196 223.83 196 223.83 192 215.83 192 215.83 188 207.83 188 207.83 184 199.83 184 199.83 188 203.83 188 203.83 192 211.83 192 211.83 196 219.83 196 219.83 200 223.83 200 223.83 204 231.83 204 231.83 208 239.83 208 239.83 212 243.83 212 243.83 204 235.83 204"/>
        <polygon class="cls-17" points="239.83 176 231.83 176 231.83 172 223.83 172 223.83 168 215.83 168 215.83 164 207.83 164 207.83 160 199.83 160 199.83 156 191.83 156 191.83 152 183.83 152 183.83 148 175.83 148 175.83 144 167.83 144 167.83 140 159.83 140 159.83 136 151.83 136 151.83 132 147.83 132 147.83 140 151.83 140 151.83 144 155.83 144 155.83 148 163.83 148 163.83 152 171.83 152 171.83 156 179.83 156 179.83 160 187.83 160 187.83 164 195.83 164 195.83 168 203.83 168 203.83 172 211.83 172 211.83 176 219.83 176 219.83 180 227.83 180 227.83 184 235.83 184 235.83 188 243.83 188 243.83 180 239.83 180 239.83 176"/>
        <rect class="cls-17" x="199.83" y="204" width="4" height="52"/>
        <polygon class="cls-17" points="195.83 180 195.83 176 187.83 176 187.83 172 179.83 172 179.83 168 171.83 168 171.83 164 163.83 164 163.83 160 159.83 160 159.83 156 151.83 156 151.83 152 147.83 152 147.83 160 155.83 160 155.83 164 159.83 164 159.83 168 167.83 168 167.83 172 175.83 172 175.83 176 183.83 176 183.83 180 191.83 180 191.83 184 199.83 184 199.83 180 195.83 180"/>
        <rect class="cls-17" x="167.83" y="192" width="4" height="44"/>
        <polygon class="cls-17" points="143.83 104 139.83 104 139.83 220 147.83 220 147.83 216 143.83 216 143.83 104"/>
        <rect class="cls-17" x="131.83" y="96" width="4" height="120"/>
      </g>
      <g>
        <rect class="cls-18" x="395.83" y="164" width="8" height="4"/>
        <rect class="cls-18" x="387.83" y="168" width="8" height="4"/>
        <rect class="cls-18" x="379.83" y="172" width="8" height="4"/>
        <rect class="cls-18" x="371.83" y="176" width="8" height="4"/>
        <rect class="cls-18" x="363.83" y="180" width="8" height="32"/>
        <rect class="cls-18" x="355.83" y="176" width="8" height="4"/>
        <path class="cls-18" d="M351.83,172v-64h-4v-4h-12v4h-8v4h-4v-4h-4v8h-4v4h8v-4h8v-4h8v4h-4v4h-4v4h8v24h-4v4h-8v4h-8v4h-8v4h-8v4h-8v4h-4v4h-8v4h-8v4h-8v4h-8v8h8v-4h8v-4h8v-4h8v-4h4v-4h8v-4h8v-4h8v-4h8v-4h8v-4h4v68h12v-48h4v-4h-4ZM347.83,220h-4v-108h4v108Z"/>
        <rect class="cls-18" x="323.83" y="124" width="8" height="4"/>
        <polygon class="cls-18" points="327.83 104 331.83 104 331.83 96 327.83 96 327.83 100 323.83 100 323.83 108 327.83 108 327.83 104"/>
        <rect class="cls-18" x="315.83" y="128" width="8" height="4"/>
        <polygon points="311.83 228 303.83 228 303.83 232 295.83 232 295.83 252 299.83 252 299.83 248 307.83 248 307.83 244 315.83 244 315.83 224 311.83 224 311.83 228"/>
        <rect class="cls-18" x="307.83" y="132" width="8" height="4"/>
        <polygon class="cls-18" points="311.83 124 315.83 124 315.83 120 311.83 120 311.83 92 307.83 92 307.83 124 303.83 124 303.83 128 311.83 128 311.83 124"/>
        <rect class="cls-18" x="299.83" y="136" width="8" height="4"/>
        <rect class="cls-18" x="295.83" y="128" width="8" height="4"/>
        <rect class="cls-18" x="291.83" y="140" width="8" height="4"/>
        <rect class="cls-18" x="283.83" y="144" width="8" height="4"/>
        <polygon class="cls-18" points="291.83 136 295.83 136 295.83 132 291.83 132 291.83 112 287.83 112 287.83 136 283.83 136 283.83 132 275.83 132 275.83 136 279.83 136 279.83 140 291.83 140 291.83 136"/>
        <rect class="cls-18" x="275.83" y="148" width="8" height="4"/>
        <rect class="cls-18" x="271.83" y="140" width="8" height="4"/>
        <rect class="cls-18" x="267.83" y="152" width="8" height="4"/>
        <polygon class="cls-18" points="271.83 148 271.83 144 263.83 144 263.83 148 259.83 148 259.83 152 267.83 152 267.83 148 271.83 148"/>
        <polygon class="cls-18" points="259.83 164 263.83 164 263.83 160 267.83 160 267.83 156 259.83 156 259.83 164"/>
        <polygon class="cls-18" points="239.83 148 231.83 148 231.83 144 223.83 144 223.83 140 215.83 140 215.83 144 219.83 144 219.83 148 227.83 148 227.83 152 235.83 152 235.83 156 243.83 156 243.83 160 247.83 160 247.83 152 239.83 152 239.83 148"/>
        <rect class="cls-18" x="207.83" y="136" width="8" height="4"/>
        <rect class="cls-18" x="199.83" y="132" width="8" height="4"/>
        <polygon class="cls-18" points="195.83 128 195.83 124 187.83 124 187.83 128 191.83 128 191.83 132 199.83 132 199.83 128 195.83 128"/>
        <rect class="cls-18" x="179.83" y="120" width="8" height="4"/>
        <rect class="cls-18" x="171.83" y="116" width="8" height="4"/>
        <rect class="cls-18" x="163.83" y="112" width="8" height="4"/>
        <polygon class="cls-18" points="159.83 108 159.83 104 151.83 104 151.83 108 155.83 108 155.83 112 163.83 112 163.83 108 159.83 108"/>
        <polygon class="cls-18" points="143.83 100 143.83 96 139.83 96 139.83 92 127.83 92 127.83 96 135.83 96 135.83 100 139.83 100 139.83 104 151.83 104 151.83 100 143.83 100"/>
      </g>
      <g>
        <rect class="cls-8" x="343.83" y="112" width="4" height="108"/>
        <rect class="cls-8" x="335.83" y="164" width="4" height="4"/>
        <rect class="cls-8" x="327.83" y="168" width="8" height="4"/>
        <rect class="cls-8" x="319.83" y="172" width="8" height="4"/>
        <rect class="cls-8" x="311.83" y="176" width="8" height="4"/>
        <rect class="cls-8" x="303.83" y="180" width="8" height="4"/>
        <rect class="cls-8" x="295.83" y="184" width="8" height="4"/>
        <rect class="cls-8" x="291.83" y="188" width="4" height="4"/>
        <rect class="cls-8" x="283.83" y="192" width="8" height="4"/>
        <rect class="cls-8" x="275.83" y="196" width="8" height="4"/>
        <rect class="cls-8" x="267.83" y="200" width="8" height="4"/>
        <rect class="cls-8" x="259.83" y="204" width="8" height="4"/>
        <polygon class="cls-8" points="127.83 164 119.83 164 119.83 168 111.83 168 111.83 204 119.83 204 119.83 200 127.83 200 127.83 196 131.83 196 131.83 160 127.83 160 127.83 164"/>
      </g>
      <polygon class="cls-17" points="391.83 160 391.83 156 383.83 156 383.83 152 379.83 152 379.83 148 371.83 148 371.83 144 367.83 144 367.83 140 363.83 140 363.83 136 355.83 136 355.83 132 351.83 132 351.83 172 355.83 172 355.83 176 363.83 176 363.83 180 371.83 180 371.83 176 379.83 176 379.83 172 387.83 172 387.83 168 395.83 168 395.83 164 399.83 164 399.83 160 391.83 160"/>
      <polygon class="cls-2" points="299.83 88 299.83 92 295.83 92 295.83 96 291.83 96 291.83 104 287.83 104 287.83 112 291.83 112 291.83 108 295.83 108 295.83 100 299.83 100 299.83 96 303.83 96 303.83 92 307.83 92 307.83 88 299.83 88"/>
      <rect class="cls-2" x="283.83" y="112" width="4" height="4"/>
      <polygon class="cls-2" points="279.83 120 275.83 120 275.83 128 271.83 128 271.83 132 267.83 132 267.83 140 271.83 140 271.83 136 275.83 136 275.83 132 279.83 132 279.83 124 283.83 124 283.83 116 279.83 116 279.83 120"/>
      <polygon class="cls-2" points="259.83 140 259.83 148 263.83 148 263.83 144 267.83 144 267.83 140 259.83 140"/>
      <rect class="cls-2" x="255.83" y="148" width="4" height="4"/>
      <polygon class="cls-2" points="251.83 156 247.83 156 247.83 160 255.83 160 255.83 272 259.83 272 259.83 156 255.83 156 255.83 152 251.83 152 251.83 156"/>
      <polygon class="cls-2" points="243.83 240 239.83 240 239.83 244 243.83 244 243.83 264 239.83 264 239.83 244 235.83 244 235.83 248 231.83 248 231.83 252 235.83 252 235.83 268 231.83 268 231.83 252 227.83 252 227.83 272 223.83 272 223.83 252 227.83 252 227.83 248 219.83 248 219.83 268 215.83 268 215.83 248 219.83 248 219.83 244 211.83 244 211.83 264 207.83 264 207.83 268 211.83 268 211.83 272 219.83 272 219.83 276 231.83 276 231.83 272 239.83 272 239.83 268 243.83 268 243.83 272 247.83 272 247.83 160 243.83 160 243.83 240"/>
      <rect class="cls-2" x="235.83" y="236" width="4" height="4"/>
      <rect class="cls-2" x="227.83" y="232" width="8" height="4"/>
      <rect class="cls-2" x="223.83" y="228" width="4" height="4"/>
      <rect class="cls-2" x="219.83" y="224" width="4" height="4"/>
      <rect class="cls-2" x="211.83" y="228" width="8" height="4"/>
      <rect class="cls-2" x="207.83" y="232" width="4" height="4"/>
      <polygon class="cls-2" points="207.83 244 211.83 244 211.83 240 207.83 240 207.83 236 203.83 236 203.83 264 207.83 264 207.83 244"/>
      <rect class="cls-2" x="143.83" y="104" width="4" height="112"/>
      <polygon class="cls-10" points="127.83 120 127.83 124 123.83 124 123.83 128 115.83 128 115.83 132 111.83 132 111.83 136 103.83 136 103.83 140 99.83 140 99.83 144 91.83 144 91.83 148 83.83 148 83.83 152 87.83 152 87.83 156 95.83 156 95.83 160 103.83 160 103.83 164 111.83 164 111.83 160 119.83 160 119.83 156 127.83 156 127.83 152 131.83 152 131.83 120 127.83 120"/>
      <rect class="cls-15" x="239.83" y="244" width="4" height="20"/>
      <rect class="cls-15" x="239.83" y="160" width="4" height="16"/>
      <polygon class="cls-15" points="235.83 240 235.83 236 227.83 236 227.83 232 223.83 232 223.83 228 219.83 228 219.83 232 211.83 232 211.83 236 207.83 236 207.83 240 211.83 240 211.83 244 219.83 244 219.83 248 227.83 248 227.83 252 231.83 252 231.83 248 235.83 248 235.83 244 239.83 244 239.83 240 235.83 240"/>
      <rect class="cls-15" x="231.83" y="252" width="4" height="16"/>
      <rect class="cls-15" x="231.83" y="156" width="4" height="16"/>
      <rect class="cls-15" x="223.83" y="252" width="4" height="20"/>
      <rect class="cls-15" x="223.83" y="152" width="4" height="16"/>
      <rect class="cls-15" x="215.83" y="248" width="4" height="20"/>
      <rect class="cls-15" x="215.83" y="148" width="4" height="16"/>
      <rect class="cls-15" x="207.83" y="244" width="4" height="20"/>
      <rect class="cls-15" x="207.83" y="144" width="4" height="16"/>
      <rect class="cls-15" x="199.83" y="140" width="4" height="16"/>
      <rect class="cls-15" x="191.83" y="136" width="4" height="16"/>
      <rect class="cls-15" x="183.83" y="128" width="4" height="20"/>
      <rect class="cls-15" x="175.83" y="124" width="4" height="20"/>
      <rect class="cls-15" x="167.83" y="120" width="4" height="20"/>
      <rect class="cls-15" x="159.83" y="116" width="4" height="20"/>
      <rect class="cls-15" x="151.83" y="112" width="4" height="20"/>
      <polygon class="cls-15" points="103.83 168 95.83 168 95.83 164 87.83 164 87.83 160 79.83 160 79.83 156 75.83 156 75.83 192 79.83 192 79.83 196 87.83 196 87.83 200 91.83 200 91.83 204 99.83 204 99.83 208 107.83 208 107.83 172 103.83 172 103.83 168"/>
      <g>
        <rect class="cls-4" x="399.83" y="160" width="4" height="4"/>
        <rect class="cls-4" x="391.83" y="156" width="8" height="4"/>
        <polygon class="cls-4" points="387.83 152 387.83 148 379.83 148 379.83 152 383.83 152 383.83 156 391.83 156 391.83 152 387.83 152"/>
        <rect class="cls-4" x="371.83" y="144" width="8" height="4"/>
        <rect class="cls-4" x="367.83" y="140" width="4" height="4"/>
        <rect class="cls-4" x="363.83" y="136" width="4" height="4"/>
        <rect class="cls-4" x="355.83" y="132" width="8" height="4"/>
        <rect class="cls-4" x="351.83" y="128" width="4" height="4"/>
        <rect class="cls-4" x="299.83" y="84" width="4" height="4"/>
        <rect class="cls-4" x="295.83" y="80" width="4" height="4"/>
        <rect class="cls-4" x="287.83" y="76" width="8" height="4"/>
        <rect class="cls-4" x="283.83" y="72" width="4" height="4"/>
        <rect class="cls-4" x="275.83" y="68" width="8" height="4"/>
        <rect class="cls-4" x="271.83" y="64" width="4" height="4"/>
        <rect class="cls-4" x="267.83" y="60" width="4" height="4"/>
        <rect class="cls-4" x="259.83" y="56" width="8" height="4"/>
        <rect class="cls-4" x="251.83" y="52" width="8" height="4"/>
        <rect class="cls-4" x="247.83" y="48" width="4" height="4"/>
        <rect class="cls-4" x="239.83" y="44" width="8" height="4"/>
        <polygon class="cls-4" points="239.83 208 231.83 208 231.83 204 223.83 204 223.83 200 219.83 200 219.83 196 211.83 196 211.83 192 203.83 192 203.83 188 199.83 188 199.83 184 191.83 184 191.83 180 183.83 180 183.83 176 175.83 176 175.83 172 167.83 172 167.83 168 159.83 168 159.83 164 155.83 164 155.83 160 147.83 160 147.83 228 163.83 228 163.83 188 167.83 188 167.83 184 187.83 184 187.83 188 195.83 188 195.83 192 199.83 192 199.83 196 203.83 196 203.83 236 207.83 236 207.83 232 211.83 232 211.83 228 219.83 228 219.83 224 223.83 224 223.83 228 227.83 228 227.83 232 235.83 232 235.83 236 239.83 236 239.83 240 243.83 240 243.83 212 239.83 212 239.83 208"/>
        <polygon class="cls-4" points="235.83 188 235.83 184 227.83 184 227.83 180 219.83 180 219.83 176 211.83 176 211.83 172 203.83 172 203.83 168 195.83 168 195.83 164 187.83 164 187.83 160 179.83 160 179.83 156 171.83 156 171.83 152 163.83 152 163.83 148 155.83 148 155.83 144 151.83 144 151.83 140 147.83 140 147.83 148 151.83 148 151.83 152 159.83 152 159.83 156 163.83 156 163.83 160 171.83 160 171.83 164 179.83 164 179.83 168 187.83 168 187.83 172 195.83 172 195.83 176 203.83 176 203.83 180 207.83 180 207.83 184 215.83 184 215.83 188 223.83 188 223.83 192 231.83 192 231.83 196 235.83 196 235.83 200 243.83 200 243.83 188 235.83 188"/>
        <rect class="cls-4" x="231.83" y="40" width="8" height="4"/>
        <rect class="cls-4" x="227.83" y="36" width="4" height="4"/>
        <rect class="cls-4" x="223.83" y="32" width="4" height="4"/>
        <rect class="cls-4" x="215.83" y="28" width="8" height="4"/>
        <rect class="cls-4" x="207.83" y="24" width="8" height="4"/>
        <rect class="cls-4" x="203.83" y="20" width="4" height="4"/>
        <rect class="cls-4" x="195.83" y="16" width="8" height="4"/>
        <rect class="cls-4" x="191.83" y="12" width="4" height="4"/>
        <rect class="cls-4" x="187.83" y="16" width="4" height="4"/>
        <polygon class="cls-4" points="183.83 24 179.83 24 179.83 28 175.83 28 175.83 32 171.83 32 171.83 40 167.83 40 167.83 44 163.83 44 163.83 52 159.83 52 159.83 56 155.83 56 155.83 60 151.83 60 151.83 68 147.83 68 147.83 72 143.83 72 143.83 76 139.83 76 139.83 80 135.83 80 135.83 84 131.83 84 131.83 88 127.83 88 127.83 92 135.83 92 135.83 88 139.83 88 139.83 84 143.83 84 143.83 80 147.83 80 147.83 76 151.83 76 151.83 72 155.83 72 155.83 68 159.83 68 159.83 60 163.83 60 163.83 56 167.83 56 167.83 48 171.83 48 171.83 44 175.83 44 175.83 36 179.83 36 179.83 32 183.83 32 183.83 28 187.83 28 187.83 20 183.83 20 183.83 24"/>
        <rect class="cls-4" x="127.83" y="152" width="4" height="4"/>
        <rect class="cls-4" x="127.83" y="116" width="4" height="4"/>
        <rect class="cls-4" x="119.83" y="156" width="8" height="4"/>
        <rect class="cls-4" x="123.83" y="120" width="4" height="4"/>
        <rect class="cls-4" x="111.83" y="160" width="8" height="4"/>
        <rect class="cls-4" x="115.83" y="124" width="8" height="4"/>
        <rect class="cls-4" x="111.83" y="128" width="4" height="4"/>
        <rect class="cls-4" x="103.83" y="164" width="8" height="4"/>
        <rect class="cls-4" x="103.83" y="132" width="8" height="4"/>
        <rect class="cls-4" x="99.83" y="136" width="4" height="4"/>
        <rect class="cls-4" x="95.83" y="160" width="8" height="4"/>
        <rect class="cls-4" x="91.83" y="140" width="8" height="4"/>
        <rect class="cls-4" x="87.83" y="156" width="8" height="4"/>
        <rect class="cls-4" x="83.83" y="152" width="4" height="4"/>
        <rect class="cls-4" x="83.83" y="144" width="8" height="4"/>
        <rect class="cls-4" x="75.83" y="148" width="8" height="4"/>
      </g>
      <g>
        <polygon class="cls-6" points="395.83 168 395.83 172 387.83 172 387.83 176 379.83 176 379.83 180 371.83 180 371.83 208 379.83 208 379.83 204 387.83 204 387.83 200 395.83 200 395.83 196 403.83 196 403.83 168 395.83 168"/>
        <polygon class="cls-6" points="355.83 176 351.83 176 351.83 200 355.83 200 355.83 208 363.83 208 363.83 180 355.83 180 355.83 176"/>
        <polygon class="cls-6" points="355.83 100 359.83 100 359.83 104 351.83 104 351.83 100 343.83 100 343.83 96 339.83 96 339.83 92 331.83 92 331.83 88 307.83 88 307.83 92 327.83 92 327.83 96 335.83 96 335.83 100 339.83 100 339.83 104 347.83 104 347.83 108 363.83 108 363.83 96 355.83 96 355.83 100"/>
        <rect class="cls-6" x="347.83" y="92" width="8" height="4"/>
        <rect class="cls-6" x="343.83" y="88" width="4" height="4"/>
        <rect class="cls-6" x="335.83" y="84" width="8" height="4"/>
        <polygon class="cls-6" points="335.83 172 327.83 172 327.83 176 319.83 176 319.83 180 311.83 180 311.83 184 303.83 184 303.83 188 295.83 188 295.83 192 291.83 192 291.83 196 283.83 196 283.83 200 275.83 200 275.83 204 267.83 204 267.83 208 259.83 208 259.83 216 263.83 216 263.83 212 271.83 212 271.83 208 279.83 208 279.83 204 287.83 204 287.83 200 295.83 200 295.83 196 299.83 196 299.83 192 307.83 192 307.83 188 315.83 188 315.83 184 323.83 184 323.83 180 331.83 180 331.83 176 339.83 176 339.83 168 335.83 168 335.83 172"/>
        <rect class="cls-6" x="331.83" y="124" width="4" height="28"/>
        <rect class="cls-6" x="327.83" y="80" width="8" height="4"/>
        <rect class="cls-6" x="323.83" y="128" width="4" height="28"/>
        <rect class="cls-6" x="323.83" y="76" width="4" height="4"/>
        <rect class="cls-6" x="319.83" y="72" width="4" height="4"/>
        <rect class="cls-6" x="315.83" y="132" width="4" height="28"/>
        <rect class="cls-6" x="315.83" y="68" width="4" height="4"/>
        <rect class="cls-6" x="307.83" y="64" width="8" height="4"/>
        <polygon class="cls-6" points="311.83 204 299.83 204 299.83 208 295.83 208 295.83 232 303.83 232 303.83 228 311.83 228 311.83 224 315.83 224 315.83 208 311.83 208 311.83 204"/>
        <rect class="cls-6" x="307.83" y="136" width="4" height="28"/>
        <rect class="cls-6" x="299.83" y="60" width="8" height="4"/>
        <rect class="cls-6" x="299.83" y="140" width="4" height="28"/>
        <polygon class="cls-6" points="303.83 104 299.83 104 299.83 108 295.83 108 295.83 120 299.83 120 299.83 116 303.83 116 303.83 104"/>
        <rect class="cls-6" x="295.83" y="56" width="4" height="4"/>
        <rect class="cls-6" x="291.83" y="144" width="4" height="28"/>
        <rect class="cls-6" x="287.83" y="52" width="8" height="4"/>
        <rect class="cls-6" x="283.83" y="148" width="4" height="28"/>
        <rect class="cls-6" x="283.83" y="48" width="4" height="4"/>
        <rect class="cls-6" x="279.83" y="44" width="4" height="4"/>
        <rect class="cls-6" x="275.83" y="152" width="4" height="28"/>
        <rect class="cls-6" x="271.83" y="40" width="8" height="4"/>
        <rect class="cls-6" x="267.83" y="156" width="4" height="28"/>
        <rect class="cls-6" x="263.83" y="36" width="8" height="4"/>
        <rect class="cls-6" x="259.83" y="164" width="4" height="24"/>
        <rect class="cls-6" x="259.83" y="32" width="4" height="4"/>
        <rect class="cls-6" x="255.83" y="28" width="4" height="4"/>
        <rect class="cls-6" x="247.83" y="24" width="8" height="4"/>
        <rect class="cls-6" x="243.83" y="20" width="4" height="4"/>
        <polygon class="cls-6" points="239.83 16 239.83 12 235.83 12 235.83 8 191.83 8 191.83 12 195.83 12 195.83 16 199.83 16 199.83 12 231.83 12 231.83 16 235.83 16 235.83 20 243.83 20 243.83 16 239.83 16"/>
        <polygon class="cls-6" points="235.83 172 239.83 172 239.83 160 243.83 160 243.83 156 235.83 156 235.83 172"/>
        <polygon class="cls-6" points="227.83 152 227.83 168 231.83 168 231.83 156 235.83 156 235.83 152 227.83 152"/>
        <polygon class="cls-6" points="219.83 148 219.83 164 223.83 164 223.83 152 227.83 152 227.83 148 219.83 148"/>
        <polygon class="cls-6" points="215.83 144 215.83 140 207.83 140 207.83 136 199.83 136 199.83 132 191.83 132 191.83 128 187.83 128 187.83 148 191.83 148 191.83 136 195.83 136 195.83 152 199.83 152 199.83 140 203.83 140 203.83 156 207.83 156 207.83 144 211.83 144 211.83 160 215.83 160 215.83 148 219.83 148 219.83 144 215.83 144"/>
        <rect class="cls-6" x="187.83" y="12" width="4" height="4"/>
        <polygon class="cls-6" points="179.83 124 179.83 144 183.83 144 183.83 128 187.83 128 187.83 124 179.83 124"/>
        <polygon class="cls-6" points="171.83 120 171.83 140 175.83 140 175.83 124 179.83 124 179.83 120 171.83 120"/>
        <polygon class="cls-6" points="163.83 116 163.83 136 167.83 136 167.83 120 171.83 120 171.83 116 163.83 116"/>
        <polygon class="cls-6" points="155.83 112 155.83 132 159.83 132 159.83 116 163.83 116 163.83 112 155.83 112"/>
        <polygon class="cls-6" points="151.83 108 151.83 104 147.83 104 147.83 128 151.83 128 151.83 112 155.83 112 155.83 108 151.83 108"/>
        <rect class="cls-6" x="127.83" y="156" width="4" height="4"/>
        <rect class="cls-6" x="127.83" y="112" width="4" height="4"/>
        <rect class="cls-6" x="119.83" y="160" width="8" height="4"/>
        <rect class="cls-6" x="123.83" y="116" width="4" height="4"/>
        <rect class="cls-6" x="111.83" y="164" width="8" height="4"/>
        <rect class="cls-6" x="115.83" y="120" width="8" height="4"/>
        <rect class="cls-6" x="111.83" y="124" width="4" height="4"/>
        <polygon class="cls-6" points="107.83 172 107.83 208 99.83 208 99.83 212 103.83 212 103.83 216 111.83 216 111.83 212 115.83 212 115.83 208 123.83 208 123.83 204 131.83 204 131.83 196 127.83 196 127.83 200 119.83 200 119.83 204 111.83 204 111.83 168 103.83 168 103.83 172 107.83 172"/>
        <rect class="cls-6" x="103.83" y="128" width="8" height="4"/>
        <rect class="cls-6" x="99.83" y="132" width="4" height="4"/>
        <rect class="cls-6" x="91.83" y="204" width="8" height="4"/>
        <rect class="cls-6" x="95.83" y="164" width="8" height="4"/>
        <rect class="cls-6" x="91.83" y="136" width="8" height="4"/>
        <rect class="cls-6" x="87.83" y="160" width="8" height="4"/>
        <rect class="cls-6" x="83.83" y="140" width="8" height="4"/>
        <rect class="cls-6" x="75.83" y="144" width="8" height="4"/>
        <polygon class="cls-6" points="71.83 196 75.83 196 75.83 200 83.83 200 83.83 204 91.83 204 91.83 200 87.83 200 87.83 196 79.83 196 79.83 192 75.83 192 75.83 156 79.83 156 79.83 160 87.83 160 87.83 156 83.83 156 83.83 152 75.83 152 75.83 148 71.83 148 71.83 196"/>
      </g>
      <g>
        <rect class="cls-14" x="95.83" y="172" width="4" height="24"/>
        <rect class="cls-14" x="87.83" y="168" width="4" height="24"/>
        <rect class="cls-14" x="79.83" y="164" width="4" height="24"/>
      </g>
      <g>
        <polygon class="cls-16" points="191.83 192 183.83 192 183.83 188 171.83 188 171.83 236 175.83 236 175.83 240 183.83 240 183.83 244 191.83 244 191.83 248 195.83 248 195.83 196 191.83 196 191.83 192"/>
        <rect class="cls-16" x="399.83" y="168" width="4" height="28"/>
        <rect class="cls-16" x="391.83" y="172" width="4" height="28"/>
        <rect class="cls-16" x="383.83" y="176" width="4" height="28"/>
        <rect class="cls-16" x="375.83" y="180" width="4" height="28"/>
        <rect class="cls-16" x="355.83" y="180" width="4" height="28"/>
      </g>
      <g>
        <rect class="cls-13" x="267.83" y="104" width="8" height="4"/>
        <rect class="cls-13" x="235.83" y="84" width="8" height="4"/>
        <rect class="cls-13" x="219.83" y="120" width="8" height="4"/>
        <rect class="cls-13" x="199.83" y="108" width="8" height="4"/>
        <rect class="cls-13" x="191.83" y="32" width="8" height="4"/>
        <rect class="cls-13" x="171.83" y="60" width="8" height="4"/>
      </g>
    </g>
    <g id="Boxes">
      <g>
        <rect class="cls-2" x="195.83" y="284.01" width="4" height="12"/>
        <rect class="cls-2" x="183.83" y="296.01" width="12" height="4"/>
        <rect class="cls-2" x="183.83" y="280.01" width="12" height="4"/>
        <rect class="cls-2" x="179.83" y="284.01" width="4" height="12"/>
        <rect class="cls-15" x="183.83" y="284.01" width="12" height="12"/>
        <rect class="cls-2" x="195.83" y="284.01" width="4" height="12"/>
        <rect class="cls-2" x="183.83" y="296.01" width="12" height="4"/>
        <rect class="cls-2" x="183.83" y="280.01" width="12" height="4"/>
        <rect class="cls-2" x="179.83" y="284.01" width="4" height="12"/>
        <rect class="cls-15" x="183.83" y="284.01" width="12" height="12"/>
      </g>
      <g>
        <rect class="cls-2" x="259.83" y="312.01" width="4" height="12"/>
        <rect class="cls-2" x="247.83" y="324.01" width="12" height="4"/>
        <rect class="cls-2" x="247.83" y="308.01" width="12" height="4"/>
        <rect class="cls-2" x="243.83" y="312.01" width="4" height="12"/>
        <rect class="cls-15" x="247.83" y="312.01" width="12" height="12"/>
        <rect class="cls-2" x="259.83" y="312.01" width="4" height="12"/>
        <rect class="cls-2" x="247.83" y="324.01" width="12" height="4"/>
        <rect class="cls-2" x="247.83" y="308.01" width="12" height="4"/>
        <rect class="cls-2" x="243.83" y="312.01" width="4" height="12"/>
        <rect class="cls-15" x="247.83" y="312.01" width="12" height="12"/>
      </g>
      <g>
        <rect class="cls-2" x="332" y="296" width="4" height="12"/>
        <rect class="cls-2" x="320" y="308" width="12" height="4"/>
        <rect class="cls-2" x="320" y="292" width="12" height="4"/>
        <rect class="cls-2" x="316" y="296" width="4" height="12"/>
        <rect class="cls-15" x="320" y="296" width="12" height="12"/>
        <rect class="cls-2" x="332" y="296" width="4" height="12"/>
        <rect class="cls-2" x="320" y="308" width="12" height="4"/>
        <rect class="cls-2" x="320" y="292" width="12" height="4"/>
        <rect class="cls-2" x="316" y="296" width="4" height="12"/>
        <rect class="cls-15" x="320" y="296" width="12" height="12"/>
      </g>
      <g>
        <rect class="cls-2" x="384" y="239.83" width="4" height="12"/>
        <rect class="cls-2" x="372" y="251.83" width="12" height="4"/>
        <rect class="cls-2" x="372" y="235.83" width="12" height="4"/>
        <rect class="cls-2" x="368" y="239.83" width="4" height="12"/>
        <rect class="cls-15" x="372" y="239.83" width="12" height="12"/>
        <rect class="cls-2" x="384" y="239.83" width="4" height="12"/>
        <rect class="cls-2" x="372" y="251.83" width="12" height="4"/>
        <rect class="cls-2" x="372" y="235.83" width="12" height="4"/>
        <rect class="cls-2" x="368" y="239.83" width="4" height="12"/>
        <rect class="cls-15" x="372" y="239.83" width="12" height="12"/>
      </g>
      <g>
        <rect class="cls-2" x="348" y="288" width="4" height="12"/>
        <rect class="cls-2" x="336" y="300" width="12" height="4"/>
        <rect class="cls-2" x="336" y="284" width="12" height="4"/>
        <rect class="cls-2" x="332" y="288" width="4" height="12"/>
        <rect class="cls-15" x="336" y="288" width="12" height="12"/>
        <rect class="cls-2" x="348" y="288" width="4" height="12"/>
        <rect class="cls-2" x="336" y="300" width="12" height="4"/>
        <rect class="cls-2" x="336" y="284" width="12" height="4"/>
        <rect class="cls-2" x="332" y="288" width="4" height="12"/>
        <rect class="cls-15" x="336" y="288" width="12" height="12"/>
      </g>
      <g>
        <rect class="cls-2" x="220" y="292.01" width="4" height="12"/>
        <rect class="cls-2" x="208" y="304.01" width="12" height="4"/>
        <rect class="cls-2" x="208" y="288.01" width="12" height="4"/>
        <rect class="cls-2" x="204" y="292.01" width="4" height="12"/>
        <rect class="cls-15" x="208" y="292.01" width="12" height="12"/>
      </g>
      <g>
        <rect class="cls-2" x="111.83" y="232.01" width="4" height="12"/>
        <rect class="cls-2" x="99.83" y="244.01" width="12" height="4"/>
        <rect class="cls-2" x="99.83" y="228.01" width="12" height="4"/>
        <rect class="cls-2" x="95.83" y="232.01" width="4" height="12"/>
        <rect class="cls-15" x="99.83" y="232.01" width="12" height="12"/>
      </g>
      <g>
        <rect class="cls-2" x="52" y="203.83" width="4" height="12"/>
        <rect class="cls-2" x="40" y="215.83" width="12" height="4"/>
        <rect class="cls-2" x="40" y="199.83" width="12" height="4"/>
        <rect class="cls-2" x="36" y="203.83" width="4" height="12"/>
        <rect class="cls-15" x="40" y="203.83" width="12" height="12"/>
      </g>
      <g>
        <rect class="cls-2" x="64" y="216" width="4" height="12"/>
        <rect class="cls-2" x="52" y="228" width="12" height="4"/>
        <rect class="cls-2" x="52" y="212" width="12" height="4"/>
        <rect class="cls-2" x="48" y="216" width="4" height="12"/>
        <rect class="cls-15" x="52" y="216" width="12" height="12"/>
      </g>
      <g>
        <rect class="cls-2" x="44" y="216" width="4" height="12"/>
        <rect class="cls-2" x="32" y="228" width="12" height="4"/>
        <rect class="cls-2" x="32" y="212" width="12" height="4"/>
        <rect class="cls-2" x="28" y="216" width="4" height="12"/>
        <rect class="cls-15" x="32" y="216" width="12" height="12"/>
      </g>
    </g>
  </g>
</svg>