<?xml version="1.0" encoding="UTF-8"?>
<svg id="Layer_1" xmlns="http://www.w3.org/2000/svg" viewBox="0 0 600 600">
  <defs>
    <style>
      .cls-1 {
        fill: #29abe2;
      }

      .cls-2 {
        fill: #39b54a;
      }

      .cls-3 {
        fill: #8cc63f;
      }

      .cls-4 {
        fill: #73c7e5;
      }

      .cls-5 {
        fill: #fff;
      }

      .cls-6 {
        fill: #009245;
      }

      .cls-7 {
        fill: #2d3c53;
      }
    </style>
  </defs>
  <g id="Frame">
    <polygon class="cls-5" points="585.01 59.94 585.01 540.06 570.03 540.06 570.03 555.04 555.04 555.04 555.04 570.03 540.06 570.03 540.06 585.01 59.94 585.01 59.94 570.03 44.96 570.03 44.96 555.04 29.97 555.04 29.97 540.06 14.99 540.06 14.99 59.94 29.97 59.94 29.97 44.96 44.96 44.96 44.96 29.97 59.94 29.97 59.94 14.99 540.06 14.99 540.06 29.97 555.04 29.97 555.04 44.96 570.03 44.96 570.03 59.94 585.01 59.94"/>
    <g>
      <polygon class="cls-7" points="59.94 14.99 59.94 29.97 44.96 29.97 44.96 44.96 29.97 44.96 29.97 59.94 14.99 59.94 14.99 29.97 29.97 29.97 29.97 14.99 59.94 14.99"/>
      <rect class="cls-7" x="59.94" width="480.12" height="14.99"/>
      <polygon class="cls-7" points="59.94 570.03 59.94 585.01 29.97 585.01 29.97 570.03 14.99 570.03 14.99 540.06 29.97 540.06 29.97 555.04 44.96 555.04 44.96 570.03 59.94 570.03"/>
      <rect class="cls-7" y="59.94" width="14.99" height="480.12"/>
      <polygon class="cls-7" points="585.01 540.06 585.01 570.03 570.03 570.03 570.03 585.01 540.06 585.01 540.06 570.03 555.04 570.03 555.04 555.04 570.03 555.04 570.03 540.06 585.01 540.06"/>
      <rect class="cls-7" x="59.94" y="585.01" width="480.12" height="14.99"/>
      <polygon class="cls-7" points="585.01 29.97 585.01 59.94 570.03 59.94 570.03 44.96 555.04 44.96 555.04 29.97 540.06 29.97 540.06 14.99 570.03 14.99 570.03 29.97 585.01 29.97"/>
      <rect class="cls-7" x="585.01" y="59.94" width="14.99" height="480.12"/>
    </g>
  </g>
  <g>
    <g>
      <rect class="cls-1" x="395.44" y="437.88" width="17.35" height="34.71"/>
      <rect class="cls-1" x="378.09" y="472.59" width="17.35" height="34.71"/>
      <rect class="cls-1" x="360.74" y="507.29" width="17.35" height="17.35"/>
      <rect class="cls-1" x="360.74" y="437.88" width="17.35" height="34.71"/>
      <rect class="cls-1" x="343.38" y="472.59" width="17.35" height="34.71"/>
      <rect class="cls-1" x="326.03" y="507.29" width="17.35" height="17.35"/>
      <rect class="cls-1" x="326.03" y="437.88" width="17.35" height="34.71"/>
      <rect class="cls-1" x="308.68" y="472.59" width="17.35" height="34.71"/>
      <rect class="cls-1" x="291.32" y="507.29" width="17.35" height="17.35"/>
      <rect class="cls-1" x="291.32" y="437.88" width="17.35" height="34.71"/>
      <rect class="cls-1" x="273.97" y="472.59" width="17.35" height="34.71"/>
      <rect class="cls-1" x="256.62" y="507.29" width="17.35" height="17.35"/>
      <rect class="cls-1" x="256.62" y="437.88" width="17.35" height="34.71"/>
      <rect class="cls-1" x="239.26" y="472.59" width="17.35" height="34.71"/>
      <rect class="cls-1" x="221.91" y="507.29" width="17.35" height="17.35"/>
      <rect class="cls-1" x="221.91" y="437.88" width="17.35" height="34.71"/>
      <rect class="cls-1" x="204.56" y="472.59" width="17.35" height="34.71"/>
      <rect class="cls-1" x="187.21" y="437.88" width="17.35" height="34.71"/>
    </g>
    <g>
      <path class="cls-4" d="M152.5,420.53v69.41h17.35v17.35h17.35v17.35h17.35v17.35h190.88v-17.35h17.35v-17.35h17.35v-17.35h17.35v-69.41H152.5ZM378.09,507.29v17.35h-17.35v-17.35h-17.35v17.35h-17.35v-17.35h-17.35v17.35h-17.35v-17.35h-17.35v17.35h-17.35v-17.35h-17.35v17.35h-17.35v-17.35h-17.35v-34.71h-17.35v-34.71h17.35v34.71h17.35v-34.71h17.35v34.71h17.35v-34.71h17.35v34.71h17.35v-34.71h17.35v34.71h17.35v-34.71h17.35v34.71h17.35v-34.71h17.35v34.71h17.35v-34.71h17.35v34.71h-17.35v34.71h-17.35Z"/>
      <rect class="cls-4" x="360.74" y="472.59" width="17.35" height="34.71"/>
      <rect class="cls-4" x="326.03" y="472.59" width="17.35" height="34.71"/>
      <rect class="cls-4" x="291.32" y="472.59" width="17.35" height="34.71"/>
      <rect class="cls-4" x="256.62" y="472.59" width="17.35" height="34.71"/>
      <rect class="cls-4" x="221.91" y="472.59" width="17.35" height="34.71"/>
    </g>
    <rect class="cls-6" x="430.15" y="333.76" width="17.35" height="17.35"/>
    <rect class="cls-6" x="412.79" y="333.76" width="17.35" height="17.35"/>
    <rect class="cls-6" x="395.44" y="368.47" width="17.35" height="17.35"/>
    <rect class="cls-6" x="395.44" y="351.12" width="17.35" height="17.35"/>
    <rect class="cls-3" x="395.44" y="333.76" width="17.35" height="17.35"/>
    <rect class="cls-6" x="395.44" y="316.41" width="17.35" height="17.35"/>
    <rect class="cls-6" x="378.09" y="385.82" width="17.35" height="17.35"/>
    <rect class="cls-2" x="378.09" y="368.47" width="17.35" height="17.35"/>
    <rect class="cls-2" x="378.09" y="351.12" width="17.35" height="17.35"/>
    <rect class="cls-2" x="378.09" y="333.76" width="17.35" height="17.35"/>
    <rect class="cls-3" x="378.09" y="316.41" width="17.35" height="17.35"/>
    <rect class="cls-6" x="360.74" y="403.18" width="17.35" height="17.35"/>
    <rect class="cls-2" x="360.74" y="385.82" width="17.35" height="17.35"/>
    <rect class="cls-2" x="360.74" y="368.47" width="17.35" height="17.35"/>
    <rect class="cls-2" x="360.74" y="351.12" width="17.35" height="17.35"/>
    <rect class="cls-3" x="360.74" y="333.76" width="17.35" height="17.35"/>
    <rect class="cls-6" x="360.74" y="316.41" width="17.35" height="17.35"/>
    <rect class="cls-2" x="360.74" y="281.71" width="17.35" height="17.35"/>
    <rect class="cls-2" x="360.74" y="264.35" width="17.35" height="17.35"/>
    <rect class="cls-6" x="343.38" y="403.18" width="17.35" height="17.35"/>
    <rect class="cls-2" x="343.38" y="385.82" width="17.35" height="17.35"/>
    <rect class="cls-2" x="343.38" y="368.47" width="17.35" height="17.35"/>
    <rect class="cls-3" x="343.38" y="351.12" width="17.35" height="17.35"/>
    <rect class="cls-6" x="343.38" y="333.76" width="17.35" height="17.35"/>
    <rect class="cls-2" x="343.38" y="316.41" width="17.35" height="17.35"/>
    <rect class="cls-2" x="343.38" y="299.06" width="17.35" height="17.35"/>
    <rect class="cls-2" x="343.38" y="281.71" width="17.35" height="17.35"/>
    <rect class="cls-2" x="343.38" y="264.35" width="17.35" height="17.35"/>
    <rect class="cls-3" x="343.38" y="247" width="17.35" height="17.35"/>
    <rect class="cls-2" x="326.03" y="403.18" width="17.35" height="17.35"/>
    <rect class="cls-2" x="326.03" y="385.82" width="17.35" height="17.35"/>
    <rect class="cls-3" x="326.03" y="368.47" width="17.35" height="17.35"/>
    <rect class="cls-6" x="326.03" y="351.12" width="17.35" height="17.35"/>
    <rect class="cls-6" x="326.03" y="333.76" width="17.35" height="17.35"/>
    <rect class="cls-6" x="326.03" y="316.41" width="17.35" height="17.35"/>
    <rect class="cls-2" x="326.03" y="299.06" width="17.35" height="17.35"/>
    <rect class="cls-2" x="326.03" y="281.71" width="17.35" height="17.35"/>
    <rect class="cls-3" x="326.03" y="264.35" width="17.35" height="17.35"/>
    <rect class="cls-2" x="308.68" y="403.18" width="17.35" height="17.35"/>
    <rect class="cls-2" x="308.68" y="385.82" width="17.35" height="17.35"/>
    <rect class="cls-6" x="308.68" y="368.47" width="17.35" height="17.35"/>
    <rect class="cls-6" x="308.68" y="351.12" width="17.35" height="17.35"/>
    <rect class="cls-6" x="308.68" y="333.76" width="17.35" height="17.35"/>
    <rect class="cls-6" x="308.68" y="316.41" width="17.35" height="17.35"/>
    <rect class="cls-6" x="308.68" y="299.06" width="17.35" height="17.35"/>
    <rect class="cls-3" x="308.68" y="281.71" width="17.35" height="17.35"/>
    <rect class="cls-2" x="291.32" y="403.18" width="17.35" height="17.35"/>
    <rect class="cls-6" x="291.32" y="385.82" width="17.35" height="17.35"/>
    <rect class="cls-6" x="291.32" y="368.47" width="17.35" height="17.35"/>
    <rect class="cls-6" x="291.32" y="351.12" width="17.35" height="17.35"/>
    <rect class="cls-6" x="291.32" y="333.76" width="17.35" height="17.35"/>
    <rect class="cls-6" x="291.32" y="316.41" width="17.35" height="17.35"/>
    <rect class="cls-6" x="291.32" y="299.06" width="17.35" height="17.35"/>
    <rect class="cls-6" x="291.32" y="281.71" width="17.35" height="17.35"/>
    <rect class="cls-6" x="291.32" y="264.35" width="17.35" height="17.35"/>
    <rect class="cls-6" x="291.32" y="247" width="17.35" height="17.35"/>
    <rect class="cls-2" x="273.97" y="403.18" width="17.35" height="17.35"/>
    <rect class="cls-2" x="273.97" y="385.82" width="17.35" height="17.35"/>
    <rect class="cls-6" x="273.97" y="368.47" width="17.35" height="17.35"/>
    <rect class="cls-6" x="273.97" y="351.12" width="17.35" height="17.35"/>
    <rect class="cls-6" x="273.97" y="333.76" width="17.35" height="17.35"/>
    <rect class="cls-6" x="273.97" y="316.41" width="17.35" height="17.35"/>
    <rect class="cls-6" x="273.97" y="299.06" width="17.35" height="17.35"/>
    <rect class="cls-3" x="273.97" y="281.71" width="17.35" height="17.35"/>
    <rect class="cls-6" x="273.97" y="264.35" width="17.35" height="17.35"/>
    <rect class="cls-6" x="273.97" y="247" width="17.35" height="17.35"/>
    <rect class="cls-2" x="256.62" y="403.18" width="17.35" height="17.35"/>
    <rect class="cls-2" x="256.62" y="385.82" width="17.35" height="17.35"/>
    <rect class="cls-3" x="256.62" y="368.47" width="17.35" height="17.35"/>
    <rect class="cls-6" x="256.62" y="351.12" width="17.35" height="17.35"/>
    <rect class="cls-6" x="256.62" y="333.76" width="17.35" height="17.35"/>
    <rect class="cls-6" x="256.62" y="316.41" width="17.35" height="17.35"/>
    <rect class="cls-2" x="256.62" y="299.06" width="17.35" height="17.35"/>
    <rect class="cls-2" x="256.62" y="281.71" width="17.35" height="17.35"/>
    <rect class="cls-3" x="256.62" y="264.35" width="17.35" height="17.35"/>
    <rect class="cls-6" x="256.62" y="247" width="17.35" height="17.35"/>
    <rect class="cls-6" x="256.62" y="229.65" width="17.35" height="17.35"/>
    <rect class="cls-6" x="239.26" y="403.18" width="17.35" height="17.35"/>
    <rect class="cls-2" x="239.26" y="385.82" width="17.35" height="17.35"/>
    <rect class="cls-2" x="239.26" y="368.47" width="17.35" height="17.35"/>
    <rect class="cls-3" x="239.26" y="351.12" width="17.35" height="17.35"/>
    <rect class="cls-6" x="239.26" y="333.76" width="17.35" height="17.35"/>
    <rect class="cls-2" x="239.26" y="316.41" width="17.35" height="17.35"/>
    <rect class="cls-2" x="239.26" y="299.06" width="17.35" height="17.35"/>
    <rect class="cls-2" x="239.26" y="281.71" width="17.35" height="17.35"/>
    <rect class="cls-2" x="239.26" y="264.35" width="17.35" height="17.35"/>
    <rect class="cls-3" x="239.26" y="247" width="17.35" height="17.35"/>
    <rect class="cls-6" x="239.26" y="229.65" width="17.35" height="17.35"/>
    <rect class="cls-6" x="221.91" y="403.18" width="17.35" height="17.35"/>
    <rect class="cls-2" x="221.91" y="385.82" width="17.35" height="17.35"/>
    <rect class="cls-2" x="221.91" y="368.47" width="17.35" height="17.35"/>
    <rect class="cls-2" x="221.91" y="351.12" width="17.35" height="17.35"/>
    <rect class="cls-3" x="221.91" y="333.76" width="17.35" height="17.35"/>
    <rect class="cls-6" x="221.91" y="316.41" width="17.35" height="17.35"/>
    <rect class="cls-2" x="221.91" y="299.06" width="17.35" height="17.35"/>
    <rect class="cls-2" x="221.91" y="281.71" width="17.35" height="17.35"/>
    <rect class="cls-2" x="221.91" y="264.35" width="17.35" height="17.35"/>
    <rect class="cls-2" x="221.91" y="247" width="17.35" height="17.35"/>
    <rect class="cls-6" x="204.56" y="385.82" width="17.35" height="17.35"/>
    <rect class="cls-2" x="204.56" y="368.47" width="17.35" height="17.35"/>
    <rect class="cls-2" x="204.56" y="351.12" width="17.35" height="17.35"/>
    <rect class="cls-2" x="204.56" y="333.76" width="17.35" height="17.35"/>
    <rect class="cls-3" x="204.56" y="316.41" width="17.35" height="17.35"/>
    <rect class="cls-6" x="204.56" y="299.06" width="17.35" height="17.35"/>
    <rect class="cls-6" x="204.56" y="281.71" width="17.35" height="17.35"/>
    <rect class="cls-6" x="204.56" y="264.35" width="17.35" height="17.35"/>
    <rect class="cls-2" x="204.56" y="247" width="17.35" height="17.35"/>
    <rect class="cls-6" x="187.21" y="368.47" width="17.35" height="17.35"/>
    <rect class="cls-6" x="187.21" y="351.12" width="17.35" height="17.35"/>
    <rect class="cls-3" x="187.21" y="333.76" width="17.35" height="17.35"/>
    <rect class="cls-6" x="187.21" y="316.41" width="17.35" height="17.35"/>
    <rect class="cls-6" x="169.85" y="333.76" width="17.35" height="17.35"/>
    <rect class="cls-6" x="152.5" y="333.76" width="17.35" height="17.35"/>
  </g>
</svg>