<svg xmlns="http://www.w3.org/2000/svg" xmlns:xlink="http://www.w3.org/1999/xlink" width="2600" zoomAndPan="magnify" viewBox="0 0 1950 749.999995" height="1000" preserveAspectRatio="xMidYMid meet" version="1.0"><defs><g/><clipPath id="d765605483"><path d="M 88.039062 100.425781 L 637.039062 100.425781 L 637.039062 649.425781 L 88.039062 649.425781 Z M 88.039062 100.425781 " clip-rule="nonzero"/></clipPath><clipPath id="08aa44cc00"><path d="M 88.039062 126.675781 L 88.039062 623.324219 C 88.039062 637.824219 99.789062 649.574219 114.289062 649.574219 L 610.9375 649.574219 C 625.433594 649.574219 637.1875 637.824219 637.1875 623.324219 L 637.1875 126.675781 C 637.1875 112.175781 625.433594 100.425781 610.9375 100.425781 L 114.289062 100.425781 C 99.789062 100.425781 88.039062 112.175781 88.039062 126.675781 Z M 88.039062 126.675781 " clip-rule="nonzero"/></clipPath><clipPath id="740ce88bc4"><path d="M 250 493 L 475 493 L 475 572 L 250 572 Z M 250 493 " clip-rule="nonzero"/></clipPath><clipPath id="0c18fd2a62"><path d="M 88.039062 126.675781 L 88.039062 623.324219 C 88.039062 637.824219 99.789062 649.574219 114.289062 649.574219 L 610.9375 649.574219 C 625.433594 649.574219 637.1875 637.824219 637.1875 623.324219 L 637.1875 126.675781 C 637.1875 112.175781 625.433594 100.425781 610.9375 100.425781 L 114.289062 100.425781 C 99.789062 100.425781 88.039062 112.175781 88.039062 126.675781 Z M 88.039062 126.675781 " clip-rule="nonzero"/></clipPath><clipPath id="6ccc2f72bc"><path d="M 250 493 L 475 493 L 475 573 L 250 573 Z M 250 493 " clip-rule="nonzero"/></clipPath><clipPath id="a88a2b0f6e"><path d="M 88.039062 126.675781 L 88.039062 623.324219 C 88.039062 637.824219 99.789062 649.574219 114.289062 649.574219 L 610.9375 649.574219 C 625.433594 649.574219 637.1875 637.824219 637.1875 623.324219 L 637.1875 126.675781 C 637.1875 112.175781 625.433594 100.425781 610.9375 100.425781 L 114.289062 100.425781 C 99.789062 100.425781 88.039062 112.175781 88.039062 126.675781 Z M 88.039062 126.675781 " clip-rule="nonzero"/></clipPath><clipPath id="47fd06b7a3"><path d="M 291 423 L 344 423 L 344 450 L 291 450 Z M 291 423 " clip-rule="nonzero"/></clipPath><clipPath id="7ced1745f1"><path d="M 88.039062 126.675781 L 88.039062 623.324219 C 88.039062 637.824219 99.789062 649.574219 114.289062 649.574219 L 610.9375 649.574219 C 625.433594 649.574219 637.1875 637.824219 637.1875 623.324219 L 637.1875 126.675781 C 637.1875 112.175781 625.433594 100.425781 610.9375 100.425781 L 114.289062 100.425781 C 99.789062 100.425781 88.039062 112.175781 88.039062 126.675781 Z M 88.039062 126.675781 " clip-rule="nonzero"/></clipPath><clipPath id="8957fd5270"><path d="M 291 177 L 357 177 L 357 217 L 291 217 Z M 291 177 " clip-rule="nonzero"/></clipPath><clipPath id="ceac12be05"><path d="M 88.039062 126.675781 L 88.039062 623.324219 C 88.039062 637.824219 99.789062 649.574219 114.289062 649.574219 L 610.9375 649.574219 C 625.433594 649.574219 637.1875 637.824219 637.1875 623.324219 L 637.1875 126.675781 C 637.1875 112.175781 625.433594 100.425781 610.9375 100.425781 L 114.289062 100.425781 C 99.789062 100.425781 88.039062 112.175781 88.039062 126.675781 Z M 88.039062 126.675781 " clip-rule="nonzero"/></clipPath><clipPath id="c01857d40e"><path d="M 290 176 L 357 176 L 357 217 L 290 217 Z M 290 176 " clip-rule="nonzero"/></clipPath><clipPath id="f956291a1c"><path d="M 88.039062 126.675781 L 88.039062 623.324219 C 88.039062 637.824219 99.789062 649.574219 114.289062 649.574219 L 610.9375 649.574219 C 625.433594 649.574219 637.1875 637.824219 637.1875 623.324219 L 637.1875 126.675781 C 637.1875 112.175781 625.433594 100.425781 610.9375 100.425781 L 114.289062 100.425781 C 99.789062 100.425781 88.039062 112.175781 88.039062 126.675781 Z M 88.039062 126.675781 " clip-rule="nonzero"/></clipPath><clipPath id="4a8ceaa01f"><path d="M 278 349 L 344 349 L 344 389 L 278 389 Z M 278 349 " clip-rule="nonzero"/></clipPath><clipPath id="0d94d9ebcf"><path d="M 88.039062 126.675781 L 88.039062 623.324219 C 88.039062 637.824219 99.789062 649.574219 114.289062 649.574219 L 610.9375 649.574219 C 625.433594 649.574219 637.1875 637.824219 637.1875 623.324219 L 637.1875 126.675781 C 637.1875 112.175781 625.433594 100.425781 610.9375 100.425781 L 114.289062 100.425781 C 99.789062 100.425781 88.039062 112.175781 88.039062 126.675781 Z M 88.039062 126.675781 " clip-rule="nonzero"/></clipPath><clipPath id="2e5e1816d8"><path d="M 395 362 L 474 362 L 474 415 L 395 415 Z M 395 362 " clip-rule="nonzero"/></clipPath><clipPath id="fcf063b61c"><path d="M 88.039062 126.675781 L 88.039062 623.324219 C 88.039062 637.824219 99.789062 649.574219 114.289062 649.574219 L 610.9375 649.574219 C 625.433594 649.574219 637.1875 637.824219 637.1875 623.324219 L 637.1875 126.675781 C 637.1875 112.175781 625.433594 100.425781 610.9375 100.425781 L 114.289062 100.425781 C 99.789062 100.425781 88.039062 112.175781 88.039062 126.675781 Z M 88.039062 126.675781 " clip-rule="nonzero"/></clipPath><clipPath id="ac361a19ad"><path d="M 252 245 L 344 245 L 344 311 L 252 311 Z M 252 245 " clip-rule="nonzero"/></clipPath><clipPath id="6a6eb211b5"><path d="M 88.039062 126.675781 L 88.039062 623.324219 C 88.039062 637.824219 99.789062 649.574219 114.289062 649.574219 L 610.9375 649.574219 C 625.433594 649.574219 637.1875 637.824219 637.1875 623.324219 L 637.1875 126.675781 C 637.1875 112.175781 625.433594 100.425781 610.9375 100.425781 L 114.289062 100.425781 C 99.789062 100.425781 88.039062 112.175781 88.039062 126.675781 Z M 88.039062 126.675781 " clip-rule="nonzero"/></clipPath><clipPath id="7271e17503"><path d="M 382 258 L 474 258 L 474 337 L 382 337 Z M 382 258 " clip-rule="nonzero"/></clipPath><clipPath id="d76d65dbc7"><path d="M 88.039062 126.675781 L 88.039062 623.324219 C 88.039062 637.824219 99.789062 649.574219 114.289062 649.574219 L 610.9375 649.574219 C 625.433594 649.574219 637.1875 637.824219 637.1875 623.324219 L 637.1875 126.675781 C 637.1875 112.175781 625.433594 100.425781 610.9375 100.425781 L 114.289062 100.425781 C 99.789062 100.425781 88.039062 112.175781 88.039062 126.675781 Z M 88.039062 126.675781 " clip-rule="nonzero"/></clipPath><clipPath id="67fb53d3ca"><path d="M 252 336 L 344 336 L 344 389 L 252 389 Z M 252 336 " clip-rule="nonzero"/></clipPath><clipPath id="5fe72bb296"><path d="M 88.039062 126.675781 L 88.039062 623.324219 C 88.039062 637.824219 99.789062 649.574219 114.289062 649.574219 L 610.9375 649.574219 C 625.433594 649.574219 637.1875 637.824219 637.1875 623.324219 L 637.1875 126.675781 C 637.1875 112.175781 625.433594 100.425781 610.9375 100.425781 L 114.289062 100.425781 C 99.789062 100.425781 88.039062 112.175781 88.039062 126.675781 Z M 88.039062 126.675781 " clip-rule="nonzero"/></clipPath><clipPath id="51fa90a6c3"><path d="M 382 206 L 435 206 L 435 246 L 382 246 Z M 382 206 " clip-rule="nonzero"/></clipPath><clipPath id="552c4f3cdf"><path d="M 88.039062 126.675781 L 88.039062 623.324219 C 88.039062 637.824219 99.789062 649.574219 114.289062 649.574219 L 610.9375 649.574219 C 625.433594 649.574219 637.1875 637.824219 637.1875 623.324219 L 637.1875 126.675781 C 637.1875 112.175781 625.433594 100.425781 610.9375 100.425781 L 114.289062 100.425781 C 99.789062 100.425781 88.039062 112.175781 88.039062 126.675781 Z M 88.039062 126.675781 " clip-rule="nonzero"/></clipPath><clipPath id="73de53ce7e"><path d="M 382 193 L 435 193 L 435 246 L 382 246 Z M 382 193 " clip-rule="nonzero"/></clipPath><clipPath id="731797e2ca"><path d="M 88.039062 126.675781 L 88.039062 623.324219 C 88.039062 637.824219 99.789062 649.574219 114.289062 649.574219 L 610.9375 649.574219 C 625.433594 649.574219 637.1875 637.824219 637.1875 623.324219 L 637.1875 126.675781 C 637.1875 112.175781 625.433594 100.425781 610.9375 100.425781 L 114.289062 100.425781 C 99.789062 100.425781 88.039062 112.175781 88.039062 126.675781 Z M 88.039062 126.675781 " clip-rule="nonzero"/></clipPath><clipPath id="b58b51b984"><path d="M 237 480 L 488 480 L 488 494 L 237 494 Z M 237 480 " clip-rule="nonzero"/></clipPath><clipPath id="26c6f8fb7b"><path d="M 88.039062 126.675781 L 88.039062 623.324219 C 88.039062 637.824219 99.789062 649.574219 114.289062 649.574219 L 610.9375 649.574219 C 625.433594 649.574219 637.1875 637.824219 637.1875 623.324219 L 637.1875 126.675781 C 637.1875 112.175781 625.433594 100.425781 610.9375 100.425781 L 114.289062 100.425781 C 99.789062 100.425781 88.039062 112.175781 88.039062 126.675781 Z M 88.039062 126.675781 " clip-rule="nonzero"/></clipPath><clipPath id="7b006ba30e"><path d="M 289 571 L 436 571 L 436 585 L 289 585 Z M 289 571 " clip-rule="nonzero"/></clipPath><clipPath id="de9e9c2765"><path d="M 88.039062 126.675781 L 88.039062 623.324219 C 88.039062 637.824219 99.789062 649.574219 114.289062 649.574219 L 610.9375 649.574219 C 625.433594 649.574219 637.1875 637.824219 637.1875 623.324219 L 637.1875 126.675781 C 637.1875 112.175781 625.433594 100.425781 610.9375 100.425781 L 114.289062 100.425781 C 99.789062 100.425781 88.039062 112.175781 88.039062 126.675781 Z M 88.039062 126.675781 " clip-rule="nonzero"/></clipPath><clipPath id="e0f0005768"><path d="M 237 493 L 251 493 L 251 533 L 237 533 Z M 237 493 " clip-rule="nonzero"/></clipPath><clipPath id="510065be75"><path d="M 88.039062 126.675781 L 88.039062 623.324219 C 88.039062 637.824219 99.789062 649.574219 114.289062 649.574219 L 610.9375 649.574219 C 625.433594 649.574219 637.1875 637.824219 637.1875 623.324219 L 637.1875 126.675781 C 637.1875 112.175781 625.433594 100.425781 610.9375 100.425781 L 114.289062 100.425781 C 99.789062 100.425781 88.039062 112.175781 88.039062 126.675781 Z M 88.039062 126.675781 " clip-rule="nonzero"/></clipPath><clipPath id="7bb2c4e74a"><path d="M 474 493 L 488 493 L 488 533 L 474 533 Z M 474 493 " clip-rule="nonzero"/></clipPath><clipPath id="e823809e60"><path d="M 88.039062 126.675781 L 88.039062 623.324219 C 88.039062 637.824219 99.789062 649.574219 114.289062 649.574219 L 610.9375 649.574219 C 625.433594 649.574219 637.1875 637.824219 637.1875 623.324219 L 637.1875 126.675781 C 637.1875 112.175781 625.433594 100.425781 610.9375 100.425781 L 114.289062 100.425781 C 99.789062 100.425781 88.039062 112.175781 88.039062 126.675781 Z M 88.039062 126.675781 " clip-rule="nonzero"/></clipPath><clipPath id="987272d305"><path d="M 250 532 L 264 532 L 264 546 L 250 546 Z M 250 532 " clip-rule="nonzero"/></clipPath><clipPath id="78f53d76e3"><path d="M 88.039062 126.675781 L 88.039062 623.324219 C 88.039062 637.824219 99.789062 649.574219 114.289062 649.574219 L 610.9375 649.574219 C 625.433594 649.574219 637.1875 637.824219 637.1875 623.324219 L 637.1875 126.675781 C 637.1875 112.175781 625.433594 100.425781 610.9375 100.425781 L 114.289062 100.425781 C 99.789062 100.425781 88.039062 112.175781 88.039062 126.675781 Z M 88.039062 126.675781 " clip-rule="nonzero"/></clipPath><clipPath id="401536a28c"><path d="M 461 532 L 475 532 L 475 546 L 461 546 Z M 461 532 " clip-rule="nonzero"/></clipPath><clipPath id="0c446dda90"><path d="M 88.039062 126.675781 L 88.039062 623.324219 C 88.039062 637.824219 99.789062 649.574219 114.289062 649.574219 L 610.9375 649.574219 C 625.433594 649.574219 637.1875 637.824219 637.1875 623.324219 L 637.1875 126.675781 C 637.1875 112.175781 625.433594 100.425781 610.9375 100.425781 L 114.289062 100.425781 C 99.789062 100.425781 88.039062 112.175781 88.039062 126.675781 Z M 88.039062 126.675781 " clip-rule="nonzero"/></clipPath><clipPath id="bf7aada300"><path d="M 448 545 L 462 545 L 462 559 L 448 559 Z M 448 545 " clip-rule="nonzero"/></clipPath><clipPath id="276ff6c5f3"><path d="M 88.039062 126.675781 L 88.039062 623.324219 C 88.039062 637.824219 99.789062 649.574219 114.289062 649.574219 L 610.9375 649.574219 C 625.433594 649.574219 637.1875 637.824219 637.1875 623.324219 L 637.1875 126.675781 C 637.1875 112.175781 625.433594 100.425781 610.9375 100.425781 L 114.289062 100.425781 C 99.789062 100.425781 88.039062 112.175781 88.039062 126.675781 Z M 88.039062 126.675781 " clip-rule="nonzero"/></clipPath><clipPath id="05502f16d5"><path d="M 435 558 L 449 558 L 449 572 L 435 572 Z M 435 558 " clip-rule="nonzero"/></clipPath><clipPath id="8249e8defb"><path d="M 88.039062 126.675781 L 88.039062 623.324219 C 88.039062 637.824219 99.789062 649.574219 114.289062 649.574219 L 610.9375 649.574219 C 625.433594 649.574219 637.1875 637.824219 637.1875 623.324219 L 637.1875 126.675781 C 637.1875 112.175781 625.433594 100.425781 610.9375 100.425781 L 114.289062 100.425781 C 99.789062 100.425781 88.039062 112.175781 88.039062 126.675781 Z M 88.039062 126.675781 " clip-rule="nonzero"/></clipPath><clipPath id="445ef9d190"><path d="M 263 545 L 277 545 L 277 559 L 263 559 Z M 263 545 " clip-rule="nonzero"/></clipPath><clipPath id="6e3858b33b"><path d="M 88.039062 126.675781 L 88.039062 623.324219 C 88.039062 637.824219 99.789062 649.574219 114.289062 649.574219 L 610.9375 649.574219 C 625.433594 649.574219 637.1875 637.824219 637.1875 623.324219 L 637.1875 126.675781 C 637.1875 112.175781 625.433594 100.425781 610.9375 100.425781 L 114.289062 100.425781 C 99.789062 100.425781 88.039062 112.175781 88.039062 126.675781 Z M 88.039062 126.675781 " clip-rule="nonzero"/></clipPath><clipPath id="07ccf6d754"><path d="M 276 558 L 290 558 L 290 572 L 276 572 Z M 276 558 " clip-rule="nonzero"/></clipPath><clipPath id="79c19c1f44"><path d="M 88.039062 126.675781 L 88.039062 623.324219 C 88.039062 637.824219 99.789062 649.574219 114.289062 649.574219 L 610.9375 649.574219 C 625.433594 649.574219 637.1875 637.824219 637.1875 623.324219 L 637.1875 126.675781 C 637.1875 112.175781 625.433594 100.425781 610.9375 100.425781 L 114.289062 100.425781 C 99.789062 100.425781 88.039062 112.175781 88.039062 126.675781 Z M 88.039062 126.675781 " clip-rule="nonzero"/></clipPath><clipPath id="02095ccfe4"><path d="M 356 436 L 370 436 L 370 481 L 356 481 Z M 356 436 " clip-rule="nonzero"/></clipPath><clipPath id="7fb21c2314"><path d="M 88.039062 126.675781 L 88.039062 623.324219 C 88.039062 637.824219 99.789062 649.574219 114.289062 649.574219 L 610.9375 649.574219 C 625.433594 649.574219 637.1875 637.824219 637.1875 623.324219 L 637.1875 126.675781 C 637.1875 112.175781 625.433594 100.425781 610.9375 100.425781 L 114.289062 100.425781 C 99.789062 100.425781 88.039062 112.175781 88.039062 126.675781 Z M 88.039062 126.675781 " clip-rule="nonzero"/></clipPath><clipPath id="cc1e69b70d"><path d="M 304 449 L 357 449 L 357 463 L 304 463 Z M 304 449 " clip-rule="nonzero"/></clipPath><clipPath id="0434a9adda"><path d="M 88.039062 126.675781 L 88.039062 623.324219 C 88.039062 637.824219 99.789062 649.574219 114.289062 649.574219 L 610.9375 649.574219 C 625.433594 649.574219 637.1875 637.824219 637.1875 623.324219 L 637.1875 126.675781 C 637.1875 112.175781 625.433594 100.425781 610.9375 100.425781 L 114.289062 100.425781 C 99.789062 100.425781 88.039062 112.175781 88.039062 126.675781 Z M 88.039062 126.675781 " clip-rule="nonzero"/></clipPath><clipPath id="fdc533475f"><path d="M 278 423 L 292 423 L 292 437 L 278 437 Z M 278 423 " clip-rule="nonzero"/></clipPath><clipPath id="d115d6327e"><path d="M 88.039062 126.675781 L 88.039062 623.324219 C 88.039062 637.824219 99.789062 649.574219 114.289062 649.574219 L 610.9375 649.574219 C 625.433594 649.574219 637.1875 637.824219 637.1875 623.324219 L 637.1875 126.675781 C 637.1875 112.175781 625.433594 100.425781 610.9375 100.425781 L 114.289062 100.425781 C 99.789062 100.425781 88.039062 112.175781 88.039062 126.675781 Z M 88.039062 126.675781 " clip-rule="nonzero"/></clipPath><clipPath id="ae9ab88d6b"><path d="M 291 436 L 305 436 L 305 450 L 291 450 Z M 291 436 " clip-rule="nonzero"/></clipPath><clipPath id="49e387022b"><path d="M 88.039062 126.675781 L 88.039062 623.324219 C 88.039062 637.824219 99.789062 649.574219 114.289062 649.574219 L 610.9375 649.574219 C 625.433594 649.574219 637.1875 637.824219 637.1875 623.324219 L 637.1875 126.675781 C 637.1875 112.175781 625.433594 100.425781 610.9375 100.425781 L 114.289062 100.425781 C 99.789062 100.425781 88.039062 112.175781 88.039062 126.675781 Z M 88.039062 126.675781 " clip-rule="nonzero"/></clipPath><clipPath id="5540fb5031"><path d="M 291 410 L 331 410 L 331 424 L 291 424 Z M 291 410 " clip-rule="nonzero"/></clipPath><clipPath id="88c32c9230"><path d="M 88.039062 126.675781 L 88.039062 623.324219 C 88.039062 637.824219 99.789062 649.574219 114.289062 649.574219 L 610.9375 649.574219 C 625.433594 649.574219 637.1875 637.824219 637.1875 623.324219 L 637.1875 126.675781 C 637.1875 112.175781 625.433594 100.425781 610.9375 100.425781 L 114.289062 100.425781 C 99.789062 100.425781 88.039062 112.175781 88.039062 126.675781 Z M 88.039062 126.675781 " clip-rule="nonzero"/></clipPath><clipPath id="32f0159341"><path d="M 343 436 L 357 436 L 357 450 L 343 450 Z M 343 436 " clip-rule="nonzero"/></clipPath><clipPath id="7eea34824c"><path d="M 88.039062 126.675781 L 88.039062 623.324219 C 88.039062 637.824219 99.789062 649.574219 114.289062 649.574219 L 610.9375 649.574219 C 625.433594 649.574219 637.1875 637.824219 637.1875 623.324219 L 637.1875 126.675781 C 637.1875 112.175781 625.433594 100.425781 610.9375 100.425781 L 114.289062 100.425781 C 99.789062 100.425781 88.039062 112.175781 88.039062 126.675781 Z M 88.039062 126.675781 " clip-rule="nonzero"/></clipPath><clipPath id="69f11e2cf9"><path d="M 330 423 L 344 423 L 344 437 L 330 437 Z M 330 423 " clip-rule="nonzero"/></clipPath><clipPath id="451142b8f6"><path d="M 88.039062 126.675781 L 88.039062 623.324219 C 88.039062 637.824219 99.789062 649.574219 114.289062 649.574219 L 610.9375 649.574219 C 625.433594 649.574219 637.1875 637.824219 637.1875 623.324219 L 637.1875 126.675781 C 637.1875 112.175781 625.433594 100.425781 610.9375 100.425781 L 114.289062 100.425781 C 99.789062 100.425781 88.039062 112.175781 88.039062 126.675781 Z M 88.039062 126.675781 " clip-rule="nonzero"/></clipPath><clipPath id="4c84ce28ed"><path d="M 356 401 L 370 401 L 370 437 L 356 437 Z M 356 401 " clip-rule="nonzero"/></clipPath><clipPath id="5ee13149fd"><path d="M 88.039062 126.675781 L 88.039062 623.324219 C 88.039062 637.824219 99.789062 649.574219 114.289062 649.574219 L 610.9375 649.574219 C 625.433594 649.574219 637.1875 637.824219 637.1875 623.324219 L 637.1875 126.675781 C 637.1875 112.175781 625.433594 100.425781 610.9375 100.425781 L 114.289062 100.425781 C 99.789062 100.425781 88.039062 112.175781 88.039062 126.675781 Z M 88.039062 126.675781 " clip-rule="nonzero"/></clipPath><clipPath id="a4f707257a"><path d="M 369 414 L 435 414 L 435 428 L 369 428 Z M 369 414 " clip-rule="nonzero"/></clipPath><clipPath id="7ad7ebf9c3"><path d="M 88.039062 126.675781 L 88.039062 623.324219 C 88.039062 637.824219 99.789062 649.574219 114.289062 649.574219 L 610.9375 649.574219 C 625.433594 649.574219 637.1875 637.824219 637.1875 623.324219 L 637.1875 126.675781 C 637.1875 112.175781 625.433594 100.425781 610.9375 100.425781 L 114.289062 100.425781 C 99.789062 100.425781 88.039062 112.175781 88.039062 126.675781 Z M 88.039062 126.675781 " clip-rule="nonzero"/></clipPath><clipPath id="4fe9fa6d14"><path d="M 434 401 L 461 401 L 461 415 L 434 415 Z M 434 401 " clip-rule="nonzero"/></clipPath><clipPath id="81fc7b3936"><path d="M 88.039062 126.675781 L 88.039062 623.324219 C 88.039062 637.824219 99.789062 649.574219 114.289062 649.574219 L 610.9375 649.574219 C 625.433594 649.574219 637.1875 637.824219 637.1875 623.324219 L 637.1875 126.675781 C 637.1875 112.175781 625.433594 100.425781 610.9375 100.425781 L 114.289062 100.425781 C 99.789062 100.425781 88.039062 112.175781 88.039062 126.675781 Z M 88.039062 126.675781 " clip-rule="nonzero"/></clipPath><clipPath id="63162acb97"><path d="M 460 388 L 474 388 L 474 402 L 460 402 Z M 460 388 " clip-rule="nonzero"/></clipPath><clipPath id="88f95a27fa"><path d="M 88.039062 126.675781 L 88.039062 623.324219 C 88.039062 637.824219 99.789062 649.574219 114.289062 649.574219 L 610.9375 649.574219 C 625.433594 649.574219 637.1875 637.824219 637.1875 623.324219 L 637.1875 126.675781 C 637.1875 112.175781 625.433594 100.425781 610.9375 100.425781 L 114.289062 100.425781 C 99.789062 100.425781 88.039062 112.175781 88.039062 126.675781 Z M 88.039062 126.675781 " clip-rule="nonzero"/></clipPath><clipPath id="9d117ba9a1"><path d="M 408 375 L 422 375 L 422 389 L 408 389 Z M 408 375 " clip-rule="nonzero"/></clipPath><clipPath id="6e513ff036"><path d="M 88.039062 126.675781 L 88.039062 623.324219 C 88.039062 637.824219 99.789062 649.574219 114.289062 649.574219 L 610.9375 649.574219 C 625.433594 649.574219 637.1875 637.824219 637.1875 623.324219 L 637.1875 126.675781 C 637.1875 112.175781 625.433594 100.425781 610.9375 100.425781 L 114.289062 100.425781 C 99.789062 100.425781 88.039062 112.175781 88.039062 126.675781 Z M 88.039062 126.675781 " clip-rule="nonzero"/></clipPath><clipPath id="c47f62183c"><path d="M 421 362 L 435 362 L 435 376 L 421 376 Z M 421 362 " clip-rule="nonzero"/></clipPath><clipPath id="c46a309346"><path d="M 88.039062 126.675781 L 88.039062 623.324219 C 88.039062 637.824219 99.789062 649.574219 114.289062 649.574219 L 610.9375 649.574219 C 625.433594 649.574219 637.1875 637.824219 637.1875 623.324219 L 637.1875 126.675781 C 637.1875 112.175781 625.433594 100.425781 610.9375 100.425781 L 114.289062 100.425781 C 99.789062 100.425781 88.039062 112.175781 88.039062 126.675781 Z M 88.039062 126.675781 " clip-rule="nonzero"/></clipPath><clipPath id="2b857f1d03"><path d="M 369 401 L 396 401 L 396 415 L 369 415 Z M 369 401 " clip-rule="nonzero"/></clipPath><clipPath id="1d6af1e3b9"><path d="M 88.039062 126.675781 L 88.039062 623.324219 C 88.039062 637.824219 99.789062 649.574219 114.289062 649.574219 L 610.9375 649.574219 C 625.433594 649.574219 637.1875 637.824219 637.1875 623.324219 L 637.1875 126.675781 C 637.1875 112.175781 625.433594 100.425781 610.9375 100.425781 L 114.289062 100.425781 C 99.789062 100.425781 88.039062 112.175781 88.039062 126.675781 Z M 88.039062 126.675781 " clip-rule="nonzero"/></clipPath><clipPath id="50455ab2f3"><path d="M 382 388 L 409 388 L 409 402 L 382 402 Z M 382 388 " clip-rule="nonzero"/></clipPath><clipPath id="479aae3099"><path d="M 88.039062 126.675781 L 88.039062 623.324219 C 88.039062 637.824219 99.789062 649.574219 114.289062 649.574219 L 610.9375 649.574219 C 625.433594 649.574219 637.1875 637.824219 637.1875 623.324219 L 637.1875 126.675781 C 637.1875 112.175781 625.433594 100.425781 610.9375 100.425781 L 114.289062 100.425781 C 99.789062 100.425781 88.039062 112.175781 88.039062 126.675781 Z M 88.039062 126.675781 " clip-rule="nonzero"/></clipPath><clipPath id="e616331039"><path d="M 473 362 L 487 362 L 487 389 L 473 389 Z M 473 362 " clip-rule="nonzero"/></clipPath><clipPath id="9ba09514c0"><path d="M 88.039062 126.675781 L 88.039062 623.324219 C 88.039062 637.824219 99.789062 649.574219 114.289062 649.574219 L 610.9375 649.574219 C 625.433594 649.574219 637.1875 637.824219 637.1875 623.324219 L 637.1875 126.675781 C 637.1875 112.175781 625.433594 100.425781 610.9375 100.425781 L 114.289062 100.425781 C 99.789062 100.425781 88.039062 112.175781 88.039062 126.675781 Z M 88.039062 126.675781 " clip-rule="nonzero"/></clipPath><clipPath id="cd0feae0f6"><path d="M 434 349 L 474 349 L 474 363 L 434 363 Z M 434 349 " clip-rule="nonzero"/></clipPath><clipPath id="0c7b3519de"><path d="M 88.039062 126.675781 L 88.039062 623.324219 C 88.039062 637.824219 99.789062 649.574219 114.289062 649.574219 L 610.9375 649.574219 C 625.433594 649.574219 637.1875 637.824219 637.1875 623.324219 L 637.1875 126.675781 C 637.1875 112.175781 625.433594 100.425781 610.9375 100.425781 L 114.289062 100.425781 C 99.789062 100.425781 88.039062 112.175781 88.039062 126.675781 Z M 88.039062 126.675781 " clip-rule="nonzero"/></clipPath><clipPath id="68139dafb2"><path d="M 356 297 L 370 297 L 370 324 L 356 324 Z M 356 297 " clip-rule="nonzero"/></clipPath><clipPath id="a2656d96f0"><path d="M 88.039062 126.675781 L 88.039062 623.324219 C 88.039062 637.824219 99.789062 649.574219 114.289062 649.574219 L 610.9375 649.574219 C 625.433594 649.574219 637.1875 637.824219 637.1875 623.324219 L 637.1875 126.675781 C 637.1875 112.175781 625.433594 100.425781 610.9375 100.425781 L 114.289062 100.425781 C 99.789062 100.425781 88.039062 112.175781 88.039062 126.675781 Z M 88.039062 126.675781 " clip-rule="nonzero"/></clipPath><clipPath id="53ae7daef8"><path d="M 343 297 L 357 297 L 357 324 L 343 324 Z M 343 297 " clip-rule="nonzero"/></clipPath><clipPath id="51543199c4"><path d="M 88.039062 126.675781 L 88.039062 623.324219 C 88.039062 637.824219 99.789062 649.574219 114.289062 649.574219 L 610.9375 649.574219 C 625.433594 649.574219 637.1875 637.824219 637.1875 623.324219 L 637.1875 126.675781 C 637.1875 112.175781 625.433594 100.425781 610.9375 100.425781 L 114.289062 100.425781 C 99.789062 100.425781 88.039062 112.175781 88.039062 126.675781 Z M 88.039062 126.675781 " clip-rule="nonzero"/></clipPath><clipPath id="ce59d957b9"><path d="M 304 310 L 344 310 L 344 324 L 304 324 Z M 304 310 " clip-rule="nonzero"/></clipPath><clipPath id="ed7d7db0cd"><path d="M 88.039062 126.675781 L 88.039062 623.324219 C 88.039062 637.824219 99.789062 649.574219 114.289062 649.574219 L 610.9375 649.574219 C 625.433594 649.574219 637.1875 637.824219 637.1875 623.324219 L 637.1875 126.675781 C 637.1875 112.175781 625.433594 100.425781 610.9375 100.425781 L 114.289062 100.425781 C 99.789062 100.425781 88.039062 112.175781 88.039062 126.675781 Z M 88.039062 126.675781 " clip-rule="nonzero"/></clipPath><clipPath id="8164d28989"><path d="M 304 245 L 318 245 L 318 259 L 304 259 Z M 304 245 " clip-rule="nonzero"/></clipPath><clipPath id="d488fe490e"><path d="M 88.039062 126.675781 L 88.039062 623.324219 C 88.039062 637.824219 99.789062 649.574219 114.289062 649.574219 L 610.9375 649.574219 C 625.433594 649.574219 637.1875 637.824219 637.1875 623.324219 L 637.1875 126.675781 C 637.1875 112.175781 625.433594 100.425781 610.9375 100.425781 L 114.289062 100.425781 C 99.789062 100.425781 88.039062 112.175781 88.039062 126.675781 Z M 88.039062 126.675781 " clip-rule="nonzero"/></clipPath><clipPath id="4294587140"><path d="M 317 258 L 331 258 L 331 272 L 317 272 Z M 317 258 " clip-rule="nonzero"/></clipPath><clipPath id="6c70535350"><path d="M 88.039062 126.675781 L 88.039062 623.324219 C 88.039062 637.824219 99.789062 649.574219 114.289062 649.574219 L 610.9375 649.574219 C 625.433594 649.574219 637.1875 637.824219 637.1875 623.324219 L 637.1875 126.675781 C 637.1875 112.175781 625.433594 100.425781 610.9375 100.425781 L 114.289062 100.425781 C 99.789062 100.425781 88.039062 112.175781 88.039062 126.675781 Z M 88.039062 126.675781 " clip-rule="nonzero"/></clipPath><clipPath id="1c57c9b1a1"><path d="M 330 271 L 344 271 L 344 298 L 330 298 Z M 330 271 " clip-rule="nonzero"/></clipPath><clipPath id="c0c769a159"><path d="M 88.039062 126.675781 L 88.039062 623.324219 C 88.039062 637.824219 99.789062 649.574219 114.289062 649.574219 L 610.9375 649.574219 C 625.433594 649.574219 637.1875 637.824219 637.1875 623.324219 L 637.1875 126.675781 C 637.1875 112.175781 625.433594 100.425781 610.9375 100.425781 L 114.289062 100.425781 C 99.789062 100.425781 88.039062 112.175781 88.039062 126.675781 Z M 88.039062 126.675781 " clip-rule="nonzero"/></clipPath><clipPath id="971518600f"><path d="M 278 297 L 305 297 L 305 311 L 278 311 Z M 278 297 " clip-rule="nonzero"/></clipPath><clipPath id="e17ca77e45"><path d="M 88.039062 126.675781 L 88.039062 623.324219 C 88.039062 637.824219 99.789062 649.574219 114.289062 649.574219 L 610.9375 649.574219 C 625.433594 649.574219 637.1875 637.824219 637.1875 623.324219 L 637.1875 126.675781 C 637.1875 112.175781 625.433594 100.425781 610.9375 100.425781 L 114.289062 100.425781 C 99.789062 100.425781 88.039062 112.175781 88.039062 126.675781 Z M 88.039062 126.675781 " clip-rule="nonzero"/></clipPath><clipPath id="e428fe5f22"><path d="M 252 271 L 266 271 L 266 285 L 252 285 Z M 252 271 " clip-rule="nonzero"/></clipPath><clipPath id="a212ade9ac"><path d="M 88.039062 126.675781 L 88.039062 623.324219 C 88.039062 637.824219 99.789062 649.574219 114.289062 649.574219 L 610.9375 649.574219 C 625.433594 649.574219 637.1875 637.824219 637.1875 623.324219 L 637.1875 126.675781 C 637.1875 112.175781 625.433594 100.425781 610.9375 100.425781 L 114.289062 100.425781 C 99.789062 100.425781 88.039062 112.175781 88.039062 126.675781 Z M 88.039062 126.675781 " clip-rule="nonzero"/></clipPath><clipPath id="0385644eb9"><path d="M 265 284 L 279 284 L 279 298 L 265 298 Z M 265 284 " clip-rule="nonzero"/></clipPath><clipPath id="49be9473d3"><path d="M 88.039062 126.675781 L 88.039062 623.324219 C 88.039062 637.824219 99.789062 649.574219 114.289062 649.574219 L 610.9375 649.574219 C 625.433594 649.574219 637.1875 637.824219 637.1875 623.324219 L 637.1875 126.675781 C 637.1875 112.175781 625.433594 100.425781 610.9375 100.425781 L 114.289062 100.425781 C 99.789062 100.425781 88.039062 112.175781 88.039062 126.675781 Z M 88.039062 126.675781 " clip-rule="nonzero"/></clipPath><clipPath id="6577f4cda8"><path d="M 239 258 L 253 258 L 253 272 L 239 272 Z M 239 258 " clip-rule="nonzero"/></clipPath><clipPath id="db9ed28937"><path d="M 88.039062 126.675781 L 88.039062 623.324219 C 88.039062 637.824219 99.789062 649.574219 114.289062 649.574219 L 610.9375 649.574219 C 625.433594 649.574219 637.1875 637.824219 637.1875 623.324219 L 637.1875 126.675781 C 637.1875 112.175781 625.433594 100.425781 610.9375 100.425781 L 114.289062 100.425781 C 99.789062 100.425781 88.039062 112.175781 88.039062 126.675781 Z M 88.039062 126.675781 " clip-rule="nonzero"/></clipPath><clipPath id="0d0d7b994f"><path d="M 252 245 L 266 245 L 266 259 L 252 259 Z M 252 245 " clip-rule="nonzero"/></clipPath><clipPath id="c1daa6bfdf"><path d="M 88.039062 126.675781 L 88.039062 623.324219 C 88.039062 637.824219 99.789062 649.574219 114.289062 649.574219 L 610.9375 649.574219 C 625.433594 649.574219 637.1875 637.824219 637.1875 623.324219 L 637.1875 126.675781 C 637.1875 112.175781 625.433594 100.425781 610.9375 100.425781 L 114.289062 100.425781 C 99.789062 100.425781 88.039062 112.175781 88.039062 126.675781 Z M 88.039062 126.675781 " clip-rule="nonzero"/></clipPath><clipPath id="73354875e0"><path d="M 265 232 L 305 232 L 305 246 L 265 246 Z M 265 232 " clip-rule="nonzero"/></clipPath><clipPath id="90c682242e"><path d="M 88.039062 126.675781 L 88.039062 623.324219 C 88.039062 637.824219 99.789062 649.574219 114.289062 649.574219 L 610.9375 649.574219 C 625.433594 649.574219 637.1875 637.824219 637.1875 623.324219 L 637.1875 126.675781 C 637.1875 112.175781 625.433594 100.425781 610.9375 100.425781 L 114.289062 100.425781 C 99.789062 100.425781 88.039062 112.175781 88.039062 126.675781 Z M 88.039062 126.675781 " clip-rule="nonzero"/></clipPath><clipPath id="c9e92e7f89"><path d="M 356 323 L 370 323 L 370 376 L 356 376 Z M 356 323 " clip-rule="nonzero"/></clipPath><clipPath id="cf0427ca82"><path d="M 88.039062 126.675781 L 88.039062 623.324219 C 88.039062 637.824219 99.789062 649.574219 114.289062 649.574219 L 610.9375 649.574219 C 625.433594 649.574219 637.1875 637.824219 637.1875 623.324219 L 637.1875 126.675781 C 637.1875 112.175781 625.433594 100.425781 610.9375 100.425781 L 114.289062 100.425781 C 99.789062 100.425781 88.039062 112.175781 88.039062 126.675781 Z M 88.039062 126.675781 " clip-rule="nonzero"/></clipPath><clipPath id="dd3bf02127"><path d="M 369 323 L 383 323 L 383 350 L 369 350 Z M 369 323 " clip-rule="nonzero"/></clipPath><clipPath id="763a832432"><path d="M 88.039062 126.675781 L 88.039062 623.324219 C 88.039062 637.824219 99.789062 649.574219 114.289062 649.574219 L 610.9375 649.574219 C 625.433594 649.574219 637.1875 637.824219 637.1875 623.324219 L 637.1875 126.675781 C 637.1875 112.175781 625.433594 100.425781 610.9375 100.425781 L 114.289062 100.425781 C 99.789062 100.425781 88.039062 112.175781 88.039062 126.675781 Z M 88.039062 126.675781 " clip-rule="nonzero"/></clipPath><clipPath id="dee1391de9"><path d="M 382 336 L 422 336 L 422 350 L 382 350 Z M 382 336 " clip-rule="nonzero"/></clipPath><clipPath id="18c2f2286a"><path d="M 88.039062 126.675781 L 88.039062 623.324219 C 88.039062 637.824219 99.789062 649.574219 114.289062 649.574219 L 610.9375 649.574219 C 625.433594 649.574219 637.1875 637.824219 637.1875 623.324219 L 637.1875 126.675781 C 637.1875 112.175781 625.433594 100.425781 610.9375 100.425781 L 114.289062 100.425781 C 99.789062 100.425781 88.039062 112.175781 88.039062 126.675781 Z M 88.039062 126.675781 " clip-rule="nonzero"/></clipPath><clipPath id="1681cae1d3"><path d="M 421 323 L 448 323 L 448 337 L 421 337 Z M 421 323 " clip-rule="nonzero"/></clipPath><clipPath id="4d74d1b278"><path d="M 88.039062 126.675781 L 88.039062 623.324219 C 88.039062 637.824219 99.789062 649.574219 114.289062 649.574219 L 610.9375 649.574219 C 625.433594 649.574219 637.1875 637.824219 637.1875 623.324219 L 637.1875 126.675781 C 637.1875 112.175781 625.433594 100.425781 610.9375 100.425781 L 114.289062 100.425781 C 99.789062 100.425781 88.039062 112.175781 88.039062 126.675781 Z M 88.039062 126.675781 " clip-rule="nonzero"/></clipPath><clipPath id="d9857ad5a6"><path d="M 473 271 L 487 271 L 487 298 L 473 298 Z M 473 271 " clip-rule="nonzero"/></clipPath><clipPath id="e84aaea45e"><path d="M 88.039062 126.675781 L 88.039062 623.324219 C 88.039062 637.824219 99.789062 649.574219 114.289062 649.574219 L 610.9375 649.574219 C 625.433594 649.574219 637.1875 637.824219 637.1875 623.324219 L 637.1875 126.675781 C 637.1875 112.175781 625.433594 100.425781 610.9375 100.425781 L 114.289062 100.425781 C 99.789062 100.425781 88.039062 112.175781 88.039062 126.675781 Z M 88.039062 126.675781 " clip-rule="nonzero"/></clipPath><clipPath id="d9666fee91"><path d="M 408 271 L 422 271 L 422 298 L 408 298 Z M 408 271 " clip-rule="nonzero"/></clipPath><clipPath id="59504d290e"><path d="M 88.039062 126.675781 L 88.039062 623.324219 C 88.039062 637.824219 99.789062 649.574219 114.289062 649.574219 L 610.9375 649.574219 C 625.433594 649.574219 637.1875 637.824219 637.1875 623.324219 L 637.1875 126.675781 C 637.1875 112.175781 625.433594 100.425781 610.9375 100.425781 L 114.289062 100.425781 C 99.789062 100.425781 88.039062 112.175781 88.039062 126.675781 Z M 88.039062 126.675781 " clip-rule="nonzero"/></clipPath><clipPath id="9c4fb4fc26"><path d="M 382 310 L 396 310 L 396 324 L 382 324 Z M 382 310 " clip-rule="nonzero"/></clipPath><clipPath id="6cac354c45"><path d="M 88.039062 126.675781 L 88.039062 623.324219 C 88.039062 637.824219 99.789062 649.574219 114.289062 649.574219 L 610.9375 649.574219 C 625.433594 649.574219 637.1875 637.824219 637.1875 623.324219 L 637.1875 126.675781 C 637.1875 112.175781 625.433594 100.425781 610.9375 100.425781 L 114.289062 100.425781 C 99.789062 100.425781 88.039062 112.175781 88.039062 126.675781 Z M 88.039062 126.675781 " clip-rule="nonzero"/></clipPath><clipPath id="54f910cc26"><path d="M 395 297 L 409 297 L 409 311 L 395 311 Z M 395 297 " clip-rule="nonzero"/></clipPath><clipPath id="4589f2a6e5"><path d="M 88.039062 126.675781 L 88.039062 623.324219 C 88.039062 637.824219 99.789062 649.574219 114.289062 649.574219 L 610.9375 649.574219 C 625.433594 649.574219 637.1875 637.824219 637.1875 623.324219 L 637.1875 126.675781 C 637.1875 112.175781 625.433594 100.425781 610.9375 100.425781 L 114.289062 100.425781 C 99.789062 100.425781 88.039062 112.175781 88.039062 126.675781 Z M 88.039062 126.675781 " clip-rule="nonzero"/></clipPath><clipPath id="4fd113791f"><path d="M 421 258 L 435 258 L 435 272 L 421 272 Z M 421 258 " clip-rule="nonzero"/></clipPath><clipPath id="2028be010b"><path d="M 88.039062 126.675781 L 88.039062 623.324219 C 88.039062 637.824219 99.789062 649.574219 114.289062 649.574219 L 610.9375 649.574219 C 625.433594 649.574219 637.1875 637.824219 637.1875 623.324219 L 637.1875 126.675781 C 637.1875 112.175781 625.433594 100.425781 610.9375 100.425781 L 114.289062 100.425781 C 99.789062 100.425781 88.039062 112.175781 88.039062 126.675781 Z M 88.039062 126.675781 " clip-rule="nonzero"/></clipPath><clipPath id="eb19f958a1"><path d="M 447 310 L 461 310 L 461 324 L 447 324 Z M 447 310 " clip-rule="nonzero"/></clipPath><clipPath id="a9d686c853"><path d="M 88.039062 126.675781 L 88.039062 623.324219 C 88.039062 637.824219 99.789062 649.574219 114.289062 649.574219 L 610.9375 649.574219 C 625.433594 649.574219 637.1875 637.824219 637.1875 623.324219 L 637.1875 126.675781 C 637.1875 112.175781 625.433594 100.425781 610.9375 100.425781 L 114.289062 100.425781 C 99.789062 100.425781 88.039062 112.175781 88.039062 126.675781 Z M 88.039062 126.675781 " clip-rule="nonzero"/></clipPath><clipPath id="a1ae47cc6f"><path d="M 460 297 L 474 297 L 474 311 L 460 311 Z M 460 297 " clip-rule="nonzero"/></clipPath><clipPath id="9d1fb044af"><path d="M 88.039062 126.675781 L 88.039062 623.324219 C 88.039062 637.824219 99.789062 649.574219 114.289062 649.574219 L 610.9375 649.574219 C 625.433594 649.574219 637.1875 637.824219 637.1875 623.324219 L 637.1875 126.675781 C 637.1875 112.175781 625.433594 100.425781 610.9375 100.425781 L 114.289062 100.425781 C 99.789062 100.425781 88.039062 112.175781 88.039062 126.675781 Z M 88.039062 126.675781 " clip-rule="nonzero"/></clipPath><clipPath id="74f9d72230"><path d="M 434 245 L 461 245 L 461 259 L 434 259 Z M 434 245 " clip-rule="nonzero"/></clipPath><clipPath id="9e06cf06f1"><path d="M 88.039062 126.675781 L 88.039062 623.324219 C 88.039062 637.824219 99.789062 649.574219 114.289062 649.574219 L 610.9375 649.574219 C 625.433594 649.574219 637.1875 637.824219 637.1875 623.324219 L 637.1875 126.675781 C 637.1875 112.175781 625.433594 100.425781 610.9375 100.425781 L 114.289062 100.425781 C 99.789062 100.425781 88.039062 112.175781 88.039062 126.675781 Z M 88.039062 126.675781 " clip-rule="nonzero"/></clipPath><clipPath id="33422b68a8"><path d="M 460 258 L 474 258 L 474 272 L 460 272 Z M 460 258 " clip-rule="nonzero"/></clipPath><clipPath id="6f00ea9b33"><path d="M 88.039062 126.675781 L 88.039062 623.324219 C 88.039062 637.824219 99.789062 649.574219 114.289062 649.574219 L 610.9375 649.574219 C 625.433594 649.574219 637.1875 637.824219 637.1875 623.324219 L 637.1875 126.675781 C 637.1875 112.175781 625.433594 100.425781 610.9375 100.425781 L 114.289062 100.425781 C 99.789062 100.425781 88.039062 112.175781 88.039062 126.675781 Z M 88.039062 126.675781 " clip-rule="nonzero"/></clipPath><clipPath id="2f80c47911"><path d="M 356 375 L 370 375 L 370 402 L 356 402 Z M 356 375 " clip-rule="nonzero"/></clipPath><clipPath id="59e2337cf4"><path d="M 88.039062 126.675781 L 88.039062 623.324219 C 88.039062 637.824219 99.789062 649.574219 114.289062 649.574219 L 610.9375 649.574219 C 625.433594 649.574219 637.1875 637.824219 637.1875 623.324219 L 637.1875 126.675781 C 637.1875 112.175781 625.433594 100.425781 610.9375 100.425781 L 114.289062 100.425781 C 99.789062 100.425781 88.039062 112.175781 88.039062 126.675781 Z M 88.039062 126.675781 " clip-rule="nonzero"/></clipPath><clipPath id="dd8f4441dc"><path d="M 343 375 L 357 375 L 357 402 L 343 402 Z M 343 375 " clip-rule="nonzero"/></clipPath><clipPath id="89ab456c2a"><path d="M 88.039062 126.675781 L 88.039062 623.324219 C 88.039062 637.824219 99.789062 649.574219 114.289062 649.574219 L 610.9375 649.574219 C 625.433594 649.574219 637.1875 637.824219 637.1875 623.324219 L 637.1875 126.675781 C 637.1875 112.175781 625.433594 100.425781 610.9375 100.425781 L 114.289062 100.425781 C 99.789062 100.425781 88.039062 112.175781 88.039062 126.675781 Z M 88.039062 126.675781 " clip-rule="nonzero"/></clipPath><clipPath id="ea3c334f66"><path d="M 291 388 L 344 388 L 344 402 L 291 402 Z M 291 388 " clip-rule="nonzero"/></clipPath><clipPath id="b8eadb9a2e"><path d="M 88.039062 126.675781 L 88.039062 623.324219 C 88.039062 637.824219 99.789062 649.574219 114.289062 649.574219 L 610.9375 649.574219 C 625.433594 649.574219 637.1875 637.824219 637.1875 623.324219 L 637.1875 126.675781 C 637.1875 112.175781 625.433594 100.425781 610.9375 100.425781 L 114.289062 100.425781 C 99.789062 100.425781 88.039062 112.175781 88.039062 126.675781 Z M 88.039062 126.675781 " clip-rule="nonzero"/></clipPath><clipPath id="fe3d603515"><path d="M 252 323 L 292 323 L 292 337 L 252 337 Z M 252 323 " clip-rule="nonzero"/></clipPath><clipPath id="ec9fa59f9b"><path d="M 88.039062 126.675781 L 88.039062 623.324219 C 88.039062 637.824219 99.789062 649.574219 114.289062 649.574219 L 610.9375 649.574219 C 625.433594 649.574219 637.1875 637.824219 637.1875 623.324219 L 637.1875 126.675781 C 637.1875 112.175781 625.433594 100.425781 610.9375 100.425781 L 114.289062 100.425781 C 99.789062 100.425781 88.039062 112.175781 88.039062 126.675781 Z M 88.039062 126.675781 " clip-rule="nonzero"/></clipPath><clipPath id="70eb795668"><path d="M 330 362 L 344 362 L 344 376 L 330 376 Z M 330 362 " clip-rule="nonzero"/></clipPath><clipPath id="7b185958d8"><path d="M 88.039062 126.675781 L 88.039062 623.324219 C 88.039062 637.824219 99.789062 649.574219 114.289062 649.574219 L 610.9375 649.574219 C 625.433594 649.574219 637.1875 637.824219 637.1875 623.324219 L 637.1875 126.675781 C 637.1875 112.175781 625.433594 100.425781 610.9375 100.425781 L 114.289062 100.425781 C 99.789062 100.425781 88.039062 112.175781 88.039062 126.675781 Z M 88.039062 126.675781 " clip-rule="nonzero"/></clipPath><clipPath id="35bc82d09f"><path d="M 317 349 L 331 349 L 331 363 L 317 363 Z M 317 349 " clip-rule="nonzero"/></clipPath><clipPath id="49be02fcdb"><path d="M 88.039062 126.675781 L 88.039062 623.324219 C 88.039062 637.824219 99.789062 649.574219 114.289062 649.574219 L 610.9375 649.574219 C 625.433594 649.574219 637.1875 637.824219 637.1875 623.324219 L 637.1875 126.675781 C 637.1875 112.175781 625.433594 100.425781 610.9375 100.425781 L 114.289062 100.425781 C 99.789062 100.425781 88.039062 112.175781 88.039062 126.675781 Z M 88.039062 126.675781 " clip-rule="nonzero"/></clipPath><clipPath id="ee5b6440f3"><path d="M 291 336 L 318 336 L 318 350 L 291 350 Z M 291 336 " clip-rule="nonzero"/></clipPath><clipPath id="1d3cac7a8c"><path d="M 88.039062 126.675781 L 88.039062 623.324219 C 88.039062 637.824219 99.789062 649.574219 114.289062 649.574219 L 610.9375 649.574219 C 625.433594 649.574219 637.1875 637.824219 637.1875 623.324219 L 637.1875 126.675781 C 637.1875 112.175781 625.433594 100.425781 610.9375 100.425781 L 114.289062 100.425781 C 99.789062 100.425781 88.039062 112.175781 88.039062 126.675781 Z M 88.039062 126.675781 " clip-rule="nonzero"/></clipPath><clipPath id="ad6da7afa7"><path d="M 252 362 L 266 362 L 266 376 L 252 376 Z M 252 362 " clip-rule="nonzero"/></clipPath><clipPath id="37b28e4114"><path d="M 88.039062 126.675781 L 88.039062 623.324219 C 88.039062 637.824219 99.789062 649.574219 114.289062 649.574219 L 610.9375 649.574219 C 625.433594 649.574219 637.1875 637.824219 637.1875 623.324219 L 637.1875 126.675781 C 637.1875 112.175781 625.433594 100.425781 610.9375 100.425781 L 114.289062 100.425781 C 99.789062 100.425781 88.039062 112.175781 88.039062 126.675781 Z M 88.039062 126.675781 " clip-rule="nonzero"/></clipPath><clipPath id="179c8bb505"><path d="M 265 375 L 292 375 L 292 389 L 265 389 Z M 265 375 " clip-rule="nonzero"/></clipPath><clipPath id="ffaed53e6f"><path d="M 88.039062 126.675781 L 88.039062 623.324219 C 88.039062 637.824219 99.789062 649.574219 114.289062 649.574219 L 610.9375 649.574219 C 625.433594 649.574219 637.1875 637.824219 637.1875 623.324219 L 637.1875 126.675781 C 637.1875 112.175781 625.433594 100.425781 610.9375 100.425781 L 114.289062 100.425781 C 99.789062 100.425781 88.039062 112.175781 88.039062 126.675781 Z M 88.039062 126.675781 " clip-rule="nonzero"/></clipPath><clipPath id="d2afb93ecc"><path d="M 239 336 L 253 336 L 253 363 L 239 363 Z M 239 336 " clip-rule="nonzero"/></clipPath><clipPath id="f12f6cf3f2"><path d="M 88.039062 126.675781 L 88.039062 623.324219 C 88.039062 637.824219 99.789062 649.574219 114.289062 649.574219 L 610.9375 649.574219 C 625.433594 649.574219 637.1875 637.824219 637.1875 623.324219 L 637.1875 126.675781 C 637.1875 112.175781 625.433594 100.425781 610.9375 100.425781 L 114.289062 100.425781 C 99.789062 100.425781 88.039062 112.175781 88.039062 126.675781 Z M 88.039062 126.675781 " clip-rule="nonzero"/></clipPath><clipPath id="257cce49e2"><path d="M 356 203 L 370 203 L 370 233 L 356 233 Z M 356 203 " clip-rule="nonzero"/></clipPath><clipPath id="91ab46657e"><path d="M 88.039062 126.675781 L 88.039062 623.324219 C 88.039062 637.824219 99.789062 649.574219 114.289062 649.574219 L 610.9375 649.574219 C 625.433594 649.574219 637.1875 637.824219 637.1875 623.324219 L 637.1875 126.675781 C 637.1875 112.175781 625.433594 100.425781 610.9375 100.425781 L 114.289062 100.425781 C 99.789062 100.425781 88.039062 112.175781 88.039062 126.675781 Z M 88.039062 126.675781 " clip-rule="nonzero"/></clipPath><clipPath id="78ec00d6a8"><path d="M 317 216 L 357 216 L 357 230 L 317 230 Z M 317 216 " clip-rule="nonzero"/></clipPath><clipPath id="3cba992943"><path d="M 88.039062 126.675781 L 88.039062 623.324219 C 88.039062 637.824219 99.789062 649.574219 114.289062 649.574219 L 610.9375 649.574219 C 625.433594 649.574219 637.1875 637.824219 637.1875 623.324219 L 637.1875 126.675781 C 637.1875 112.175781 625.433594 100.425781 610.9375 100.425781 L 114.289062 100.425781 C 99.789062 100.425781 88.039062 112.175781 88.039062 126.675781 Z M 88.039062 126.675781 " clip-rule="nonzero"/></clipPath><clipPath id="59fdd786d7"><path d="M 278 190 L 292 190 L 292 204 L 278 204 Z M 278 190 " clip-rule="nonzero"/></clipPath><clipPath id="d6cc184844"><path d="M 88.039062 126.675781 L 88.039062 623.324219 C 88.039062 637.824219 99.789062 649.574219 114.289062 649.574219 L 610.9375 649.574219 C 625.433594 649.574219 637.1875 637.824219 637.1875 623.324219 L 637.1875 126.675781 C 637.1875 112.175781 625.433594 100.425781 610.9375 100.425781 L 114.289062 100.425781 C 99.789062 100.425781 88.039062 112.175781 88.039062 126.675781 Z M 88.039062 126.675781 " clip-rule="nonzero"/></clipPath><clipPath id="256c1ce7da"><path d="M 291 203 L 318 203 L 318 217 L 291 217 Z M 291 203 " clip-rule="nonzero"/></clipPath><clipPath id="00dfe95e9a"><path d="M 88.039062 126.675781 L 88.039062 623.324219 C 88.039062 637.824219 99.789062 649.574219 114.289062 649.574219 L 610.9375 649.574219 C 625.433594 649.574219 637.1875 637.824219 637.1875 623.324219 L 637.1875 126.675781 C 637.1875 112.175781 625.433594 100.425781 610.9375 100.425781 L 114.289062 100.425781 C 99.789062 100.425781 88.039062 112.175781 88.039062 126.675781 Z M 88.039062 126.675781 " clip-rule="nonzero"/></clipPath><clipPath id="58a702687e"><path d="M 291 177 L 305 177 L 305 191 L 291 191 Z M 291 177 " clip-rule="nonzero"/></clipPath><clipPath id="4295d7479d"><path d="M 88.039062 126.675781 L 88.039062 623.324219 C 88.039062 637.824219 99.789062 649.574219 114.289062 649.574219 L 610.9375 649.574219 C 625.433594 649.574219 637.1875 637.824219 637.1875 623.324219 L 637.1875 126.675781 C 637.1875 112.175781 625.433594 100.425781 610.9375 100.425781 L 114.289062 100.425781 C 99.789062 100.425781 88.039062 112.175781 88.039062 126.675781 Z M 88.039062 126.675781 " clip-rule="nonzero"/></clipPath><clipPath id="2146a011b2"><path d="M 304 164 L 331 164 L 331 178 L 304 178 Z M 304 164 " clip-rule="nonzero"/></clipPath><clipPath id="10ea2d551b"><path d="M 88.039062 126.675781 L 88.039062 623.324219 C 88.039062 637.824219 99.789062 649.574219 114.289062 649.574219 L 610.9375 649.574219 C 625.433594 649.574219 637.1875 637.824219 637.1875 623.324219 L 637.1875 126.675781 C 637.1875 112.175781 625.433594 100.425781 610.9375 100.425781 L 114.289062 100.425781 C 99.789062 100.425781 88.039062 112.175781 88.039062 126.675781 Z M 88.039062 126.675781 " clip-rule="nonzero"/></clipPath><clipPath id="6e0c6b3deb"><path d="M 343 190 L 357 190 L 357 204 L 343 204 Z M 343 190 " clip-rule="nonzero"/></clipPath><clipPath id="17e393e890"><path d="M 88.039062 126.675781 L 88.039062 623.324219 C 88.039062 637.824219 99.789062 649.574219 114.289062 649.574219 L 610.9375 649.574219 C 625.433594 649.574219 637.1875 637.824219 637.1875 623.324219 L 637.1875 126.675781 C 637.1875 112.175781 625.433594 100.425781 610.9375 100.425781 L 114.289062 100.425781 C 99.789062 100.425781 88.039062 112.175781 88.039062 126.675781 Z M 88.039062 126.675781 " clip-rule="nonzero"/></clipPath><clipPath id="9ec7779ddd"><path d="M 330 177 L 344 177 L 344 191 L 330 191 Z M 330 177 " clip-rule="nonzero"/></clipPath><clipPath id="a4cc8981d0"><path d="M 88.039062 126.675781 L 88.039062 623.324219 C 88.039062 637.824219 99.789062 649.574219 114.289062 649.574219 L 610.9375 649.574219 C 625.433594 649.574219 637.1875 637.824219 637.1875 623.324219 L 637.1875 126.675781 C 637.1875 112.175781 625.433594 100.425781 610.9375 100.425781 L 114.289062 100.425781 C 99.789062 100.425781 88.039062 112.175781 88.039062 126.675781 Z M 88.039062 126.675781 " clip-rule="nonzero"/></clipPath><clipPath id="282b6b4d25"><path d="M 356 232 L 370 232 L 370 298 L 356 298 Z M 356 232 " clip-rule="nonzero"/></clipPath><clipPath id="ac64f1906b"><path d="M 88.039062 126.675781 L 88.039062 623.324219 C 88.039062 637.824219 99.789062 649.574219 114.289062 649.574219 L 610.9375 649.574219 C 625.433594 649.574219 637.1875 637.824219 637.1875 623.324219 L 637.1875 126.675781 C 637.1875 112.175781 625.433594 100.425781 610.9375 100.425781 L 114.289062 100.425781 C 99.789062 100.425781 88.039062 112.175781 88.039062 126.675781 Z M 88.039062 126.675781 " clip-rule="nonzero"/></clipPath><clipPath id="a93441369e"><path d="M 369 245 L 409 245 L 409 259 L 369 259 Z M 369 245 " clip-rule="nonzero"/></clipPath><clipPath id="0e3af37687"><path d="M 88.039062 126.675781 L 88.039062 623.324219 C 88.039062 637.824219 99.789062 649.574219 114.289062 649.574219 L 610.9375 649.574219 C 625.433594 649.574219 637.1875 637.824219 637.1875 623.324219 L 637.1875 126.675781 C 637.1875 112.175781 625.433594 100.425781 610.9375 100.425781 L 114.289062 100.425781 C 99.789062 100.425781 88.039062 112.175781 88.039062 126.675781 Z M 88.039062 126.675781 " clip-rule="nonzero"/></clipPath><clipPath id="8f51324242"><path d="M 382 206 L 396 206 L 396 220 L 382 220 Z M 382 206 " clip-rule="nonzero"/></clipPath><clipPath id="c9abb4950e"><path d="M 88.039062 126.675781 L 88.039062 623.324219 C 88.039062 637.824219 99.789062 649.574219 114.289062 649.574219 L 610.9375 649.574219 C 625.433594 649.574219 637.1875 637.824219 637.1875 623.324219 L 637.1875 126.675781 C 637.1875 112.175781 625.433594 100.425781 610.9375 100.425781 L 114.289062 100.425781 C 99.789062 100.425781 88.039062 112.175781 88.039062 126.675781 Z M 88.039062 126.675781 " clip-rule="nonzero"/></clipPath><clipPath id="8a74e72aef"><path d="M 395 193 L 409 193 L 409 207 L 395 207 Z M 395 193 " clip-rule="nonzero"/></clipPath><clipPath id="d171351446"><path d="M 88.039062 126.675781 L 88.039062 623.324219 C 88.039062 637.824219 99.789062 649.574219 114.289062 649.574219 L 610.9375 649.574219 C 625.433594 649.574219 637.1875 637.824219 637.1875 623.324219 L 637.1875 126.675781 C 637.1875 112.175781 625.433594 100.425781 610.9375 100.425781 L 114.289062 100.425781 C 99.789062 100.425781 88.039062 112.175781 88.039062 126.675781 Z M 88.039062 126.675781 " clip-rule="nonzero"/></clipPath><clipPath id="4ade8a2447"><path d="M 369 219 L 383 219 L 383 246 L 369 246 Z M 369 219 " clip-rule="nonzero"/></clipPath><clipPath id="abaab6034d"><path d="M 88.039062 126.675781 L 88.039062 623.324219 C 88.039062 637.824219 99.789062 649.574219 114.289062 649.574219 L 610.9375 649.574219 C 625.433594 649.574219 637.1875 637.824219 637.1875 623.324219 L 637.1875 126.675781 C 637.1875 112.175781 625.433594 100.425781 610.9375 100.425781 L 114.289062 100.425781 C 99.789062 100.425781 88.039062 112.175781 88.039062 126.675781 Z M 88.039062 126.675781 " clip-rule="nonzero"/></clipPath><clipPath id="584315cb3f"><path d="M 408 180 L 435 180 L 435 194 L 408 194 Z M 408 180 " clip-rule="nonzero"/></clipPath><clipPath id="6a3aaa42d5"><path d="M 88.039062 126.675781 L 88.039062 623.324219 C 88.039062 637.824219 99.789062 649.574219 114.289062 649.574219 L 610.9375 649.574219 C 625.433594 649.574219 637.1875 637.824219 637.1875 623.324219 L 637.1875 126.675781 C 637.1875 112.175781 625.433594 100.425781 610.9375 100.425781 L 114.289062 100.425781 C 99.789062 100.425781 88.039062 112.175781 88.039062 126.675781 Z M 88.039062 126.675781 " clip-rule="nonzero"/></clipPath><clipPath id="6704e0404b"><path d="M 408 232 L 422 232 L 422 246 L 408 246 Z M 408 232 " clip-rule="nonzero"/></clipPath><clipPath id="d60c986bb1"><path d="M 88.039062 126.675781 L 88.039062 623.324219 C 88.039062 637.824219 99.789062 649.574219 114.289062 649.574219 L 610.9375 649.574219 C 625.433594 649.574219 637.1875 637.824219 637.1875 623.324219 L 637.1875 126.675781 C 637.1875 112.175781 625.433594 100.425781 610.9375 100.425781 L 114.289062 100.425781 C 99.789062 100.425781 88.039062 112.175781 88.039062 126.675781 Z M 88.039062 126.675781 " clip-rule="nonzero"/></clipPath><clipPath id="84c1d2a252"><path d="M 421 219 L 435 219 L 435 233 L 421 233 Z M 421 219 " clip-rule="nonzero"/></clipPath><clipPath id="d64e0ff3a1"><path d="M 88.039062 126.675781 L 88.039062 623.324219 C 88.039062 637.824219 99.789062 649.574219 114.289062 649.574219 L 610.9375 649.574219 C 625.433594 649.574219 637.1875 637.824219 637.1875 623.324219 L 637.1875 126.675781 C 637.1875 112.175781 625.433594 100.425781 610.9375 100.425781 L 114.289062 100.425781 C 99.789062 100.425781 88.039062 112.175781 88.039062 126.675781 Z M 88.039062 126.675781 " clip-rule="nonzero"/></clipPath><clipPath id="c59d15e245"><path d="M 434 193 L 448 193 L 448 220 L 434 220 Z M 434 193 " clip-rule="nonzero"/></clipPath><clipPath id="6725fba02d"><path d="M 88.039062 126.675781 L 88.039062 623.324219 C 88.039062 637.824219 99.789062 649.574219 114.289062 649.574219 L 610.9375 649.574219 C 625.433594 649.574219 637.1875 637.824219 637.1875 623.324219 L 637.1875 126.675781 C 637.1875 112.175781 625.433594 100.425781 610.9375 100.425781 L 114.289062 100.425781 C 99.789062 100.425781 88.039062 112.175781 88.039062 126.675781 Z M 88.039062 126.675781 " clip-rule="nonzero"/></clipPath><clipPath id="4ed8821fee"><path d="M 252 502 L 263 502 L 263 524 L 252 524 Z M 252 502 " clip-rule="nonzero"/></clipPath><clipPath id="0266b570d2"><path d="M 88.039062 126.675781 L 88.039062 623.324219 C 88.039062 637.824219 99.789062 649.574219 114.289062 649.574219 L 610.9375 649.574219 C 625.433594 649.574219 637.1875 637.824219 637.1875 623.324219 L 637.1875 126.675781 C 637.1875 112.175781 625.433594 100.425781 610.9375 100.425781 L 114.289062 100.425781 C 99.789062 100.425781 88.039062 112.175781 88.039062 126.675781 Z M 88.039062 126.675781 " clip-rule="nonzero"/></clipPath><clipPath id="f8b4857e86"><path d="M 275 502 L 287 502 L 287 524 L 275 524 Z M 275 502 " clip-rule="nonzero"/></clipPath><clipPath id="ca36ecfde9"><path d="M 88.039062 126.675781 L 88.039062 623.324219 C 88.039062 637.824219 99.789062 649.574219 114.289062 649.574219 L 610.9375 649.574219 C 625.433594 649.574219 637.1875 637.824219 637.1875 623.324219 L 637.1875 126.675781 C 637.1875 112.175781 625.433594 100.425781 610.9375 100.425781 L 114.289062 100.425781 C 99.789062 100.425781 88.039062 112.175781 88.039062 126.675781 Z M 88.039062 126.675781 " clip-rule="nonzero"/></clipPath><clipPath id="f669240890"><path d="M 299 502 L 310 502 L 310 524 L 299 524 Z M 299 502 " clip-rule="nonzero"/></clipPath><clipPath id="163909c0d9"><path d="M 88.039062 126.675781 L 88.039062 623.324219 C 88.039062 637.824219 99.789062 649.574219 114.289062 649.574219 L 610.9375 649.574219 C 625.433594 649.574219 637.1875 637.824219 637.1875 623.324219 L 637.1875 126.675781 C 637.1875 112.175781 625.433594 100.425781 610.9375 100.425781 L 114.289062 100.425781 C 99.789062 100.425781 88.039062 112.175781 88.039062 126.675781 Z M 88.039062 126.675781 " clip-rule="nonzero"/></clipPath><clipPath id="a3174e35e4"><path d="M 322 502 L 334 502 L 334 524 L 322 524 Z M 322 502 " clip-rule="nonzero"/></clipPath><clipPath id="cc59b2d881"><path d="M 88.039062 126.675781 L 88.039062 623.324219 C 88.039062 637.824219 99.789062 649.574219 114.289062 649.574219 L 610.9375 649.574219 C 625.433594 649.574219 637.1875 637.824219 637.1875 623.324219 L 637.1875 126.675781 C 637.1875 112.175781 625.433594 100.425781 610.9375 100.425781 L 114.289062 100.425781 C 99.789062 100.425781 88.039062 112.175781 88.039062 126.675781 Z M 88.039062 126.675781 " clip-rule="nonzero"/></clipPath><clipPath id="50f5dc09d4"><path d="M 346 502 L 357 502 L 357 524 L 346 524 Z M 346 502 " clip-rule="nonzero"/></clipPath><clipPath id="b622048a40"><path d="M 88.039062 126.675781 L 88.039062 623.324219 C 88.039062 637.824219 99.789062 649.574219 114.289062 649.574219 L 610.9375 649.574219 C 625.433594 649.574219 637.1875 637.824219 637.1875 623.324219 L 637.1875 126.675781 C 637.1875 112.175781 625.433594 100.425781 610.9375 100.425781 L 114.289062 100.425781 C 99.789062 100.425781 88.039062 112.175781 88.039062 126.675781 Z M 88.039062 126.675781 " clip-rule="nonzero"/></clipPath><clipPath id="0e426046e6"><path d="M 369 502 L 380 502 L 380 524 L 369 524 Z M 369 502 " clip-rule="nonzero"/></clipPath><clipPath id="2ccbb7aa9e"><path d="M 88.039062 126.675781 L 88.039062 623.324219 C 88.039062 637.824219 99.789062 649.574219 114.289062 649.574219 L 610.9375 649.574219 C 625.433594 649.574219 637.1875 637.824219 637.1875 623.324219 L 637.1875 126.675781 C 637.1875 112.175781 625.433594 100.425781 610.9375 100.425781 L 114.289062 100.425781 C 99.789062 100.425781 88.039062 112.175781 88.039062 126.675781 Z M 88.039062 126.675781 " clip-rule="nonzero"/></clipPath><clipPath id="56d2c6ec54"><path d="M 392 502 L 404 502 L 404 524 L 392 524 Z M 392 502 " clip-rule="nonzero"/></clipPath><clipPath id="e3ac5791c3"><path d="M 88.039062 126.675781 L 88.039062 623.324219 C 88.039062 637.824219 99.789062 649.574219 114.289062 649.574219 L 610.9375 649.574219 C 625.433594 649.574219 637.1875 637.824219 637.1875 623.324219 L 637.1875 126.675781 C 637.1875 112.175781 625.433594 100.425781 610.9375 100.425781 L 114.289062 100.425781 C 99.789062 100.425781 88.039062 112.175781 88.039062 126.675781 Z M 88.039062 126.675781 " clip-rule="nonzero"/></clipPath><clipPath id="0fb532bc52"><path d="M 416 502 L 427 502 L 427 524 L 416 524 Z M 416 502 " clip-rule="nonzero"/></clipPath><clipPath id="3fe12d5a0e"><path d="M 88.039062 126.675781 L 88.039062 623.324219 C 88.039062 637.824219 99.789062 649.574219 114.289062 649.574219 L 610.9375 649.574219 C 625.433594 649.574219 637.1875 637.824219 637.1875 623.324219 L 637.1875 126.675781 C 637.1875 112.175781 625.433594 100.425781 610.9375 100.425781 L 114.289062 100.425781 C 99.789062 100.425781 88.039062 112.175781 88.039062 126.675781 Z M 88.039062 126.675781 " clip-rule="nonzero"/></clipPath><clipPath id="0a1e3bbed2"><path d="M 439 502 L 451 502 L 451 524 L 439 524 Z M 439 502 " clip-rule="nonzero"/></clipPath><clipPath id="fb6a020999"><path d="M 88.039062 126.675781 L 88.039062 623.324219 C 88.039062 637.824219 99.789062 649.574219 114.289062 649.574219 L 610.9375 649.574219 C 625.433594 649.574219 637.1875 637.824219 637.1875 623.324219 L 637.1875 126.675781 C 637.1875 112.175781 625.433594 100.425781 610.9375 100.425781 L 114.289062 100.425781 C 99.789062 100.425781 88.039062 112.175781 88.039062 126.675781 Z M 88.039062 126.675781 " clip-rule="nonzero"/></clipPath><clipPath id="4e279d103f"><path d="M 463 502 L 474 502 L 474 524 L 463 524 Z M 463 502 " clip-rule="nonzero"/></clipPath><clipPath id="78f3c88a76"><path d="M 88.039062 126.675781 L 88.039062 623.324219 C 88.039062 637.824219 99.789062 649.574219 114.289062 649.574219 L 610.9375 649.574219 C 625.433594 649.574219 637.1875 637.824219 637.1875 623.324219 L 637.1875 126.675781 C 637.1875 112.175781 625.433594 100.425781 610.9375 100.425781 L 114.289062 100.425781 C 99.789062 100.425781 88.039062 112.175781 88.039062 126.675781 Z M 88.039062 126.675781 " clip-rule="nonzero"/></clipPath><clipPath id="b5fa8d5f2e"><path d="M 237 494 L 488 494 L 488 499 L 237 499 Z M 237 494 " clip-rule="nonzero"/></clipPath><clipPath id="6a8edd95f8"><path d="M 88.039062 126.675781 L 88.039062 623.324219 C 88.039062 637.824219 99.789062 649.574219 114.289062 649.574219 L 610.9375 649.574219 C 625.433594 649.574219 637.1875 637.824219 637.1875 623.324219 L 637.1875 126.675781 C 637.1875 112.175781 625.433594 100.425781 610.9375 100.425781 L 114.289062 100.425781 C 99.789062 100.425781 88.039062 112.175781 88.039062 126.675781 Z M 88.039062 126.675781 " clip-rule="nonzero"/></clipPath></defs><g fill="#2d3c53" fill-opacity="1"><g transform="translate(777.165352, 475.58957)"><g><path d="M 99.796875 -99.796875 L 99.796875 -149.703125 L 124.75 -149.703125 L 124.75 -99.796875 Z M 0 0 L 0 -174.640625 L 99.796875 -174.640625 L 99.796875 -149.703125 L 24.953125 -149.703125 L 24.953125 -99.796875 L 99.796875 -99.796875 L 99.796875 -74.84375 L 24.953125 -74.84375 L 24.953125 0 Z M 0 0 "/></g></g></g><g fill="#2d3c53" fill-opacity="1"><g transform="translate(926.843491, 475.58957)"><g><path d="M 0 0 L 0 -24.953125 L 24.953125 -24.953125 L 24.953125 -149.703125 L 0 -149.703125 L 0 -174.640625 L 74.84375 -174.640625 L 74.84375 -149.703125 L 49.90625 -149.703125 L 49.90625 -24.953125 L 74.84375 -24.953125 L 74.84375 0 Z M 0 0 "/></g></g></g><g fill="#2d3c53" fill-opacity="1"><g transform="translate(1026.628916, 475.58957)"><g><path d="M 0 0 L 0 -49.90625 L 24.953125 -49.90625 L 24.953125 0 Z M 99.796875 0 L 99.796875 -49.90625 L 124.75 -49.90625 L 124.75 0 Z M 24.953125 -49.90625 L 24.953125 -74.84375 L 49.90625 -74.84375 L 49.90625 -49.90625 Z M 74.84375 -49.90625 L 74.84375 -74.84375 L 99.796875 -74.84375 L 99.796875 -49.90625 Z M 49.90625 -74.84375 L 49.90625 -99.796875 L 74.84375 -99.796875 L 74.84375 -74.84375 Z M 24.953125 -99.796875 L 24.953125 -124.75 L 49.90625 -124.75 L 49.90625 -99.796875 Z M 74.84375 -99.796875 L 74.84375 -124.75 L 99.796875 -124.75 L 99.796875 -99.796875 Z M 0 -124.75 L 0 -174.640625 L 24.953125 -174.640625 L 24.953125 -124.75 Z M 99.796875 -124.75 L 99.796875 -174.640625 L 124.75 -174.640625 L 124.75 -124.75 Z M 99.796875 -124.75 "/></g></g></g><g fill="#2d3c53" fill-opacity="1"><g transform="translate(1176.307055, 475.58957)"><g><path d="M 24.953125 0 L 24.953125 -24.953125 L 99.796875 -24.953125 L 99.796875 0 Z M 0 -24.953125 L 0 -149.703125 L 24.953125 -149.703125 L 24.953125 -24.953125 Z M 99.796875 -24.953125 L 99.796875 -149.703125 L 124.75 -149.703125 L 124.75 -24.953125 Z M 24.953125 -149.703125 L 24.953125 -174.640625 L 99.796875 -174.640625 L 99.796875 -149.703125 Z M 24.953125 -149.703125 "/></g></g></g><g fill="#2d3c53" fill-opacity="1"><g transform="translate(1325.985194, 475.58957)"><g><path d="M 49.90625 0 L 49.90625 -149.703125 L 0 -149.703125 L 0 -174.640625 L 124.75 -174.640625 L 124.75 -149.703125 L 74.84375 -149.703125 L 74.84375 0 Z M 49.90625 0 "/></g></g></g><g fill="#2d3c53" fill-opacity="1"><g transform="translate(1475.663334, 475.58957)"><g><path d="M 24.953125 0 L 24.953125 -24.953125 L 99.796875 -24.953125 L 99.796875 0 Z M 99.796875 -24.953125 L 99.796875 -49.90625 L 124.75 -49.90625 L 124.75 -24.953125 Z M 0 -24.953125 L 0 -149.703125 L 24.953125 -149.703125 L 24.953125 -24.953125 Z M 99.796875 -124.75 L 99.796875 -149.703125 L 124.75 -149.703125 L 124.75 -124.75 Z M 24.953125 -149.703125 L 24.953125 -174.640625 L 99.796875 -174.640625 L 99.796875 -149.703125 Z M 24.953125 -149.703125 "/></g></g></g><g fill="#2d3c53" fill-opacity="1"><g transform="translate(1625.341473, 475.58957)"><g><path d="M 0 0 L 0 -174.640625 L 24.953125 -174.640625 L 24.953125 -99.796875 L 99.796875 -99.796875 L 99.796875 -174.640625 L 124.75 -174.640625 L 124.75 0 L 99.796875 0 L 99.796875 -74.84375 L 24.953125 -74.84375 L 24.953125 0 Z M 0 0 "/></g></g></g><g fill="#2d3c53" fill-opacity="1"><g transform="translate(1775.019612, 475.58957)"><g><path d="M 0 0 L 0 -24.953125 L 24.953125 -24.953125 L 24.953125 -149.703125 L 0 -149.703125 L 0 -174.640625 L 74.84375 -174.640625 L 74.84375 -149.703125 L 49.90625 -149.703125 L 49.90625 -24.953125 L 74.84375 -24.953125 L 74.84375 0 Z M 0 0 "/></g></g></g><g clip-path="url(#d765605483)"><g clip-path="url(#08aa44cc00)"><path fill="#ffffff" d="M 33.136719 45.523438 L 691.9375 45.523438 L 691.9375 704.324219 L 33.136719 704.324219 Z M 33.136719 45.523438 " fill-opacity="1" fill-rule="nonzero"/><path fill="#a7c7e7" d="M 33.136719 45.523438 L 691.9375 45.523438 L 691.9375 704.324219 L 33.136719 704.324219 Z M 33.136719 45.523438 " fill-opacity="1" fill-rule="nonzero"/></g></g><g clip-path="url(#740ce88bc4)"><g clip-path="url(#0c18fd2a62)"><path fill="#ec632d" d="M 250.585938 532.886719 L 250.585938 493.832031 L 474.5 493.832031 L 474.5 532.886719 L 461.480469 532.886719 L 461.480469 545.902344 L 448.464844 545.902344 L 448.464844 558.921875 L 435.445312 558.921875 L 435.445312 571.941406 L 289.640625 571.941406 L 289.640625 558.921875 L 276.625 558.921875 L 276.625 545.902344 L 263.605469 545.902344 L 263.605469 532.886719 Z M 250.585938 532.886719 " fill-opacity="1" fill-rule="nonzero"/></g></g><g clip-path="url(#6ccc2f72bc)"><g clip-path="url(#a88a2b0f6e)"><path stroke-linecap="butt" transform="matrix(0.867877, 0, 0, 0.867877, 102.180427, 114.568001)" fill="none" stroke-linejoin="miter" d="M 170.998239 482.002075 L 170.998239 437.00184 L 429.000184 437.00184 L 429.000184 482.002075 L 413.998605 482.002075 L 413.998605 496.999152 L 399.001528 496.999152 L 399.001528 512.000731 L 383.999949 512.000731 L 383.999949 527.002309 L 215.998474 527.002309 L 215.998474 512.000731 L 201.001396 512.000731 L 201.001396 496.999152 L 185.999817 496.999152 L 185.999817 482.002075 Z M 170.998239 482.002075 " stroke="#ec632d" stroke-width="1" stroke-opacity="1" stroke-miterlimit="4"/></g></g><g clip-path="url(#47fd06b7a3)"><g clip-path="url(#7ced1745f1)"><path fill="#4cbf57" d="M 343.449219 449.570312 L 304.394531 449.570312 L 304.394531 436.550781 L 291.378906 436.550781 L 291.378906 423.53125 L 330.433594 423.53125 L 330.433594 436.550781 L 343.449219 436.550781 Z M 343.449219 449.570312 " fill-opacity="1" fill-rule="nonzero"/></g></g><g clip-path="url(#8957fd5270)"><g clip-path="url(#ceac12be05)"><path fill="#4cbf57" d="M 356.46875 203.09375 L 356.46875 216.109375 L 317.414062 216.109375 L 317.414062 203.09375 L 291.378906 203.09375 L 291.378906 190.074219 L 304.394531 190.074219 L 304.394531 177.054688 L 330.433594 177.054688 L 330.433594 190.074219 L 343.449219 190.074219 L 343.449219 203.09375 Z M 356.46875 203.09375 " fill-opacity="1" fill-rule="nonzero"/></g></g><g clip-path="url(#c01857d40e)"><g clip-path="url(#f956291a1c)"><path stroke-linecap="butt" transform="matrix(0.867877, 0, 0, 0.867877, 102.180427, 114.568001)" fill="none" stroke-linejoin="miter" d="M 293.000275 102.002595 L 293.000275 116.999673 L 248.000041 116.999673 L 248.000041 102.002595 L 218.001385 102.002595 L 218.001385 87.001017 L 232.998462 87.001017 L 232.998462 71.999438 L 263.001619 71.999438 L 263.001619 87.001017 L 277.998697 87.001017 L 277.998697 102.002595 Z M 293.000275 102.002595 " stroke="#4cbf57" stroke-width="1" stroke-opacity="1" stroke-miterlimit="4"/></g></g><g clip-path="url(#4a8ceaa01f)"><g clip-path="url(#0d94d9ebcf)"><path fill="#4cbf57" d="M 317.414062 349.761719 L 278.359375 349.761719 L 278.359375 375.796875 L 291.378906 375.796875 L 291.378906 388.816406 L 343.449219 388.816406 L 343.449219 375.796875 L 330.433594 375.796875 L 330.433594 362.78125 L 317.414062 362.78125 Z M 317.414062 349.761719 " fill-opacity="1" fill-rule="nonzero"/></g></g><g clip-path="url(#2e5e1816d8)"><g clip-path="url(#fcf063b61c)"><path fill="#4cbf57" d="M 408.542969 401.835938 L 395.523438 401.835938 L 395.523438 414.851562 L 434.578125 414.851562 L 434.578125 401.835938 L 460.613281 401.835938 L 460.613281 388.816406 L 473.632812 388.816406 L 473.632812 362.78125 L 434.578125 362.78125 L 434.578125 375.796875 L 421.558594 375.796875 L 421.558594 388.816406 L 408.542969 388.816406 Z M 408.542969 401.835938 " fill-opacity="1" fill-rule="nonzero"/></g></g><g clip-path="url(#ac361a19ad)"><g clip-path="url(#6a6eb211b5)"><path fill="#4cbf57" d="M 304.394531 245.617188 L 265.339844 245.617188 L 265.339844 258.636719 L 252.324219 258.636719 L 252.324219 271.65625 L 265.339844 271.65625 L 265.339844 284.671875 L 278.359375 284.671875 L 278.359375 297.691406 L 304.394531 297.691406 L 304.394531 310.707031 L 343.449219 310.707031 L 343.449219 297.691406 L 330.433594 297.691406 L 330.433594 271.65625 L 317.414062 271.65625 L 317.414062 258.636719 L 304.394531 258.636719 Z M 304.394531 245.617188 " fill-opacity="1" fill-rule="nonzero"/></g></g><g clip-path="url(#7271e17503)"><g clip-path="url(#d76d65dbc7)"><path fill="#4cbf57" d="M 460.613281 258.636719 L 434.578125 258.636719 L 434.578125 271.65625 L 421.558594 271.65625 L 421.558594 297.691406 L 408.542969 297.691406 L 408.542969 310.707031 L 395.523438 310.707031 L 395.523438 323.726562 L 382.503906 323.726562 L 382.503906 336.746094 L 421.558594 336.746094 L 421.558594 323.726562 L 447.59375 323.726562 L 447.59375 310.707031 L 460.613281 310.707031 L 460.613281 297.691406 L 473.632812 297.691406 L 473.632812 271.65625 L 460.613281 271.65625 Z M 460.613281 258.636719 " fill-opacity="1" fill-rule="nonzero"/></g></g><g clip-path="url(#67fb53d3ca)"><g clip-path="url(#5fe72bb296)"><path fill="#4cbf57" d="M 291.378906 336.746094 L 252.324219 336.746094 L 252.324219 362.78125 L 265.339844 362.78125 L 265.339844 375.796875 L 291.378906 375.796875 L 291.378906 388.816406 L 343.449219 388.816406 L 343.449219 375.796875 L 330.433594 375.796875 L 330.433594 362.78125 L 317.414062 362.78125 L 317.414062 349.761719 L 291.378906 349.761719 Z M 291.378906 336.746094 " fill-opacity="1" fill-rule="nonzero"/></g></g><g clip-path="url(#51fa90a6c3)"><g clip-path="url(#552c4f3cdf)"><path fill="#4cbf57" d="M 395.523438 219.582031 L 382.503906 219.582031 L 382.503906 245.617188 L 408.542969 245.617188 L 408.542969 232.601562 L 421.558594 232.601562 L 421.558594 219.582031 L 434.578125 219.582031 L 434.578125 206.5625 L 395.523438 206.5625 Z M 395.523438 219.582031 " fill-opacity="1" fill-rule="nonzero"/></g></g><g clip-path="url(#73de53ce7e)"><g clip-path="url(#731797e2ca)"><path fill="#4cbf57" d="M 395.523438 219.582031 L 382.503906 219.582031 L 382.503906 245.617188 L 408.542969 245.617188 L 408.542969 232.601562 L 421.558594 232.601562 L 421.558594 219.582031 L 434.578125 219.582031 L 434.578125 193.542969 L 408.542969 193.542969 L 408.542969 206.5625 L 395.523438 206.5625 Z M 395.523438 219.582031 " fill-opacity="1" fill-rule="nonzero"/></g></g><g clip-path="url(#b58b51b984)"><g clip-path="url(#26c6f8fb7b)"><path fill="#ec632d" d="M 237.570312 480.8125 L 487.519531 480.8125 L 487.519531 493.832031 L 237.570312 493.832031 Z M 237.570312 480.8125 " fill-opacity="1" fill-rule="nonzero"/></g></g><g clip-path="url(#7b006ba30e)"><g clip-path="url(#de9e9c2765)"><path fill="#ec632d" d="M 289.640625 571.941406 L 435.445312 571.941406 L 435.445312 584.957031 L 289.640625 584.957031 Z M 289.640625 571.941406 " fill-opacity="1" fill-rule="nonzero"/></g></g><g clip-path="url(#e0f0005768)"><g clip-path="url(#510065be75)"><path fill="#ec632d" d="M 237.570312 493.832031 L 250.585938 493.832031 L 250.585938 532.886719 L 237.570312 532.886719 Z M 237.570312 493.832031 " fill-opacity="1" fill-rule="nonzero"/></g></g><g clip-path="url(#7bb2c4e74a)"><g clip-path="url(#e823809e60)"><path fill="#ec632d" d="M 474.5 493.832031 L 487.519531 493.832031 L 487.519531 532.886719 L 474.5 532.886719 Z M 474.5 493.832031 " fill-opacity="1" fill-rule="nonzero"/></g></g><g clip-path="url(#987272d305)"><g clip-path="url(#78f53d76e3)"><path fill="#ec632d" d="M 250.585938 532.886719 L 263.605469 532.886719 L 263.605469 545.902344 L 250.585938 545.902344 Z M 250.585938 532.886719 " fill-opacity="1" fill-rule="nonzero"/></g></g><g clip-path="url(#401536a28c)"><g clip-path="url(#0c446dda90)"><path fill="#ec632d" d="M 461.480469 532.886719 L 474.5 532.886719 L 474.5 545.902344 L 461.480469 545.902344 Z M 461.480469 532.886719 " fill-opacity="1" fill-rule="nonzero"/></g></g><g clip-path="url(#bf7aada300)"><g clip-path="url(#276ff6c5f3)"><path fill="#ec632d" d="M 448.464844 545.902344 L 461.480469 545.902344 L 461.480469 558.921875 L 448.464844 558.921875 Z M 448.464844 545.902344 " fill-opacity="1" fill-rule="nonzero"/></g></g><g clip-path="url(#05502f16d5)"><g clip-path="url(#8249e8defb)"><path fill="#ec632d" d="M 435.445312 558.921875 L 448.464844 558.921875 L 448.464844 571.941406 L 435.445312 571.941406 Z M 435.445312 558.921875 " fill-opacity="1" fill-rule="nonzero"/></g></g><g clip-path="url(#445ef9d190)"><g clip-path="url(#6e3858b33b)"><path fill="#ec632d" d="M 263.605469 545.902344 L 276.625 545.902344 L 276.625 558.921875 L 263.605469 558.921875 Z M 263.605469 545.902344 " fill-opacity="1" fill-rule="nonzero"/></g></g><g clip-path="url(#07ccf6d754)"><g clip-path="url(#79c19c1f44)"><path fill="#ec632d" d="M 276.625 558.921875 L 289.640625 558.921875 L 289.640625 571.941406 L 276.625 571.941406 Z M 276.625 558.921875 " fill-opacity="1" fill-rule="nonzero"/></g></g><g clip-path="url(#02095ccfe4)"><g clip-path="url(#7fb21c2314)"><path fill="#288d32" d="M 356.46875 436.550781 L 369.488281 436.550781 L 369.488281 480.8125 L 356.46875 480.8125 Z M 356.46875 436.550781 " fill-opacity="1" fill-rule="nonzero"/></g></g><g clip-path="url(#cc1e69b70d)"><g clip-path="url(#0434a9adda)"><path fill="#288d32" d="M 304.394531 449.570312 L 356.46875 449.570312 L 356.46875 462.585938 L 304.394531 462.585938 Z M 304.394531 449.570312 " fill-opacity="1" fill-rule="nonzero"/></g></g><g clip-path="url(#fdc533475f)"><g clip-path="url(#d115d6327e)"><path fill="#288d32" d="M 278.359375 423.53125 L 291.378906 423.53125 L 291.378906 436.550781 L 278.359375 436.550781 Z M 278.359375 423.53125 " fill-opacity="1" fill-rule="nonzero"/></g></g><g clip-path="url(#ae9ab88d6b)"><g clip-path="url(#49e387022b)"><path fill="#288d32" d="M 291.378906 436.550781 L 304.394531 436.550781 L 304.394531 449.570312 L 291.378906 449.570312 Z M 291.378906 436.550781 " fill-opacity="1" fill-rule="nonzero"/></g></g><g clip-path="url(#5540fb5031)"><g clip-path="url(#88c32c9230)"><path fill="#288d32" d="M 291.378906 410.515625 L 330.433594 410.515625 L 330.433594 423.53125 L 291.378906 423.53125 Z M 291.378906 410.515625 " fill-opacity="1" fill-rule="nonzero"/></g></g><g clip-path="url(#32f0159341)"><g clip-path="url(#7eea34824c)"><path fill="#288d32" d="M 343.449219 436.550781 L 356.46875 436.550781 L 356.46875 449.570312 L 343.449219 449.570312 Z M 343.449219 436.550781 " fill-opacity="1" fill-rule="nonzero"/></g></g><g clip-path="url(#69f11e2cf9)"><g clip-path="url(#451142b8f6)"><path fill="#288d32" d="M 330.433594 423.53125 L 343.449219 423.53125 L 343.449219 436.550781 L 330.433594 436.550781 Z M 330.433594 423.53125 " fill-opacity="1" fill-rule="nonzero"/></g></g><g clip-path="url(#4c84ce28ed)"><g clip-path="url(#5ee13149fd)"><path fill="#288d32" d="M 356.46875 401.835938 L 369.488281 401.835938 L 369.488281 436.550781 L 356.46875 436.550781 Z M 356.46875 401.835938 " fill-opacity="1" fill-rule="nonzero"/></g></g><g clip-path="url(#a4f707257a)"><g clip-path="url(#7ad7ebf9c3)"><path fill="#288d32" d="M 369.488281 414.851562 L 434.578125 414.851562 L 434.578125 427.871094 L 369.488281 427.871094 Z M 369.488281 414.851562 " fill-opacity="1" fill-rule="nonzero"/></g></g><g clip-path="url(#4fe9fa6d14)"><g clip-path="url(#81fc7b3936)"><path fill="#288d32" d="M 434.578125 401.835938 L 460.613281 401.835938 L 460.613281 414.851562 L 434.578125 414.851562 Z M 434.578125 401.835938 " fill-opacity="1" fill-rule="nonzero"/></g></g><g clip-path="url(#63162acb97)"><g clip-path="url(#88f95a27fa)"><path fill="#288d32" d="M 460.613281 388.816406 L 473.632812 388.816406 L 473.632812 401.835938 L 460.613281 401.835938 Z M 460.613281 388.816406 " fill-opacity="1" fill-rule="nonzero"/></g></g><g clip-path="url(#9d117ba9a1)"><g clip-path="url(#6e513ff036)"><path fill="#288d32" d="M 408.542969 375.796875 L 421.558594 375.796875 L 421.558594 388.816406 L 408.542969 388.816406 Z M 408.542969 375.796875 " fill-opacity="1" fill-rule="nonzero"/></g></g><g clip-path="url(#c47f62183c)"><g clip-path="url(#c46a309346)"><path fill="#288d32" d="M 421.558594 362.78125 L 434.578125 362.78125 L 434.578125 375.796875 L 421.558594 375.796875 Z M 421.558594 362.78125 " fill-opacity="1" fill-rule="nonzero"/></g></g><g clip-path="url(#2b857f1d03)"><g clip-path="url(#1d6af1e3b9)"><path fill="#288d32" d="M 369.488281 401.835938 L 395.523438 401.835938 L 395.523438 414.851562 L 369.488281 414.851562 Z M 369.488281 401.835938 " fill-opacity="1" fill-rule="nonzero"/></g></g><g clip-path="url(#50455ab2f3)"><g clip-path="url(#479aae3099)"><path fill="#288d32" d="M 382.503906 388.816406 L 408.542969 388.816406 L 408.542969 401.835938 L 382.503906 401.835938 Z M 382.503906 388.816406 " fill-opacity="1" fill-rule="nonzero"/></g></g><g clip-path="url(#e616331039)"><g clip-path="url(#9ba09514c0)"><path fill="#288d32" d="M 473.632812 362.78125 L 486.648438 362.78125 L 486.648438 388.816406 L 473.632812 388.816406 Z M 473.632812 362.78125 " fill-opacity="1" fill-rule="nonzero"/></g></g><g clip-path="url(#cd0feae0f6)"><g clip-path="url(#0c7b3519de)"><path fill="#288d32" d="M 434.578125 349.761719 L 473.632812 349.761719 L 473.632812 362.78125 L 434.578125 362.78125 Z M 434.578125 349.761719 " fill-opacity="1" fill-rule="nonzero"/></g></g><g clip-path="url(#68139dafb2)"><g clip-path="url(#a2656d96f0)"><path fill="#288d32" d="M 356.46875 297.691406 L 369.488281 297.691406 L 369.488281 323.726562 L 356.46875 323.726562 Z M 356.46875 297.691406 " fill-opacity="1" fill-rule="nonzero"/></g></g><g clip-path="url(#53ae7daef8)"><g clip-path="url(#51543199c4)"><path fill="#288d32" d="M 343.449219 297.691406 L 356.46875 297.691406 L 356.46875 323.726562 L 343.449219 323.726562 Z M 343.449219 297.691406 " fill-opacity="1" fill-rule="nonzero"/></g></g><g clip-path="url(#ce59d957b9)"><g clip-path="url(#ed7d7db0cd)"><path fill="#288d32" d="M 304.394531 310.707031 L 343.449219 310.707031 L 343.449219 323.726562 L 304.394531 323.726562 Z M 304.394531 310.707031 " fill-opacity="1" fill-rule="nonzero"/></g></g><g clip-path="url(#8164d28989)"><g clip-path="url(#d488fe490e)"><path fill="#288d32" d="M 304.394531 245.617188 L 317.414062 245.617188 L 317.414062 258.636719 L 304.394531 258.636719 Z M 304.394531 245.617188 " fill-opacity="1" fill-rule="nonzero"/></g></g><g clip-path="url(#4294587140)"><g clip-path="url(#6c70535350)"><path fill="#288d32" d="M 317.414062 258.636719 L 330.433594 258.636719 L 330.433594 271.65625 L 317.414062 271.65625 Z M 317.414062 258.636719 " fill-opacity="1" fill-rule="nonzero"/></g></g><g clip-path="url(#1c57c9b1a1)"><g clip-path="url(#c0c769a159)"><path fill="#288d32" d="M 330.433594 271.65625 L 343.449219 271.65625 L 343.449219 297.691406 L 330.433594 297.691406 Z M 330.433594 271.65625 " fill-opacity="1" fill-rule="nonzero"/></g></g><g clip-path="url(#971518600f)"><g clip-path="url(#e17ca77e45)"><path fill="#288d32" d="M 278.359375 297.691406 L 304.394531 297.691406 L 304.394531 310.707031 L 278.359375 310.707031 Z M 278.359375 297.691406 " fill-opacity="1" fill-rule="nonzero"/></g></g><g clip-path="url(#e428fe5f22)"><g clip-path="url(#a212ade9ac)"><path fill="#288d32" d="M 252.324219 271.65625 L 265.339844 271.65625 L 265.339844 284.671875 L 252.324219 284.671875 Z M 252.324219 271.65625 " fill-opacity="1" fill-rule="nonzero"/></g></g><g clip-path="url(#0385644eb9)"><g clip-path="url(#49be9473d3)"><path fill="#288d32" d="M 265.339844 284.671875 L 278.359375 284.671875 L 278.359375 297.691406 L 265.339844 297.691406 Z M 265.339844 284.671875 " fill-opacity="1" fill-rule="nonzero"/></g></g><g clip-path="url(#6577f4cda8)"><g clip-path="url(#db9ed28937)"><path fill="#288d32" d="M 239.304688 258.636719 L 252.324219 258.636719 L 252.324219 271.65625 L 239.304688 271.65625 Z M 239.304688 258.636719 " fill-opacity="1" fill-rule="nonzero"/></g></g><g clip-path="url(#0d0d7b994f)"><g clip-path="url(#c1daa6bfdf)"><path fill="#288d32" d="M 252.324219 245.617188 L 265.339844 245.617188 L 265.339844 258.636719 L 252.324219 258.636719 Z M 252.324219 245.617188 " fill-opacity="1" fill-rule="nonzero"/></g></g><g clip-path="url(#73354875e0)"><g clip-path="url(#90c682242e)"><path fill="#288d32" d="M 265.339844 232.601562 L 304.394531 232.601562 L 304.394531 245.617188 L 265.339844 245.617188 Z M 265.339844 232.601562 " fill-opacity="1" fill-rule="nonzero"/></g></g><g clip-path="url(#c9e92e7f89)"><g clip-path="url(#cf0427ca82)"><path fill="#288d32" d="M 356.46875 323.726562 L 369.488281 323.726562 L 369.488281 375.796875 L 356.46875 375.796875 Z M 356.46875 323.726562 " fill-opacity="1" fill-rule="nonzero"/></g></g><g clip-path="url(#dd3bf02127)"><g clip-path="url(#763a832432)"><path fill="#288d32" d="M 369.488281 323.726562 L 382.503906 323.726562 L 382.503906 349.761719 L 369.488281 349.761719 Z M 369.488281 323.726562 " fill-opacity="1" fill-rule="nonzero"/></g></g><g clip-path="url(#dee1391de9)"><g clip-path="url(#18c2f2286a)"><path fill="#288d32" d="M 382.503906 336.746094 L 421.558594 336.746094 L 421.558594 349.761719 L 382.503906 349.761719 Z M 382.503906 336.746094 " fill-opacity="1" fill-rule="nonzero"/></g></g><g clip-path="url(#1681cae1d3)"><g clip-path="url(#4d74d1b278)"><path fill="#288d32" d="M 421.558594 323.726562 L 447.59375 323.726562 L 447.59375 336.746094 L 421.558594 336.746094 Z M 421.558594 323.726562 " fill-opacity="1" fill-rule="nonzero"/></g></g><g clip-path="url(#d9857ad5a6)"><g clip-path="url(#e84aaea45e)"><path fill="#288d32" d="M 473.632812 271.65625 L 486.648438 271.65625 L 486.648438 297.691406 L 473.632812 297.691406 Z M 473.632812 271.65625 " fill-opacity="1" fill-rule="nonzero"/></g></g><g clip-path="url(#d9666fee91)"><g clip-path="url(#59504d290e)"><path fill="#288d32" d="M 408.542969 271.65625 L 421.558594 271.65625 L 421.558594 297.691406 L 408.542969 297.691406 Z M 408.542969 271.65625 " fill-opacity="1" fill-rule="nonzero"/></g></g><g clip-path="url(#9c4fb4fc26)"><g clip-path="url(#6cac354c45)"><path fill="#288d32" d="M 382.503906 310.707031 L 395.523438 310.707031 L 395.523438 323.726562 L 382.503906 323.726562 Z M 382.503906 310.707031 " fill-opacity="1" fill-rule="nonzero"/></g></g><g clip-path="url(#54f910cc26)"><g clip-path="url(#4589f2a6e5)"><path fill="#288d32" d="M 395.523438 297.691406 L 408.542969 297.691406 L 408.542969 310.707031 L 395.523438 310.707031 Z M 395.523438 297.691406 " fill-opacity="1" fill-rule="nonzero"/></g></g><g clip-path="url(#4fd113791f)"><g clip-path="url(#2028be010b)"><path fill="#288d32" d="M 421.558594 258.636719 L 434.578125 258.636719 L 434.578125 271.65625 L 421.558594 271.65625 Z M 421.558594 258.636719 " fill-opacity="1" fill-rule="nonzero"/></g></g><g clip-path="url(#eb19f958a1)"><g clip-path="url(#a9d686c853)"><path fill="#288d32" d="M 447.59375 310.707031 L 460.613281 310.707031 L 460.613281 323.726562 L 447.59375 323.726562 Z M 447.59375 310.707031 " fill-opacity="1" fill-rule="nonzero"/></g></g><g clip-path="url(#a1ae47cc6f)"><g clip-path="url(#9d1fb044af)"><path fill="#288d32" d="M 460.613281 297.691406 L 473.632812 297.691406 L 473.632812 310.707031 L 460.613281 310.707031 Z M 460.613281 297.691406 " fill-opacity="1" fill-rule="nonzero"/></g></g><g clip-path="url(#74f9d72230)"><g clip-path="url(#9e06cf06f1)"><path fill="#288d32" d="M 434.578125 245.617188 L 460.613281 245.617188 L 460.613281 258.636719 L 434.578125 258.636719 Z M 434.578125 245.617188 " fill-opacity="1" fill-rule="nonzero"/></g></g><g clip-path="url(#33422b68a8)"><g clip-path="url(#6f00ea9b33)"><path fill="#288d32" d="M 460.613281 258.636719 L 473.632812 258.636719 L 473.632812 271.65625 L 460.613281 271.65625 Z M 460.613281 258.636719 " fill-opacity="1" fill-rule="nonzero"/></g></g><g clip-path="url(#2f80c47911)"><g clip-path="url(#59e2337cf4)"><path fill="#288d32" d="M 356.46875 375.796875 L 369.488281 375.796875 L 369.488281 401.835938 L 356.46875 401.835938 Z M 356.46875 375.796875 " fill-opacity="1" fill-rule="nonzero"/></g></g><g clip-path="url(#dd8f4441dc)"><g clip-path="url(#89ab456c2a)"><path fill="#288d32" d="M 343.449219 375.796875 L 356.46875 375.796875 L 356.46875 401.835938 L 343.449219 401.835938 Z M 343.449219 375.796875 " fill-opacity="1" fill-rule="nonzero"/></g></g><g clip-path="url(#ea3c334f66)"><g clip-path="url(#b8eadb9a2e)"><path fill="#288d32" d="M 291.378906 388.816406 L 343.449219 388.816406 L 343.449219 401.835938 L 291.378906 401.835938 Z M 291.378906 388.816406 " fill-opacity="1" fill-rule="nonzero"/></g></g><g clip-path="url(#fe3d603515)"><g clip-path="url(#ec9fa59f9b)"><path fill="#288d32" d="M 252.324219 323.726562 L 291.378906 323.726562 L 291.378906 336.746094 L 252.324219 336.746094 Z M 252.324219 323.726562 " fill-opacity="1" fill-rule="nonzero"/></g></g><g clip-path="url(#70eb795668)"><g clip-path="url(#7b185958d8)"><path fill="#288d32" d="M 330.433594 362.78125 L 343.449219 362.78125 L 343.449219 375.796875 L 330.433594 375.796875 Z M 330.433594 362.78125 " fill-opacity="1" fill-rule="nonzero"/></g></g><g clip-path="url(#35bc82d09f)"><g clip-path="url(#49be02fcdb)"><path fill="#288d32" d="M 317.414062 349.761719 L 330.433594 349.761719 L 330.433594 362.78125 L 317.414062 362.78125 Z M 317.414062 349.761719 " fill-opacity="1" fill-rule="nonzero"/></g></g><g clip-path="url(#ee5b6440f3)"><g clip-path="url(#1d3cac7a8c)"><path fill="#288d32" d="M 291.378906 336.746094 L 317.414062 336.746094 L 317.414062 349.761719 L 291.378906 349.761719 Z M 291.378906 336.746094 " fill-opacity="1" fill-rule="nonzero"/></g></g><g clip-path="url(#ad6da7afa7)"><g clip-path="url(#37b28e4114)"><path fill="#288d32" d="M 252.324219 362.78125 L 265.339844 362.78125 L 265.339844 375.796875 L 252.324219 375.796875 Z M 252.324219 362.78125 " fill-opacity="1" fill-rule="nonzero"/></g></g><g clip-path="url(#179c8bb505)"><g clip-path="url(#ffaed53e6f)"><path fill="#288d32" d="M 265.339844 375.796875 L 291.378906 375.796875 L 291.378906 388.816406 L 265.339844 388.816406 Z M 265.339844 375.796875 " fill-opacity="1" fill-rule="nonzero"/></g></g><g clip-path="url(#d2afb93ecc)"><g clip-path="url(#f12f6cf3f2)"><path fill="#288d32" d="M 239.304688 336.746094 L 252.324219 336.746094 L 252.324219 362.78125 L 239.304688 362.78125 Z M 239.304688 336.746094 " fill-opacity="1" fill-rule="nonzero"/></g></g><g clip-path="url(#257cce49e2)"><g clip-path="url(#91ab46657e)"><path fill="#288d32" d="M 356.46875 203.09375 L 369.488281 203.09375 L 369.488281 232.601562 L 356.46875 232.601562 Z M 356.46875 203.09375 " fill-opacity="1" fill-rule="nonzero"/></g></g><g clip-path="url(#78ec00d6a8)"><g clip-path="url(#3cba992943)"><path fill="#288d32" d="M 317.414062 216.109375 L 356.46875 216.109375 L 356.46875 229.128906 L 317.414062 229.128906 Z M 317.414062 216.109375 " fill-opacity="1" fill-rule="nonzero"/></g></g><g clip-path="url(#59fdd786d7)"><g clip-path="url(#d6cc184844)"><path fill="#288d32" d="M 278.359375 190.074219 L 291.378906 190.074219 L 291.378906 203.089844 L 278.359375 203.089844 Z M 278.359375 190.074219 " fill-opacity="1" fill-rule="nonzero"/></g></g><g clip-path="url(#256c1ce7da)"><g clip-path="url(#00dfe95e9a)"><path fill="#288d32" d="M 291.378906 203.09375 L 317.414062 203.09375 L 317.414062 216.109375 L 291.378906 216.109375 Z M 291.378906 203.09375 " fill-opacity="1" fill-rule="nonzero"/></g></g><g clip-path="url(#58a702687e)"><g clip-path="url(#4295d7479d)"><path fill="#288d32" d="M 291.378906 177.054688 L 304.394531 177.054688 L 304.394531 190.074219 L 291.378906 190.074219 Z M 291.378906 177.054688 " fill-opacity="1" fill-rule="nonzero"/></g></g><g clip-path="url(#2146a011b2)"><g clip-path="url(#10ea2d551b)"><path fill="#288d32" d="M 304.394531 164.039062 L 330.433594 164.039062 L 330.433594 177.054688 L 304.394531 177.054688 Z M 304.394531 164.039062 " fill-opacity="1" fill-rule="nonzero"/></g></g><g clip-path="url(#6e0c6b3deb)"><g clip-path="url(#17e393e890)"><path fill="#288d32" d="M 343.449219 190.074219 L 356.46875 190.074219 L 356.46875 203.09375 L 343.449219 203.09375 Z M 343.449219 190.074219 " fill-opacity="1" fill-rule="nonzero"/></g></g><g clip-path="url(#9ec7779ddd)"><g clip-path="url(#a4cc8981d0)"><path fill="#288d32" d="M 330.433594 177.054688 L 343.449219 177.054688 L 343.449219 190.074219 L 330.433594 190.074219 Z M 330.433594 177.054688 " fill-opacity="1" fill-rule="nonzero"/></g></g><g clip-path="url(#282b6b4d25)"><g clip-path="url(#ac64f1906b)"><path fill="#288d32" d="M 356.46875 232.601562 L 369.488281 232.601562 L 369.488281 297.691406 L 356.46875 297.691406 Z M 356.46875 232.601562 " fill-opacity="1" fill-rule="nonzero"/></g></g><g clip-path="url(#a93441369e)"><g clip-path="url(#0e3af37687)"><path fill="#288d32" d="M 369.488281 245.617188 L 408.542969 245.617188 L 408.542969 258.636719 L 369.488281 258.636719 Z M 369.488281 245.617188 " fill-opacity="1" fill-rule="nonzero"/></g></g><g clip-path="url(#8f51324242)"><g clip-path="url(#c9abb4950e)"><path fill="#288d32" d="M 382.503906 206.5625 L 395.523438 206.5625 L 395.523438 219.582031 L 382.503906 219.582031 Z M 382.503906 206.5625 " fill-opacity="1" fill-rule="nonzero"/><path fill="#288d32" d="M 382.503906 206.5625 L 395.523438 206.5625 L 395.523438 219.582031 L 382.503906 219.582031 Z M 382.503906 206.5625 " fill-opacity="1" fill-rule="nonzero"/></g></g><g clip-path="url(#8a74e72aef)"><g clip-path="url(#d171351446)"><path fill="#288d32" d="M 395.523438 193.542969 L 408.542969 193.542969 L 408.542969 206.5625 L 395.523438 206.5625 Z M 395.523438 193.542969 " fill-opacity="1" fill-rule="nonzero"/></g></g><g clip-path="url(#4ade8a2447)"><g clip-path="url(#abaab6034d)"><path fill="#288d32" d="M 369.488281 219.582031 L 382.503906 219.582031 L 382.503906 245.617188 L 369.488281 245.617188 Z M 369.488281 219.582031 " fill-opacity="1" fill-rule="nonzero"/></g></g><g clip-path="url(#584315cb3f)"><g clip-path="url(#6a3aaa42d5)"><path fill="#288d32" d="M 408.542969 180.527344 L 434.578125 180.527344 L 434.578125 193.542969 L 408.542969 193.542969 Z M 408.542969 180.527344 " fill-opacity="1" fill-rule="nonzero"/></g></g><g clip-path="url(#6704e0404b)"><g clip-path="url(#d60c986bb1)"><path fill="#288d32" d="M 408.542969 232.601562 L 421.558594 232.601562 L 421.558594 245.617188 L 408.542969 245.617188 Z M 408.542969 232.601562 " fill-opacity="1" fill-rule="nonzero"/></g></g><g clip-path="url(#84c1d2a252)"><g clip-path="url(#d64e0ff3a1)"><path fill="#288d32" d="M 421.558594 219.582031 L 434.578125 219.582031 L 434.578125 232.601562 L 421.558594 232.601562 Z M 421.558594 219.582031 " fill-opacity="1" fill-rule="nonzero"/></g></g><g clip-path="url(#c59d15e245)"><g clip-path="url(#6725fba02d)"><path fill="#288d32" d="M 434.578125 193.542969 L 447.59375 193.542969 L 447.59375 219.582031 L 434.578125 219.582031 Z M 434.578125 193.542969 " fill-opacity="1" fill-rule="nonzero"/></g></g><g clip-path="url(#4ed8821fee)"><g clip-path="url(#0266b570d2)"><path fill="#f48f59" d="M 252.324219 502.507812 L 262.738281 502.507812 L 262.738281 523.339844 L 252.324219 523.339844 Z M 252.324219 502.507812 " fill-opacity="1" fill-rule="nonzero"/></g></g><g clip-path="url(#f8b4857e86)"><g clip-path="url(#ca36ecfde9)"><path fill="#f48f59" d="M 275.753906 502.507812 L 286.171875 502.507812 L 286.171875 523.339844 L 275.753906 523.339844 Z M 275.753906 502.507812 " fill-opacity="1" fill-rule="nonzero"/></g></g><g clip-path="url(#f669240890)"><g clip-path="url(#163909c0d9)"><path fill="#f48f59" d="M 299.1875 502.507812 L 309.601562 502.507812 L 309.601562 523.339844 L 299.1875 523.339844 Z M 299.1875 502.507812 " fill-opacity="1" fill-rule="nonzero"/></g></g><g clip-path="url(#a3174e35e4)"><g clip-path="url(#cc59b2d881)"><path fill="#f48f59" d="M 322.621094 502.507812 L 333.035156 502.507812 L 333.035156 523.339844 L 322.621094 523.339844 Z M 322.621094 502.507812 " fill-opacity="1" fill-rule="nonzero"/></g></g><g clip-path="url(#50f5dc09d4)"><g clip-path="url(#b622048a40)"><path fill="#f48f59" d="M 346.054688 502.507812 L 356.46875 502.507812 L 356.46875 523.339844 L 346.054688 523.339844 Z M 346.054688 502.507812 " fill-opacity="1" fill-rule="nonzero"/></g></g><g clip-path="url(#0e426046e6)"><g clip-path="url(#2ccbb7aa9e)"><path fill="#f48f59" d="M 369.488281 502.507812 L 379.902344 502.507812 L 379.902344 523.339844 L 369.488281 523.339844 Z M 369.488281 502.507812 " fill-opacity="1" fill-rule="nonzero"/></g></g><g clip-path="url(#56d2c6ec54)"><g clip-path="url(#e3ac5791c3)"><path fill="#f48f59" d="M 392.917969 502.507812 L 403.332031 502.507812 L 403.332031 523.339844 L 392.917969 523.339844 Z M 392.917969 502.507812 " fill-opacity="1" fill-rule="nonzero"/></g></g><g clip-path="url(#0fb532bc52)"><g clip-path="url(#3fe12d5a0e)"><path fill="#f48f59" d="M 416.351562 502.507812 L 426.765625 502.507812 L 426.765625 523.339844 L 416.351562 523.339844 Z M 416.351562 502.507812 " fill-opacity="1" fill-rule="nonzero"/></g></g><g clip-path="url(#0a1e3bbed2)"><g clip-path="url(#fb6a020999)"><path fill="#f48f59" d="M 439.785156 502.507812 L 450.199219 502.507812 L 450.199219 523.339844 L 439.785156 523.339844 Z M 439.785156 502.507812 " fill-opacity="1" fill-rule="nonzero"/></g></g><g clip-path="url(#4e279d103f)"><g clip-path="url(#78f3c88a76)"><path fill="#f48f59" d="M 463.21875 502.507812 L 473.632812 502.507812 L 473.632812 523.339844 L 463.21875 523.339844 Z M 463.21875 502.507812 " fill-opacity="1" fill-rule="nonzero"/></g></g><g clip-path="url(#b5fa8d5f2e)"><g clip-path="url(#6a8edd95f8)"><path fill="#f48f59" d="M 237.570312 494.699219 L 487.519531 494.699219 L 487.519531 498.167969 L 237.570312 498.167969 Z M 237.570312 494.699219 " fill-opacity="1" fill-rule="nonzero"/></g></g></svg>