<?xml version="1.0" standalone="no"?>
<!DOCTYPE svg PUBLIC "-//W3C//DTD SVG 20010904//EN"
 "http://www.w3.org/TR/2001/REC-SVG-20010904/DTD/svg10.dtd">
<svg version="1.0" xmlns="http://www.w3.org/2000/svg"
 width="700.000000pt" height="700.000000pt" viewBox="0 0 700.000000 700.000000"
 preserveAspectRatio="xMidYMid meet">
<metadata>
Created by potrace 1.14, written by Peter Selinger 2001-2017
</metadata>
<g transform="translate(0.000000,700.000000) scale(0.100000,-0.100000)"
fill="#000000" stroke="none">
<path d="M2640 6515 l0 -95 -95 0 -95 0 0 -95 0 -95 -95 0 -95 0 0 -95 0 -94
93 -3 92 -3 3 -97 3 -98 189 0 189 0 3 -92 3 -93 288 -3 287 -2 0 -505 0 -505
-95 0 -95 0 0 190 0 190 -95 0 -94 0 -3 98 -3 97 -97 3 -98 3 0 94 0 95 -95 0
-95 0 0 95 0 95 -290 0 -290 0 0 -95 0 -95 -95 0 -95 0 0 -95 0 -95 -95 0 -96
0 3 -97 3 -98 93 -3 92 -3 0 -94 0 -95 95 0 94 0 3 -92 3 -93 98 -3 97 -3 0
-94 0 -95 190 0 190 0 0 -95 0 -95 385 0 385 0 0 -385 0 -385 -95 0 -95 0 0
95 0 95 -95 0 -95 0 0 95 0 95 -100 0 -100 0 0 95 0 95 -190 0 -190 0 0 100 0
100 -287 -2 -288 -3 -3 -97 -3 -98 -94 0 -95 0 0 -190 0 -190 95 0 95 0 0 -95
0 -95 95 0 95 0 0 -95 0 -95 195 0 195 0 0 -100 0 -100 480 0 480 0 0 -255 0
-255 -95 0 -95 0 0 95 0 95 -95 0 -94 0 -3 98 -3 97 -287 3 -288 2 0 -100 0
-100 -95 0 -95 0 0 -95 0 -95 95 0 95 0 0 -95 0 -95 95 0 95 0 0 -95 0 -95
385 0 385 0 0 -135 0 -135 -874 0 -875 0 -3 -112 c-2 -62 -2 -235 0 -385 l3
-272 92 -3 92 -3 3 -92 3 -92 92 -3 92 -3 3 -92 3 -92 92 -3 92 -3 3 -97 3
-98 94 0 95 0 0 -95 0 -95 1078 2 1077 3 3 93 3 92 94 0 94 0 3 98 3 97 92 3
92 3 3 92 3 92 92 3 92 3 3 92 3 92 93 3 92 3 0 384 0 385 -870 0 -870 0 0
390 0 390 480 0 480 0 0 95 0 95 195 0 195 0 0 95 0 95 95 0 95 0 0 100 0 100
95 0 95 0 0 190 0 190 -95 0 -95 0 0 95 0 95 -290 0 -290 0 0 -95 0 -95 -95 0
-95 0 0 -95 0 -95 -95 0 -95 0 0 -95 0 -95 -192 -2 -193 -3 -3 -97 -3 -98 -94
0 -95 0 0 385 0 385 385 0 385 0 0 95 0 95 190 0 190 0 0 100 0 100 100 0 100
0 0 95 0 95 95 0 95 0 0 95 0 95 95 0 95 0 0 190 0 190 -95 0 -95 0 0 100 0
100 -95 0 -95 0 0 95 0 95 -195 0 -195 0 0 -95 0 -95 -95 0 -95 0 0 -100 0
-100 -95 0 -95 0 0 -190 0 -190 -95 0 -95 0 0 -95 0 -94 -97 -3 -98 -3 -3 -92
-3 -93 -94 0 -95 0 0 480 0 480 290 0 290 0 0 95 0 95 95 0 95 0 0 95 0 95 95
0 95 0 0 95 0 95 95 0 95 0 0 195 0 195 -95 0 -95 0 0 95 0 95 -190 0 -190 0
0 -95 0 -95 -95 0 -95 0 0 -95 0 -95 -100 0 -100 0 0 -100 0 -100 -95 0 -95 0
0 125 0 125 -95 0 -95 0 0 95 0 95 -95 0 -95 0 0 95 0 95 -95 0 -95 0 0 95 0
95 -195 0 -195 0 0 -95z"/>
</g>
</svg>
