<?xml version="1.0" encoding="UTF-8"?>
<svg id="Layer_1" xmlns="http://www.w3.org/2000/svg" viewBox="0 0 600 600">
  <defs>
    <style>
      .cls-1 {
        fill: #6d8495;
      }

      .cls-2 {
        fill: #c3a16e;
      }

      .cls-3 {
        fill: #a47226;
      }

      .cls-4 {
        fill: #d4b588;
      }

      .cls-5 {
        fill: #000002;
      }

      .cls-6 {
        fill: #9d7e4c;
      }

      .cls-7 {
        fill: #f5e0c0;
      }

      .cls-8 {
        fill: #55210f;
      }

      .cls-9 {
        fill: #a68c65;
      }

      .cls-10 {
        fill: #3c41f9;
      }

      .cls-11 {
        fill: #faf696;
      }

      .cls-12 {
        fill: #7c5a25;
      }

      .cls-13 {
        fill: #595959;
      }

      .cls-14 {
        fill: #c1862c;
      }

      .cls-15 {
        fill: #8a6120;
      }

      .cls-16 {
        fill: #e7c89d;
      }

      .cls-17 {
        fill: #2d3c53;
      }
    </style>
  </defs>
  <g id="Frame">
    <polygon class="cls-1" points="585.01 59.94 585.01 540.06 570.03 540.06 570.03 555.04 555.04 555.04 555.04 570.03 540.06 570.03 540.06 585.01 59.94 585.01 59.94 570.03 44.96 570.03 44.96 555.04 29.97 555.04 29.97 540.06 14.99 540.06 14.99 59.94 29.97 59.94 29.97 44.96 44.96 44.96 44.96 29.97 59.94 29.97 59.94 14.99 540.06 14.99 540.06 29.97 555.04 29.97 555.04 44.96 570.03 44.96 570.03 59.94 585.01 59.94"/>
    <g>
      <polygon class="cls-17" points="59.94 14.99 59.94 29.97 44.96 29.97 44.96 44.96 29.97 44.96 29.97 59.94 14.99 59.94 14.99 29.97 29.97 29.97 29.97 14.99 59.94 14.99"/>
      <rect class="cls-17" x="59.94" width="480.12" height="14.99"/>
      <polygon class="cls-17" points="59.94 570.03 59.94 585.01 29.97 585.01 29.97 570.03 14.99 570.03 14.99 540.06 29.97 540.06 29.97 555.04 44.96 555.04 44.96 570.03 59.94 570.03"/>
      <rect class="cls-17" y="59.94" width="14.99" height="480.12"/>
      <polygon class="cls-17" points="585.01 540.06 585.01 570.03 570.03 570.03 570.03 585.01 540.06 585.01 540.06 570.03 555.04 570.03 555.04 555.04 570.03 555.04 570.03 540.06 585.01 540.06"/>
      <rect class="cls-17" x="59.94" y="585.01" width="480.12" height="14.99"/>
      <polygon class="cls-17" points="585.01 29.97 585.01 59.94 570.03 59.94 570.03 44.96 555.04 44.96 555.04 29.97 540.06 29.97 540.06 14.99 570.03 14.99 570.03 29.97 585.01 29.97"/>
      <rect class="cls-17" x="585.01" y="59.94" width="14.99" height="480.12"/>
    </g>
  </g>
  <g>
    <polygon class="cls-7" points="355.29 426 355.29 452 323.69 452 323.69 484 228.91 484 228.91 426 355.29 426"/>
    <g>
      <polygon class="cls-16" points="386.88 426 386.88 484 323.69 484 323.69 452 355.29 452 355.29 426 386.88 426"/>
      <rect class="cls-16" x="197.32" y="426" width="31.59" height="58"/>
    </g>
    <rect class="cls-14" x="228.91" y="484" width="63.19" height="32"/>
    <g>
      <rect class="cls-3" x="292.1" y="484" width="94.78" height="32"/>
      <rect class="cls-3" x="197.32" y="484" width="31.59" height="32"/>
    </g>
    <g>
      <polygon class="cls-15" points="386.88 484 386.88 516 418.48 516 418.48 500 434.27 500 434.27 484 386.88 484"/>
      <polygon class="cls-15" points="197.32 484 197.32 516 181.52 516 181.52 500 165.72 500 165.72 484 197.32 484"/>
    </g>
    <g>
      <rect class="cls-4" x="386.88" y="426" width="31.59" height="58"/>
      <rect class="cls-4" x="149.93" y="426" width="47.39" height="58"/>
      <rect class="cls-4" x="197.32" y="516" width="189.56" height="16"/>
    </g>
    <g>
      <rect class="cls-2" x="418.48" y="426" width="31.59" height="58"/>
      <rect class="cls-2" x="386.88" y="516" width="15.8" height="16"/>
      <rect class="cls-2" x="213.12" y="532" width="173.77" height="16"/>
    </g>
  </g>
  <g>
    <rect class="cls-5" x="434" y="346" width="16" height="16"/>
    <rect class="cls-5" x="434" y="330" width="16" height="16"/>
    <rect class="cls-5" x="434" y="314" width="16" height="16"/>
    <rect class="cls-11" x="434" y="250" width="16" height="16"/>
    <rect class="cls-11" x="434" y="234" width="16" height="16"/>
    <rect class="cls-5" x="418" y="346" width="16" height="16"/>
    <rect class="cls-10" x="418" y="330" width="16" height="16"/>
    <rect class="cls-5" x="418" y="314" width="16" height="16"/>
    <rect class="cls-11" x="418" y="282" width="16" height="16"/>
    <rect class="cls-11" x="418" y="266" width="16" height="16"/>
    <rect class="cls-11" x="418" y="250" width="16" height="16"/>
    <rect class="cls-11" x="418" y="234" width="16" height="16"/>
    <rect class="cls-11" x="418" y="218" width="16" height="16"/>
    <rect class="cls-5" x="402" y="346" width="16" height="16"/>
    <rect class="cls-13" x="402" y="330" width="16" height="16"/>
    <rect class="cls-5" x="402" y="314" width="16" height="16"/>
    <rect class="cls-11" x="402" y="298" width="16" height="16"/>
    <rect class="cls-11" x="402" y="266" width="16" height="16"/>
    <rect class="cls-11" x="402" y="250" width="16" height="16"/>
    <rect class="cls-11" x="402" y="234" width="16" height="16"/>
    <rect class="cls-11" x="402" y="218" width="16" height="16"/>
    <rect class="cls-11" x="402" y="202" width="16" height="16"/>
    <rect class="cls-11" x="402" y="186" width="16" height="16"/>
    <rect class="cls-11" x="402" y="154" width="16" height="16"/>
    <rect class="cls-11" x="402" y="138" width="16" height="16"/>
    <rect class="cls-5" x="386" y="346" width="16" height="16"/>
    <rect class="cls-13" x="386" y="330" width="16" height="16"/>
    <rect class="cls-5" x="386" y="314" width="16" height="16"/>
    <rect class="cls-11" x="386" y="282" width="16" height="16"/>
    <rect class="cls-11" x="386" y="266" width="16" height="16"/>
    <rect class="cls-11" x="386" y="250" width="16" height="16"/>
    <rect class="cls-11" x="386" y="234" width="16" height="16"/>
    <rect class="cls-11" x="386" y="218" width="16" height="16"/>
    <rect class="cls-11" x="386" y="202" width="16" height="16"/>
    <rect class="cls-11" x="386" y="186" width="16" height="16"/>
    <rect class="cls-11" x="386" y="170" width="16" height="16"/>
    <rect class="cls-11" x="386" y="154" width="16" height="16"/>
    <rect class="cls-11" x="386" y="138" width="16" height="16"/>
    <rect class="cls-5" x="370" y="346" width="16" height="16"/>
    <rect class="cls-13" x="370" y="330" width="16" height="16"/>
    <rect class="cls-5" x="370" y="314" width="16" height="16"/>
    <rect class="cls-11" x="370" y="298" width="16" height="16"/>
    <rect class="cls-5" x="370" y="282" width="16" height="16"/>
    <rect class="cls-5" x="370" y="266" width="16" height="16"/>
    <rect class="cls-5" x="370" y="250" width="16" height="16"/>
    <rect class="cls-5" x="370" y="234" width="16" height="16"/>
    <rect class="cls-5" x="370" y="218" width="16" height="16"/>
    <rect class="cls-11" x="370" y="202" width="16" height="16"/>
    <rect class="cls-11" x="370" y="186" width="16" height="16"/>
    <rect class="cls-11" x="370" y="170" width="16" height="16"/>
    <rect class="cls-11" x="370" y="154" width="16" height="16"/>
    <rect class="cls-11" x="370" y="138" width="16" height="16"/>
    <rect class="cls-11" x="370" y="122" width="16" height="16"/>
    <rect class="cls-5" x="354" y="346" width="16" height="16"/>
    <rect class="cls-13" x="354" y="330" width="16" height="16"/>
    <rect class="cls-5" x="354" y="314" width="16" height="16"/>
    <rect class="cls-9" x="354" y="298" width="16" height="16"/>
    <rect class="cls-9" x="354" y="282" width="16" height="16"/>
    <rect class="cls-9" x="354" y="266" width="16" height="16"/>
    <rect class="cls-6" x="354" y="250" width="16" height="16"/>
    <rect class="cls-12" x="354" y="234" width="16" height="16"/>
    <rect class="cls-9" x="354" y="218" width="16" height="16"/>
    <rect class="cls-9" x="354" y="202" width="16" height="16"/>
    <rect class="cls-11" x="354" y="186" width="16" height="16"/>
    <rect class="cls-11" x="354" y="170" width="16" height="16"/>
    <rect class="cls-11" x="354" y="154" width="16" height="16"/>
    <rect class="cls-11" x="354" y="122" width="16" height="16"/>
    <rect class="cls-5" x="338" y="362" width="16" height="16"/>
    <rect class="cls-5" x="338" y="346" width="16" height="16"/>
    <rect class="cls-13" x="338" y="330" width="16" height="16"/>
    <rect class="cls-5" x="338" y="314" width="16" height="16"/>
    <rect class="cls-9" x="338" y="298" width="16" height="16"/>
    <rect class="cls-9" x="338" y="282" width="16" height="16"/>
    <rect class="cls-9" x="338" y="266" width="16" height="16"/>
    <rect class="cls-5" x="338" y="250" width="16" height="16"/>
    <rect class="cls-12" x="338" y="234" width="16" height="16"/>
    <rect class="cls-9" x="338" y="218" width="16" height="16"/>
    <rect class="cls-11" x="338" y="202" width="16" height="16"/>
    <rect class="cls-11" x="338" y="186" width="16" height="16"/>
    <rect class="cls-11" x="338" y="170" width="16" height="16"/>
    <rect class="cls-11" x="338" y="154" width="16" height="16"/>
    <rect class="cls-11" x="338" y="138" width="16" height="16"/>
    <rect class="cls-11" x="338" y="122" width="16" height="16"/>
    <rect class="cls-5" x="322" y="378" width="16" height="16"/>
    <rect class="cls-9" x="322" y="362" width="16" height="16"/>
    <rect class="cls-9" x="322" y="346" width="16" height="16"/>
    <rect class="cls-5" x="322" y="330" width="16" height="16"/>
    <rect class="cls-9" x="322" y="314" width="16" height="16"/>
    <rect class="cls-9" x="322" y="298" width="16" height="16"/>
    <rect class="cls-9" x="322" y="282" width="16" height="16"/>
    <rect class="cls-9" x="322" y="266" width="16" height="16"/>
    <rect class="cls-9" x="322" y="250" width="16" height="16"/>
    <rect class="cls-9" x="322" y="234" width="16" height="16"/>
    <rect class="cls-11" x="322" y="218" width="16" height="16"/>
    <rect class="cls-9" x="322" y="202" width="16" height="16"/>
    <rect class="cls-9" x="322" y="186" width="16" height="16"/>
    <rect class="cls-11" x="322" y="170" width="16" height="16"/>
    <rect class="cls-11" x="322" y="154" width="16" height="16"/>
    <rect class="cls-11" x="322" y="138" width="16" height="16"/>
    <rect class="cls-11" x="322" y="122" width="16" height="16"/>
    <rect class="cls-5" x="306" y="410" width="16" height="16"/>
    <rect class="cls-5" x="306" y="394" width="16" height="16"/>
    <rect class="cls-5" x="306" y="378" width="16" height="16"/>
    <rect class="cls-9" x="306" y="362" width="16" height="16"/>
    <rect class="cls-9" x="306" y="346" width="16" height="16"/>
    <rect class="cls-8" x="306" y="330" width="16" height="16"/>
    <rect class="cls-9" x="306" y="314" width="16" height="16"/>
    <rect class="cls-5" x="306" y="298" width="16" height="16"/>
    <rect class="cls-9" x="306" y="282" width="16" height="16"/>
    <rect class="cls-9" x="306" y="266" width="16" height="16"/>
    <rect class="cls-9" x="306" y="250" width="16" height="16"/>
    <rect class="cls-9" x="306" y="234" width="16" height="16"/>
    <rect class="cls-9" x="306" y="218" width="16" height="16"/>
    <rect class="cls-9" x="306" y="202" width="16" height="16"/>
    <rect class="cls-9" x="306" y="186" width="16" height="16"/>
    <rect class="cls-11" x="306" y="170" width="16" height="16"/>
    <rect class="cls-11" x="306" y="154" width="16" height="16"/>
    <rect class="cls-11" x="306" y="138" width="16" height="16"/>
    <rect class="cls-11" x="306" y="122" width="16" height="16"/>
    <rect class="cls-9" x="290" y="410" width="16" height="16"/>
    <rect class="cls-9" x="290" y="394" width="16" height="16"/>
    <rect class="cls-5" x="290" y="378" width="16" height="16"/>
    <rect class="cls-9" x="290" y="362" width="16" height="16"/>
    <rect class="cls-9" x="290" y="346" width="16" height="16"/>
    <rect class="cls-8" x="290" y="330" width="16" height="16"/>
    <rect class="cls-9" x="290" y="314" width="16" height="16"/>
    <rect class="cls-9" x="290" y="298" width="16" height="16"/>
    <rect class="cls-9" x="290" y="282" width="16" height="16"/>
    <rect class="cls-9" x="290" y="266" width="16" height="16"/>
    <rect class="cls-9" x="290" y="250" width="16" height="16"/>
    <rect class="cls-9" x="290" y="234" width="16" height="16"/>
    <rect class="cls-9" x="290" y="218" width="16" height="16"/>
    <rect class="cls-9" x="290" y="202" width="16" height="16"/>
    <rect class="cls-9" x="290" y="186" width="16" height="16"/>
    <rect class="cls-11" x="290" y="170" width="16" height="16"/>
    <rect class="cls-11" x="290" y="154" width="16" height="16"/>
    <rect class="cls-11" x="290" y="138" width="16" height="16"/>
    <rect class="cls-9" x="274" y="410" width="16" height="16"/>
    <rect class="cls-9" x="274" y="394" width="16" height="16"/>
    <rect class="cls-9" x="274" y="378" width="16" height="16"/>
    <rect class="cls-5" x="274" y="362" width="16" height="16"/>
    <rect class="cls-9" x="274" y="346" width="16" height="16"/>
    <rect class="cls-9" x="274" y="330" width="16" height="16"/>
    <rect class="cls-9" x="274" y="314" width="16" height="16"/>
    <rect class="cls-9" x="274" y="298" width="16" height="16"/>
    <rect class="cls-9" x="274" y="282" width="16" height="16"/>
    <rect class="cls-9" x="274" y="266" width="16" height="16"/>
    <rect class="cls-6" x="274" y="250" width="16" height="16"/>
    <rect class="cls-12" x="274" y="234" width="16" height="16"/>
    <rect class="cls-9" x="274" y="218" width="16" height="16"/>
    <rect class="cls-11" x="274" y="202" width="16" height="16"/>
    <rect class="cls-9" x="274" y="186" width="16" height="16"/>
    <rect class="cls-11" x="274" y="170" width="16" height="16"/>
    <rect class="cls-11" x="274" y="154" width="16" height="16"/>
    <rect class="cls-11" x="274" y="138" width="16" height="16"/>
    <rect class="cls-11" x="274" y="122" width="16" height="16"/>
    <rect class="cls-9" x="258" y="410" width="16" height="16"/>
    <rect class="cls-9" x="258" y="394" width="16" height="16"/>
    <rect class="cls-9" x="258" y="378" width="16" height="16"/>
    <rect class="cls-9" x="258" y="362" width="16" height="16"/>
    <rect class="cls-9" x="258" y="346" width="16" height="16"/>
    <rect class="cls-9" x="258" y="330" width="16" height="16"/>
    <rect class="cls-9" x="258" y="314" width="16" height="16"/>
    <rect class="cls-9" x="258" y="298" width="16" height="16"/>
    <rect class="cls-9" x="258" y="282" width="16" height="16"/>
    <rect class="cls-9" x="258" y="266" width="16" height="16"/>
    <rect class="cls-5" x="258" y="250" width="16" height="16"/>
    <rect class="cls-12" x="258" y="234" width="16" height="16"/>
    <rect class="cls-9" x="258" y="218" width="16" height="16"/>
    <rect class="cls-9" x="258" y="202" width="16" height="16"/>
    <rect class="cls-11" x="258" y="186" width="16" height="16"/>
    <rect class="cls-11" x="258" y="170" width="16" height="16"/>
    <rect class="cls-11" x="258" y="154" width="16" height="16"/>
    <rect class="cls-11" x="258" y="138" width="16" height="16"/>
    <rect class="cls-11" x="258" y="122" width="16" height="16"/>
    <rect class="cls-5" x="242" y="410" width="16" height="16"/>
    <rect class="cls-5" x="242" y="394" width="16" height="16"/>
    <rect class="cls-5" x="242" y="378" width="16" height="16"/>
    <rect class="cls-5" x="242" y="362" width="16" height="16"/>
    <rect class="cls-5" x="242" y="346" width="16" height="16"/>
    <rect class="cls-9" x="242" y="330" width="16" height="16"/>
    <rect class="cls-9" x="242" y="314" width="16" height="16"/>
    <rect class="cls-9" x="242" y="298" width="16" height="16"/>
    <rect class="cls-9" x="242" y="282" width="16" height="16"/>
    <rect class="cls-9" x="242" y="266" width="16" height="16"/>
    <rect class="cls-9" x="242" y="250" width="16" height="16"/>
    <rect class="cls-9" x="242" y="234" width="16" height="16"/>
    <rect class="cls-9" x="242" y="218" width="16" height="16"/>
    <rect class="cls-9" x="242" y="202" width="16" height="16"/>
    <rect class="cls-11" x="242" y="186" width="16" height="16"/>
    <rect class="cls-11" x="242" y="170" width="16" height="16"/>
    <rect class="cls-11" x="242" y="154" width="16" height="16"/>
    <rect class="cls-11" x="242" y="122" width="16" height="16"/>
    <rect class="cls-5" x="226" y="330" width="16" height="16"/>
    <rect class="cls-5" x="226" y="314" width="16" height="16"/>
    <rect class="cls-11" x="226" y="298" width="16" height="16"/>
    <rect class="cls-5" x="226" y="282" width="16" height="16"/>
    <rect class="cls-5" x="226" y="266" width="16" height="16"/>
    <rect class="cls-9" x="226" y="250" width="16" height="16"/>
    <rect class="cls-9" x="226" y="234" width="16" height="16"/>
    <rect class="cls-11" x="226" y="218" width="16" height="16"/>
    <rect class="cls-11" x="226" y="202" width="16" height="16"/>
    <rect class="cls-11" x="226" y="186" width="16" height="16"/>
    <rect class="cls-11" x="226" y="170" width="16" height="16"/>
    <rect class="cls-11" x="226" y="154" width="16" height="16"/>
    <rect class="cls-11" x="226" y="138" width="16" height="16"/>
    <rect class="cls-11" x="210" y="314" width="16" height="16"/>
    <rect class="cls-11" x="210" y="298" width="16" height="16"/>
    <rect class="cls-11" x="210" y="282" width="16" height="16"/>
    <rect class="cls-5" x="210" y="266" width="16" height="16"/>
    <rect class="cls-5" x="210" y="250" width="16" height="16"/>
    <rect class="cls-5" x="210" y="234" width="16" height="16"/>
    <rect class="cls-11" x="210" y="218" width="16" height="16"/>
    <rect class="cls-11" x="210" y="202" width="16" height="16"/>
    <rect class="cls-11" x="210" y="186" width="16" height="16"/>
    <rect class="cls-11" x="210" y="170" width="16" height="16"/>
    <rect class="cls-11" x="194" y="330" width="16" height="16"/>
    <rect class="cls-11" x="194" y="314" width="16" height="16"/>
    <rect class="cls-11" x="194" y="282" width="16" height="16"/>
    <rect class="cls-11" x="194" y="266" width="16" height="16"/>
    <rect class="cls-11" x="194" y="250" width="16" height="16"/>
    <rect class="cls-11" x="194" y="234" width="16" height="16"/>
    <rect class="cls-11" x="194" y="218" width="16" height="16"/>
    <rect class="cls-11" x="194" y="202" width="16" height="16"/>
    <rect class="cls-11" x="194" y="186" width="16" height="16"/>
    <rect class="cls-11" x="194" y="170" width="16" height="16"/>
    <rect class="cls-11" x="194" y="154" width="16" height="16"/>
    <rect class="cls-11" x="178" y="314" width="16" height="16"/>
    <rect class="cls-11" x="178" y="298" width="16" height="16"/>
    <rect class="cls-11" x="178" y="282" width="16" height="16"/>
    <rect class="cls-11" x="178" y="266" width="16" height="16"/>
    <rect class="cls-11" x="178" y="250" width="16" height="16"/>
    <rect class="cls-11" x="178" y="234" width="16" height="16"/>
    <rect class="cls-11" x="178" y="218" width="16" height="16"/>
    <rect class="cls-11" x="178" y="202" width="16" height="16"/>
    <rect class="cls-11" x="178" y="170" width="16" height="16"/>
  </g>
</svg>